<svg xmlns="http://www.w3.org/2000/svg" xmlns:xlink="http://www.w3.org/1999/xlink" width="172" height="66" viewBox="0 0 172 66">
    <defs>
        <path id="zxtw29mh0a" d="M0 65.836L171.317 65.836 171.317 0 0 0z"/>
        <path id="uoep7bi5uc" d="M0 65.836L171.317 65.836 171.317 0 0 0z"/>
        <path id="cqdshnd95e" d="M0 65.836L171.317 65.836 171.317 0 0 0z"/>
        <path id="wjjheq57kg" d="M0 65.836L171.317 65.836 171.317 0 0 0z"/>
        <path id="whui74m1qi" d="M0 65.836L171.317 65.836 171.317 0 0 0z"/>
        <path id="9wft92nq8k" d="M0 65.836L171.317 65.836 171.317 0 0 0z"/>
        <path id="vn278u7imm" d="M0 65.836L171.317 65.836 171.317 0 0 0z"/>
    </defs>
    <g fill="none" fill-rule="evenodd">
        <g>
            <path fill="#EB5E58" fill-rule="nonzero" d="M122.115 17.556L122.115 34.31 132.655 34.31 132.655 31.447 125.828 31.447 125.828 27.259 131.923 27.259 131.923 24.277 125.828 24.277 125.828 20.467 132.655 20.467 132.655 17.556zM16.653 17.532L16.653 21.221 21.252 21.221 21.252 34.311 24.965 34.311 24.965 21.221 29.658 21.221 29.658 17.532zM37.688 17.556l-7.82 16.754h3.592L34.52 32h7.837l1.084 2.31h3.615L39.17 17.556h-1.482zm.767 5.995l2.517 5.467h-5.068l2.55-5.467zM65.92 17.556L58.548 24.276 51.15 17.556 49.698 17.556 49.698 34.31 53.435 34.31 53.435 24.671 58.545 29.289 63.636 24.639 63.636 34.31 67.372 34.31 67.372 17.556zM72.244 34.31V17.557h6.987c3.331 0 6.042 2.71 6.042 6.042 0 3.32-2.669 6.02-5.948 6.02h-3.368v4.693h-3.713zm3.713-7.769h3.344c1.69 0 3.014-1.313 3.014-2.99 0-1.661-1.352-3.013-3.014-3.013h-3.344v6.003zM88.692 17.556L88.692 34.31 99.232 34.31 99.232 31.447 92.405 31.447 92.405 27.259 98.5 27.259 98.5 24.277 92.405 24.277 92.405 20.467 99.232 20.467 99.232 17.556zM114.249 34.31l-2.736-4.692h-3.612v4.693h-3.713V17.556h6.987c3.331 0 6.042 2.71 6.042 6.042 0 1.663-.71 3.275-1.95 4.423l-.275.254 3.529 6.036h-4.272zm-6.348-7.769h3.344c1.69 0 3.014-1.313 3.014-2.99 0-1.661-1.352-3.013-3.014-3.013h-3.344v6.003z" transform="translate(0.000000, -0.000000)"/>
            <path fill="#39A7D7" fill-rule="nonzero" d="M88.692 41.08L88.692 49.374 90.637 49.374 90.637 45.876 93.662 45.876 93.662 44.401 90.637 44.401 90.637 42.496 94.065 42.496 94.065 41.08z" transform="translate(0.000000, -0.000000)"/>
            <g transform="translate(0.000000, -0.000000)">
                <mask id="fmslirha3b" fill="#fff">
                    <use xlink:href="#zxtw29mh0a"/>
                </mask>
                <path fill="#39A7D7" fill-rule="nonzero" d="M97.909 49.374L99.854 49.374 99.854 41.08 97.909 41.08z" mask="url(#fmslirha3b)"/>
            </g>
            <g transform="translate(0.000000, -0.000000)">
                <mask id="sn9b4a5ltd" fill="#fff">
                    <use xlink:href="#uoep7bi5uc"/>
                </mask>
                <path fill="#39A7D7" fill-rule="nonzero" d="M109.938 41.08L109.938 45.568 105.106 41.08 104.477 41.08 104.477 49.374 106.422 49.374 106.422 44.87 111.241 49.374 111.883 49.374 111.883 41.08z" mask="url(#sn9b4a5ltd)"/>
            </g>
            <g transform="translate(0.000000, -0.000000)">
                <mask id="35eoodtnnf" fill="#fff">
                    <use xlink:href="#cqdshnd95e"/>
                </mask>
                <path fill="#39A7D7" fill-rule="nonzero" d="M116.489 41.08L116.489 49.374 121.825 49.374 121.825 47.536 118.435 47.536 118.435 41.08z" mask="url(#35eoodtnnf)"/>
            </g>
            <g transform="translate(0.000000, -0.000000)">
                <mask id="zulmpxk5dh" fill="#fff">
                    <use xlink:href="#wjjheq57kg"/>
                </mask>
                <path fill="#39A7D7" fill-rule="nonzero" d="M128.389 41.08l-4.153 8.294h1.878l.566-1.147h4.194l.578 1.147h1.892l-4.19-8.294h-.765zm.397 2.932l1.36 2.752h-2.739l1.379-2.752z" mask="url(#zulmpxk5dh)"/>
            </g>
            <g transform="translate(0.000000, -0.000000)">
                <mask id="ju8lqmr5cj" fill="#fff">
                    <use xlink:href="#whui74m1qi"/>
                </mask>
                <path fill="#39A7D7" fill-rule="nonzero" d="M147.115 49.374V41.08h3.226c2.45 0 4.444 1.86 4.444 4.147 0 2.286-1.994 4.147-4.444 4.147h-3.226zm1.933-1.791h1.306c1.378 0 2.498-1.041 2.498-2.321 0-1.273-1.12-2.31-2.498-2.31h-1.306v4.63z" mask="url(#ju8lqmr5cj)"/>
            </g>
            <g transform="translate(0.000000, -0.000000)">
                <mask id="lp1m500ygl" fill="#fff">
                    <use xlink:href="#9wft92nq8k"/>
                </mask>
                <path fill="#39A7D7" fill-rule="nonzero" d="M141.007 41.165L141.007 45.54 136.62 41.165 135.999 41.165 135.999 49.374 137.842 49.374 137.842 44.985 142.218 49.374 142.85 49.374 142.85 41.165z" mask="url(#lp1m500ygl)"/>
            </g>
            <g transform="translate(0.000000, -0.000000)">
                <mask id="ukl7ag1fun" fill="#fff">
                    <use xlink:href="#vn278u7imm"/>
                </mask>
                <path fill="#39A7D7" fill-rule="nonzero" d="M136.826 32c0-1.462 1.118-2.566 2.598-2.566 1.48 0 2.6 1.104 2.6 2.566 0 1.462-1.12 2.631-2.6 2.631s-2.598-1.17-2.598-2.63" mask="url(#ukl7ag1fun)"/>
            </g>
        </g>
    </g>
</svg>
