<svg xmlns="http://www.w3.org/2000/svg" width="172" height="66" viewBox="0 0 172 66">
    <g fill="none" fill-rule="evenodd">
        <g>
            <path fill="currentColor" fill-rule="nonzero" d="M122.105 17.579L122.105 34.339 132.648 34.339 132.648 31.475 125.82 31.475 125.82 27.286 131.917 27.286 131.917 24.303 125.82 24.303 125.82 20.491 132.648 20.491 132.648 17.579zM16.612 17.556L16.612 21.246 21.213 21.246 21.213 34.339 24.927 34.339 24.927 21.246 29.621 21.246 29.621 17.556zM37.653 17.58l-7.822 16.759h3.593l1.061-2.312h7.839l1.085 2.312h3.616l-7.89-16.76h-1.482zm.767 5.996l2.519 5.469h-5.07l2.551-5.469zM65.894 17.579L58.519 24.301 51.119 17.579 49.666 17.579 49.666 34.339 53.405 34.339 53.405 24.696 58.517 29.316 63.609 24.665 63.609 34.339 67.347 34.339 67.347 17.579z" transform="translate(0.000000, 0.164334)"/>
            <g>
                <path fill="currentColor" fill-rule="nonzero" d="M72.22 34.34V17.58h6.988c3.333 0 6.044 2.71 6.044 6.043 0 3.32-2.669 6.022-5.95 6.022h-3.368v4.694H72.22zm3.714-7.773h3.345c1.69 0 3.014-1.314 3.014-2.99 0-1.662-1.352-3.015-3.014-3.015h-3.345v6.005zM88.672 17.579L88.672 34.339 99.215 34.339 99.215 31.475 92.386 31.475 92.386 27.286 98.483 27.286 98.483 24.303 92.386 24.303 92.386 20.491 99.215 20.491 99.215 17.579zM114.236 34.34l-2.736-4.695h-3.613v4.694h-3.713V17.58h6.988c3.332 0 6.044 2.712 6.044 6.044 0 1.664-.71 3.276-1.95 4.424l-.275.254 3.53 6.038h-4.275zm-6.349-7.773h3.345c1.69 0 3.014-1.314 3.014-2.99 0-1.662-1.352-3.015-3.014-3.015h-3.345v6.005zM88.672 41.111L88.672 49.406 90.618 49.406 90.618 45.908 93.644 45.908 93.644 44.433 90.618 44.433 90.618 42.527 94.047 42.527 94.047 41.111z" transform="translate(0.000000, 0.164334)"/>
                <g transform="translate(0.000000, 0.164334)">
                    <path fill="currentColor" fill-rule="nonzero" d="M97.893 49.407L99.838 49.407 99.838 41.111 97.893 41.111z"/>
                </g>
                <g transform="translate(0.000000, 0.164334)">
                    <path fill="currentColor" fill-rule="nonzero" d="M109.924 41.111L109.924 45.6 105.091 41.111 104.462 41.111 104.462 49.406 106.408 49.406 106.408 44.902 111.228 49.406 111.87 49.406 111.87 41.111z"/>
                </g>
                <g transform="translate(0.000000, 0.164334)">
                    <path fill="currentColor" fill-rule="nonzero" d="M116.478 41.111L116.478 49.406 121.815 49.406 121.815 47.568 118.424 47.568 118.424 41.111z"/>
                </g>
                <g transform="translate(0.000000, 0.164334)">
                    <path fill="currentColor" fill-rule="nonzero" d="M128.381 41.11l-4.154 8.296h1.879l.565-1.146h4.196l.577 1.146h1.894l-4.192-8.295h-.765zm.397 2.934l1.36 2.752H127.4l1.379-2.752z"/>
                </g>
                <g transform="translate(0.000000, 0.164334)">
                    <path fill="currentColor" fill-rule="nonzero" d="M147.113 49.406v-8.295h3.227c2.45 0 4.445 1.86 4.445 4.147s-1.995 4.148-4.445 4.148h-3.227zm1.933-1.79h1.306c1.378 0 2.499-1.042 2.499-2.322 0-1.274-1.12-2.31-2.499-2.31h-1.306v4.631z"/>
                </g>
                <g transform="translate(0.000000, 0.164334)">
                    <path fill="currentColor" fill-rule="nonzero" d="M141.003 41.195L141.003 45.572 136.615 41.195 135.993 41.195 135.993 49.406 137.837 49.406 137.837 45.016 142.215 49.406 142.847 49.406 142.847 41.195z"/>
                </g>
                <g transform="translate(0.000000, 0.164334)">
                    <path fill="currentColor" fill-rule="nonzero" d="M136.82 32.028c0-1.463 1.12-2.567 2.6-2.567s2.6 1.104 2.6 2.567c0 1.462-1.12 2.632-2.6 2.632s-2.6-1.17-2.6-2.632"/>
                </g>
            </g>
        </g>
    </g>
</svg>
