<svg xmlns="http://www.w3.org/2000/svg" width="187" height="67" viewBox="0 0 187 67">
    <defs>
        <filter id="dueukdwlqa" color-interpolation-filters="auto">
            <feColorMatrix in="SourceGraphic" values="0 0 0 0 1.000000 0 0 0 0 1.000000 0 0 0 0 1.000000 0 0 0 1.000000 0"/>
        </filter>
    </defs>
    <g fill="none" fill-rule="evenodd">
        <g>
            <g>
                <path fill="#FFFFFE" fill-rule="nonzero" d="M28.815 0c-4.134 1.343-2.009 5.62-5.646 6.189-3.368.526-4.073 2.055-4.548 3.576l-.096.314c-.409 1.357-.767 2.652-2.83 3.155-3.176.774-3.63 2.343-4.109 3.815l-.103.314c-.39 1.143-.915 2.187-2.908 2.703-3.49.901-3.761 2.39-4.174 3.922l-.071.256c-.061.213-.128.426-.211.639C2.97 27.829 1.923 25.988.415 27.99.156 27.038 0 26.08 0 25.136V0zM10.086 7.985H5.669v10.073h4.417V7.984zm1.438-5.365H2.541v4.829h11.355v-2.77l-2.372-2.06zM30.136 22.196c.729.322 1.715-.183 1.66.11-.183.888-2.122.915-2.235 1.098-.056.28 1.363.21 1.419.406.14.535-2.333.592-2.487.564-.182.21.97.196.9.448-.21.477-1.828-.042-1.898.015-.238.21.76.448.466.674-.09.136-1.174.12-1.801-.497l-.017 3.522c.043.013.076.019.123.034.095.019.183.046.272.073l-.268-.128c-.157-.071 1.4-.455 1.43-1.071.01-.204-.101-.314-.214-.376-.354.286-.767.02-.624-.223.188-.318.358-.094.358-.27 0-.146-.561.268-.61-.048-.046-.302.286-.552.488-.624.916-.33 1.867.21 1.964 1.185.086.855-.341 1.72-1.404 2.125l-.274-.15c1.224.912 1.415 2.706-.481 3.308-.017.006-.351-.15-.653-.29-.03.029-.005-.367-.005-.367 1.148-.456 1.124-1.453-.108-1.934l-.011 2.33c2.214.67 1.953 1.856 1.84 2.314-.152.616-.715 1.007-1.301 1.217-.138-.007-.18-.12-.441-.26-.026-.014-.007-.33-.007-.33-.005-.042.62-.445.62-.868 0-.28-.031-.621-.717-.928l-.01 2.218c.13.063.27.135.438.227.933.503 1.154 1.657.586 1.853-.425.089-.326-.555-1.03-.946l-.004.955c0 .68-1.283.92-1.222 0l-.006-1.508c-.081-.037-.17-.08-.274-.13 0 0-.831-.24-1.306-.721-1.027-1.038-.348-2.316.407-2.656.28.2.569.203 1.02.423-.951.688-.952 1.342.149 1.944l-.008-2.021c-3.274-.844-2.56-3.107-1.35-3.72.017-.007.683.237 1.209.357.034-.026 0 .438 0 .438-.473.092-.764.473-.794.682-.048.458.075.712.93 1.055l-.008-2.228c-2.848-.555-3.056-1.288-3.056-2.244 0-.73.798-1.727 1.915-1.354.203.067.649.36.56.672-.097.34-.658-.122-.716.054-.037.112.458.057.57.214.163.23-.421.599-.884.233-.114.062-.217.27-.138.458.182.43.624.502 1.745.758l-.013-3.27c-.624.634-1.727.65-1.816.513-.295-.226.704-.464.465-.674-.07-.057-1.687.462-1.897-.015-.071-.252 1.082-.238.9-.448-.155.028-2.627-.03-2.487-.564.056-.196 1.474-.126 1.418-.406-.111-.183-2.051-.21-2.234-1.097-.056-.294.93.21 1.66-.111.31-.112-2.052-.463-1.856-1.362.14-.281.379.364 4.16.238 0 0 .224.812.575 1.208.23.326 1.019.774 1.027-.457-.467-.257-.783-.753-.783-1.323 0-.834.675-1.51 1.508-1.51.834 0 1.51.676 1.51 1.51 0 .556-.302 1.043-.75 1.304 0 1.254.795.804 1.027.476.35-.396.575-1.208.575-1.208 3.78.126 4.019-.52 4.159-.238.197.899-2.166 1.25-1.855 1.362zm-6.56 15.357c-.736-.197-.263-1.422.483-1.732.386.155.396.078.709.226.01.004.025.682.025.682-.976.119-.5.872-1.217.824zM36.242 0V6.02c-5.808.468-3.368 5.923-7.896 6.569-5.865.836-2.084 5.894-8.123 7.044-4.515.86-1.654 5.322-6.327 6.543-4.811 1.259-3.325 3.017-4.816 5.177-1.44 2.084-3.705 1.284-4.89 3.185-.357-.342-.735-.772-1.11-1.256 3.344 4.397 9.015 7.775 15.057 7.775 10.047 0 18.137-8.227 18.137-15.922V0h-.032z" transform="translate(12.342100, 12.971600)"/>
                <path stroke="#FFFFFE" stroke-width=".5" d="M9.08 31.353c1.49-2.16.005-3.918 4.816-5.177 4.673-1.221 1.812-5.683 6.328-6.543 6.038-1.15 2.257-6.209 8.122-7.045 4.528-.645 2.088-6.1 7.897-6.568V0h-7.428c-4.133 1.343-2.01 5.621-5.646 6.189-6.618 1.035-2.952 5.942-7.474 7.045-5.898 1.438-2.41 5.613-7.12 6.832-4.167 1.077-3.745 2.992-4.456 4.816-1.15 2.947-2.195 1.106-3.704 3.109.036.133.068.267.108.4.094.309.187.616.305.923.02.057.043.113.065.17.173.432.368.862.586 1.286.033.063.07.124.104.187.174.328.365.652.565.973.088.14.175.28.265.416.21.317.434.628.668.936.374.484.752.914 1.11 1.256 1.184-1.901 3.45-1.101 4.889-3.185z" transform="translate(12.342100, 12.971600)"/>
                <path fill="#FFFFFE" fill-rule="nonzero" d="M53.979 12.426L53.979 26.01 50.187 26.01 50.187 12.426 45.075 12.426 45.075 9.209 59.116 9.209 59.116 12.426zM66.627 13.17l-2.664 6.527h5.304l-2.64-6.528zm-3.912 9.576l-1.32 3.264h-3.913l7.296-16.8h3.913l7.177 16.8h-4.057l-1.32-3.264h-7.776zM92.452 26.01L92.452 14.682 87.987 24.306 85.515 24.306 81.051 14.682 81.051 26.01 77.618 26.01 77.618 9.209 81.867 9.209 86.764 19.482 91.636 9.209 95.86 9.209 95.86 26.01zM103.37 18.041h3.145c2.111 0 3.312-.96 3.312-2.88 0-1.871-1.2-2.806-3.312-2.806h-3.145v5.686zm3.336-8.832c4.273 0 6.721 2.113 6.721 5.834 0 3.91-2.448 6.168-6.72 6.168h-3.337v4.8h-3.79V9.209h7.126zM119.642 12.354L119.642 16.001 127.755 16.001 127.755 19.146 119.642 19.146 119.642 22.867 128.908 22.867 128.908 26.01 115.851 26.01 115.851 9.209 128.644 9.209 128.644 12.354zM139.179 18.041c2.088 0 3.287-.96 3.287-2.88 0-1.871-1.2-2.806-3.287-2.806h-3.504v5.686h3.504zm.359 3.17h-3.863v4.8h-3.793V9.209h7.297c4.393 0 6.889 2.113 6.889 5.834 0 2.59-1.104 4.463-3.145 5.424l3.576 5.544h-4.297l-2.664-4.8zM153.05 12.354L153.05 16.001 161.163 16.001 161.163 19.146 153.05 19.146 153.05 22.867 162.316 22.867 162.316 26.01 149.259 26.01 149.259 9.209 162.052 9.209 162.052 12.354z" transform="translate(12.342100, 12.971600)"/>
            </g>
        </g>
    </g>
</svg>
