<svg width="260" height="260" viewBox="0 0 260 260" xmlns="http://www.w3.org/2000/svg">
    <g fill="none" fill-rule="evenodd">
        <path d="M28.25 14.95h203.5v141c0 43.2-45.4 89.3-101.7 89.3-53.4 0-101.7-46.9-101.7-89.3v-141h-.1z" fill="#d9d9d9"/>
        <path d="M28.25 14.95h203.5v141c0 43.2-45.4 89.3-101.7 89.3-53.4 0-101.7-46.9-101.7-89.3v-141h-.1z" stroke="#d9d9d9" stroke-width=".25"/>
        <path d="M30.55 171.95c8.5-11.3 14.3-.9 20.8-17.5 4-10.2 1.6-21 25-27 26.4-6.8 6.9-30.3 39.9-38.3 25.4-6.2 4.8-33.7 41.9-39.5 20.6-3.2 8.2-27.6 32.2-34.9l41.1.2v33.8c-32.6 2.6-18.9 33.2-44.3 36.8-32.9 4.7-11.7 33.1-45.6 39.5-25.3 4.8-9.3 29.8-35.5 36.7-27 7.1-18.7 16.9-27 29-8.1 11.7-20.8 7.2-27.4 17.9-8.1-7.9-18.2-23.6-21.1-36.7M183.65 168.85c-.2 3.5-9 5.6-8.1 6 4.8 2.2 7.8 3.9 7.8 3.9 6-2.3 8.4-7.2 7.9-12-.5-5.5-5.9-8.5-11.1-6.7-1.1.4-3 1.8-2.8 3.5.3 1.8 3.4-.6 3.4.3 0 1-1-.3-2 1.5-.8 1.4 1.5 2.9 3.5 1.3.8.5 1.5 1.1 1.4 2.2" fill="#f2f2f2"/>
        <path d="M183.65 168.85c-.2 3.5-9 5.6-8.1 6 4.8 2.2 7.8 3.9 7.8 3.9 6-2.3 8.4-7.2 7.9-12-.5-5.5-5.9-8.5-11.1-6.7-1.1.4-3 1.8-2.8 3.5.3 1.8 3.4-.6 3.4.3 0 1-1-.3-2 1.5-.8 1.4 1.5 2.9 3.5 1.3.8.5 1.5 1.1 1.4 2.2z" stroke="#d9d9d9" stroke-width=".22"/>
        <path d="M167.15 217.45c.1 0 .1 3.8.1 3.8-5.5.7-2.8 4.9-6.9 4.7-4.2-1.1-1.5-8 2.7-9.8 2.3.9 2.3.5 4.1 1.3" fill="#f2f2f2"/>
        <path d="M167.15 217.45c.1 0 .1 3.8.1 3.8-5.5.7-2.8 4.9-6.9 4.7-4.2-1.1-1.5-8 2.7-9.8 2.3.9 2.3.5 4.1 1.3z" stroke="#d9d9d9" stroke-width=".22"/>
        <path d="M158.05 133.05s1.3 4.6 3.2 6.8c1.3 1.8 5.7 4.3 5.8-2.6a8.42 8.42 0 0 1-4.4-7.4c0-4.7 3.8-8.5 8.5-8.5s8.5 3.8 8.5 8.5c0 3.1-1.7 5.9-4.2 7.3 0 7 4.5 4.5 5.8 2.7 2-2.2 3.2-6.8 3.2-6.8 21.2.7 22.5-2.9 23.3-1.3 1.1 5-12.1 7-10.4 7.6 4.1 1.8 9.6-1 9.3.6-1 5-11.9 5.1-12.5 6.1-.3 1.6 7.6 1.2 8 2.3.8 3-13.1 3.3-13.9 3.2-1 1.2 5.4 1.1 5 2.5-1.2 2.7-10.3-.2-10.6.1-1.3 1.2 4.3 2.5 2.6 3.8-.5.8-6.6.7-10.1-2.8l-.3 70.4c0 3.8-7.2 5.2-6.9 0l-.3-70.5c-3.5 3.6-9.7 3.6-10.2 2.9-1.6-1.3 3.9-2.6 2.6-3.8-.4-.3-9.5 2.6-10.6-.1-.4-1.4 6.1-1.3 5-2.5-.9.2-14.7-.2-13.9-3.2.3-1.1 8.3-.7 8-2.3-.6-1-11.5-1.2-12.5-6.1-.3-1.6 5.2 1.2 9.3-.6 1.7-.6-11.5-2.6-10.4-7.6.5-1.6 1.9 2.1 23.1 1.3" fill="#f2f2f2"/>
        <path d="M175.55 175.25c11.9 2.3 17 17.2 3.6 21.4-.1 0-2-.8-3.7-1.6-.2.2 0-2.1 0-2.1 7.6-3 6.2-10.3-4.8-12-19.1-3.2-20.4-7.5-20.4-13.2 0-4.1 4.5-9.7 10.8-7.6 1.1.4 3.7 2 3.2 3.8-.5 1.9-3.7-.7-4 .3-.2.6 2.6.3 3.2 1.2.9 1.3-2.4 3.4-5 1.3-.6.3-1.2 1.5-.8 2.6 1.1 2.5 3.7 2.8 10.5 4.4 2.4.5 3.9.4 7.4 1.5" fill="#f2f2f2"/>
        <path d="M175.55 175.25c11.9 2.3 17 17.2 3.6 21.4-.1 0-2-.8-3.7-1.6-.2.2 0-2.1 0-2.1 7.6-3 6.2-10.3-4.8-12-19.1-3.2-20.4-7.5-20.4-13.2 0-4.1 4.5-9.7 10.8-7.6 1.1.4 3.7 2 3.2 3.8-.5 1.9-3.7-.7-4 .3-.2.6 2.6.3 3.2 1.2.9 1.3-2.4 3.4-5 1.3-.6.3-1.2 1.5-.8 2.6 1.1 2.5 3.7 2.8 10.5 4.4 2.4.5 3.9.4 7.4 1.5z" stroke="#d9d9d9" stroke-width=".22"/>
        <path d="M160.05 178.65c.1 0 3.8 1.3 6.8 2 .2-.1 0 2.5 0 2.5-2.7.5-4.3 2.7-4.5 3.8-.3 3.2.7 4.6 9.5 7.5 15.6 3.6 14 11.1 13.3 13.8-.9 3.5-4 5.7-7.3 6.9-.8 0-1-.7-2.5-1.5-.1-.1 0-1.9 0-1.9 0-.2 3.5-2.5 3.5-4.9 0-2-.2-4.5-7.7-6.5-22.5-3.9-18.4-18-11.1-21.7" fill="#f2f2f2"/>
        <path d="M160.05 178.65c.1 0 3.8 1.3 6.8 2 .2-.1 0 2.5 0 2.5-2.7.5-4.3 2.7-4.5 3.8-.3 3.2.7 4.6 9.5 7.5 15.6 3.6 14 11.1 13.3 13.8-.9 3.5-4 5.7-7.3 6.9-.8 0-1-.7-2.5-1.5-.1-.1 0-1.9 0-1.9 0-.2 3.5-2.5 3.5-4.9 0-2-.2-4.5-7.7-6.5-22.5-3.9-18.4-18-11.1-21.7z" stroke="#d9d9d9" stroke-width=".22"/>
        <path d="M158.75 212.65c2.7 2.7 7.4 4.1 7.4 4.1 4.2 2 4.5 2 7.1 3.2 5.5 2 4.5 6.6 7.2 6 3.2-1.1 2-7.6-3.3-10.5-4.1-2.3-5.9-2.7-8.3-3.8-7.5-3.6-7.8-7.5-2.1-11.6-2.6-1.3-4.2-1.3-5.8-2.4-4.1 2-7.9 9.2-2.2 15" fill="#f2f2f2"/>
        <path d="M158.75 212.65c2.7 2.7 7.4 4.1 7.4 4.1 4.2 2 4.5 2 7.1 3.2 5.5 2 4.5 6.6 7.2 6 3.2-1.1 2-7.6-3.3-10.5-4.1-2.3-5.9-2.7-8.3-3.8-7.5-3.6-7.8-7.5-2.1-11.6-2.6-1.3-4.2-1.3-5.8-2.4-4.1 2-7.9 9.2-2.2 15z" stroke="#d9d9d9" stroke-width=".22"/>
        <path fill="#f2f2f2" d="M60.05 116.15h24.7v-56.5h-24.7zM42.45 29.55h50.4l13.3 11.6v15.5H42.45z"/>
    </g>
</svg>
