<svg width="43" height="43" viewBox="0 0 43 43" fill="none" xmlns="http://www.w3.org/2000/svg">
<path d="M18.0867 36.5301C19.817 36.5354 21.5197 36.1041 23.0314 35.2775C24.5433 34.4509 25.8136 33.2567 26.7205 31.8095C26.8004 31.6828 26.8542 31.542 26.8787 31.395C26.9031 31.2479 26.8979 31.0976 26.8632 30.9526C26.8286 30.8075 26.7652 30.6706 26.6766 30.5496C26.5881 30.4286 26.4761 30.326 26.3472 30.2475C26.2183 30.169 26.0749 30.1162 25.9252 30.0922C25.7755 30.0681 25.6224 30.0732 25.4747 30.1073C25.327 30.1413 25.1876 30.2036 25.0645 30.2905C24.9413 30.3775 24.8367 30.4874 24.7569 30.6141C24.1444 31.5814 23.3212 32.4034 22.3465 33.0208C21.3718 33.6382 20.2699 34.0357 19.12 34.1847C17.9701 34.3336 16.8009 34.2303 15.6966 33.8822C14.5922 33.5342 13.5801 32.95 12.7332 32.1717C11.8863 31.3933 11.2257 30.4403 10.7988 29.3812C10.3719 28.322 10.1894 27.1831 10.2645 26.0464C10.3396 24.9097 10.6703 23.8034 11.2329 22.8073C11.7955 21.8111 12.5759 20.9499 13.5181 20.2856C13.6436 20.1995 13.7503 20.0898 13.8322 19.9629C13.9142 19.836 13.9696 19.6944 13.9954 19.5463C14.0211 19.3981 14.0166 19.2464 13.9822 19.1C13.9477 18.9536 13.884 18.8154 13.7947 18.6934C13.7054 18.5714 13.5923 18.468 13.462 18.3892C13.3316 18.3105 13.1867 18.2579 13.0356 18.2347C12.8844 18.2114 12.73 18.2179 12.5814 18.2537C12.4328 18.2895 12.2929 18.354 12.1699 18.4434C10.4218 19.6734 9.11652 21.4167 8.44193 23.4221C7.76741 25.4274 7.75851 27.5914 8.41653 29.6021C9.07448 31.6127 10.3655 33.3663 12.1033 34.6102C13.8412 35.854 15.9363 36.5239 18.0867 36.5233V36.5301Z" fill="black"/>
<path d="M17.6367 12.1413C16.8715 12.1807 16.1536 12.5169 15.6409 13.0761C15.1281 13.6352 14.8625 14.3715 14.9024 15.123L15.3455 23.4197C15.3464 23.4321 15.3464 23.4445 15.3455 23.4569C15.3819 24.1869 15.7038 24.8748 16.244 25.3773C16.7843 25.8798 17.5012 26.1582 18.2453 26.1542H26.0653L28.41 32.4766C28.5305 32.8053 28.7517 33.0892 29.0431 33.2896C29.3344 33.49 29.6818 33.597 30.0374 33.5958C30.1492 33.5954 30.2607 33.5841 30.3702 33.5619C30.4422 33.5501 30.5131 33.5325 30.5822 33.5095L33.6665 32.4055C33.8119 32.3568 33.9461 32.2801 34.061 32.1799C34.1758 32.0796 34.2692 31.9579 34.3356 31.8218C34.4021 31.6857 34.4401 31.5379 34.4476 31.3871C34.4551 31.2364 34.432 31.0857 34.3794 30.9439C34.3269 30.802 34.246 30.6719 34.1417 30.5611C34.0373 30.4503 33.9114 30.3612 33.7715 30.2987C33.6316 30.2363 33.4804 30.202 33.3267 30.1977C33.1731 30.1934 33.0202 30.2193 32.8769 30.2737L31.4684 30.7817C31.4684 30.7817 28.8824 23.8057 28.8306 23.6838C28.8004 23.6171 28.7665 23.5521 28.7289 23.4891C28.5718 23.2101 28.3416 22.9774 28.0621 22.8151C27.7826 22.6528 27.464 22.5669 27.1394 22.5663H21.0795L20.9657 20.4177H25.9895C26.2958 20.4177 26.5896 20.2981 26.8063 20.0854C27.0229 19.8726 27.1446 19.5841 27.1446 19.2832C27.1446 18.9824 27.0229 18.6938 26.8063 18.481C26.5896 18.2683 26.2958 18.1488 25.9895 18.1488H20.8433L20.6709 14.9452C20.6709 14.908 20.6709 14.8724 20.6709 14.8352C20.6524 14.4624 20.5591 14.0969 20.3965 13.7596C20.2338 13.4224 20.0051 13.1199 19.7232 12.8697C19.4413 12.6194 19.1119 12.4262 18.7538 12.3012C18.3958 12.1763 18.0161 12.1219 17.6367 12.1413Z" fill="black"/>
<path d="M17.9143 11.3557C18.4846 11.3261 19.033 11.1312 19.4905 10.7955C19.948 10.4599 20.2938 9.99857 20.4844 9.46989C20.6749 8.94121 20.7016 8.36891 20.561 7.82536C20.4205 7.28182 20.119 6.7914 19.6947 6.41606C19.2704 6.04078 18.7423 5.79739 18.1772 5.71679C17.6122 5.63619 17.0354 5.72197 16.5199 5.96322C16.0044 6.20447 15.5733 6.59041 15.2812 7.07225C14.989 7.55408 14.8488 8.11017 14.8783 8.67023C14.9184 9.4217 15.2608 10.1267 15.8301 10.6303C16.3995 11.134 17.1492 11.3948 17.9143 11.3557Z" fill="black"/>
<path fill-rule="evenodd" clip-rule="evenodd" d="M37.1892 2.10873H5.18921C3.53236 2.10873 2.18921 3.45188 2.18921 5.10874V37.1087C2.18921 38.7656 3.53236 40.1087 5.18921 40.1087H37.1892C38.8461 40.1087 40.1892 38.7656 40.1892 37.1087V5.10873C40.1892 3.45188 38.8461 2.10873 37.1892 2.10873ZM5.18921 0.108734C2.42779 0.108734 0.189209 2.34731 0.189209 5.10874V37.1087C0.189209 39.8702 2.42779 42.1087 5.18921 42.1087H37.1892C39.9506 42.1087 42.1892 39.8702 42.1892 37.1087V5.10873C42.1892 2.34731 39.9506 0.108734 37.1892 0.108734H5.18921Z" fill="black"/>
</svg>
