<svg width="43" height="43" viewBox="0 0 43 43" fill="none" xmlns="http://www.w3.org/2000/svg">
<path d="M18.0867 36.6864C19.817 36.6918 21.5197 36.2605 23.0314 35.4338C24.5433 34.6072 25.8136 33.413 26.7205 31.9658C26.8004 31.8392 26.8542 31.6983 26.8787 31.5513C26.9031 31.4043 26.8979 31.254 26.8632 31.1089C26.8286 30.9639 26.7652 30.827 26.6766 30.706C26.5881 30.585 26.4761 30.4823 26.3472 30.4039C26.2183 30.3253 26.0749 30.2726 25.9252 30.2485C25.7755 30.2244 25.6224 30.2296 25.4747 30.2636C25.327 30.2977 25.1876 30.3599 25.0645 30.4469C24.9413 30.5339 24.8367 30.6438 24.7569 30.7704C24.1444 31.7377 23.3212 32.5597 22.3465 33.1771C21.3718 33.7945 20.2699 34.192 19.12 34.341C17.9701 34.49 16.8009 34.3867 15.6966 34.0386C14.5922 33.6905 13.5801 33.1063 12.7332 32.328C11.8863 31.5497 11.2257 30.5967 10.7988 29.5376C10.3719 28.4784 10.1894 27.3394 10.2645 26.2027C10.3396 25.066 10.6703 23.9597 11.2329 22.9636C11.7955 21.9675 12.5759 21.1063 13.5181 20.4419C13.6436 20.3558 13.7503 20.2462 13.8322 20.1193C13.9142 19.9924 13.9696 19.8507 13.9954 19.7026C14.0211 19.5545 14.0166 19.4028 13.9822 19.2564C13.9477 19.11 13.884 18.9717 13.7947 18.8497C13.7054 18.7277 13.5923 18.6243 13.462 18.5455C13.3316 18.4668 13.1867 18.4143 13.0356 18.391C12.8844 18.3678 12.73 18.3742 12.5814 18.4101C12.4328 18.4459 12.2929 18.5103 12.1699 18.5997C10.4218 19.8297 9.11652 21.573 8.44193 23.5784C7.76741 25.5838 7.75851 27.7477 8.41653 29.7584C9.07448 31.7691 10.3655 33.5226 12.1033 34.7665C13.8412 36.0104 15.9363 36.6803 18.0867 36.6797V36.6864Z" fill="black"/>
<path d="M17.6367 12.2977C16.8715 12.337 16.1536 12.6732 15.6409 13.2324C15.1281 13.7916 14.8625 14.5279 14.9024 15.2794L15.3455 23.5761C15.3464 23.5884 15.3464 23.6009 15.3455 23.6133C15.3819 24.3432 15.7038 25.0311 16.244 25.5337C16.7843 26.0361 17.5012 26.3145 18.2453 26.3105H26.0653L28.41 32.6329C28.5305 32.9616 28.7517 33.2456 29.0431 33.446C29.3344 33.6463 29.6818 33.7533 30.0374 33.7521C30.1492 33.7518 30.2607 33.7405 30.3702 33.7183C30.4422 33.7064 30.5131 33.6889 30.5822 33.6658L33.6665 32.5619C33.8119 32.5132 33.9461 32.4365 34.061 32.3363C34.1758 32.236 34.2692 32.1143 34.3356 31.9782C34.4021 31.842 34.4401 31.6943 34.4476 31.5435C34.4551 31.3928 34.432 31.242 34.3794 31.1002C34.3269 30.9583 34.246 30.8283 34.1417 30.7174C34.0373 30.6067 33.9114 30.5175 33.7715 30.4551C33.6316 30.3927 33.4804 30.3583 33.3267 30.354C33.1731 30.3497 33.0202 30.3756 32.8769 30.4301L31.4684 30.938C31.4684 30.938 28.8824 23.9621 28.8306 23.8402C28.8004 23.7735 28.7665 23.7084 28.7289 23.6455C28.5718 23.3664 28.3416 23.1337 28.0621 22.9715C27.7826 22.8092 27.464 22.7233 27.1394 22.7227H21.0795L20.9657 20.574H25.9895C26.2958 20.574 26.5896 20.4545 26.8063 20.2417C27.0229 20.0289 27.1446 19.7404 27.1446 19.4395C27.1446 19.1387 27.0229 18.8501 26.8063 18.6374C26.5896 18.4246 26.2958 18.3051 25.9895 18.3051H20.8433L20.6709 15.1016C20.6709 15.0643 20.6709 15.0288 20.6709 14.9915C20.6524 14.6188 20.5591 14.2533 20.3965 13.916C20.2338 13.5787 20.0051 13.2762 19.7232 13.026C19.4413 12.7758 19.1119 12.5826 18.7538 12.4576C18.3958 12.3326 18.0161 12.2782 17.6367 12.2977Z" fill="black"/>
<path d="M17.9143 11.512C18.4846 11.4825 19.033 11.2875 19.4905 10.9519C19.948 10.6162 20.2938 10.1549 20.4844 9.62623C20.6749 9.09755 20.7016 8.52525 20.561 7.9817C20.4205 7.43816 20.119 6.94774 19.6947 6.5724C19.2704 6.19712 18.7423 5.95374 18.1772 5.87314C17.6122 5.79254 17.0354 5.87831 16.5199 6.11957C16.0044 6.36082 15.5733 6.74676 15.2812 7.22859C14.989 7.71042 14.8488 8.26651 14.8783 8.82657C14.9184 9.57804 15.2608 10.2831 15.8301 10.7867C16.3995 11.2903 17.1492 11.5512 17.9143 11.512Z" fill="black"/>
<path fill-rule="evenodd" clip-rule="evenodd" d="M37.1892 2.26508H5.18921C3.53236 2.26508 2.18921 3.60822 2.18921 5.26508V37.2651C2.18921 38.9219 3.53236 40.2651 5.18921 40.2651H37.1892C38.8461 40.2651 40.1892 38.9219 40.1892 37.2651V5.26508C40.1892 3.60822 38.8461 2.26508 37.1892 2.26508ZM5.18921 0.265076C2.42779 0.265076 0.189209 2.50365 0.189209 5.26508V37.2651C0.189209 40.0265 2.42779 42.2651 5.18921 42.2651H37.1892C39.9506 42.2651 42.1892 40.0265 42.1892 37.2651V5.26508C42.1892 2.50365 39.9506 0.265076 37.1892 0.265076H5.18921Z" fill="black"/>
</svg>
