<svg width="43" height="42" viewBox="0 0 43 42" fill="none" xmlns="http://www.w3.org/2000/svg">
<path d="M11.5309 9.3606C11.5309 8.80831 11.9786 8.3606 12.5309 8.3606H30.8607C31.413 8.3606 31.8607 8.80831 31.8607 9.3606V33.394C31.8607 33.9463 31.413 34.394 30.8607 34.394H28.1572V32.394H29.8607V10.3606H13.5309V14.8551H11.5309V9.3606Z" fill="black"/>
<path d="M21.2916 19.4133C21.6872 19.4133 22.0738 19.296 22.4027 19.0762C22.7316 18.8564 22.988 18.5441 23.1394 18.1786C23.2907 17.8132 23.3303 17.4111 23.2532 17.0231C23.176 16.6351 22.9855 16.2788 22.7058 15.9991C22.4261 15.7193 22.0697 15.5289 21.6818 15.4517C21.2938 15.3745 20.8917 15.4141 20.5262 15.5655C20.1608 15.7169 19.8484 15.9732 19.6287 16.3021C19.4089 16.631 19.2916 17.0177 19.2916 17.4133C19.2916 17.9437 19.5023 18.4524 19.8774 18.8275C20.2525 19.2026 20.7612 19.4133 21.2916 19.4133Z" fill="black"/>
<path d="M17.9916 30.8133C17.5908 31.3381 17.0663 31.7555 16.4649 32.0283C15.8635 32.301 15.2039 32.4207 14.545 32.3765C13.8861 32.3323 13.2484 32.1257 12.6888 31.775C12.1293 31.4244 11.6652 30.9407 11.338 30.3671C11.0109 29.7934 10.8308 29.1477 10.814 28.4876C10.7971 27.8274 10.9439 27.1734 11.2414 26.5838C11.5388 25.9942 11.9776 25.4874 12.5186 25.1087C13.0595 24.73 13.6858 24.491 14.3416 24.4133C14.6068 24.3841 14.8496 24.2508 15.0165 24.0426C15.1834 23.8344 15.2608 23.5685 15.2316 23.3033C15.2024 23.0381 15.0691 22.7953 14.8609 22.6284C14.6528 22.4615 14.3868 22.3841 14.1216 22.4133C12.5303 22.5021 11.0395 23.2195 9.97707 24.4075C8.91468 25.5956 8.36775 27.157 8.4566 28.7483C8.54544 30.3396 9.26279 31.8304 10.4508 32.8928C11.6389 33.9552 13.2003 34.5021 14.7916 34.4133C15.7231 34.4133 16.6417 34.1964 17.4749 33.7798C18.308 33.3633 19.0327 32.7584 19.5916 32.0133C19.7507 31.8011 19.8191 31.5344 19.7815 31.2718C19.744 31.0093 19.6038 30.7724 19.3916 30.6133C19.1794 30.4541 18.9127 30.3858 18.6502 30.4233C18.3876 30.4608 18.1507 30.6011 17.9916 30.8133Z" fill="black"/>
<path d="M24.7916 32.4133H23.7916V27.4133C23.7916 27.1481 23.6862 26.8937 23.4987 26.7062C23.3112 26.5186 23.0568 26.4133 22.7916 26.4133H18.2216L19.9116 21.7533V21.4433C19.9165 21.3834 19.9165 21.3232 19.9116 21.2633C19.9173 21.2001 19.9173 21.1365 19.9116 21.0733C19.8855 21.0146 19.8555 20.9578 19.8216 20.9033C19.7916 20.8487 19.7546 20.7983 19.7116 20.7533C19.6687 20.7024 19.6181 20.6585 19.5616 20.6233C19.5616 20.6233 19.5616 20.5633 19.4816 20.5433L15.0016 17.9633H14.8816C14.8203 17.9373 14.7567 17.9173 14.6916 17.9033H14.2916C14.2221 17.9176 14.1549 17.9412 14.0916 17.9733H13.9816L11.2916 19.5433C11.1004 19.6516 10.9502 19.8198 10.8642 20.022C10.7783 20.2242 10.7613 20.4491 10.8159 20.662C10.8705 20.8748 10.9937 21.0637 11.1665 21.1995C11.3392 21.3353 11.5519 21.4104 11.7716 21.4133C11.9535 21.4181 12.1333 21.3731 12.2916 21.2833L14.5216 19.9833L17.7616 21.8633L15.8716 27.0733C15.8667 27.1265 15.8667 27.18 15.8716 27.2333C15.8622 27.2929 15.8622 27.3536 15.8716 27.4133C15.89 27.5415 15.9167 27.6685 15.9516 27.7933L16.0616 27.9433C16.0888 28.0025 16.126 28.0566 16.1716 28.1033C16.2143 28.139 16.2614 28.1692 16.3116 28.1933C16.3711 28.239 16.4347 28.2792 16.5016 28.3133C16.6106 28.3528 16.7256 28.3731 16.8416 28.3733H21.8416V33.3733C21.8416 33.6385 21.947 33.8928 22.1345 34.0804C22.322 34.2679 22.5764 34.3733 22.8416 34.3733H24.8416C25.1068 34.3733 25.3612 34.2679 25.5487 34.0804C25.7362 33.8928 25.8416 33.6385 25.8416 33.3733C25.8416 33.1081 25.7362 32.8537 25.5487 32.6662C25.3612 32.4786 25.1068 32.3733 24.8416 32.3733L24.7916 32.4133Z" fill="black"/>
<path fill-rule="evenodd" clip-rule="evenodd" d="M0.189209 5C0.189209 2.23858 2.42779 0 5.18921 0H37.1892C39.9506 0 42.1892 2.23858 42.1892 5V37C42.1892 39.7614 39.9506 42 37.1892 42H5.18921C2.42779 42 0.189209 39.7614 0.189209 37V5ZM5.18921 2H37.1892C38.8461 2 40.1892 3.34315 40.1892 5V37C40.1892 38.6569 38.8461 40 37.1892 40H5.18921C3.53236 40 2.18921 38.6569 2.18921 37V5C2.18921 3.34315 3.53236 2 5.18921 2Z" fill="black"/>
</svg>
