<svg width="43" height="43" viewBox="0 0 43 43" fill="none" xmlns="http://www.w3.org/2000/svg">
<path d="M18.0867 37.1054C19.817 37.1108 21.5197 36.6795 23.0314 35.8528C24.5433 35.0262 25.8136 33.832 26.7205 32.3848C26.8004 32.2582 26.8542 32.1173 26.8787 31.9703C26.9031 31.8233 26.8979 31.673 26.8632 31.5279C26.8286 31.3829 26.7652 31.246 26.6766 31.125C26.5881 31.004 26.4761 30.9013 26.3472 30.8229C26.2183 30.7443 26.0749 30.6916 25.9252 30.6675C25.7755 30.6435 25.6224 30.6486 25.4747 30.6826C25.327 30.7167 25.1876 30.7789 25.0645 30.8659C24.9413 30.9529 24.8367 31.0628 24.7569 31.1894C24.1444 32.1568 23.3212 32.9787 22.3465 33.5962C21.3718 34.2135 20.2699 34.6111 19.12 34.76C17.9701 34.909 16.8009 34.8057 15.6966 34.4576C14.5922 34.1095 13.5801 33.5253 12.7332 32.747C11.8863 31.9687 11.2257 31.0157 10.7988 29.9566C10.3719 28.8974 10.1894 27.7584 10.2645 26.6217C10.3396 25.485 10.6703 24.3787 11.2329 23.3826C11.7955 22.3865 12.5759 21.5253 13.5181 20.8609C13.6436 20.7748 13.7503 20.6652 13.8322 20.5383C13.9142 20.4114 13.9696 20.2697 13.9954 20.1216C14.0211 19.9735 14.0166 19.8218 13.9822 19.6754C13.9477 19.529 13.884 19.3907 13.7947 19.2687C13.7054 19.1467 13.5923 19.0433 13.462 18.9646C13.3316 18.8858 13.1867 18.8333 13.0356 18.8101C12.8844 18.7868 12.73 18.7932 12.5814 18.8291C12.4328 18.8649 12.2929 18.9293 12.1699 19.0187C10.4218 20.2487 9.11652 21.992 8.44193 23.9974C7.76741 26.0028 7.75851 28.1667 8.41653 30.1774C9.07448 32.1881 10.3655 33.9416 12.1033 35.1855C13.8412 36.4294 15.9363 37.0993 18.0867 37.0987V37.1054Z" fill="black"/>
<path d="M17.6367 12.7167C16.8715 12.756 16.1536 13.0922 15.6409 13.6515C15.1281 14.2106 14.8625 14.9469 14.9024 15.6984L15.3455 23.9951C15.3464 24.0074 15.3464 24.0199 15.3455 24.0323C15.3819 24.7622 15.7038 25.4501 16.244 25.9527C16.7843 26.4552 17.5012 26.7335 18.2453 26.7295H26.0653L28.41 33.052C28.5305 33.3806 28.7517 33.6646 29.0431 33.865C29.3344 34.0653 29.6818 34.1723 30.0374 34.1712C30.1492 34.1708 30.2607 34.1595 30.3702 34.1373C30.4422 34.1254 30.5131 34.1079 30.5822 34.0848L33.6665 32.9809C33.8119 32.9322 33.9461 32.8555 34.061 32.7553C34.1758 32.655 34.2692 32.5333 34.3356 32.3972C34.4021 32.261 34.4401 32.1133 34.4476 31.9625C34.4551 31.8118 34.432 31.6611 34.3794 31.5192C34.3269 31.3773 34.246 31.2473 34.1417 31.1365C34.0373 31.0257 33.9114 30.9365 33.7715 30.8741C33.6316 30.8117 33.4804 30.7773 33.3267 30.7731C33.1731 30.7687 33.0202 30.7946 32.8769 30.8491L31.4684 31.357C31.4684 31.357 28.8824 24.3811 28.8306 24.2592C28.8004 24.1925 28.7665 24.1275 28.7289 24.0645C28.5718 23.7854 28.3416 23.5527 28.0621 23.3905C27.7826 23.2282 27.464 23.1423 27.1394 23.1417H21.0795L20.9657 20.993H25.9895C26.2958 20.993 26.5896 20.8735 26.8063 20.6608C27.0229 20.448 27.1446 20.1594 27.1446 19.8585C27.1446 19.5577 27.0229 19.2691 26.8063 19.0564C26.5896 18.8436 26.2958 18.7241 25.9895 18.7241H20.8433L20.6709 15.5206C20.6709 15.4833 20.6709 15.4478 20.6709 15.4105C20.6524 15.0378 20.5591 14.6723 20.3965 14.335C20.2338 13.9977 20.0051 13.6953 19.7232 13.445C19.4413 13.1948 19.1119 13.0016 18.7538 12.8766C18.3958 12.7516 18.0161 12.6972 17.6367 12.7167Z" fill="black"/>
<path d="M17.9143 11.931C18.4846 11.9015 19.033 11.7065 19.4905 11.3709C19.948 11.0352 20.2938 10.5739 20.4844 10.0452C20.6749 9.51655 20.7016 8.94425 20.561 8.40071C20.4205 7.85716 20.119 7.36674 19.6947 6.9914C19.2704 6.61612 18.7423 6.37274 18.1772 6.29214C17.6122 6.21154 17.0354 6.29732 16.5199 6.53857C16.0044 6.77982 15.5733 7.16576 15.2812 7.64759C14.989 8.12942 14.8488 8.68552 14.8783 9.24557C14.9184 9.99705 15.2608 10.7021 15.8301 11.2057C16.3995 11.7093 17.1492 11.9702 17.9143 11.931Z" fill="black"/>
<path fill-rule="evenodd" clip-rule="evenodd" d="M37.1892 2.68408H5.18921C3.53236 2.68408 2.18921 4.02723 2.18921 5.68408V37.6841C2.18921 39.3409 3.53236 40.6841 5.18921 40.6841H37.1892C38.8461 40.6841 40.1892 39.3409 40.1892 37.6841V5.68408C40.1892 4.02723 38.8461 2.68408 37.1892 2.68408ZM5.18921 0.684082C2.42779 0.684082 0.189209 2.92266 0.189209 5.68408V37.6841C0.189209 40.4455 2.42779 42.6841 5.18921 42.6841H37.1892C39.9506 42.6841 42.1892 40.4455 42.1892 37.6841V5.68408C42.1892 2.92266 39.9506 0.684082 37.1892 0.684082H5.18921Z" fill="black"/>
</svg>
