<svg width="43" height="42" viewBox="0 0 43 42" fill="none" xmlns="http://www.w3.org/2000/svg">
<path d="M22.2098 14.3869L20.1488 8.08693H21.6608L23.0822 12.5153L24.5678 8.08693H25.9178L27.3569 12.5482L28.8248 8.08693H30.2198L28.1588 14.3869H26.5928L25.2039 10.1183L23.7758 14.3869H22.2098Z" fill="black"/>
<path d="M33.9784 14.4949C33.4924 14.4949 33.0394 14.4169 32.6194 14.2609C32.2054 14.0989 31.8454 13.8709 31.5394 13.5769C31.2334 13.2829 30.9934 12.9379 30.8194 12.5419C30.6514 12.1459 30.5674 11.7109 30.5674 11.2369C30.5674 10.7629 30.6514 10.3279 30.8194 9.93193C30.9934 9.53593 31.2334 9.19093 31.5394 8.89693C31.8514 8.60293 32.2144 8.37793 32.6284 8.22193C33.0424 8.05993 33.4954 7.97893 33.9874 7.97893C34.5334 7.97893 35.0254 8.07493 35.4634 8.26693C35.9074 8.45293 36.2794 8.72893 36.5794 9.09493L35.6434 9.95893C35.4274 9.71293 35.1874 9.52993 34.9234 9.40993C34.6594 9.28393 34.3714 9.22093 34.0594 9.22093C33.7654 9.22093 33.4954 9.26893 33.2494 9.36493C33.0034 9.46093 32.7904 9.59893 32.6104 9.77893C32.4304 9.95893 32.2894 10.1719 32.1874 10.4179C32.0914 10.6639 32.0434 10.9369 32.0434 11.2369C32.0434 11.5369 32.0914 11.8099 32.1874 12.0559C32.2894 12.3019 32.4304 12.5149 32.6104 12.6949C32.7904 12.8749 33.0034 13.0129 33.2494 13.1089C33.4954 13.2049 33.7654 13.2529 34.0594 13.2529C34.3714 13.2529 34.6594 13.1929 34.9234 13.0729C35.1874 12.9469 35.4274 12.7579 35.6434 12.5059L36.5794 13.3699C36.2794 13.7359 35.9074 14.0149 35.4634 14.2069C35.0254 14.3989 34.5304 14.4949 33.9784 14.4949Z" fill="black"/>
<path d="M17.9452 21.3869C18.3408 21.3869 18.7274 21.2696 19.0563 21.0499C19.3852 20.8301 19.6416 20.5178 19.7929 20.1523C19.9443 19.7868 19.9839 19.3847 19.9068 18.9968C19.8296 18.6088 19.6391 18.2524 19.3594 17.9727C19.0797 17.693 18.7233 17.5025 18.3354 17.4254C17.9474 17.3482 17.5453 17.3878 17.1798 17.5392C16.8144 17.6905 16.502 17.9469 16.2823 18.2758C16.0625 18.6047 15.9452 18.9914 15.9452 19.3869C15.9452 19.9174 16.1559 20.4261 16.531 20.8011C16.906 21.1762 17.4148 21.3869 17.9452 21.3869Z" fill="black"/>
<path d="M14.6452 32.7869C14.2444 33.3117 13.7199 33.7292 13.1185 34.0019C12.5171 34.2747 11.8575 34.3943 11.1986 34.3501C10.5397 34.3059 9.90203 34.0993 9.34244 33.7487C8.78285 33.3981 8.31876 32.9144 7.99162 32.3407C7.66447 31.7671 7.48442 31.1214 7.46756 30.4612C7.4507 29.8011 7.59754 29.147 7.89497 28.5575C8.19241 27.9679 8.63119 27.4611 9.17215 27.0824C9.71311 26.7036 10.3394 26.4647 10.9952 26.3869C11.2604 26.3578 11.5032 26.2244 11.6701 26.0163C11.837 25.8081 11.9144 25.5421 11.8852 25.2769C11.856 25.0117 11.7227 24.769 11.5145 24.602C11.3064 24.4351 11.0404 24.3578 10.7752 24.3869C9.18389 24.4758 7.69306 25.1931 6.63067 26.3812C5.56828 27.5692 5.02134 29.1306 5.11019 30.7219C5.19904 32.3132 5.91639 33.8041 7.10443 34.8665C8.29247 35.9288 9.85389 36.4758 11.4452 36.3869C12.3767 36.3869 13.2953 36.1701 14.1285 35.7535C14.9616 35.3369 15.6863 34.7321 16.2452 33.9869C16.4043 33.7748 16.4726 33.5081 16.4351 33.2455C16.3976 32.983 16.2574 32.7461 16.0452 32.5869C15.833 32.4278 15.5663 32.3595 15.3038 32.397C15.0412 32.4345 14.8043 32.5748 14.6452 32.7869Z" fill="black"/>
<path d="M21.4452 34.3869H20.4452V29.3869C20.4452 29.1217 20.3398 28.8674 20.1523 28.6798C19.9648 28.4923 19.7104 28.3869 19.4452 28.3869H14.8752L16.5652 23.7269V23.4169C16.5701 23.357 16.5701 23.2968 16.5652 23.2369C16.5709 23.1737 16.5709 23.1101 16.5652 23.0469C16.5391 22.9883 16.5091 22.9315 16.4752 22.8769C16.4452 22.8224 16.4082 22.772 16.3652 22.7269C16.3223 22.6761 16.2716 22.6322 16.2152 22.5969C16.2152 22.5969 16.2152 22.5369 16.1352 22.5169L11.6552 19.9369H11.5352C11.4739 19.911 11.4103 19.8909 11.3452 19.8769H10.9452C10.8757 19.8913 10.8085 19.9148 10.7452 19.9469H10.6352L7.94519 21.5169C7.75401 21.6252 7.60382 21.7935 7.51784 21.9957C7.43185 22.1979 7.41487 22.4228 7.4695 22.6356C7.52413 22.8485 7.64733 23.0374 7.82008 23.1732C7.99282 23.309 8.20548 23.3841 8.42519 23.3869C8.60712 23.3917 8.78692 23.3468 8.94519 23.2569L11.1752 21.9569L14.4152 23.8369L12.5252 29.0469C12.5203 29.1002 12.5203 29.1537 12.5252 29.2069C12.5158 29.2666 12.5158 29.3273 12.5252 29.3869C12.5436 29.5152 12.5703 29.6421 12.6052 29.7669L12.7152 29.9169C12.7424 29.9762 12.7796 30.0303 12.8252 30.0769C12.8679 30.1126 12.915 30.1429 12.9652 30.1669C13.0247 30.2127 13.0883 30.2529 13.1552 30.2869C13.2642 30.3265 13.3792 30.3468 13.4952 30.3469H18.4952V35.3469C18.4952 35.6121 18.6005 35.8665 18.7881 36.054C18.9756 36.2416 19.23 36.3469 19.4952 36.3469H21.4952C21.7604 36.3469 22.0148 36.2416 22.2023 36.054C22.3898 35.8665 22.4952 35.6121 22.4952 35.3469C22.4952 35.0817 22.3898 34.8274 22.2023 34.6398C22.0148 34.4523 21.7604 34.3469 21.4952 34.3469L21.4452 34.3869Z" fill="black"/>
<path fill-rule="evenodd" clip-rule="evenodd" d="M0.189209 5C0.189209 2.23858 2.42779 0 5.18921 0H37.1892C39.9506 0 42.1892 2.23858 42.1892 5V37C42.1892 39.7614 39.9506 42 37.1892 42H5.18921C2.42779 42 0.189209 39.7614 0.189209 37V5ZM5.18921 2H37.1892C38.8461 2 40.1892 3.34315 40.1892 5V37C40.1892 38.6569 38.8461 40 37.1892 40H5.18921C3.53236 40 2.18921 38.6569 2.18921 37V5C2.18921 3.34315 3.53236 2 5.18921 2Z" fill="black"/>
</svg>
