<svg width="43" height="42" viewBox="0 0 43 42" fill="none" xmlns="http://www.w3.org/2000/svg">
<path fill-rule="evenodd" clip-rule="evenodd" d="M27.4613 9.13747V15.4375H28.9193V13.7005H30.1883C30.7523 13.7005 31.2383 13.6105 31.6463 13.4305C32.0543 13.2445 32.3693 12.9805 32.5913 12.6385C32.8133 12.2965 32.9243 11.8915 32.9243 11.4235C32.9243 10.9495 32.8133 10.5415 32.5913 10.1995C32.3693 9.85747 32.0543 9.59647 31.6463 9.41647C31.2383 9.23047 30.7523 9.13747 30.1883 9.13747H27.4613ZM28.9193 12.5125H30.1073C30.5573 12.5125 30.8933 12.4165 31.1153 12.2245C31.3373 12.0325 31.4483 11.7655 31.4483 11.4235C31.4483 11.0755 31.3373 10.8055 31.1153 10.6135C30.8933 10.4215 30.5573 10.3255 30.1073 10.3255H28.9193V12.5125Z" fill="black"/>
<path fill-rule="evenodd" clip-rule="evenodd" d="M24.1822 5.19962C23.6299 5.19962 23.1822 5.64733 23.1822 6.19962V18.2638C23.1822 18.8161 23.6299 19.2638 24.1822 19.2638H36.2464C36.7987 19.2638 37.2464 18.8161 37.2464 18.2638V6.19962C37.2464 5.64733 36.7987 5.19962 36.2464 5.19962H24.1822ZM24.6822 6.69962V17.7638H35.7464V6.69962H24.6822Z" fill="black"/>
<path d="M19.0563 20.8947C18.7274 21.1144 18.3408 21.2317 17.9452 21.2317C17.4148 21.2317 16.906 21.021 16.531 20.6459C16.1559 20.2709 15.9452 19.7622 15.9452 19.2317C15.9452 18.8362 16.0625 18.4495 16.2823 18.1206C16.502 17.7917 16.8144 17.5353 17.1798 17.384C17.5453 17.2326 17.9474 17.193 18.3354 17.2701C18.7233 17.3473 19.0797 17.5378 19.3594 17.8175C19.6391 18.0972 19.8296 18.4536 19.9068 18.8415C19.9839 19.2295 19.9443 19.6316 19.7929 19.9971C19.6416 20.3625 19.3852 20.6749 19.0563 20.8947Z" fill="black"/>
<path d="M13.1185 33.8467C13.7199 33.5739 14.2444 33.1565 14.6452 32.6317C14.8043 32.4195 15.0412 32.2793 15.3038 32.2418C15.5663 32.2043 15.833 32.2726 16.0452 32.4317C16.2574 32.5909 16.3976 32.8277 16.4351 33.0903C16.4726 33.3528 16.4043 33.6195 16.2452 33.8317C15.6863 34.5769 14.9616 35.1817 14.1285 35.5983C13.2953 36.0149 12.3767 36.2317 11.4452 36.2317C9.85389 36.3206 8.29247 35.7736 7.10443 34.7112C5.91639 33.6488 5.19904 32.158 5.11019 30.5667C5.02134 28.9754 5.56828 27.414 6.63067 26.226C7.69306 25.0379 9.18389 24.3206 10.7752 24.2317C11.0404 24.2025 11.3064 24.2799 11.5145 24.4468C11.7227 24.6137 11.856 24.8565 11.8852 25.1217C11.9144 25.3869 11.837 25.6529 11.6701 25.861C11.5032 26.0692 11.2604 26.2025 10.9952 26.2317C10.3394 26.3095 9.71311 26.5484 9.17215 26.9271C8.63119 27.3059 8.19241 27.8127 7.89497 28.4022C7.59754 28.9918 7.4507 29.6459 7.46756 30.306C7.48442 30.9662 7.66447 31.6119 7.99162 32.1855C8.31876 32.7591 8.78285 33.2429 9.34244 33.5935C9.90203 33.9441 10.5397 34.1507 11.1986 34.1949C11.8575 34.2391 12.5171 34.1195 13.1185 33.8467Z" fill="black"/>
<path d="M20.4452 34.2317H21.4452L21.4952 34.1917C21.7604 34.1917 22.0148 34.2971 22.2023 34.4846C22.3898 34.6721 22.4952 34.9265 22.4952 35.1917C22.4952 35.4569 22.3898 35.7113 22.2023 35.8988C22.0148 36.0864 21.7604 36.1917 21.4952 36.1917H19.4952C19.23 36.1917 18.9756 36.0864 18.7881 35.8988C18.6005 35.7113 18.4952 35.4569 18.4952 35.1917V30.1917H13.4952C13.3792 30.1916 13.2642 30.1713 13.1552 30.1317C13.0883 30.0977 13.0247 30.0575 12.9652 30.0117C12.915 29.9877 12.8679 29.9574 12.8252 29.9217C12.7796 29.8751 12.7424 29.821 12.7152 29.7617L12.6052 29.6117C12.5703 29.4869 12.5436 29.36 12.5252 29.2317C12.5158 29.1721 12.5158 29.1114 12.5252 29.0517C12.5203 28.9985 12.5203 28.9449 12.5252 28.8917L14.4152 23.6817L11.1752 21.8017L8.94519 23.1017C8.78692 23.1916 8.60712 23.2365 8.42519 23.2317C8.20548 23.2289 7.99282 23.1538 7.82008 23.018C7.64733 22.8822 7.52413 22.6933 7.4695 22.4804C7.41487 22.2676 7.43185 22.0427 7.51784 21.8405C7.60382 21.6383 7.75401 21.47 7.94519 21.3617L10.6352 19.7917H10.7452C10.8085 19.7596 10.8757 19.7361 10.9452 19.7217H11.3452C11.4103 19.7357 11.4739 19.7558 11.5352 19.7817H11.6552L16.1352 22.3617C16.2152 22.3817 16.2152 22.4417 16.2152 22.4417C16.2716 22.477 16.3223 22.5208 16.3652 22.5717C16.4082 22.6168 16.4452 22.6672 16.4752 22.7217C16.5091 22.7763 16.5391 22.8331 16.5652 22.8917C16.5709 22.9549 16.5709 23.0185 16.5652 23.0817C16.5701 23.1416 16.5701 23.2018 16.5652 23.2617V23.5717L14.8752 28.2317H19.4452C19.7104 28.2317 19.9648 28.3371 20.1523 28.5246C20.3398 28.7122 20.4452 28.9665 20.4452 29.2317V34.2317Z" fill="black"/>
<path fill-rule="evenodd" clip-rule="evenodd" d="M0.189209 5C0.189209 2.23858 2.42779 0 5.18921 0H37.1892C39.9506 0 42.1892 2.23858 42.1892 5V37C42.1892 39.7614 39.9506 42 37.1892 42H5.18921C2.42779 42 0.189209 39.7614 0.189209 37V5ZM5.18921 2H37.1892C38.8461 2 40.1892 3.34315 40.1892 5V37C40.1892 38.6569 38.8461 40 37.1892 40H5.18921C3.53236 40 2.18921 38.6569 2.18921 37V5C2.18921 3.34315 3.53236 2 5.18921 2Z" fill="black"/>
</svg>
