<svg width="42" height="42" viewBox="0 0 42 42" fill="none" xmlns="http://www.w3.org/2000/svg">
<path d="M30.2157 11.5725C30.7797 11.5728 31.3312 11.4096 31.8002 11.1035C32.2693 10.7975 32.6349 10.3623 32.851 9.85304C33.067 9.34382 33.1237 8.78344 33.0138 8.24271C32.904 7.70199 32.6325 7.20528 32.2338 6.81539C31.8351 6.42549 31.3271 6.15989 30.774 6.05225C30.2209 5.94461 29.6475 5.9997 29.1264 6.21058C28.6054 6.42151 28.16 6.77871 27.8466 7.23704C27.5332 7.69537 27.366 8.23428 27.366 8.78556C27.366 9.52444 27.6662 10.2331 28.2006 10.7557C28.735 11.2784 29.4598 11.5721 30.2157 11.5725Z" fill="black"/>
<path d="M36.4954 14.9962V14.7617C36.4954 13.2225 35.0865 12.3158 33.2865 12.3158H26.8891C26.3834 12.316 25.8882 12.4571 25.4618 12.7227C25.0353 12.9883 24.6951 13.3672 24.4813 13.8152L20.1499 22.6621C20.0858 22.8309 20.0644 23.0122 20.0877 23.1908C20.1109 23.3694 20.1781 23.5397 20.2834 23.6874C20.3887 23.835 20.5291 23.9555 20.6925 24.0386C20.8558 24.1216 21.0374 24.1648 21.2215 24.1643C21.4556 24.1646 21.6841 24.0943 21.8758 23.9631C22.0676 23.8319 22.2133 23.6461 22.2931 23.431L26.1752 15.7565C26.1844 15.7397 26.198 15.7257 26.2146 15.7157C26.2312 15.7057 26.2502 15.7002 26.2696 15.6996C26.2939 15.7002 26.3171 15.7088 26.3357 15.7241C26.3542 15.7393 26.3668 15.7603 26.3714 15.7835V34.4552C26.3656 34.8409 26.5095 35.2144 26.7742 35.5006C27.0388 35.7867 27.4046 35.9641 27.7978 35.9972C28.005 36.0096 28.2125 35.9804 28.4077 35.9115C28.6029 35.8425 28.7816 35.7352 28.9328 35.5963C29.084 35.4573 29.2044 35.2895 29.2868 35.1033C29.3692 34.917 29.4117 34.7163 29.4117 34.5134V26.2549C29.411 26.2492 29.411 26.2435 29.4117 26.2378C29.412 26.0654 29.4824 25.9003 29.6072 25.7785C29.7321 25.6567 29.9012 25.5883 30.0776 25.5884H30.0848C30.261 25.5887 30.4297 25.6573 30.5543 25.779C30.6788 25.9007 30.7489 26.0657 30.7494 26.2378V34.4552C30.7438 34.8408 30.8878 35.2141 31.1524 35.5002C31.417 35.7862 31.7826 35.9638 32.1757 35.9972C32.3828 36.0096 32.5904 35.9804 32.7856 35.9115C32.9808 35.8425 33.1595 35.7352 33.3107 35.5963C33.4619 35.4573 33.5823 35.2895 33.6647 35.1033C33.7471 34.917 33.7896 34.7163 33.7896 34.5134V15.6627C33.7938 15.616 33.8157 15.5725 33.8511 15.5407C33.8865 15.509 33.9327 15.4915 33.9808 15.4915C34.0288 15.4915 34.075 15.509 34.1104 15.5407C34.1458 15.5725 34.1678 15.616 34.172 15.6627V24.5637C34.1664 24.7153 34.1922 24.8665 34.2478 25.0082C34.3034 25.1499 34.3876 25.2792 34.4954 25.3884C34.6032 25.4975 34.7324 25.5844 34.8753 25.6437C35.0183 25.703 35.1719 25.7336 35.3272 25.7336C35.4824 25.7336 35.6361 25.703 35.7789 25.6437C35.9218 25.5844 36.051 25.4975 36.1588 25.3884C36.2667 25.2792 36.3508 25.1499 36.4064 25.0082C36.462 24.8665 36.4878 24.7153 36.4823 24.5637V15.6712C36.4823 15.6712 36.4969 15.3259 36.4954 14.9962Z" fill="black"/>
<path d="M18.0606 14.7631V14.9052L18.0591 14.9961V24.5637C18.0646 24.7153 18.0388 24.8665 17.9832 25.0082C17.9277 25.1499 17.8435 25.2792 17.7357 25.3884C17.6278 25.4975 17.4986 25.5844 17.3557 25.6437C17.2129 25.703 17.0592 25.7336 16.904 25.7336C16.7487 25.7336 16.5951 25.703 16.4522 25.6437C16.3092 25.5844 16.18 25.4975 16.0722 25.3884C15.9645 25.2792 15.8802 25.1499 15.8246 25.0082C15.7691 24.8665 15.7433 24.7153 15.7488 24.5637V15.6627C15.7446 15.616 15.7227 15.5725 15.6872 15.5407C15.6519 15.509 15.6056 15.4914 15.5576 15.4914C15.5096 15.4914 15.4633 15.509 15.4279 15.5407C15.3925 15.5725 15.3706 15.616 15.3664 15.6627V34.5134C15.3664 34.7167 15.3238 34.9178 15.2412 35.1043C15.1586 35.2908 15.0377 35.4588 14.886 35.5979C14.7343 35.737 14.5551 35.8441 14.3594 35.9128C14.1637 35.9815 13.9557 36.0102 13.7481 35.9972C13.3548 35.9641 12.9889 35.7868 12.724 35.5006C12.459 35.2145 12.3149 34.841 12.3203 34.4552V26.2378C12.3202 26.0861 12.2657 25.9393 12.1664 25.8227C12.0671 25.7061 11.9292 25.6273 11.7766 25.5997C11.624 25.6275 11.4863 25.7065 11.387 25.823C11.2877 25.9395 11.2332 26.0862 11.2328 26.2378V34.4552C11.2386 34.8409 11.0947 35.2144 10.8301 35.5006C10.5654 35.7867 10.1996 35.9641 9.80645 35.9972C9.59927 36.0096 9.39167 35.9804 9.19648 35.9115C9.00129 35.8425 8.82259 35.7352 8.67142 35.5963C8.52021 35.4572 8.39973 35.2895 8.31739 35.1033C8.23501 34.917 8.19255 34.7163 8.1925 34.5134V15.6627C8.1925 15.6133 8.17248 15.566 8.13675 15.5311C8.10102 15.4962 8.05258 15.4766 8.00203 15.4766C7.95154 15.4766 7.9031 15.4962 7.86737 15.5311C7.83164 15.566 7.81157 15.6133 7.81157 15.6627V24.5651C7.77968 24.8429 7.64412 25.0995 7.4309 25.2858C7.21768 25.4721 6.94168 25.5751 6.65569 25.5751C6.36965 25.5751 6.09369 25.4721 5.88048 25.2858C5.66721 25.0995 5.5317 24.8429 5.49976 24.5651V14.7631C5.49976 13.2239 6.91015 12.3172 8.71015 12.3172H14.8517C16.6517 12.3172 18.0606 13.2239 18.0606 14.7631Z" fill="black"/>
<path d="M11.7795 11.5725C12.3435 11.5728 12.8948 11.4096 13.3639 11.1035C13.833 10.7975 14.1987 10.3623 14.4147 9.85304C14.6307 9.34382 14.6874 8.78344 14.5776 8.24271C14.4677 7.70199 14.1963 7.20528 13.7976 6.81539C13.3989 6.42549 12.8908 6.15989 12.3377 6.05225C11.7846 5.94461 11.2112 5.9997 10.6902 6.21058C10.169 6.42151 9.7237 6.77871 9.41034 7.23704C9.09697 7.69537 8.92968 8.23428 8.92968 8.78556C8.92968 9.52444 9.22991 10.2331 9.76431 10.7557C10.2987 11.2784 11.0235 11.5721 11.7795 11.5725Z" fill="black"/>
<path fill-rule="evenodd" clip-rule="evenodd" d="M0 5C0 2.23858 2.23858 0 5 0H37C39.7614 0 42 2.23858 42 5V37C42 39.7614 39.7614 42 37 42H5C2.23858 42 0 39.7614 0 37V5ZM5 2H37C38.6569 2 40 3.34315 40 5V37C40 38.6569 38.6569 40 37 40H5C3.34315 40 2 38.6569 2 37V5C2 3.34315 3.34315 2 5 2Z" fill="black"/>
</svg>
