<svg xmlns="http://www.w3.org/2000/svg" width="20" height="18" viewBox="0 0 20 18">
    <g fill="none" fill-rule="evenodd">
        <g fill="currentColor" fill-rule="nonzero">
            <g>
                <path d="M4.335 1.18478C6.62875 2.90603 9.095 6.39728 10 8.26978C10.9062 6.39728 13.3712 2.90728 15.665 1.18478C17.3187 -0.0564734 20 -1.01772 20 2.03978C20 2.65103 19.65 7.17103 19.445 7.90478C18.73 10.4548 16.1287 11.106 13.815 10.7123C17.86 11.401 18.89 13.681 16.6663 15.9623C12.4462 20.2923 10.6012 14.8748 10.1287 13.4873C10.0412 13.2323 10 13.1123 10 13.2148C10 13.1135 9.95875 13.2323 9.8725 13.4873C9.39875 14.8748 7.55375 20.2923 3.33375 15.9623C1.11125 13.681 2.14 11.3998 6.18375 10.7123C3.87125 11.106 1.26875 10.456 0.555 7.90478C0.35 7.17103 0 2.64978 0 2.03978C0 -1.01772 2.68125 -0.0564734 4.335 1.18478Z"/>
            </g>
        </g>
    </g>
</svg>
