<svg width="42" height="42" viewBox="0 0 42 42" fill="none" xmlns="http://www.w3.org/2000/svg">
<path d="M8.69946 4.99994C8.56112 4.99994 8.42588 5.04074 8.31086 5.11715C8.19583 5.19356 8.10621 5.30215 8.05324 5.42922C8.00032 5.55626 7.98646 5.69612 8.01344 5.83105C8.04043 5.96592 8.10705 6.08982 8.20486 6.18705C8.30267 6.28433 8.4273 6.35053 8.56301 6.37736C8.69867 6.40419 8.83932 6.39043 8.96711 6.33783C9.09489 6.28517 9.20414 6.19603 9.281 6.08168C9.35786 5.96734 9.39887 5.83288 9.39887 5.69533C9.39887 5.51091 9.32521 5.33406 9.19401 5.20364C9.06287 5.07323 8.88494 4.99994 8.69946 4.99994Z" fill="black"/>
<path d="M11.4501 4.99998C11.3118 4.99998 11.1766 5.04078 11.0615 5.1172C10.9465 5.1936 10.8568 5.3022 10.8039 5.42927C10.7509 5.55634 10.7371 5.69615 10.7641 5.83108C10.7911 5.96595 10.8577 6.08985 10.9555 6.18708C11.0533 6.28436 11.178 6.35056 11.3137 6.37744C11.4494 6.40427 11.59 6.39051 11.7178 6.33786C11.8456 6.28525 11.9548 6.19611 12.0317 6.08171C12.1085 5.96737 12.1495 5.83291 12.1495 5.69536C12.1495 5.51095 12.0759 5.3341 11.9447 5.20368C11.8135 5.07327 11.6356 4.99998 11.4501 4.99998Z" fill="black"/>
<path d="M13.8524 6.2747C13.7371 6.35083 13.6017 6.39125 13.4633 6.39083C13.2781 6.39025 13.1008 6.3167 12.9701 6.18634C12.8395 6.05598 12.7661 5.87943 12.7661 5.69542C12.7661 5.55776 12.8071 5.42323 12.8841 5.30883C12.961 5.19442 13.0704 5.10529 13.1983 5.05273C13.3263 5.00016 13.467 4.98653 13.6028 5.01354C13.7385 5.04056 13.8631 5.10701 13.9609 5.20449C14.0586 5.30196 14.125 5.42608 14.1517 5.56112C14.1785 5.69615 14.1643 5.83601 14.1111 5.96306C14.0578 6.09011 13.9677 6.19858 13.8524 6.2747Z" fill="black"/>
<path d="M16.2094 6.39083C16.3478 6.39083 16.483 6.35004 16.598 6.2736C16.7131 6.19721 16.8027 6.08859 16.8556 5.96154C16.9086 5.83449 16.9224 5.69463 16.8954 5.55976C16.8685 5.42484 16.8018 5.30095 16.704 5.2037C16.6062 5.10644 16.4815 5.04022 16.3459 5.01338C16.2102 4.98655 16.0696 5.00031 15.9418 5.05294C15.8139 5.10557 15.7047 5.19472 15.6279 5.30907C15.551 5.42343 15.51 5.55787 15.51 5.69542C15.51 5.87985 15.5837 6.05672 15.7149 6.18713C15.846 6.31754 16.0239 6.39083 16.2094 6.39083Z" fill="black"/>
<path d="M18.6111 6.2736C18.4961 6.35004 18.3609 6.39083 18.2225 6.39083C18.0371 6.39083 17.8591 6.31754 17.728 6.18713C17.5968 6.05672 17.5231 5.87985 17.5231 5.69542C17.5231 5.55787 17.5641 5.42343 17.641 5.30907C17.7179 5.19472 17.8271 5.10557 17.9549 5.05294C18.0827 5.00031 18.2234 4.98655 18.359 5.01338C18.4947 5.04022 18.6193 5.10644 18.7171 5.2037C18.8149 5.30095 18.8816 5.42484 18.9086 5.55976C18.9355 5.69463 18.9217 5.83449 18.8688 5.96154C18.8158 6.08859 18.7262 6.19721 18.6111 6.2736Z" fill="black"/>
<path d="M22.9797 6.39083C23.1181 6.39125 23.2536 6.35083 23.3688 6.2747C23.4842 6.19858 23.5742 6.09011 23.6274 5.96306C23.6807 5.83601 23.6949 5.69615 23.6682 5.56112C23.6414 5.42608 23.575 5.30196 23.4773 5.20449C23.3795 5.10701 23.2549 5.04056 23.1192 5.01354C22.9834 4.98653 22.8427 5.00016 22.7148 5.05273C22.5868 5.10529 22.4775 5.19442 22.4005 5.30883C22.3235 5.42323 22.2825 5.55776 22.2825 5.69542C22.2824 5.87943 22.3558 6.05598 22.4865 6.18634C22.6172 6.3167 22.7946 6.39025 22.9797 6.39083Z" fill="black"/>
<path d="M21.3596 8.27511C21.2446 8.35149 21.1094 8.39234 20.971 8.39234C20.7855 8.39234 20.6076 8.31905 20.4765 8.18864C20.3453 8.05823 20.2716 7.88136 20.2716 7.69693C20.2716 7.55938 20.3126 7.42492 20.3895 7.31058C20.4663 7.19623 20.5755 7.10709 20.7034 7.05443C20.8312 7.00183 20.9718 6.98807 21.1075 7.0149C21.2432 7.04173 21.3678 7.10793 21.4656 7.20521C21.5634 7.30244 21.6301 7.42634 21.657 7.56121C21.684 7.69614 21.6702 7.83595 21.6172 7.96305C21.5643 8.0901 21.4746 8.19872 21.3596 8.27511Z" fill="black"/>
<path d="M30.483 4.99998C30.3446 4.99998 30.2094 5.04078 30.0944 5.1172C29.9793 5.1936 29.8897 5.3022 29.8367 5.42927C29.7838 5.55634 29.77 5.69615 29.797 5.83108C29.8239 5.96595 29.8906 6.08985 29.9884 6.18708C30.0862 6.28436 30.2108 6.35056 30.3465 6.37744C30.4822 6.40427 30.6228 6.39051 30.7506 6.33786C30.8785 6.28525 30.9877 6.19611 31.0645 6.08171C31.1414 5.96737 31.1824 5.83291 31.1824 5.69536C31.1824 5.51095 31.1087 5.3341 30.9776 5.20368C30.8464 5.07327 30.6685 4.99998 30.483 4.99998Z" fill="black"/>
<path d="M32.112 9.12687C32.227 9.05048 32.3622 9.00969 32.5005 9.00969C32.6861 9.00969 32.8639 9.08298 32.9951 9.21339C33.1263 9.3438 33.2 9.52067 33.2 9.7051C33.2 9.84265 33.1589 9.97705 33.0821 10.0914C33.0052 10.2058 32.896 10.2949 32.7682 10.3475C32.6404 10.4002 32.4998 10.414 32.3641 10.3871C32.2284 10.3603 32.1038 10.294 32.006 10.1968C31.9081 10.0995 31.8416 9.97564 31.8146 9.84076C31.7875 9.70584 31.8014 9.56603 31.8543 9.43898C31.9073 9.31193 31.997 9.20331 32.112 9.12687Z" fill="black"/>
<path d="M32.4983 8.39896C32.6366 8.39896 32.7719 8.35822 32.8869 8.28178C33.0019 8.20539 33.0915 8.09677 33.1445 7.96972C33.1974 7.84261 33.2113 7.70281 33.1843 7.56793C33.1573 7.43301 33.0907 7.30911 32.9929 7.21188C32.8951 7.1146 32.7704 7.04839 32.6347 7.02151C32.4991 6.99469 32.3584 7.00849 32.2306 7.06115C32.1029 7.11375 31.9936 7.2029 31.9167 7.31725C31.8399 7.43159 31.7989 7.56604 31.7989 7.70359C31.7989 7.88803 31.8725 8.0649 32.0037 8.19531C32.1349 8.32572 32.3128 8.39896 32.4983 8.39896Z" fill="black"/>
<path d="M26.1301 6.2736C26.0151 6.35004 25.8799 6.39083 25.7415 6.39083C25.5561 6.39083 25.3781 6.31754 25.247 6.18713C25.1158 6.05672 25.0421 5.87985 25.0421 5.69542C25.0421 5.55787 25.0831 5.42343 25.16 5.30907C25.2369 5.19472 25.3461 5.10557 25.4739 5.05294C25.6017 5.00031 25.7423 4.98655 25.878 5.01338C26.0137 5.04022 26.1383 5.10644 26.2361 5.2037C26.3339 5.30095 26.4006 5.42484 26.4276 5.55976C26.4545 5.69463 26.4407 5.83449 26.3878 5.96154C26.3348 6.08859 26.2452 6.19721 26.1301 6.2736Z" fill="black"/>
<path d="M27.7592 9.00969C27.6208 9.00969 27.4856 9.05048 27.3706 9.12687C27.2556 9.20331 27.1659 9.31193 27.113 9.43898C27.06 9.56603 27.0462 9.70584 27.0732 9.84076C27.1002 9.97564 27.1668 10.0995 27.2646 10.1968C27.3624 10.294 27.4871 10.3603 27.6227 10.3871C27.7584 10.414 27.899 10.4002 28.0269 10.3475C28.1546 10.2949 28.2639 10.2058 28.3408 10.0914C28.4176 9.97705 28.4586 9.84265 28.4586 9.7051C28.4586 9.52067 28.3849 9.3438 28.2538 9.21339C28.1226 9.08298 27.9447 9.00969 27.7592 9.00969Z" fill="black"/>
<path d="M28.1433 8.28178C28.0283 8.35822 27.893 8.39896 27.7547 8.39896C27.5692 8.39896 27.3913 8.32572 27.2601 8.19531C27.129 8.0649 27.0552 7.88803 27.0552 7.70359C27.0552 7.56604 27.0963 7.43159 27.1732 7.31725C27.25 7.2029 27.3592 7.11375 27.487 7.06115C27.6148 7.00849 27.7554 6.99469 27.8911 7.02151C28.0268 7.04839 28.1514 7.1146 28.2493 7.21188C28.3471 7.30911 28.4137 7.43301 28.4407 7.56793C28.4677 7.70281 28.4538 7.84261 28.4009 7.96972C28.3479 8.09677 28.2583 8.20539 28.1433 8.28178Z" fill="black"/>
<path d="M27.1561 18.3062C26.9691 18.3044 26.7837 18.3395 26.6104 18.4093C26.4371 18.4792 26.2793 18.5825 26.1464 18.7132C26.0134 18.8439 25.9078 18.9996 25.8356 19.1711C25.7635 19.3426 25.7262 19.5266 25.7259 19.7125V20.7111C25.7259 20.7702 25.7023 20.8269 25.6602 20.8687C25.6182 20.9105 25.5611 20.934 25.5017 20.934C25.4422 20.934 25.3852 20.9105 25.3432 20.8687C25.3011 20.8269 25.2775 20.7702 25.2775 20.7111V18.2772C25.2704 17.9001 25.1128 17.5412 24.8395 17.2795C24.5663 17.0179 24.1997 16.8749 23.8203 16.882C23.441 16.889 23.08 17.0457 22.8169 17.3173C22.5537 17.589 22.4098 17.9535 22.417 18.3307V20.6977C22.417 20.7568 22.3933 20.8135 22.3513 20.8553C22.3092 20.8972 22.2523 20.9206 22.1928 20.9206C22.1334 20.9206 22.0763 20.8972 22.0343 20.8553C21.9922 20.8135 21.9686 20.7568 21.9686 20.6977V16.9399C21.954 16.5722 21.7968 16.2244 21.5299 15.9695C21.2631 15.7144 20.9073 15.572 20.5373 15.572C20.1671 15.572 19.8113 15.7144 19.5445 15.9695C19.2777 16.2244 19.1205 16.5722 19.1059 16.9399V20.7245C19.1059 20.7836 19.0822 20.8403 19.0402 20.8821C18.9981 20.9239 18.9411 20.9473 18.8817 20.9473C18.8222 20.9473 18.7652 20.9239 18.7231 20.8821C18.6811 20.8403 18.6575 20.7836 18.6575 20.7245V9.79866C18.6429 9.431 18.4856 9.08324 18.2188 8.82819C17.952 8.5732 17.5962 8.43082 17.2261 8.43082C16.856 8.43082 16.5002 8.5732 16.2334 8.82819C15.9666 9.08324 15.8094 9.431 15.7947 9.79866V25.2958C15.7947 25.3549 15.7711 25.4116 15.7291 25.4534C15.6871 25.4952 15.63 25.5187 15.5706 25.5187C15.5111 25.5187 15.4541 25.4952 15.412 25.4534C15.37 25.4116 15.3464 25.3549 15.3464 25.2958V20.3299C15.341 19.5725 15.0348 18.8478 14.4944 18.3138C13.9539 17.7798 13.2231 17.4799 12.4612 17.4793C12.4455 17.4793 12.4612 29.125 12.4612 29.125L12.4612 29.1763C12.4607 29.9034 12.4596 31.5569 13.2234 32.4861C13.5564 32.8899 13.991 33.3378 14.4184 33.7783C14.6066 33.9722 14.7936 34.1649 14.9697 34.3516C15.4264 34.8364 15.4221 35.6999 15.4187 36.4046L15.4185 36.4463C15.4183 36.4918 15.4181 36.5365 15.4181 36.5804V37.5634L27.2436 33.6339C27.2436 33.6339 28.6402 32.5039 28.6245 29.6554V19.7438C28.6267 19.5525 28.59 19.3627 28.5167 19.1859C28.4434 19.009 28.335 18.8487 28.1979 18.7145C28.0608 18.5802 27.8979 18.4749 27.7188 18.4048C27.5399 18.3346 27.3485 18.3011 27.1561 18.3062Z" fill="black"/>
<path fill-rule="evenodd" clip-rule="evenodd" d="M0 5C0 2.23858 2.23858 0 5 0H37C39.7614 0 42 2.23858 42 5V37C42 39.7614 39.7614 42 37 42H5C2.23858 42 0 39.7614 0 37V5ZM5 2H37C38.6569 2 40 3.34315 40 5V37C40 38.6569 38.6569 40 37 40H5C3.34315 40 2 38.6569 2 37V5C2 3.34315 3.34315 2 5 2Z" fill="black"/>
</svg>
