<svg width="42" height="42" viewBox="0 0 42 42" fill="none" xmlns="http://www.w3.org/2000/svg">
<path d="M24.2039 19.8976C24.0131 19.8976 23.8265 19.9542 23.6678 20.0602C23.5092 20.1662 23.3855 20.3169 23.3125 20.4933C23.2394 20.6696 23.2203 20.8636 23.2576 21.0507C23.2948 21.2379 23.3867 21.4098 23.5216 21.5448C23.6566 21.6797 23.8285 21.7716 24.0157 21.8089C24.2029 21.8461 24.3969 21.827 24.5731 21.754C24.7495 21.6809 24.9002 21.5572 25.0062 21.3986C25.1122 21.2399 25.1688 21.0533 25.1688 20.8625C25.1688 20.6066 25.0672 20.3612 24.8862 20.1802C24.7052 19.9992 24.4599 19.8976 24.2039 19.8976Z" fill="black"/>
<path d="M17.5384 19.8988C17.3475 19.8988 17.1609 19.9554 17.0022 20.0615C16.8435 20.1675 16.7198 20.3183 16.6468 20.4947C16.5738 20.671 16.5548 20.8651 16.5921 21.0523C16.6294 21.2395 16.7214 21.4114 16.8565 21.5463C16.9915 21.6812 17.1636 21.7731 17.3508 21.8101C17.538 21.8472 17.7321 21.828 17.9084 21.7547C18.0847 21.6816 18.2353 21.5577 18.3412 21.3989C18.4471 21.24 18.5035 21.0534 18.5033 20.8625C18.5029 20.6068 18.4011 20.3617 18.2202 20.1809C18.0393 20.0002 17.794 19.8988 17.5384 19.8988Z" fill="black"/>
<path fill-rule="evenodd" clip-rule="evenodd" d="M20.8706 12.4134C19.1992 12.4134 17.5654 12.909 16.1757 13.8376C14.786 14.7662 13.703 16.086 13.0634 17.6301C12.4239 19.1743 12.2566 20.8734 12.5828 22.5126C12.9089 24.1519 13.7138 25.6575 14.8957 26.8393C16.0777 28.021 17.5835 28.8258 19.2227 29.1517C20.862 29.4776 22.5611 29.3101 24.1052 28.6704C25.6492 28.0306 26.9689 26.9473 27.8972 25.5575C28.8256 24.1677 29.321 22.5338 29.3208 20.8625C29.3181 18.6223 28.4269 16.4747 26.8427 14.8907C25.2585 13.3068 23.1108 12.4158 20.8706 12.4134ZM20.8706 28.7325C19.3141 28.7322 17.7926 28.2705 16.4986 27.4056C15.2045 26.5407 14.196 25.3115 13.6005 23.8734C13.005 22.4353 12.8493 20.853 13.1531 19.3265C13.4569 17.7999 14.2066 16.3977 15.3072 15.2972C16.4079 14.1967 17.8102 13.4472 19.3368 13.1437C20.8634 12.8401 22.4457 12.9961 23.8837 13.5917C25.3216 14.1874 26.5507 15.1961 27.4154 16.4903C28.2801 17.7845 28.7416 19.306 28.7416 20.8625C28.7392 22.9492 27.9092 24.9497 26.4335 26.4251C24.9579 27.9005 22.9573 28.7303 20.8706 28.7325Z" fill="black"/>
<path fill-rule="evenodd" clip-rule="evenodd" d="M9.92943 7.99738H31.796C32.308 7.99795 32.7987 8.20181 33.1604 8.56411C33.522 8.92642 33.725 9.4175 33.7247 9.92943V31.7949C33.7244 32.3064 33.5211 32.7969 33.1595 33.1587C32.798 33.5205 32.3076 33.7241 31.796 33.7246H9.92717C9.41545 33.7244 8.92479 33.5209 8.56291 33.1591C8.20108 32.7973 7.99769 32.3066 7.99738 31.7949V9.92943C7.99738 9.41703 8.20092 8.92558 8.56327 8.56327C8.92558 8.20092 9.41703 7.99738 9.92943 7.99738ZM32.2504 32.2473C32.3709 32.1266 32.4385 31.9631 32.4385 31.7926V9.92943C32.4382 9.75901 32.3705 9.59569 32.2501 9.47504C32.1297 9.35445 31.9665 9.28641 31.796 9.28578H9.92943C9.75886 9.28609 9.59532 9.35403 9.47467 9.47467C9.35403 9.59527 9.28609 9.7588 9.28583 9.92943V31.7926C9.28583 31.8771 9.30247 31.9608 9.33481 32.0389C9.36715 32.117 9.41456 32.188 9.47431 32.2477C9.5341 32.3074 9.60503 32.3549 9.68315 32.3872C9.76122 32.4196 9.8449 32.4362 9.92943 32.4362H31.796C31.9666 32.4359 32.1299 32.368 32.2504 32.2473Z" fill="black"/>
<path fill-rule="evenodd" clip-rule="evenodd" d="M0 5C0 2.23858 2.23858 0 5 0H37C39.7614 0 42 2.23858 42 5V37C42 39.7614 39.7614 42 37 42H5C2.23858 42 0 39.7614 0 37V5ZM5 2H37C38.6569 2 40 3.34315 40 5V37C40 38.6569 38.6569 40 37 40H5C3.34315 40 2 38.6569 2 37V5C2 3.34315 3.34315 2 5 2Z" fill="black"/>
</svg>
