<svg width="20" height="20" viewBox="0 0 20 20" fill="none" xmlns="http://www.w3.org/2000/svg">
<path fill-rule="evenodd" clip-rule="evenodd" d="M10.7188 9.75959L19.7337 1.84066C19.9041 1.69346 20 1.493 20 1.28386C20 1.07473 19.9041 0.874264 19.7337 0.727063L19.1658 0.23213C18.9969 0.0835731 18.7669 0 18.5269 0C18.287 0 18.057 0.0835731 17.8881 0.23213L10.0799 7.03746L2.27177 0.23213C2.10288 0.0835731 1.87288 0 1.63293 0C1.39297 0 1.16297 0.0835731 0.994076 0.23213L0.355225 0.788929C0.184776 0.936131 0.0888882 1.13659 0.0888882 1.34573C0.0888882 1.55486 0.184776 1.75533 0.355225 1.90253L9.44109 9.82145C9.82515 10.0813 10.3701 10.0549 10.7188 9.75959Z" fill="currentColor"/>
<path fill-rule="evenodd" clip-rule="evenodd" d="M10.6299 19.7596L19.6448 11.8407C19.8152 11.6935 19.9111 11.493 19.9111 11.2839C19.9111 11.0747 19.8152 10.8743 19.6448 10.7271L19.0769 10.2321C18.908 10.0836 18.678 10 18.4381 10C18.1981 10 17.9681 10.0836 17.7992 10.2321L9.99107 17.0375L2.18291 10.2321C2.01401 10.0836 1.78401 10 1.54406 10C1.30411 10 1.0741 10.0836 0.905209 10.2321L0.266357 10.7889C0.0959091 10.9361 2.09312e-05 11.1366 2.0922e-05 11.3457C2.09129e-05 11.5549 0.095909 11.7553 0.266357 11.9025L9.35222 19.8215C9.73628 20.0813 10.2812 20.0549 10.6299 19.7596Z" fill="currentColor"/>
</svg>
