<svg width="20" height="20" viewBox="0 0 20 20" fill="none" xmlns="http://www.w3.org/2000/svg">
<path fill-rule="evenodd" clip-rule="evenodd" d="M9.28122 10.2404L0.266337 18.1593C0.0958887 18.3065 1.30522e-07 18.507 1.12239e-07 18.7161C9.39556e-08 18.9253 0.0958886 19.1257 0.266337 19.2729L0.834203 19.7679C1.0031 19.9164 1.2331 20 1.47305 20C1.71301 20 1.94301 19.9164 2.1119 19.7679L9.92006 12.9625L17.7282 19.7679C17.8971 19.9164 18.1271 20 18.3671 20C18.607 20 18.837 19.9164 19.0059 19.7679L19.6448 19.2111C19.8152 19.0639 19.9111 18.8634 19.9111 18.6543C19.9111 18.4451 19.8152 18.2447 19.6448 18.0975L10.5589 10.1785C10.1749 9.91873 9.62989 9.94512 9.28122 10.2404Z" fill="currentColor"/>
<path fill-rule="evenodd" clip-rule="evenodd" d="M9.37008 0.240416L0.355204 8.15934C0.184756 8.30654 0.0888674 8.507 0.0888674 8.71614C0.0888673 8.92527 0.184756 9.12574 0.355204 9.27294L0.92307 9.76787C1.09196 9.91643 1.32197 10 1.56192 10C1.80187 10 2.03188 9.91643 2.20077 9.76787L10.0089 2.96255L17.8171 9.76787C17.986 9.91643 18.216 10 18.4559 10C18.6959 10 18.9259 9.91643 19.0948 9.76787L19.7336 9.21107C19.9041 9.06387 20 8.86341 20 8.65427C20 8.44514 19.9041 8.24468 19.7336 8.09747L10.6478 0.17855C10.2637 -0.081267 9.71876 -0.0548808 9.37008 0.240416Z" fill="currentColor"/>
</svg>
