<svg width="42" height="42" viewBox="0 0 42 42" fill="none" xmlns="http://www.w3.org/2000/svg">
<path d="M21.2856 15.0524C22.0769 15.0527 22.8506 14.8167 23.5087 14.3744C24.1667 13.9321 24.6798 13.3033 24.9828 12.5675C25.2858 11.8317 25.3652 11.022 25.211 10.2408C25.0567 9.45957 24.6758 8.7419 24.1163 8.17862C23.5569 7.6153 22.844 7.23168 22.0678 7.07618C21.2917 6.92072 20.4872 7.00037 19.7561 7.30513C19.0249 7.60989 18.4 8.12602 17.9604 8.78825C17.5207 9.45049 17.286 10.2291 17.286 11.0256C17.2864 12.0932 17.7078 13.1171 18.4578 13.8722C19.2077 14.6272 20.2248 15.0518 21.2856 15.0524Z" fill="black"/>
<path d="M32.1064 21.408L27.5377 16.807C26.9366 16.2162 26.0326 15.8086 25.2266 15.8086H17.3472C16.545 15.8086 15.6383 16.2213 15.036 16.807L10.4685 21.408C10.1751 21.7114 10.0121 22.1189 10.0149 22.5424C10.0176 22.9658 10.1859 23.3711 10.4833 23.6706C10.7807 23.9701 11.1833 24.1397 11.604 24.1428C12.0247 24.1458 12.4297 23.982 12.7313 23.6868L16.2062 20.1892C16.27 20.1318 16.3524 20.0999 16.438 20.0995C16.5322 20.0995 16.6225 20.1371 16.6892 20.2042C16.7558 20.2713 16.7932 20.3622 16.7932 20.4571V26.1667L13.6176 29.3708L13.5972 29.3887C13.4485 29.5382 13.3306 29.7157 13.2502 29.9111C13.1697 30.1065 13.1283 30.3159 13.1283 30.5274C13.1283 30.7389 13.1697 30.9483 13.2502 31.1437C13.3306 31.3392 13.4485 31.5167 13.5972 31.6661L17.3115 35.4047C17.613 35.7 18.0178 35.8641 18.4385 35.8613C18.8592 35.8585 19.2619 35.6891 19.5594 35.3898C19.857 35.0904 20.0255 34.6852 20.0285 34.2618C20.0315 33.8384 19.8688 33.4308 19.5755 33.1272L17.0785 30.6152L20.5572 27.1176H22.0215L25.4939 30.6127L22.9969 33.1246C22.7103 33.4293 22.5532 33.8346 22.5589 34.2542C22.5645 34.6738 22.7327 35.0746 23.0275 35.3713C23.3223 35.668 23.7205 35.8373 24.1374 35.843C24.5542 35.8488 24.9569 35.6906 25.2596 35.4021L28.9753 31.6636C29.1239 31.5141 29.2418 31.3366 29.3223 31.1412C29.4028 30.9458 29.4441 30.7363 29.4441 30.5248C29.4441 30.3134 29.4028 30.1039 29.3223 29.9085C29.2418 29.7131 29.1239 29.5356 28.9753 29.3861L28.9549 29.3682L25.7716 26.1641L25.7779 20.4545C25.7774 20.3858 25.7967 20.3185 25.8335 20.2607C25.8703 20.2029 25.9229 20.157 25.985 20.1287C26.0471 20.1003 26.1161 20.0907 26.1835 20.101C26.2509 20.1113 26.3139 20.141 26.3649 20.1866L29.8398 23.6803C30.1415 23.9756 30.5464 24.1394 30.9671 24.1364C31.3878 24.1333 31.7904 23.9637 32.0878 23.6642C32.3853 23.3647 32.5535 22.9594 32.5563 22.536C32.559 22.1125 32.3961 21.705 32.1026 21.4016L32.1064 21.408Z" fill="black"/>
<path fill-rule="evenodd" clip-rule="evenodd" d="M0 5C0 2.23858 2.23858 0 5 0H37C39.7614 0 42 2.23858 42 5V37C42 39.7614 39.7614 42 37 42H5C2.23858 42 0 39.7614 0 37V5ZM5 2H37C38.6569 2 40 3.34315 40 5V37C40 38.6569 38.6569 40 37 40H5C3.34315 40 2 38.6569 2 37V5C2 3.34315 3.34315 2 5 2Z" fill="black"/>
</svg>
