<svg width="42" height="42" viewBox="0 0 42 42" fill="none" xmlns="http://www.w3.org/2000/svg">
<path d="M22.3479 20.2846V20.8107C29.7859 21.171 35.3943 24.0302 35.4113 27.6729H33.8203C33.8259 27.5777 33.8259 27.4822 33.8203 27.387C33.8203 24.8251 28.138 22.8122 20.8477 22.8122C13.5574 22.8122 7.87514 24.8194 7.87514 27.387C7.87613 27.4829 7.88564 27.5786 7.90354 27.6729H5.99432C5.99432 23.8587 12.3414 20.8622 20.4841 20.8107V19.4154C19.9214 19.2484 19.4266 18.9047 19.0719 18.4345C18.7171 17.9643 18.5211 17.3923 18.5123 16.802C18.5258 16.0568 18.8325 15.3475 19.3652 14.8296C19.8978 14.3117 20.6129 14.0278 21.3535 14.0401C21.9215 14.037 22.4774 14.2053 22.9494 14.5234C23.4214 14.8414 23.7878 15.2945 24.0014 15.8242H23.4331C23.1318 15.7114 22.8162 15.6421 22.4955 15.6183C22.1803 15.3419 21.7773 15.1878 21.3591 15.1837C20.92 15.1714 20.4939 15.3349 20.1744 15.6382C19.8548 15.9416 19.6678 16.3601 19.6545 16.802C19.6568 17.0473 19.7172 17.2884 19.8306 17.5054C19.9731 17.7997 20.2036 18.0417 20.4897 18.1974L20.7739 18.3403C21.046 18.4561 21.3329 18.5331 21.6262 18.5691H22.0978V20.2846H22.3479Z" fill="black"/>
<path fill-rule="evenodd" clip-rule="evenodd" d="M0 5C0 2.23858 2.23858 0 5 0H37C39.7614 0 42 2.23858 42 5V37C42 39.7614 39.7614 42 37 42H5C2.23858 42 0 39.7614 0 37V5ZM5 2H37C38.6569 2 40 3.34315 40 5V37C40 38.6569 38.6569 40 37 40H5C3.34315 40 2 38.6569 2 37V5C2 3.34315 3.34315 2 5 2Z" fill="black"/>
</svg>
