<svg width="42" height="42" viewBox="0 0 42 42" fill="none" xmlns="http://www.w3.org/2000/svg">
<path fill-rule="evenodd" clip-rule="evenodd" d="M33.3231 16.6649C33.3231 14.1066 31.3304 12.0079 29.0129 12.0079H27.8573C27.8322 12.0039 27.807 12.0013 27.7816 12H13.1641C13.0699 12 12.9766 12.019 12.8896 12.0559C12.8026 12.0928 12.7236 12.1469 12.6571 12.2151C12.5905 12.2833 12.5378 12.3642 12.5018 12.4533C12.4659 12.5424 12.4475 12.6378 12.4477 12.7342V22.8979C12.4593 23.7443 12.7936 24.5526 13.3792 25.1507C13.9648 25.7488 14.7555 26.0893 15.583 26.0998H25.3987C27.3155 26.0998 28.5019 24.4371 28.5019 22.8979V21.322C31.2957 21.322 33.3243 19.1681 33.3243 16.6636L33.3231 16.6649ZM31.5397 16.6636C31.5397 18.1227 30.5549 19.3822 28.5019 19.3861V13.9109H29.0155C30.9324 13.9109 31.5487 15.7692 31.5409 16.6689L31.5397 16.6636Z" fill="black"/>
<path d="M33.5683 27.4145C33.5009 27.3455 33.4208 27.2909 33.3327 27.2539C33.2445 27.2169 33.15 27.1983 33.0547 27.1991H7.71773C7.52726 27.1994 7.34472 27.2771 7.21016 27.4149C7.0756 27.5528 7 27.7397 7 27.9345C7 29.7876 8.18251 30.8947 10.1533 30.8947H30.6525C32.6054 30.8764 33.7712 29.7693 33.775 27.9358C33.7758 27.8385 33.7578 27.7419 33.7219 27.6517C33.686 27.5615 33.6329 27.4795 33.5657 27.4105L33.5683 27.4145Z" fill="black"/>
<path fill-rule="evenodd" clip-rule="evenodd" d="M0 5C0 2.23858 2.23858 0 5 0H37C39.7614 0 42 2.23858 42 5V37C42 39.7614 39.7614 42 37 42H5C2.23858 42 0 39.7614 0 37V5ZM5 2H37C38.6569 2 40 3.34315 40 5V37C40 38.6569 38.6569 40 37 40H5C3.34315 40 2 38.6569 2 37V5C2 3.34315 3.34315 2 5 2Z" fill="black"/>
</svg>
