<svg width="42" height="42" viewBox="0 0 42 42" fill="none" xmlns="http://www.w3.org/2000/svg">
<path d="M10.559 14.0963C10.1824 14.342 9.73978 14.473 9.28707 14.4727C8.68048 14.4727 8.09878 14.2372 7.66986 13.8179C7.24099 13.3986 7.00001 12.83 7.00001 12.2371C6.99975 11.7945 7.13378 11.3618 7.3851 10.9937C7.63647 10.6256 7.99384 10.3387 8.41205 10.1692C8.83027 9.99972 9.29053 9.95531 9.73453 10.0416C10.1786 10.1279 10.5865 10.341 10.9066 10.6539C11.2267 10.9668 11.4447 11.3656 11.533 11.7996C11.6212 12.2337 11.5758 12.6836 11.4024 13.0924C11.229 13.5012 10.9355 13.8506 10.559 14.0963Z" fill="black"/>
<path d="M11.5755 23.238H16.2029C16.395 23.2389 16.5852 23.2769 16.7623 23.3498C16.9394 23.4228 17.1001 23.5292 17.2349 23.6631C17.3698 23.7969 17.4763 23.9555 17.5483 24.1297C17.6202 24.3039 17.6563 24.4903 17.6543 24.6782V30.7072C17.6431 31.0558 17.4935 31.3865 17.2372 31.6292C16.981 31.872 16.6382 32.0077 16.2814 32.0077C15.9246 32.0077 15.5818 31.872 15.3255 31.6292C15.0693 31.3865 14.9197 31.0558 14.9085 30.7072V26.1077H9.17372C7.95577 26.1077 7.01503 25.0839 7.00001 23.8974V17.3064C6.99256 17.0081 7.04621 16.7114 7.15783 16.4337C7.26944 16.156 7.43676 15.9029 7.64996 15.6894C7.86311 15.4758 8.11784 15.3061 8.39914 15.1902C8.68038 15.0744 8.98252 15.0147 9.28775 15.0147C9.59299 15.0147 9.89512 15.0744 10.1764 15.1902C10.4577 15.3061 10.7124 15.4758 10.9255 15.6894C11.1387 15.9029 11.3061 16.156 11.4177 16.4337C11.5293 16.7114 11.5829 17.0081 11.5755 17.3064V23.238Z" fill="black"/>
<path d="M28.0055 21.8592H14.4593C14.1558 21.8592 13.8648 21.7413 13.6502 21.5316C13.4356 21.3218 13.315 21.0373 13.315 20.7407C13.315 20.444 13.4356 20.1595 13.6502 19.9498C13.8648 19.74 14.1558 19.6222 14.4593 19.6222H28.0055C28.3089 19.6222 28.6 19.74 28.8145 19.9498C29.0291 20.1595 29.1497 20.444 29.1497 20.7407C29.1497 21.0373 29.0291 21.3218 28.8145 21.5316C28.6 21.7413 28.3089 21.8592 28.0055 21.8592Z" fill="black"/>
<path d="M33.0616 15.068C32.7606 15.0673 32.4624 15.1247 32.1841 15.2369C31.9058 15.3491 31.6529 15.514 31.4399 15.7219C31.2269 15.9299 31.058 16.1769 30.9429 16.4488C30.8278 16.7207 30.7687 17.0121 30.7691 17.3064V23.238H26.1403C25.9489 23.2399 25.7597 23.2787 25.5836 23.3522C25.4075 23.4255 25.248 23.5322 25.114 23.6659C24.9801 23.7997 24.8745 23.958 24.8032 24.1316C24.7319 24.3053 24.6963 24.491 24.6984 24.6782V30.7125C24.6984 31.0683 24.843 31.4095 25.1004 31.6611C25.3577 31.9126 25.7068 32.054 26.0707 32.054C26.4346 32.054 26.7836 31.9126 27.041 31.6611C27.2984 31.4095 27.4429 31.0683 27.4429 30.7125V26.1077H33.1776C34.3778 26.1077 35.3364 25.084 35.3514 23.8974V17.3064C35.3515 17.0124 35.2924 16.7212 35.1774 16.4496C35.0624 16.1779 34.8938 15.9311 34.6811 15.7232C34.4684 15.5153 34.216 15.3505 33.9381 15.2381C33.6601 15.1256 33.3623 15.0679 33.0616 15.068Z" fill="black"/>
<path d="M33.0616 14.4727C33.5141 14.4719 33.9562 14.34 34.332 14.0937C34.7078 13.8473 35.0005 13.4976 35.173 13.0887C35.3456 12.6798 35.3902 12.23 35.3013 11.7963C35.2125 11.3626 34.9941 10.9644 34.6737 10.652C34.3534 10.3396 33.9455 10.127 33.5016 10.0412C33.0577 9.95536 32.5978 10.0001 32.1799 10.1697C31.762 10.3393 31.4049 10.6263 31.1538 10.9942C30.9027 11.3622 30.7688 11.7947 30.7691 12.237C30.7691 12.5311 30.8284 12.8222 30.9437 13.0938C31.059 13.3654 31.2279 13.6121 31.4409 13.8198C31.6538 14.0275 31.9066 14.1921 32.1847 14.3041C32.4628 14.4161 32.7608 14.4734 33.0616 14.4727Z" fill="black"/>
<path fill-rule="evenodd" clip-rule="evenodd" d="M0 5C0 2.23858 2.23858 0 5 0H37C39.7614 0 42 2.23858 42 5V37C42 39.7614 39.7614 42 37 42H5C2.23858 42 0 39.7614 0 37V5ZM5 2H37C38.6569 2 40 3.34315 40 5V37C40 38.6569 38.6569 40 37 40H5C3.34315 40 2 38.6569 2 37V5C2 3.34315 3.34315 2 5 2Z" fill="black"/>
</svg>
