<svg width="42" height="42" viewBox="0 0 42 42" fill="none" xmlns="http://www.w3.org/2000/svg">
<path d="M22.875 18.1347L23.873 18.0254L20.3039 9.44321C20.3039 9.44321 20.0397 8.8676 19.5994 9.04033C19.1591 9.213 19.394 9.84615 19.394 9.84615L22.875 18.1347Z" fill="black"/>
<path d="M16.9461 24.3858L22.3467 25.537L22.9044 18.6874C20.5182 18.9683 18.102 18.8829 15.7427 18.434C11.6041 17.657 9.81362 17.1908 5 13.8811C5.01281 14.59 5.20118 15.2853 5.54889 15.9069C5.8966 16.5286 6.39319 17.0581 6.99589 17.4498C8.21006 18.3072 9.66757 18.7702 11.1638 18.7737C11.1638 18.7737 10.43 19.2399 10.43 21.1106C10.43 22.1477 10.7187 22.6364 10.9759 23.0719C11.1827 23.422 11.3692 23.7378 11.3692 24.2764C11.3692 25.4852 9.54949 26.1183 9.54949 26.1183L7.64164 31.5577H8.63962L11.3692 27.2695L12.7781 27.4422L15.4198 31.5577H16.5058L14.774 27.1832C14.774 27.1832 16.1536 26.717 16.9461 24.3858Z" fill="black"/>
<path d="M34.3902 18.1612C34.5749 18.4253 34.761 18.6914 35.0324 18.9176C35.1519 19.0113 35.3146 19.1089 35.4883 19.213C35.9546 19.4925 36.5 19.8195 36.5 20.2472C36.4716 20.6406 36.2912 21.0085 35.9955 21.276C35.6999 21.5434 35.3113 21.6901 34.9091 21.6862C34.4182 21.6862 34.0985 21.5949 33.7421 21.4931C33.293 21.3649 32.7856 21.22 31.8038 21.22C31.2665 21.2459 30.7482 21.4223 30.3101 21.7284C29.872 22.0345 29.5327 22.4573 29.3324 22.9468L24.2839 18.601C25.4685 18.601 26.4862 18.2207 27.5666 17.8171C28.7884 17.3606 30.0902 16.8742 31.8038 16.8742C33.49 16.8742 33.9358 17.5115 34.3902 18.1612Z" fill="black"/>
<path d="M29.0389 23.6663L23.7556 19.1421L23.286 25.6809L21.4662 31.4944H22.5815L25.3112 25.796H26.3679L30.0427 31.4944H31.1287L29.0153 26.4579C28.7774 26.0289 28.6547 25.5475 28.6588 25.0591C28.6629 24.5707 28.7937 24.0914 29.0389 23.6663Z" fill="black"/>
<path fill-rule="evenodd" clip-rule="evenodd" d="M0 5C0 2.23858 2.23858 0 5 0H37C39.7614 0 42 2.23858 42 5V37C42 39.7614 39.7614 42 37 42H5C2.23858 42 0 39.7614 0 37V5ZM5 2H37C38.6569 2 40 3.34315 40 5V37C40 38.6569 38.6569 40 37 40H5C3.34315 40 2 38.6569 2 37V5C2 3.34315 3.34315 2 5 2Z" fill="black"/>
</svg>
