<svg width="42" height="42" viewBox="0 0 42 42" fill="none" xmlns="http://www.w3.org/2000/svg">
<path d="M31.7707 4.99567L30.6745 6.08378L32.1511 7.54948L33.2474 6.46136L31.7707 4.99567Z" fill="black"/>
<path d="M21.134 6.72843C19.7708 6.72801 18.4209 6.99418 17.1613 7.51178C15.9019 8.02938 14.7574 8.78827 13.7935 9.74503C12.8296 10.7018 12.0651 11.8377 11.5436 13.0879C11.0221 14.338 10.7539 15.6779 10.7543 17.031C10.7433 17.1798 10.7633 17.3291 10.813 17.4699C10.8627 17.6106 10.9411 17.7396 11.0434 17.8489C11.1456 17.9582 11.2695 18.0454 11.4072 18.105C11.5449 18.1647 11.6935 18.1955 11.8438 18.1955C11.9958 18.1972 12.1465 18.1677 12.2865 18.1091C12.4266 18.0504 12.5529 17.9637 12.6578 17.8545C12.7627 17.7453 12.8437 17.6158 12.896 17.4741C12.9483 17.3325 12.9707 17.1817 12.9617 17.031C12.9617 14.8797 13.8227 12.8164 15.3553 11.2952C16.8879 9.77401 18.9666 8.91936 21.134 8.91936C23.3015 8.91936 25.3801 9.77401 26.9127 11.2952C28.4454 12.8164 29.3064 14.8797 29.3064 17.031C29.2226 18.8127 28.8036 20.829 26.7102 22.9101C26.4772 23.1413 24.1961 25.8014 24.0973 29.305C24.0352 31.5458 24.1173 31.3013 24.1173 31.3013C24.1162 31.6849 24.039 32.0646 23.8901 32.4185C23.7412 32.7725 23.5235 33.094 23.2494 33.3645C22.9753 33.6349 22.6503 33.8492 22.2928 33.995C21.9353 34.1408 21.5524 34.2153 21.1659 34.2142C20.7794 34.2131 20.3969 34.1365 20.0402 33.9886C19.6836 33.8408 19.3598 33.6248 19.0872 33.3527C18.8147 33.0807 18.5988 32.758 18.452 32.4032C18.3051 32.0483 18.23 31.6682 18.2311 31.2846C18.2307 30.9844 18.1103 30.6967 17.8962 30.4846C17.6822 30.2725 17.3922 30.1534 17.0897 30.1534C16.7839 30.1612 16.4931 30.2873 16.2796 30.5049C16.0661 30.7224 15.9466 31.0141 15.9467 31.3179C15.9342 32.0061 16.0601 32.6899 16.3169 33.3293C16.5736 33.9687 16.9562 34.551 17.4421 35.042C17.928 35.5331 18.5077 35.9232 19.1472 36.1894C19.7867 36.4557 20.4732 36.5928 21.1667 36.5928C21.8602 36.5928 22.5467 36.4557 23.1862 36.1894C23.8257 35.9232 24.4053 35.5331 24.8913 35.042C25.3773 34.551 25.7598 33.9687 26.0165 33.3293C26.2733 32.6899 26.3991 32.0061 26.3867 31.3179C26.2794 28.8491 26.2962 26.8977 28.3979 24.3558C30.4259 21.8954 31.4416 20.0438 31.5288 17.0576C31.5292 14.32 30.4345 11.6943 28.4854 9.75742C26.5363 7.82053 23.8921 6.73105 21.134 6.72843Z" fill="black"/>
<path d="M29.5684 7.15536L28.4721 8.24347L29.9488 9.70917L31.0451 8.62105L29.5684 7.15536Z" fill="black"/>
<path d="M19.1491 15.2856L18.0422 16.3843L21.8002 20.1145L22.9071 19.0158L19.1491 15.2856Z" fill="black"/>
<path d="M15.8013 18.6105L16.9082 17.5119L20.6663 21.242L19.5594 22.3407L15.8013 18.6105Z" fill="black"/>
<path d="M14.7528 19.7259L13.6459 20.8246L17.404 24.5548L18.5109 23.456L14.7528 19.7259Z" fill="black"/>
<path d="M11.4298 23.0106L12.5367 21.912L16.2947 25.6421L15.1878 26.7408L11.4298 23.0106Z" fill="black"/>
<path d="M10.3075 24.0669L9.20065 25.1655L12.9587 28.8957L14.0656 27.797L10.3075 24.0669Z" fill="black"/>
<path d="M6.98825 27.3594L8.09516 26.2607L11.8532 29.9909L10.7463 31.0896L6.98825 27.3594Z" fill="black"/>
<path d="M28.4046 17.2007C28.351 17.6748 28.0392 17.9709 27.5867 17.9709C27.3779 17.97 27.1773 17.8902 27.0257 17.7478C26.8741 17.6053 26.7828 17.4109 26.7705 17.2041V17.0377C26.7707 16.3026 26.625 15.5747 26.3417 14.8956C26.0585 14.2164 25.6432 13.5993 25.1197 13.0794C24.5961 12.5596 23.9745 12.1472 23.2903 11.8659C22.6062 11.5845 21.8729 11.4397 21.1323 11.4397H20.8474C17.8657 11.5878 15.4958 14.2063 15.4958 17.2007C15.4854 17.4134 15.3922 17.6138 15.2359 17.7597C15.0796 17.9055 14.8723 17.9854 14.6578 17.9826C14.4473 17.9835 14.2451 17.9018 14.095 17.7554C13.945 17.6089 13.8593 17.4096 13.8566 17.2007V17.0343C13.8567 15.1945 14.5642 13.4241 15.8347 12.0845C17.1052 10.7449 18.843 9.93707 20.6932 9.82603C20.8373 9.81438 20.9831 9.81438 21.1306 9.81438C23.0598 9.81438 24.91 10.5751 26.2741 11.9291C27.6382 13.2831 28.4046 15.1195 28.4046 17.0343V17.2007Z" fill="black"/>
<path fill-rule="evenodd" clip-rule="evenodd" d="M0 5C0 2.23858 2.23858 0 5 0H37C39.7614 0 42 2.23858 42 5V37C42 39.7614 39.7614 42 37 42H5C2.23858 42 0 39.7614 0 37V5ZM5 2H37C38.6569 2 40 3.34315 40 5V37C40 38.6569 38.6569 40 37 40H5C3.34315 40 2 38.6569 2 37V5C2 3.34315 3.34315 2 5 2Z" fill="black"/>
</svg>
