<svg width="42" height="42" viewBox="0 0 42 42" fill="none" xmlns="http://www.w3.org/2000/svg">
<path d="M16.844 9.04994C16.853 9.46685 16.9446 9.87776 17.1136 10.2585C17.2825 10.6392 17.5254 10.982 17.8278 11.2669C18.1303 11.5517 18.4863 11.7728 18.8749 11.917C19.2635 12.0613 19.6767 12.1259 20.0905 12.107C20.51 12.1421 20.9321 12.0894 21.3303 11.9519C21.7284 11.8144 22.0939 11.5952 22.4037 11.3083C22.7135 11.0213 22.9607 10.6727 23.1299 10.2846C23.299 9.89651 23.3863 9.47729 23.3863 9.05346C23.3863 8.62963 23.299 8.21042 23.1299 7.82234C22.9607 7.4342 22.7135 7.08566 22.4037 6.79869C22.0939 6.51167 21.7284 6.29254 21.3303 6.15504C20.9321 6.0176 20.51 5.96478 20.0905 6.00001C19.6771 5.98011 19.264 6.04379 18.8754 6.18722C18.4869 6.33071 18.1308 6.5511 17.8282 6.83539C17.5256 7.11968 17.2827 7.46203 17.1136 7.84239C16.9446 8.22275 16.8529 8.63336 16.844 9.04994Z" fill="black"/>
<path d="M15 36.45C16.7809 36.3512 18.9476 36.3018 21.3105 36.3018C23.3649 36.3018 25.4193 36.3512 27.579 36.45V35.038C24.4447 35.038 24.2834 34.7838 24.2834 32.5317V13.5119H23.0915C20.5546 14.8633 17.8174 15.7931 14.986 16.2653V17.3667L18.1202 18.4187V32.6799C18.1202 34.685 18.008 34.9815 14.986 34.9815V36.4359L15 36.45Z" fill="black"/>
<path fill-rule="evenodd" clip-rule="evenodd" d="M0 5C0 2.23858 2.23858 0 5 0H37C39.7614 0 42 2.23858 42 5V37C42 39.7614 39.7614 42 37 42H5C2.23858 42 0 39.7614 0 37V5ZM5 2H37C38.6569 2 40 3.34315 40 5V37C40 38.6569 38.6569 40 37 40H5C3.34315 40 2 38.6569 2 37V5C2 3.34315 3.34315 2 5 2Z" fill="black"/>
</svg>
