<svg width="40" height="40" viewBox="0 0 40 40" xmlns="http://www.w3.org/2000/svg">
    <path d="M38.428 12.214a20.314 20.314 0 0 0-1.842-3.398 20.143 20.143 0 0 0-5.406-5.398 20.025 20.025 0 0 0-3.398-1.842A19.8 19.8 0 0 0 20 0 19.902 19.902 0 0 0 8.816 3.414 20.143 20.143 0 0 0 3.418 8.82a20.025 20.025 0 0 0-1.842 3.398A19.8 19.8 0 0 0 0 20a19.902 19.902 0 0 0 3.414 11.184 19.94 19.94 0 0 0 5.402 5.402 20.025 20.025 0 0 0 3.398 1.842A19.888 19.888 0 0 0 20 40a19.902 19.902 0 0 0 11.184-3.414 19.94 19.94 0 0 0 5.402-5.402 20.025 20.025 0 0 0 1.842-3.398A19.888 19.888 0 0 0 40 20c0-2.699-.53-5.317-1.572-7.786zM20 36.541C10.88 36.541 3.459 29.12 3.459 20 3.459 10.88 10.88 3.459 20 3.459c9.12 0 16.541 7.422 16.541 16.541 0 9.12-7.422 16.541-16.541 16.541zm2.57-24.792A2.571 2.571 0 0 1 20 14.32a2.571 2.571 0 0 1-2.57-2.57A2.571 2.571 0 0 1 20 9.18a2.566 2.566 0 0 1 2.57 2.57zm-.578 17.588c0 1.358-.897 2.004-1.992 2.004s-1.992-.646-1.992-2.004V18.703c0-1.358.897-1.846 1.992-1.846s1.992.492 1.992 1.846v10.634z" fill="currentColor" fill-rule="nonzero"/>
</svg>
