<svg xmlns="http://www.w3.org/2000/svg" width="31" height="31" viewBox="0 0 31 31">
    <g fill="none" fill-rule="evenodd">
        <g fill="currentColor" fill-rule="nonzero">
            <g>
                <path d="M22.445 0H8.555C3.838 0 0 3.838 0 8.555v13.89C0 27.162 3.838 31 8.555 31h13.89C27.162 31 31 27.162 31 22.445V8.555C31 3.838 27.162 0 22.445 0zm5.805 22.445c0 3.2-2.604 5.805-5.805 5.805H8.555c-3.2 0-5.805-2.604-5.805-5.805V8.555c0-3.2 2.604-5.805 5.805-5.805h13.89c3.2 0 5.805 2.604 5.805 5.805v13.89z" transform="translate(-1098.000000, -137.000000) translate(1098.000000, 137.000000)"/>
                <path d="M15.113 7.75c-4.488 0-8.138 3.477-8.138 7.75 0 4.274 3.65 7.75 8.138 7.75 4.487 0 8.137-3.476 8.137-7.75 0-4.273-3.65-7.75-8.137-7.75zm0 12.831c-2.942 0-5.336-2.28-5.336-5.081 0-2.802 2.393-5.082 5.336-5.082 2.942 0 5.335 2.28 5.335 5.082s-2.394 5.081-5.335 5.081zM23.637 5.425c-.509 0-1.009.206-1.368.567-.361.36-.569.86-.569 1.37 0 .51.208 1.01.569 1.37.36.36.86.568 1.369.568.51 0 1.009-.208 1.37-.567.36-.361.567-.861.567-1.37 0-.511-.206-1.012-.567-1.37-.36-.362-.86-.568-1.37-.568z" transform="translate(-1098.000000, -137.000000) translate(1098.000000, 137.000000)"/>
            </g>
        </g>
    </g>
</svg>
