<svg width="42" height="42" viewBox="0 0 42 42" fill="none" xmlns="http://www.w3.org/2000/svg">
<path fill-rule="evenodd" clip-rule="evenodd" d="M26.2867 13.8899C27.1737 13.8899 27.9398 14.6542 27.7562 15.7553L26.596 22.2873C26.5147 22.7215 26.4634 23.1608 26.4425 23.6021C26.4425 24.9194 27.3295 25.7754 28.8293 25.7754H29.0709C31.8455 25.5363 32.9041 22.1629 32.944 20.6802C32.96 20.2157 32.9451 19.7507 32.8993 19.2882C32.6352 16.9281 31.6931 14.6948 30.1867 12.858C28.6802 11.0211 26.6739 9.65913 24.4097 8.93641C22.1456 8.2137 19.7206 8.1612 17.4272 8.78521C15.1339 9.40923 13.0703 10.6831 11.4857 12.453C9.90101 14.223 8.86293 16.4134 8.49679 18.7597C8.1306 21.1062 8.45201 23.5083 9.42221 25.6762C10.3924 27.8441 11.9698 29.6851 13.9642 30.9771C15.9585 32.269 18.2845 32.9566 20.6614 32.9568C23.3786 32.9658 26.021 32.0679 28.1694 30.4057C28.2396 30.3517 28.3198 30.312 28.4054 30.289C28.4909 30.266 28.5802 30.26 28.6681 30.2714C28.7559 30.2829 28.8407 30.3115 28.9175 30.3556C28.9943 30.3998 29.0616 30.4586 29.1156 30.5288C29.1697 30.599 29.2094 30.6791 29.2324 30.7645C29.2554 30.85 29.2614 30.9392 29.25 31.027C29.2385 31.1148 29.2099 31.1995 29.1657 31.2762C29.1215 31.3529 29.0626 31.4202 28.9924 31.4742C26.5986 33.314 23.6623 34.3095 20.6422 34.3051C17.6221 34.3008 14.6886 33.2969 12.3002 31.4502C9.91177 29.6036 8.20305 27.0183 7.44112 24.0985C6.67919 21.1787 6.90699 18.0889 8.08892 15.3123C9.27085 12.5355 11.3403 10.2283 13.9738 8.7513C16.6073 7.27426 19.6564 6.71062 22.6445 7.14847C25.6326 7.58632 28.3912 9.00104 30.4893 11.1714C32.5874 13.3418 33.9066 16.1456 34.2406 19.1445C34.2947 19.6561 34.3125 20.1709 34.2938 20.6851C34.2189 22.8958 32.9259 26.402 29.7356 27.0455C29.6808 27.0584 29.6131 27.0705 29.5325 27.0817C29.2873 27.1204 28.9404 27.1433 28.9404 27.1433H28.4196C28.2359 27.1433 28.0002 27.1397 27.7839 27.1264C27.5896 27.1162 27.3959 27.0952 27.2039 27.0636C25.3791 26.8342 24.2311 25.9553 23.6269 24.9821C22.5248 26.1146 21.0263 27.1228 18.885 27.1228C15.8264 27.1228 13.349 24.8614 13.349 21.3467C13.349 17.0074 16.7448 13.7076 20.2928 13.7076C22.4958 13.7076 23.8106 14.7447 24.6045 15.9678L24.6976 15.4173C24.88 14.4103 25.4311 13.8899 26.2867 13.8899ZM16.5007 21.1632C16.5007 23.2725 17.8155 24.4629 19.7115 24.4629V24.4641C21.9447 24.4641 23.9314 22.2631 23.9314 19.6347C23.9314 17.6787 22.5562 16.3337 20.7206 16.3337C18.4886 16.3337 16.5007 18.4128 16.5007 21.1632Z" fill="black"/>
<path fill-rule="evenodd" clip-rule="evenodd" d="M0 5C0 2.23858 2.23858 0 5 0H37C39.7614 0 42 2.23858 42 5V37C42 39.7614 39.7614 42 37 42H5C2.23858 42 0 39.7614 0 37V5ZM5 2H37C38.6569 2 40 3.34315 40 5V37C40 38.6569 38.6569 40 37 40H5C3.34315 40 2 38.6569 2 37V5C2 3.34315 3.34315 2 5 2Z" fill="black"/>
</svg>
