<svg width="42" height="42" viewBox="0 0 42 42" fill="none" xmlns="http://www.w3.org/2000/svg">
<path d="M27.8149 13.8839C27.3763 14.1769 26.8608 14.3333 26.3333 14.3333C25.6261 14.3333 24.9478 14.0524 24.4477 13.5523C23.9476 13.0522 23.6667 12.3739 23.6667 11.6667C23.6667 11.1392 23.8231 10.6237 24.1161 10.1851C24.4091 9.74662 24.8256 9.40482 25.3128 9.20299C25.8001 9.00115 26.3363 8.94835 26.8536 9.05124C27.3709 9.15413 27.846 9.40811 28.219 9.78105C28.5919 10.154 28.8459 10.6291 28.9488 11.1464C29.0517 11.6637 28.9988 12.1999 28.797 12.6872C28.5952 13.1744 28.2534 13.5909 27.8149 13.8839Z" fill="black"/>
<path d="M19.8977 31.1533C20.6996 30.7896 21.3989 30.2331 21.9333 29.5333C22.1455 29.2504 22.4614 29.0634 22.8114 29.0134C23.1615 28.9634 23.5171 29.0545 23.8 29.2667C24.0829 29.4788 24.2699 29.7947 24.3199 30.1448C24.3699 30.4948 24.2788 30.8504 24.0667 31.1333C23.3215 32.1269 22.3552 32.9333 21.2444 33.4888C20.1335 34.0442 18.9086 34.3333 17.6667 34.3333C15.5449 34.4518 13.463 33.7225 11.879 32.306C10.2949 30.8895 9.33846 28.9017 9.22 26.78C9.10154 24.6583 9.83078 22.5764 11.2473 20.9923C12.6638 19.4083 14.6516 18.4518 16.7733 18.3333C17.127 18.2944 17.4815 18.3976 17.7591 18.6201C18.0367 18.8427 18.2144 19.1664 18.2533 19.52C18.2922 19.8736 18.1891 20.2282 17.9665 20.5058C17.744 20.7833 17.4203 20.9611 17.0667 21C16.1923 21.1037 15.3572 21.4222 14.6359 21.9272C13.9147 22.4322 13.3296 23.1079 12.933 23.894C12.5365 24.6801 12.3407 25.5522 12.3632 26.4324C12.3856 27.3126 12.6257 28.1736 13.0619 28.9384C13.4981 29.7032 14.1169 30.3482 14.863 30.8157C15.6091 31.2832 16.4594 31.5587 17.3379 31.6176C18.2164 31.6765 19.0958 31.517 19.8977 31.1533Z" fill="black"/>
<path d="M29.6667 31.6667H31L31.0667 31.6133C31.4203 31.6133 31.7594 31.7538 32.0095 32.0039C32.2595 32.2539 32.4 32.593 32.4 32.9467C32.4 33.3003 32.2595 33.6394 32.0095 33.8895C31.7594 34.1395 31.4203 34.28 31.0667 34.28H28.4C28.0464 34.28 27.7072 34.1395 27.4572 33.8895C27.2071 33.6394 27.0667 33.3003 27.0667 32.9467V26.28H20.4C20.2454 26.2798 20.092 26.2527 19.9467 26.2C19.8575 26.1546 19.7727 26.101 19.6933 26.04C19.6264 26.0079 19.5637 25.9676 19.5067 25.92C19.4459 25.8578 19.3963 25.7856 19.36 25.7067L19.2133 25.5067C19.1669 25.3403 19.1312 25.171 19.1067 25C19.0942 24.9205 19.0942 24.8395 19.1067 24.76C19.1002 24.689 19.1002 24.6176 19.1067 24.5467L21.6267 17.6L17.3067 15.0933L14.3333 16.8267C14.1223 16.9465 13.8826 17.0064 13.64 17C13.3471 16.9962 13.0635 16.8961 12.8332 16.715C12.6029 16.5339 12.4386 16.282 12.3657 15.9983C12.2929 15.7145 12.3156 15.4146 12.4302 15.145C12.5448 14.8754 12.7451 14.6511 13 14.5067L16.5867 12.4133H16.7333C16.8177 12.3705 16.9074 12.3391 17 12.32H17.5333C17.6201 12.3387 17.7049 12.3654 17.7867 12.4H17.9467L23.92 15.84C24.0267 15.8667 24.0267 15.9467 24.0267 15.9467C24.1019 15.9937 24.1694 16.0522 24.2267 16.12C24.284 16.18 24.3333 16.2473 24.3733 16.32C24.4185 16.3927 24.4586 16.4684 24.4933 16.5467C24.5009 16.6309 24.5009 16.7157 24.4933 16.8C24.4999 16.8799 24.4999 16.9601 24.4933 17.04V17.4533L22.24 23.6667H28.3333C28.687 23.6667 29.0261 23.8071 29.2761 24.0572C29.5262 24.3072 29.6667 24.6464 29.6667 25V31.6667Z" fill="black"/>
<path fill-rule="evenodd" clip-rule="evenodd" d="M0 5C0 2.23858 2.23858 0 5 0H37C39.7614 0 42 2.23858 42 5V37C42 39.7614 39.7614 42 37 42H5C2.23858 42 0 39.7614 0 37V5ZM5 2H37C38.6569 2 40 3.34315 40 5V37C40 38.6569 38.6569 40 37 40H5C3.34315 40 2 38.6569 2 37V5C2 3.34315 3.34315 2 5 2Z" fill="black"/>
</svg>
