<svg width="43" height="43" viewBox="0 0 43 43" fill="none" xmlns="http://www.w3.org/2000/svg">
<path d="M18.0867 36.5304C19.817 36.5358 21.5197 36.1045 23.0314 35.2778C24.5433 34.4512 25.8136 33.257 26.7205 31.8098C26.8004 31.6832 26.8542 31.5423 26.8787 31.3953C26.9031 31.2483 26.8979 31.098 26.8632 30.9529C26.8286 30.8079 26.7652 30.671 26.6766 30.55C26.5881 30.429 26.4761 30.3263 26.3472 30.2479C26.2183 30.1693 26.0749 30.1166 25.9252 30.0925C25.7755 30.0684 25.6224 30.0736 25.4747 30.1076C25.327 30.1417 25.1876 30.2039 25.0645 30.2909C24.9413 30.3779 24.8367 30.4878 24.7569 30.6144C24.1444 31.5817 23.3212 32.4037 22.3465 33.0211C21.3718 33.6385 20.2699 34.036 19.12 34.185C17.9701 34.3339 16.8009 34.2307 15.6966 33.8826C14.5922 33.5345 13.5801 32.9503 12.7332 32.172C11.8863 31.3937 11.2257 30.4407 10.7988 29.3815C10.3719 28.3224 10.1894 27.1834 10.2645 26.0467C10.3396 24.91 10.6703 23.8037 11.2329 22.8076C11.7955 21.8115 12.5759 20.9503 13.5181 20.2859C13.6436 20.1998 13.7503 20.0902 13.8322 19.9633C13.9142 19.8364 13.9696 19.6947 13.9954 19.5466C14.0211 19.3985 14.0166 19.2468 13.9822 19.1004C13.9477 18.954 13.884 18.8157 13.7947 18.6937C13.7054 18.5717 13.5923 18.4683 13.462 18.3895C13.3316 18.3108 13.1867 18.2583 13.0356 18.235C12.8844 18.2118 12.73 18.2182 12.5814 18.254C12.4328 18.2899 12.2929 18.3543 12.1699 18.4437C10.4218 19.6737 9.11652 21.417 8.44193 23.4224C7.76741 25.4278 7.75851 27.5917 8.41653 29.6024C9.07448 31.6131 10.3655 33.3666 12.1033 34.6105C13.8412 35.8544 15.9363 36.5243 18.0867 36.5237V36.5304Z" fill="black"/>
<path d="M17.6367 12.1417C16.8715 12.181 16.1536 12.5172 15.6409 13.0764C15.1281 13.6356 14.8625 14.3719 14.9024 15.1234L15.3455 23.4201C15.3464 23.4324 15.3464 23.4449 15.3455 23.4573C15.3819 24.1872 15.7038 24.8751 16.244 25.3777C16.7843 25.8801 17.5012 26.1585 18.2453 26.1545H26.0653L28.41 32.4769C28.5305 32.8056 28.7517 33.0896 29.0431 33.2899C29.3344 33.4903 29.6818 33.5973 30.0374 33.5961C30.1492 33.5958 30.2607 33.5844 30.3702 33.5623C30.4422 33.5504 30.5131 33.5328 30.5822 33.5098L33.6665 32.4058C33.8119 32.3572 33.9461 32.2805 34.061 32.1803C34.1758 32.08 34.2692 31.9583 34.3356 31.8222C34.4021 31.686 34.4401 31.5383 34.4476 31.3875C34.4551 31.2368 34.432 31.086 34.3794 30.9442C34.3269 30.8023 34.246 30.6723 34.1417 30.5614C34.0373 30.4507 33.9114 30.3615 33.7715 30.2991C33.6316 30.2367 33.4804 30.2023 33.3267 30.198C33.1731 30.1937 33.0202 30.2196 32.8769 30.2741L31.4684 30.782C31.4684 30.782 28.8824 23.8061 28.8306 23.6842C28.8004 23.6174 28.7665 23.5524 28.7289 23.4894C28.5718 23.2104 28.3416 22.9777 28.0621 22.8155C27.7826 22.6532 27.464 22.5673 27.1394 22.5667H21.0795L20.9657 20.418H25.9895C26.2958 20.418 26.5896 20.2985 26.8063 20.0857C27.0229 19.8729 27.1446 19.5844 27.1446 19.2835C27.1446 18.9827 27.0229 18.6941 26.8063 18.4814C26.5896 18.2686 26.2958 18.1491 25.9895 18.1491H20.8433L20.6709 14.9456C20.6709 14.9083 20.6709 14.8728 20.6709 14.8355C20.6524 14.4628 20.5591 14.0972 20.3965 13.76C20.2338 13.4227 20.0051 13.1202 19.7232 12.87C19.4413 12.6198 19.1119 12.4266 18.7538 12.3016C18.3958 12.1766 18.0161 12.1222 17.6367 12.1417Z" fill="black"/>
<path d="M17.9143 11.356C18.4846 11.3265 19.033 11.1315 19.4905 10.7959C19.948 10.4602 20.2938 9.9989 20.4844 9.47022C20.6749 8.94154 20.7016 8.36924 20.561 7.8257C20.4205 7.28215 20.119 6.79173 19.6947 6.41639C19.2704 6.04111 18.7423 5.79773 18.1772 5.71713C17.6122 5.63653 17.0354 5.72231 16.5199 5.96356C16.0044 6.20481 15.5733 6.59075 15.2812 7.07258C14.989 7.55441 14.8488 8.11051 14.8783 8.67056C14.9184 9.42203 15.2608 10.1271 15.8301 10.6307C16.3995 11.1343 17.1492 11.3952 17.9143 11.356Z" fill="black"/>
<path fill-rule="evenodd" clip-rule="evenodd" d="M37.1892 2.10907H5.18921C3.53236 2.10907 2.18921 3.45222 2.18921 5.10907V37.1091C2.18921 38.7659 3.53236 40.1091 5.18921 40.1091H37.1892C38.8461 40.1091 40.1892 38.7659 40.1892 37.1091V5.10907C40.1892 3.45222 38.8461 2.10907 37.1892 2.10907ZM5.18921 0.10907C2.42779 0.10907 0.189209 2.34765 0.189209 5.10907V37.1091C0.189209 39.8705 2.42779 42.1091 5.18921 42.1091H37.1892C39.9506 42.1091 42.1892 39.8705 42.1892 37.1091V5.10907C42.1892 2.34765 39.9506 0.10907 37.1892 0.10907H5.18921Z" fill="black"/>
</svg>
