<svg width="42" height="42" viewBox="0 0 42 42" fill="none" xmlns="http://www.w3.org/2000/svg">
<path fill-rule="evenodd" clip-rule="evenodd" d="M28.1151 9.13971C27.9189 8.71002 27.5829 8.43994 27.093 8.43994H27.0098C26.7855 8.43707 26.5658 8.50269 26.3804 8.62781C26.195 8.75305 26.053 8.93176 25.9736 9.13971L22.3373 17.1827C22.2706 17.3021 22.2324 17.4352 22.2258 17.5717C22.2247 17.6758 22.2446 17.7791 22.2843 17.8754C22.324 17.9718 22.3827 18.0593 22.457 18.1329C22.5313 18.2064 22.6197 18.2645 22.717 18.3036C22.8142 18.3428 22.9184 18.3623 23.0234 18.361C23.1967 18.3652 23.3669 18.3152 23.51 18.2183C23.6531 18.1214 23.7619 17.9824 23.8209 17.8208L24.6524 15.9497H29.4081L30.2057 17.769C30.3595 18.1287 30.639 18.3638 31.0526 18.3638C31.1604 18.3644 31.2672 18.3436 31.3667 18.3026C31.4662 18.2615 31.5564 18.2011 31.6319 18.1249C31.7074 18.0487 31.7668 17.9583 31.8065 17.8589C31.8461 17.7595 31.8653 17.6533 31.8629 17.5465C31.8614 17.42 31.8279 17.2958 31.7655 17.1854L28.1151 9.13971ZM25.3032 14.4382L27.0225 10.5196L28.7461 14.4382H25.3032Z" fill="black"/>
<path fill-rule="evenodd" clip-rule="evenodd" d="M34.7788 9.09943C35.8025 10.6184 36.349 12.4042 36.349 14.2311C36.349 16.6808 35.3674 19.0302 33.6202 20.7625C31.873 22.4946 29.5033 23.4678 27.0324 23.4678C25.1897 23.4678 23.3884 22.9261 21.8563 21.9112C20.3242 20.8962 19.1301 19.4537 18.4249 17.7658C17.7198 16.0781 17.5353 14.2209 17.8948 12.4291C18.2543 10.6374 19.1416 8.99158 20.4446 7.69977C21.7475 6.40796 23.4075 5.52826 25.2148 5.17188C27.022 4.81549 28.8953 4.99841 30.5977 5.69751C32.3 6.39661 33.7551 7.58051 34.7788 9.09943ZM22.7164 20.6521C23.9957 21.4991 25.4996 21.951 27.038 21.9507C29.1015 21.9482 31.0796 21.1337 32.5379 19.6863C33.9963 18.239 34.8156 16.2769 34.816 14.2311C34.8145 12.7059 34.3571 11.2154 33.5014 9.94794C32.6457 8.68048 31.4301 7.69299 30.0084 7.11035C28.5867 6.52777 27.0227 6.3761 25.5141 6.67462C24.0055 6.97308 22.6199 7.70837 21.5328 8.78735C20.4455 9.86646 19.7055 11.2408 19.4061 12.7369C19.1066 14.2329 19.2613 15.7833 19.8505 17.1922C20.4397 18.6011 21.437 19.8051 22.7164 20.6521Z" fill="black"/>
<path fill-rule="evenodd" clip-rule="evenodd" d="M14.1135 12.2975C14.2303 12.377 14.3194 12.4902 14.3688 12.6216L16.6302 17.6235C16.6706 17.6939 16.692 17.7734 16.6923 17.8544C16.6936 17.9233 16.6811 17.9918 16.6553 18.0559C16.6296 18.1199 16.5912 18.1783 16.5424 18.2274C16.4936 18.2766 16.4354 18.3156 16.3712 18.342C16.3071 18.3687 16.2382 18.3822 16.1686 18.382C16.0496 18.3828 15.9334 18.3463 15.8365 18.2776C15.7397 18.209 15.6672 18.1119 15.6294 17.9999L15.1382 16.8804H12.2077L11.6995 18.0321C11.6618 18.1362 11.5921 18.226 11.5001 18.2885C11.4081 18.3511 11.2986 18.3833 11.1871 18.3806C11.1192 18.3813 11.052 18.3687 10.9892 18.3432C10.9265 18.3178 10.8694 18.2802 10.8216 18.2326C10.7913 18.2025 10.7651 18.1688 10.7435 18.1324C10.736 18.1199 10.7291 18.107 10.7227 18.0938C10.7183 18.0847 10.7142 18.0754 10.7104 18.0661C10.6849 18.0038 10.6723 17.937 10.6733 17.8698C10.6765 17.7823 10.7007 17.697 10.7438 17.6207L13.0024 12.6216C13.0546 12.4901 13.1458 12.3772 13.264 12.298C13.3822 12.2188 13.5218 12.177 13.6644 12.178H13.7167C13.8582 12.1764 13.9968 12.2181 14.1135 12.2975ZM13.6729 13.5244L12.634 15.9035H14.7119L13.6729 13.5244Z" fill="black"/>
<path d="M36.3927 34.139L33.0204 24.9555C32.8542 24.5241 32.5236 24.1748 32.0999 23.983C31.6762 23.7911 31.1934 23.7722 30.7557 23.9302C30.3181 24.0881 29.9606 24.4105 29.7605 24.8275C29.5604 25.2444 29.5337 25.7227 29.6862 26.1591L33.0585 35.3426C33.1819 35.6829 33.4083 35.9772 33.7066 36.1854C34.005 36.3935 34.3608 36.5053 34.7256 36.5056C34.9326 36.5049 35.1379 36.4689 35.3326 36.3992C35.5522 36.3202 35.7539 36.199 35.9261 36.0425C36.0983 35.886 36.2376 35.6973 36.3361 35.4874C36.4346 35.2774 36.4903 35.0502 36.5 34.8188C36.5097 34.5874 36.4733 34.3564 36.3927 34.139Z" fill="black"/>
<path fill-rule="evenodd" clip-rule="evenodd" d="M7.5673 13.9385C7.66159 14.0021 7.73367 14.0931 7.77383 14.1989L9.39577 17.7816C9.429 17.8401 9.44649 17.9062 9.44659 17.9734C9.44727 18.0094 9.44346 18.0453 9.43527 18.0802C9.43028 18.1015 9.42367 18.1224 9.41546 18.1428C9.39383 18.1967 9.36154 18.2457 9.32054 18.287C9.27949 18.3284 9.23055 18.3612 9.17658 18.3835C9.12256 18.4058 9.06465 18.4172 9.00617 18.417C8.90815 18.4172 8.81255 18.3871 8.73259 18.3309C8.65263 18.2747 8.59236 18.1953 8.56007 18.1035L8.22271 17.3422H6.20409L5.85685 18.1287C5.82451 18.214 5.76655 18.2873 5.69085 18.3389C5.61509 18.3904 5.52521 18.4177 5.43339 18.417C5.37595 18.4183 5.31889 18.4081 5.26559 18.3869C5.21231 18.3657 5.16396 18.334 5.12343 18.2936C5.08285 18.2534 5.05103 18.2053 5.02982 18.1524C5.00861 18.0995 4.99846 18.0428 5 17.986C5.00257 17.9133 5.02236 17.8423 5.05791 17.7789L6.67701 14.1989C6.71885 14.0931 6.79214 14.0024 6.88721 13.939C6.98224 13.8754 7.09454 13.8422 7.2092 13.8434H7.24726C7.36129 13.8417 7.47306 13.8749 7.5673 13.9385ZM7.21481 15.0386L6.56969 16.5123H7.86135L7.21481 15.0386Z" fill="black"/>
<path fill-rule="evenodd" clip-rule="evenodd" d="M0 5C0 2.23859 2.23858 0 5 0H37C39.7614 0 42 2.23859 42 5V37C42 39.7614 39.7614 42 37 42H5C2.23858 42 0 39.7614 0 37V5ZM5 2H37C38.6569 2 40 3.34314 40 5V37C40 38.6569 38.6569 40 37 40H5C3.34315 40 2 38.6569 2 37V5C2 3.34314 3.34315 2 5 2Z" fill="black"/>
</svg>
