<svg width="42" height="42" viewBox="0 0 42 42" fill="none" xmlns="http://www.w3.org/2000/svg">
<path d="M36.0361 12.7466L32.6751 11.0538C32.5628 11.0012 32.4398 10.9756 32.3158 10.979C32.1919 10.9824 32.0704 11.0147 31.9612 11.0733C31.8519 11.1319 31.7579 11.2152 31.6867 11.3166C31.6154 11.418 31.5689 11.5346 31.5507 11.6571L31.1031 15.3901C31.0796 15.5884 31.1357 15.7878 31.2594 15.9446C31.383 16.1014 31.5639 16.2028 31.7624 16.2264H31.8527C32.0369 16.2261 32.2146 16.1583 32.3522 16.036C32.4899 15.9137 32.5779 15.7452 32.5996 15.5625L32.7681 14.1417C34.0498 16.2797 34.7229 18.7266 34.7149 21.2186C34.7149 28.7843 28.6117 34.9387 21.1091 34.9387C13.6064 34.9387 7.50995 28.7897 7.50995 21.224C7.50995 13.6583 13.6105 7.50388 21.1131 7.50388C23.2118 7.49832 25.2823 7.98641 27.157 8.92868C27.2455 8.97294 27.3419 8.9993 27.4406 9.00628C27.5393 9.01331 27.6385 9.00082 27.7324 8.96953C27.8262 8.93829 27.9131 8.88883 27.9878 8.8241C28.0626 8.75932 28.1239 8.68046 28.1681 8.59205C28.2124 8.50359 28.2388 8.40736 28.2458 8.30871C28.2528 8.21011 28.2403 8.1111 28.209 8.01728C28.1777 7.92352 28.1282 7.83679 28.0634 7.76213C27.9986 7.68743 27.9196 7.62621 27.8311 7.582C25.747 6.53557 23.4457 5.99351 21.1131 5.99965C12.78 5.99965 6 12.8287 6 21.2173C6 29.6058 12.78 36.4497 21.1131 36.4497C29.4462 36.4497 36.2262 29.6192 36.2262 21.224C36.2351 18.4958 35.5077 15.8157 34.1204 13.4657L35.3593 14.0906C35.4645 14.1427 35.5803 14.1699 35.6977 14.17C35.8674 14.1707 36.0324 14.1141 36.1658 14.0093C36.2992 13.9045 36.3932 13.7577 36.4326 13.5928C36.4719 13.4279 36.4543 13.2546 36.3826 13.101C36.3109 12.9473 36.1892 12.8224 36.0375 12.7466H36.0361Z" fill="black"/>
<path d="M18.2568 17.4651C18.1432 17.6587 17.9573 17.7995 17.7399 17.8563L17.7359 17.8549C16.6787 18.1334 15.7195 18.6993 14.9648 19.4896C14.2102 20.2799 13.6897 21.2637 13.4612 22.3318C13.2327 23.3998 13.3051 24.5102 13.6704 25.5397C14.0357 26.569 14.6796 27.4771 15.5305 28.163C16.3814 28.8488 17.406 29.2856 18.4905 29.4247C19.5749 29.5638 20.6768 29.3999 21.6736 28.9511C22.6704 28.5023 23.5231 27.7862 24.137 26.8825C24.7508 25.9787 25.1018 24.9226 25.1509 23.8315C25.161 23.614 25.2545 23.4086 25.4122 23.2581C25.5698 23.1077 25.7795 23.0237 25.9976 23.0235H26.0339C26.145 23.0284 26.2541 23.055 26.3549 23.102C26.4557 23.1489 26.5462 23.2153 26.6214 23.2972C26.6964 23.3791 26.7547 23.475 26.7927 23.5794C26.8307 23.6838 26.8477 23.7946 26.8429 23.9056C26.7809 25.3104 26.33 26.6705 25.5403 27.8345C24.7506 28.9986 23.6532 29.9211 22.37 30.4993C21.0868 31.0775 19.6682 31.2888 18.2719 31.1097C16.8757 30.9306 15.5565 30.3681 14.4612 29.4848C13.3659 28.6015 12.5374 27.4319 12.0678 26.1063C11.5982 24.7807 11.506 23.3509 11.8014 21.9761C12.0967 20.6012 12.7681 19.3352 13.7409 18.3188C14.7136 17.3023 15.9495 16.5753 17.3112 16.2187C17.5286 16.1619 17.7597 16.1937 17.9536 16.3071C18.1476 16.4205 18.2884 16.6062 18.3453 16.8233C18.4021 17.0405 18.3703 17.2713 18.2568 17.4651Z" fill="black"/>
<path d="M26.5207 15.8241H22.8348C22.5019 15.8241 22.2321 16.0936 22.2321 16.4261V17.0267C22.2321 17.3592 22.5019 17.6286 22.8348 17.6286H26.5207C26.8535 17.6286 27.1233 17.3592 27.1233 17.0267V16.4261C27.1233 16.0936 26.8535 15.8241 26.5207 15.8241Z" fill="black"/>
<path d="M20.3229 11.6513C20.4316 11.7426 20.5046 11.8692 20.5293 12.0089L21.9962 20.3274H28.5254C28.5617 20.3279 28.5978 20.3319 28.6332 20.3395C28.7345 20.3593 28.829 20.405 28.9074 20.472C28.9858 20.539 29.0456 20.6251 29.0808 20.722L31.3188 26.8292C31.3459 26.9035 31.3581 26.9824 31.3547 27.0614C31.3512 27.1403 31.3322 27.2179 31.2988 27.2895C31.2654 27.3612 31.2182 27.4256 31.1598 27.479C31.1015 27.5324 31.0332 27.5738 30.9589 27.6009L30.3926 27.8069C30.2425 27.8616 30.0767 27.8544 29.9318 27.787C29.787 27.7195 29.6748 27.5974 29.6201 27.4474L27.6747 22.1266H20.9837C20.8421 22.1264 20.7051 22.0764 20.5968 21.9853C20.4885 21.8941 20.4159 21.7677 20.3918 21.6283L18.9237 13.3152H17.0443C16.965 13.3152 16.8866 13.2996 16.8134 13.2693C16.7401 13.2389 16.6737 13.1944 16.6177 13.1384C16.5617 13.0824 16.5173 13.0158 16.4871 12.9427C16.4569 12.8695 16.4415 12.791 16.4417 12.7119V12.1099C16.442 11.9505 16.5057 11.7977 16.6187 11.6851C16.7316 11.5725 16.8847 11.5093 17.0443 11.5093H19.9348C20.0768 11.5097 20.2142 11.5599 20.3229 11.6513Z" fill="black"/>
<path fill-rule="evenodd" clip-rule="evenodd" d="M5 0C2.23858 0 0 2.23858 0 5V37C0 39.7614 2.23858 42 5 42H37C39.7614 42 42 39.7614 42 37V5C42 2.23858 39.7614 0 37 0H5ZM37 2H5C3.34315 2 2 3.34315 2 5V37C2 38.6569 3.34315 40 5 40H37C38.6569 40 40 38.6569 40 37V5C40 3.34315 38.6569 2 37 2Z" fill="black"/>
</svg>
