<svg width="42" height="42" viewBox="0 0 42 42" fill="none" xmlns="http://www.w3.org/2000/svg">
<path d="M31.8323 5.45795H34.825V36.5H31.8323V5.45795Z" fill="black"/>
<path d="M9.99271 5.45795H7V36.5H9.99271V5.45795Z" fill="black"/>
<path d="M16.7195 14.2686H13.8818V8.76735L10.984 10.9793V8.2885L15.3007 5L19.6182 8.2885V10.9793L16.7195 8.76735V14.2686Z" fill="black"/>
<path d="M27.9432 5.17273H25.1055V10.6739L22.2077 8.46206V11.1528L26.5243 14.4413L30.8418 11.1528V8.46206L27.9432 10.6739V5.17273Z" fill="black"/>
<path fill-rule="evenodd" clip-rule="evenodd" d="M30.8409 33.5353H10.984V15.8353H30.8409V33.5353ZM26.4145 18.1885C26.2106 18.0538 25.9711 17.9819 25.726 17.9821C25.3977 17.9826 25.0829 18.112 24.8508 18.342C24.6187 18.572 24.4883 18.8838 24.4881 19.209C24.4881 19.4517 24.5607 19.6889 24.6969 19.8907C24.833 20.0924 25.0266 20.2497 25.253 20.3426C25.4794 20.4354 25.7285 20.4596 25.9688 20.4122C26.2091 20.3648 26.4299 20.2479 26.6031 20.0762C26.7763 19.9045 26.8942 19.6859 26.9419 19.4479C26.9896 19.2098 26.965 18.9631 26.8711 18.7389C26.7772 18.5148 26.6183 18.3232 26.4145 18.1885ZM23.1901 21.5173L21.832 25.2131L21.841 25.2124C21.8141 25.2865 21.8056 25.366 21.8161 25.444C21.8267 25.5222 21.856 25.5966 21.9016 25.6611C21.9473 25.7256 22.0079 25.7784 22.0783 25.8149C22.1488 25.8515 22.227 25.8708 22.3066 25.8712C22.4081 25.8712 22.5071 25.8404 22.5904 25.7829C22.6737 25.7254 22.7371 25.6441 22.7723 25.5498L23.977 22.2726C23.9811 22.2653 23.9871 22.2592 23.9944 22.255C24.0016 22.2508 24.0099 22.2485 24.0183 22.2485C24.0288 22.2486 24.0389 22.2522 24.0471 22.2588C24.0551 22.2654 24.0608 22.2745 24.063 22.2846V30.5368C24.069 30.7064 24.1412 30.8671 24.2645 30.9849C24.3877 31.1028 24.5524 31.1687 24.7237 31.1687C24.8951 31.1687 25.0597 31.1028 25.183 30.9849C25.3062 30.8671 25.3785 30.7064 25.3845 30.5368V26.8932C25.3844 26.8556 25.3918 26.8183 25.4062 26.7835C25.4207 26.7487 25.442 26.7171 25.4688 26.6904C25.4956 26.6638 25.5275 26.6426 25.5626 26.6282C25.5977 26.6138 25.6353 26.6063 25.6733 26.6063C25.7113 26.6063 25.7489 26.6138 25.784 26.6282C25.8191 26.6426 25.851 26.6638 25.8778 26.6904C25.9046 26.7171 25.9259 26.7487 25.9404 26.7835C25.9548 26.8183 25.9622 26.8556 25.9621 26.8932V30.5368C25.9681 30.7064 26.0403 30.8671 26.1636 30.9849C26.2869 31.1028 26.4515 31.1687 26.6229 31.1687C26.7942 31.1687 26.9589 31.1028 27.0821 30.9849C27.2054 30.8671 27.2776 30.7064 27.2836 30.5368V22.287C27.2858 22.2769 27.2915 22.2678 27.2995 22.2612C27.3076 22.2546 27.3178 22.251 27.3283 22.2508C27.3367 22.2508 27.345 22.253 27.3523 22.2573C27.3595 22.2615 27.3655 22.2676 27.3696 22.275L28.5743 25.5522C28.6093 25.6464 28.6726 25.7277 28.7558 25.7852C28.8389 25.8427 28.9378 25.8735 29.0392 25.8736H29.0432C29.1228 25.8732 29.201 25.854 29.2715 25.8174C29.342 25.7808 29.4026 25.7281 29.4482 25.6635C29.4938 25.599 29.5231 25.5246 29.5337 25.4464C29.5442 25.3684 29.5357 25.2889 29.5089 25.2148L28.1508 21.5189C28.1398 21.4864 28.1265 21.4548 28.1111 21.4241C28.0182 21.2267 27.8704 21.0597 27.685 20.9426C27.4997 20.8255 27.2845 20.7631 27.0646 20.7629H24.282C24.0613 20.7618 23.8449 20.8234 23.6585 20.9403C23.472 21.0571 23.3232 21.2245 23.2298 21.4225C23.2144 21.4531 23.2011 21.4848 23.1901 21.5173ZM16.8503 18.1107C16.6439 17.9743 16.4014 17.9016 16.1533 17.9018L16.1574 17.905C15.9927 17.9046 15.8295 17.9363 15.6771 17.9983C15.5248 18.0603 15.3863 18.1515 15.2695 18.2666C15.1528 18.3816 15.0601 18.5183 14.9966 18.6688C14.9332 18.8194 14.9004 18.9808 14.8999 19.1439C14.8999 19.3896 14.9735 19.6298 15.1113 19.8341C15.2492 20.0384 15.4451 20.1976 15.6744 20.2916C15.9036 20.3856 16.1558 20.4101 16.3991 20.3621C16.6424 20.3141 16.8658 20.1958 17.0413 20.0219C17.2166 19.8482 17.336 19.6268 17.3843 19.3857C17.4326 19.1448 17.4076 18.895 17.3126 18.668C17.2175 18.4411 17.0567 18.2471 16.8503 18.1107ZM13.2867 22.5706C12.9129 23.5861 12.435 24.8841 12.321 25.177L12.325 25.1802C12.106 25.7427 13.0349 26.064 13.2328 25.549C13.3598 25.2216 14.0306 23.4031 14.3322 22.5853C14.4103 22.3737 14.4636 22.2291 14.4765 22.1946C14.4872 22.1649 14.5094 22.1406 14.5383 22.1271C14.5671 22.1136 14.6002 22.1121 14.6302 22.1227C14.6602 22.1333 14.6847 22.1554 14.6983 22.1839C14.7119 22.2125 14.7136 22.2452 14.7028 22.275C14.692 22.3215 14.5752 22.7961 14.4134 23.4537C14.0158 25.0691 13.3465 27.7887 13.3091 27.9794C13.2563 28.2478 13.4973 28.5571 13.808 28.5627C14.1187 28.5684 14.5543 28.5627 14.5543 28.5627V30.4854C14.5543 31.2784 15.8702 31.3571 15.8702 30.4854V28.5627H16.4462V30.4854C16.4486 31.3033 17.762 31.3081 17.762 30.4854V28.5627H18.5465C18.616 28.5591 18.684 28.541 18.7459 28.5097C18.8079 28.4783 18.8626 28.4343 18.9063 28.3807C18.9499 28.327 18.9818 28.2649 18.9996 28.1982C19.0174 28.1316 19.0209 28.0619 19.0097 27.9939C18.9727 27.7717 18.1835 24.5738 17.8068 23.0474C17.6959 22.5978 17.6207 22.2932 17.6111 22.2525C17.5786 22.1151 17.788 22.0684 17.8334 22.189C17.8699 22.2858 18.233 23.2681 18.561 24.1552C18.78 24.7475 18.9833 25.2973 19.0632 25.5129C19.2742 26.0793 20.1836 25.725 19.9954 25.1915C19.842 24.7584 18.7136 21.6941 18.5781 21.3526C18.4426 21.0111 17.9567 20.7179 17.4951 20.7179C17.3735 20.7179 17.1488 20.7178 16.877 20.7176C16.1176 20.7172 14.9906 20.7167 14.7182 20.7179C14.3483 20.7195 13.881 20.9694 13.7447 21.3301C13.694 21.4645 13.5087 21.9678 13.2867 22.5706Z" fill="black"/>
<path fill-rule="evenodd" clip-rule="evenodd" d="M0 5C0 2.23858 2.23858 0 5 0H37C39.7614 0 42 2.23858 42 5V37C42 39.7614 39.7614 42 37 42H5C2.23858 42 0 39.7614 0 37V5ZM5 2H37C38.6569 2 40 3.34315 40 5V37C40 38.6569 38.6569 40 37 40H5C3.34315 40 2 38.6569 2 37V5C2 3.34315 3.34315 2 5 2Z" fill="black"/>
</svg>
