<svg xmlns="http://www.w3.org/2000/svg" width="31" height="31" viewBox="0 0 31 31">
    <g fill="none" fill-rule="evenodd">
        <g fill="currentColor" fill-rule="nonzero">
            <g>
                <path d="M30.992 31l.008-.001V19.37C31 13.682 29.796 9.3 23.256 9.3c-3.144 0-5.253 1.754-6.115 3.418h-.09V9.83H10.85V31h6.456V20.517c0-2.76.515-5.428 3.876-5.428 3.31 0 3.36 3.15 3.36 5.605V31h6.45zM.775 10.075L6.975 10.075 6.975 31 .775 31zM3.875 0C1.735 0 0 1.728 0 3.857 0 5.987 1.736 7.75 3.875 7.75c2.14 0 3.875-1.764 3.875-3.893C7.749 1.727 6.013 0 3.875 0z" transform="translate(-1233.000000, -137.000000) translate(1233.000000, 137.000000)"/>
            </g>
        </g>
    </g>
</svg>
