<svg width="21" height="31" viewBox="0 0 21 31" xmlns="http://www.w3.org/2000/svg" xmlns:xlink="http://www.w3.org/1999/xlink">
    <g transform="translate(.118)" fill="none" fill-rule="evenodd">
        <path d="M14.134 7.722h-.012a.605.605 0 0 0 0 1.211h.012a.605.605 0 0 0 0-1.211m3.5 21.958H3.112a.606.606 0 0 0 0 1.211h14.522a.605.605 0 0 0 0-1.211M14.616 9.713a.606.606 0 0 0-.605.605 3.637 3.637 0 1 1-1.6-3.008.604.604 0 1 0 .677-1 4.836 4.836 0 1 0 2.137 4.01.6.6 0 0 0-.595-.605h-.01M10.382 0C4.647.001-.001 4.651 0 10.386c0 2.21.706 4.361 2.013 6.142L9.88 28.2a.6.6 0 0 0 1 0l7.87-11.672c3.394-4.623 2.397-11.122-2.226-14.515A10.383 10.383 0 0 0 10.382 0m6.827 15.467-.018.033-6.765 10.04L3.66 15.5a8.426 8.426 0 1 1 13.548-.031" fill="currentColor"/>
    </g>
</svg>
