<svg width="42" height="42" viewBox="0 0 42 42" fill="none" xmlns="http://www.w3.org/2000/svg">
<path d="M8.59655 31.5177C8.4747 31.5177 8.35558 31.5534 8.25425 31.6201C8.15298 31.6868 8.07402 31.7816 8.0274 31.8926C7.98073 32.0036 7.96854 32.1257 7.99233 32.2435C8.01611 32.3613 8.07475 32.4695 8.1609 32.5544C8.24706 32.6394 8.35684 32.6972 8.47633 32.7206C8.59587 32.7441 8.71972 32.732 8.83228 32.686C8.94483 32.6401 9.04107 32.5622 9.10874 32.4624C9.17647 32.3625 9.21258 32.2451 9.21258 32.125C9.21222 31.9641 9.14717 31.8098 9.03172 31.696C8.91628 31.5822 8.75983 31.5181 8.59655 31.5177Z" fill="black"/>
<path d="M8.59655 21.4794C8.4747 21.4794 8.35558 21.515 8.25425 21.5817C8.15298 21.6484 8.07402 21.7433 8.0274 21.8542C7.98073 21.9652 7.96854 22.0873 7.99233 22.2052C8.01611 22.3229 8.07475 22.4312 8.1609 22.5161C8.24706 22.601 8.35684 22.6589 8.47633 22.6823C8.59587 22.7057 8.71972 22.6937 8.83228 22.6477C8.94483 22.6017 9.04107 22.5239 9.10874 22.424C9.17647 22.3242 9.21258 22.2068 9.21258 22.0867C9.21222 21.9257 9.14717 21.7715 9.03172 21.6577C8.91628 21.5439 8.75983 21.4798 8.59655 21.4794Z" fill="black"/>
<path d="M17.7803 31.6201C17.8816 31.5534 18.0007 31.5177 18.1226 31.5177C18.2858 31.5181 18.4423 31.5822 18.5577 31.696C18.6732 31.8098 18.7382 31.9641 18.7386 32.125C18.7386 32.2451 18.7025 32.3625 18.6348 32.4624C18.5671 32.5622 18.4709 32.6401 18.3583 32.686C18.2457 32.732 18.1219 32.7441 18.0024 32.7206C17.8829 32.6972 17.7731 32.6394 17.687 32.5544C17.6008 32.4695 17.5421 32.3613 17.5183 32.2435C17.4946 32.1257 17.5068 32.0036 17.5534 31.8926C17.6 31.7816 17.679 31.6868 17.7803 31.6201Z" fill="black"/>
<path d="M17.7803 21.5817C17.8816 21.515 18.0007 21.4794 18.1226 21.4794C18.2858 21.4798 18.4423 21.5439 18.5577 21.6577C18.6732 21.7715 18.7382 21.9257 18.7386 22.0867C18.7386 22.2068 18.7025 22.3242 18.6348 22.424C18.5671 22.5239 18.4709 22.6017 18.3583 22.6477C18.2457 22.6937 18.1219 22.7057 18.0024 22.6823C17.8829 22.6589 17.7731 22.601 17.687 22.5161C17.6008 22.4312 17.5421 22.3229 17.5183 22.2052C17.4946 22.0873 17.5068 21.9652 17.5534 21.8542C17.6 21.7433 17.679 21.6484 17.7803 21.5817Z" fill="black"/>
<path d="M27.6501 31.5177C27.5283 31.5177 27.4091 31.5534 27.3078 31.6201C27.2065 31.6868 27.1276 31.7816 27.0809 31.8926C27.0343 32.0036 27.0221 32.1257 27.0459 32.2435C27.0696 32.3613 27.1283 32.4695 27.2145 32.5544C27.3006 32.6394 27.4104 32.6972 27.5299 32.7206C27.6494 32.7441 27.7733 32.732 27.8858 32.686C27.9984 32.6401 28.0946 32.5622 28.1623 32.4624C28.23 32.3625 28.2661 32.2451 28.2661 32.125C28.2661 31.964 28.2013 31.8095 28.0857 31.6956C27.9702 31.5817 27.8135 31.5177 27.6501 31.5177Z" fill="black"/>
<path d="M27.6501 21.4794C27.5283 21.4794 27.4091 21.515 27.3078 21.5817C27.2065 21.6484 27.1276 21.7433 27.0809 21.8542C27.0343 21.9652 27.0221 22.0873 27.0459 22.2052C27.0696 22.3229 27.1283 22.4312 27.2145 22.5161C27.3006 22.601 27.4104 22.6589 27.5299 22.6823C27.6494 22.7057 27.7733 22.6937 27.8858 22.6477C27.9984 22.6017 28.0946 22.5239 28.1623 22.424C28.23 22.3242 28.2661 22.2068 28.2661 22.0867C28.2661 21.9256 28.2013 21.7711 28.0857 21.6573C27.9702 21.5433 27.8135 21.4794 27.6501 21.4794Z" fill="black"/>
<path fill-rule="evenodd" clip-rule="evenodd" d="M35.0869 16.9717C35.287 17.169 35.3996 17.4364 35.4 17.7154L35.3985 26.458C35.3983 26.6937 35.3164 26.9223 35.1662 27.1058C35.3158 27.2896 35.3977 27.518 35.3985 27.7537V36.4963C35.3985 36.7755 35.2861 37.0433 35.0859 37.2409C34.8858 37.4384 34.6143 37.5496 34.3311 37.55H26.1181C25.8792 37.549 25.6479 37.4676 25.4623 37.3195C25.276 37.4675 25.0443 37.5487 24.8051 37.55H16.5935C16.3537 37.549 16.1215 37.4678 15.9348 37.3195C15.7492 37.4676 15.5178 37.549 15.279 37.55H7.06597C6.78273 37.5496 6.51125 37.4384 6.31107 37.2409C6.11094 37.0433 5.99854 36.7755 5.99854 36.4963V27.7537C6.00001 27.5182 6.08185 27.29 6.23085 27.1058C6.08133 26.922 5.99943 26.6936 5.99854 26.458V17.7154C5.9989 17.4364 6.11152 17.169 6.31159 16.9717C6.51172 16.7745 6.78299 16.6635 7.06597 16.6631H15.2805C15.519 16.6643 15.7501 16.745 15.9363 16.8921C16.1234 16.7449 16.3555 16.6643 16.5949 16.6631H24.8066C25.0455 16.6646 25.277 16.7452 25.4637 16.8921C25.6499 16.745 25.881 16.6643 26.1195 16.6631H34.3326C34.6155 16.6635 34.8868 16.7745 35.0869 16.9717ZM15.4542 36.668C15.5002 36.6223 15.526 36.5606 15.526 36.4963L15.5246 27.7537C15.5246 27.6895 15.4987 27.6279 15.4526 27.5826C15.4066 27.5372 15.3442 27.5116 15.279 27.5116H7.06597C7.00071 27.5116 6.93808 27.5371 6.89182 27.5825C6.84552 27.6278 6.81932 27.6894 6.81895 27.7537V36.4963C6.81895 36.5609 6.84499 36.6228 6.8913 36.6685C6.9376 36.7142 7.00045 36.7398 7.06597 36.7398H15.2805C15.3457 36.7394 15.4082 36.7136 15.4542 36.668ZM15.4542 26.6296C15.5002 26.584 15.526 26.5223 15.526 26.458L15.5246 17.7154C15.5246 17.651 15.4987 17.5893 15.4527 17.5437C15.4067 17.4981 15.3443 17.4722 15.279 17.4719H7.06597C7.00055 17.4722 6.93797 17.498 6.89172 17.5436C6.84546 17.5892 6.81932 17.6509 6.81895 17.7154V26.458C6.81895 26.5225 6.84499 26.5845 6.8913 26.6301C6.9376 26.6758 7.00045 26.7015 7.06597 26.7015H15.2805C15.3457 26.7011 15.4082 26.6753 15.4542 26.6296ZM24.9802 36.668C25.0263 36.6223 25.052 36.5606 25.052 36.4963V27.7537C25.052 27.6895 25.0262 27.6279 24.9802 27.5826C24.9341 27.5372 24.8717 27.5116 24.8066 27.5116H16.5949C16.5297 27.5116 16.4671 27.5371 16.4208 27.5825C16.3745 27.6278 16.3483 27.6894 16.3479 27.7537V36.4963C16.3479 36.5609 16.374 36.6228 16.4203 36.6685C16.4666 36.7142 16.5294 36.7398 16.5949 36.7398H24.8066C24.8718 36.7394 24.9342 36.7136 24.9802 36.668ZM24.9802 26.6296C25.0263 26.584 25.052 26.5223 25.052 26.458V17.7154C25.052 17.651 25.0263 17.5893 24.9802 17.5437C24.9342 17.4981 24.8718 17.4722 24.8066 17.4719H16.5949C16.5294 17.4719 16.4666 17.4975 16.4203 17.5432C16.374 17.5888 16.3479 17.6508 16.3479 17.7154V26.458C16.3479 26.5225 16.374 26.5845 16.4203 26.6301C16.4666 26.6758 16.5294 26.7015 16.5949 26.7015H24.8066C24.8718 26.7011 24.9342 26.6753 24.9802 26.6296ZM34.5072 36.6685C34.5535 36.6228 34.5796 36.5609 34.5796 36.4963V27.7537C34.5792 27.6894 34.553 27.6278 34.5067 27.5825C34.4604 27.5371 34.3978 27.5116 34.3326 27.5116H26.1195C26.0544 27.5116 25.992 27.5372 25.9459 27.5826C25.8998 27.6279 25.874 27.6895 25.874 27.7537V36.4963C25.874 36.5606 25.8998 36.6223 25.9458 36.668C25.9918 36.7136 26.0543 36.7394 26.1195 36.7398H34.3326C34.3981 36.7398 34.4609 36.7142 34.5072 36.6685ZM34.5072 26.6301C34.5535 26.5845 34.5796 26.5225 34.5796 26.458V17.7154C34.5796 17.6508 34.5535 17.5888 34.5072 17.5432C34.4609 17.4975 34.3981 17.4719 34.3326 17.4719H26.1195C26.0543 17.4722 25.9918 17.4981 25.9458 17.5437C25.8998 17.5893 25.874 17.651 25.874 17.7154V26.458C25.874 26.5223 25.8998 26.584 25.9458 26.6296C25.9918 26.6753 26.0543 26.7011 26.1195 26.7015H34.3326C34.3981 26.7015 34.4609 26.6758 34.5072 26.6301Z" fill="black"/>
<path fill-rule="evenodd" clip-rule="evenodd" d="M17.2907 13.5629C16.5617 13.997 15.7264 14.227 14.8747 14.2281V14.234C14.0609 14.2342 13.2611 14.0251 12.5544 13.6273C11.8477 13.2296 11.2584 12.6569 10.845 11.966C10.4315 11.275 10.208 10.4896 10.1967 9.68747C10.1855 8.88532 10.3867 8.09415 10.7806 7.39217C11.1745 6.69014 11.7473 6.10157 12.4426 5.68466C13.1379 5.26771 13.9314 5.03682 14.7449 5.0148C15.5584 4.99278 16.3637 5.18038 17.0811 5.55908C17.7985 5.93777 18.4033 6.49442 18.8357 7.17409H29.2262C29.3357 7.17362 29.4441 7.19483 29.5452 7.23641C29.6462 7.27799 29.7377 7.3391 29.8144 7.41611L30.8509 8.45241C31.0595 8.64293 31.1843 8.90622 31.1988 9.18615C31.2134 9.46608 31.1165 9.7405 30.9288 9.95107L29.9673 11.4642C29.8698 11.6188 29.7221 11.7363 29.5483 11.7976C29.4542 11.8324 29.3546 11.8505 29.2542 11.8512C29.1347 11.8508 29.0167 11.8246 28.9085 11.7746C28.8003 11.7245 28.7045 11.6517 28.6278 11.5613L27.6177 10.383L26.6267 11.5425C26.5498 11.6327 26.4536 11.7053 26.3452 11.755C26.2368 11.8048 26.1186 11.8306 25.9989 11.8306C25.8793 11.8306 25.7611 11.8048 25.6527 11.755C25.5442 11.7053 25.4482 11.6327 25.3711 11.5425L24.3934 10.399L23.4156 11.5425C23.3386 11.6327 23.2425 11.7053 23.1341 11.755C23.0256 11.8048 22.9074 11.8306 22.7878 11.8306C22.6682 11.8306 22.55 11.8048 22.4415 11.755C22.3331 11.7053 22.237 11.6327 22.16 11.5425L21.1837 10.4018L20.2721 11.4744C20.1954 11.5654 20.0992 11.6386 19.9904 11.6887C19.8816 11.7389 19.7629 11.7646 19.6429 11.7642H19.0121C18.6149 12.5069 18.0197 13.1287 17.2907 13.5629ZM13.8439 8.76836C13.6746 8.65685 13.4756 8.59736 13.2721 8.59736C12.9991 8.59736 12.7373 8.70425 12.5443 8.89451C12.3513 9.08477 12.2429 9.34286 12.2429 9.61193C12.2429 9.81258 12.3032 10.0087 12.4163 10.1756C12.5294 10.3424 12.6901 10.4725 12.8782 10.5493C13.0663 10.626 13.2732 10.6461 13.4729 10.607C13.6725 10.5678 13.8559 10.4712 13.9999 10.3293C14.1438 10.1874 14.2418 10.0067 14.2815 9.80985C14.3212 9.61303 14.3008 9.40906 14.2229 9.22369C14.1451 9.03826 14.0131 8.87981 13.8439 8.76836Z" fill="black"/>
<path fill-rule="evenodd" clip-rule="evenodd" d="M5 0C2.23858 0 0 2.23858 0 5V37C0 39.7614 2.23858 42 5 42H37C39.7614 42 42 39.7614 42 37V5C42 2.23858 39.7614 0 37 0H5ZM37 2H5C3.34315 2 2 3.34315 2 5V37C2 38.6569 3.34315 40 5 40H37C38.6569 40 40 38.6569 40 37V5C40 3.34315 38.6569 2 37 2Z" fill="black"/>
</svg>
