<svg width="43" height="42" viewBox="0 0 43 42" fill="none" xmlns="http://www.w3.org/2000/svg">
<path d="M18.0898 12.8743C18.4719 12.772 18.815 12.5586 19.0758 12.2612C19.3366 11.9638 19.5034 11.5957 19.555 11.2035C19.6067 10.8114 19.5408 10.4127 19.3659 10.0579C19.1909 9.70315 18.9147 9.40822 18.5722 9.21044C18.2296 9.01266 17.8361 8.9209 17.4413 8.94677C17.0466 8.97264 16.6684 9.11498 16.3546 9.35578C16.0408 9.59659 15.8054 9.92504 15.6783 10.2996C15.5511 10.6742 15.5379 11.078 15.6403 11.4601C15.7776 11.9725 16.1128 12.4093 16.5722 12.6745C17.0315 12.9398 17.5774 13.0116 18.0898 12.8743Z" fill="black"/>
<path d="M17.8528 24.74C17.6014 25.3507 17.2028 25.8896 16.6925 26.3087C16.1822 26.7279 15.5761 27.0141 14.9282 27.142C14.2803 27.2698 13.6109 27.2353 12.9796 27.0414C12.3484 26.8476 11.7749 26.5005 11.3104 26.0311C10.846 25.5617 10.5049 24.9846 10.3178 24.3513C10.1306 23.718 10.1032 23.0482 10.2379 22.4017C10.3726 21.7552 10.6653 21.1522 11.0898 20.6463C11.5143 20.1405 12.0574 19.7476 12.6707 19.5028C12.9193 19.4059 13.1193 19.2143 13.2267 18.97C13.334 18.7258 13.3399 18.4489 13.2431 18.2002C13.1463 17.9516 12.9546 17.7516 12.7104 17.6443C12.4661 17.5369 12.1892 17.531 11.9406 17.6279C10.4265 18.1255 9.17211 19.2043 8.4534 20.6268C7.7347 22.0494 7.61053 23.6991 8.10821 25.2132C8.60589 26.7273 9.68465 27.9816 11.1072 28.7004C12.5297 29.4191 14.1795 29.5432 15.6936 29.0456C16.5933 28.8045 17.4245 28.3572 18.1215 27.7392C18.8184 27.1212 19.3619 26.3494 19.7088 25.485C19.8076 25.2389 19.8046 24.9636 19.7004 24.7197C19.5962 24.4758 19.3994 24.2833 19.1533 24.1845C18.9072 24.0857 18.6319 24.0887 18.388 24.1929C18.1441 24.2971 17.9516 24.4939 17.8528 24.74Z" fill="black"/>
<path d="M24.8352 24.5255L23.8693 24.7843L22.5752 19.9547C22.5065 19.6985 22.3389 19.4801 22.1092 19.3475C21.8795 19.2149 21.6066 19.179 21.3504 19.2476L16.9361 20.4304L17.3624 15.4918L17.2822 15.1923C17.2715 15.1332 17.2559 15.0751 17.2356 15.0185C17.2248 14.956 17.2083 14.8945 17.1865 14.835C17.1461 14.785 17.1023 14.738 17.0555 14.694C17.0124 14.6491 16.9636 14.61 16.9104 14.5776C16.8558 14.5396 16.7956 14.5103 16.7319 14.4909C16.7319 14.4909 16.7164 14.4329 16.6339 14.4343L11.6388 13.1017L11.5229 13.1328C11.457 13.1236 11.3903 13.1207 11.3239 13.124L10.9375 13.2275C10.8741 13.2594 10.8152 13.2995 10.7624 13.3469L10.6562 13.3754L8.46418 15.5881C8.30754 15.7422 8.20602 15.9436 8.1753 16.1612C8.14458 16.3787 8.18638 16.6004 8.29423 16.7918C8.40209 16.9832 8.56999 17.1338 8.77199 17.2203C8.974 17.3068 9.19885 17.3243 9.41181 17.2702C9.58879 17.2277 9.75082 17.1377 9.88045 17.01L11.698 15.1771L15.3142 16.1545L14.837 21.6761C14.8461 21.7288 14.86 21.7805 14.8784 21.8307C14.8848 21.8907 14.9005 21.9494 14.925 22.0045C14.976 22.1237 15.0347 22.2394 15.1006 22.3509L15.2457 22.4673C15.2874 22.5175 15.3373 22.5601 15.3934 22.5934C15.4439 22.6168 15.4972 22.6338 15.5519 22.6441C15.6212 22.6729 15.6931 22.6952 15.7665 22.7108C15.882 22.7208 15.9984 22.7107 16.1104 22.6808L20.9401 21.3867L22.2342 26.2163C22.3028 26.4725 22.4704 26.6909 22.7001 26.8235C22.9298 26.9561 23.2027 26.9921 23.4589 26.9234L25.3908 26.4058C25.6469 26.3371 25.8654 26.1695 25.998 25.9399C26.1306 25.7102 26.1665 25.4372 26.0979 25.181C26.0292 24.9249 25.8616 24.7064 25.6319 24.5738C25.4023 24.4412 25.1293 24.4053 24.8731 24.4739L24.8352 24.5255Z" fill="black"/>
<path d="M8.78971 33.715C8.55653 33.715 8.51195 33.3838 8.73683 33.3221L36.9096 25.5983C37.0369 25.5634 37.1625 25.6592 37.1625 25.7912V33.5149C37.1625 33.6254 37.073 33.7149 36.9625 33.7149L8.78971 33.715Z" fill="black"/>
<path fill-rule="evenodd" clip-rule="evenodd" d="M0.189209 5C0.189209 2.23858 2.42779 0 5.18921 0H37.1892C39.9506 0 42.1892 2.23858 42.1892 5V37C42.1892 39.7614 39.9506 42 37.1892 42H5.18921C2.42779 42 0.189209 39.7614 0.189209 37V5ZM5.18921 2H37.1892C38.8461 2 40.1892 3.34315 40.1892 5V37C40.1892 38.6569 38.8461 40 37.1892 40H5.18921C3.53236 40 2.18921 38.6569 2.18921 37V5C2.18921 3.34315 3.53236 2 5.18921 2Z" fill="black"/>
</svg>
