<svg width="43" height="43" viewBox="0 0 43 43" fill="none" xmlns="http://www.w3.org/2000/svg">
<path d="M14.6091 29.0265C15.8346 29.0303 17.0406 28.7248 18.1113 28.1393C19.1821 27.5538 20.0818 26.708 20.7242 25.683C20.7808 25.5933 20.8189 25.4935 20.8362 25.3894C20.8536 25.2853 20.8499 25.1788 20.8253 25.0761C20.8007 24.9733 20.7558 24.8764 20.6931 24.7907C20.6304 24.705 20.5511 24.6323 20.4598 24.5767C20.3685 24.5211 20.2669 24.4837 20.1609 24.4667C20.0549 24.4496 19.9465 24.4533 19.8418 24.4774C19.7373 24.5015 19.6385 24.5456 19.5513 24.6072C19.464 24.6688 19.39 24.7466 19.3334 24.8363C18.8996 25.5215 18.3166 26.1036 17.6262 26.5409C16.9359 26.9782 16.1554 27.2598 15.341 27.3653C14.5266 27.4708 13.6984 27.3976 12.9163 27.1511C12.1341 26.9046 11.4173 26.4908 10.8174 25.9395C10.2176 25.3883 9.74969 24.7133 9.44734 23.9631C9.14499 23.2129 9.01572 22.4063 9.06888 21.6011C9.12208 20.7961 9.35629 20.0125 9.75478 19.307C10.1533 18.6015 10.706 17.9915 11.3733 17.521C11.4622 17.46 11.5378 17.3823 11.5958 17.2924C11.6539 17.2026 11.6931 17.1022 11.7114 16.9973C11.7296 16.8924 11.7264 16.785 11.702 16.6813C11.6776 16.5776 11.6325 16.4796 11.5692 16.3933C11.506 16.3068 11.4259 16.2336 11.3336 16.1778C11.2413 16.1221 11.1386 16.0848 11.0316 16.0684C10.9245 16.0519 10.8151 16.0565 10.7099 16.0818C10.6046 16.1072 10.5056 16.1529 10.4185 16.2162C9.18033 17.0874 8.25582 18.3221 7.77803 19.7425C7.30028 21.1628 7.29398 22.6955 7.76003 24.1195C8.22605 25.5436 9.14042 26.7856 10.3713 27.6667C11.6022 28.5476 13.0861 29.0221 14.6091 29.0217V29.0265Z" fill="black"/>
<path d="M14.2904 11.7526C13.7485 11.7805 13.24 12.0186 12.8769 12.4147C12.5137 12.8107 12.3255 13.3322 12.3538 13.8645L12.6676 19.7408C12.6682 19.7495 12.6682 19.7583 12.6676 19.7671C12.6934 20.2841 12.9214 20.7714 13.304 21.1273C13.6867 21.4832 14.1944 21.6803 14.7214 21.6775H20.2602L21.9208 26.1555C22.0062 26.3883 22.1628 26.5894 22.3692 26.7313C22.5755 26.8733 22.8216 26.949 23.0735 26.9482C23.1527 26.9479 23.2316 26.9399 23.3092 26.9242C23.3602 26.9158 23.4104 26.9034 23.4593 26.8871L25.6438 26.1052C25.7468 26.0707 25.8419 26.0164 25.9232 25.9454C26.0046 25.8743 26.0708 25.7881 26.1178 25.6917C26.1648 25.5953 26.1918 25.4907 26.1971 25.3839C26.2024 25.2771 26.186 25.1704 26.1488 25.0699C26.1116 24.9694 26.0543 24.8773 25.9804 24.7988C25.9064 24.7204 25.8173 24.6572 25.7182 24.613C25.6191 24.5688 25.512 24.5444 25.4032 24.5414C25.2944 24.5384 25.1861 24.5567 25.0846 24.5953L24.087 24.9551C24.087 24.9551 22.2554 20.0142 22.2187 19.9278C22.1973 19.8806 22.1733 19.8345 22.1467 19.7899C22.0354 19.5923 21.8724 19.4275 21.6744 19.3126C21.4765 19.1976 21.2508 19.1368 21.0209 19.1363H16.7289L16.6483 17.6145H20.2064C20.4234 17.6145 20.6315 17.5299 20.7849 17.3792C20.9384 17.2285 21.0245 17.0241 21.0245 16.811C21.0245 16.5979 20.9384 16.3935 20.7849 16.2429C20.6315 16.0922 20.4234 16.0075 20.2064 16.0075H16.5616L16.4395 13.7386C16.4395 13.7122 16.4395 13.687 16.4395 13.6606C16.4264 13.3966 16.3603 13.1377 16.2451 12.8988C16.1299 12.66 15.9679 12.4457 15.7682 12.2685C15.5686 12.0913 15.3352 11.9544 15.0817 11.8659C14.8281 11.7774 14.5592 11.7389 14.2904 11.7526Z" fill="black"/>
<path d="M14.487 11.1962C14.8909 11.1752 15.2794 11.0372 15.6034 10.7994C15.9274 10.5617 16.1724 10.235 16.3073 9.86052C16.4423 9.48608 16.4612 9.08073 16.3616 8.69576C16.2621 8.31078 16.0485 7.96343 15.748 7.69759C15.4475 7.43179 15.0735 7.25941 14.6732 7.20232C14.273 7.14523 13.8645 7.20599 13.4994 7.37686C13.1343 7.54773 12.829 7.82108 12.6221 8.16234C12.4151 8.50361 12.3158 8.89748 12.3368 9.29415C12.3651 9.82639 12.6076 10.3258 13.0109 10.6824C13.4141 11.0391 13.9451 11.2239 14.487 11.1962Z" fill="black"/>
<path d="M6.97346 34.0508C6.74028 34.0508 6.6957 33.7196 6.92058 33.6579L35.0934 25.9341C35.2207 25.8992 35.3463 25.995 35.3463 26.127V33.8507C35.3463 33.9612 35.2567 34.0507 35.1463 34.0507L6.97346 34.0508Z" fill="black"/>
<path fill-rule="evenodd" clip-rule="evenodd" d="M37.6499 2.4913H5.64987C3.99302 2.4913 2.64987 3.83445 2.64987 5.4913V37.4913C2.64987 39.1482 3.99302 40.4913 5.64987 40.4913H37.6499C39.3067 40.4913 40.6499 39.1482 40.6499 37.4913V5.4913C40.6499 3.83445 39.3067 2.4913 37.6499 2.4913ZM5.64987 0.491302C2.88845 0.491302 0.649872 2.72988 0.649872 5.4913V37.4913C0.649872 40.2527 2.88845 42.4913 5.64987 42.4913H37.6499C40.4113 42.4913 42.6499 40.2527 42.6499 37.4913V5.4913C42.6499 2.72988 40.4113 0.491302 37.6499 0.491302H5.64987Z" fill="black"/>
</svg>
