<svg xmlns="http://www.w3.org/2000/svg" width="34" height="30" viewBox="0 0 34 30">
    <g fill="none" fill-rule="evenodd">
        <g stroke="#3C3C3B" stroke-width="2">
            <path stroke-linecap="round" d="M19.5 17.023v4.787c0 2.314-2.015 4.19-4.5 4.19H6c-2.485 0-4.5-1.876-4.5-4.19V8.19C1.5 5.876 3.515 4 6 4h9" transform="translate(10.500000, 15.000000) scale(1, -1) translate(-10.500000, -15.000000)"/>
            <path stroke-linecap="round" d="M13.5 9.5L7.5 9.5M13.5 14.5L7.5 14.5M11.5 19.5L7.5 19.5"/>
            <path fill="#FFF" d="M25 15.484v9.91l-4.648-2.283H17V17.89l3.457-.001c1.598-.985 3.086-1.77 4.543-2.404h0z"/>
            <path stroke-linecap="round" d="M28.585 19c.44 1.473.44 2.806 0 4M31.67 17c.88 2.945.88 5.612 0 8"/>
        </g>
    </g>
</svg>
