<svg width="42" height="42" viewBox="0 0 42 42" fill="none" xmlns="http://www.w3.org/2000/svg">
<path d="M25.7714 26.7367C25.5931 26.5458 25.4548 26.3223 25.3645 26.079L23.1028 19.9809L17.7461 20.9086L15.9322 26.057C15.8482 26.3046 15.7149 26.5333 15.5402 26.73C15.3654 26.9267 15.1527 27.0874 14.9142 27.2028C14.6757 27.3183 14.4163 27.3861 14.1509 27.4025C13.8855 27.4189 13.6194 27.3834 13.3681 27.2982C13.1168 27.213 12.8851 27.0797 12.6867 26.906C12.4882 26.7324 12.3268 26.5218 12.2118 26.2865C12.0969 26.0512 12.0306 25.7959 12.0168 25.5353C12.0031 25.2747 12.0422 25.014 12.1318 24.7683L14.2768 18.6969C14.2927 18.6546 14.3103 18.6138 14.328 18.5729C14.4385 18.2288 14.643 17.921 14.9194 17.683C15.1958 17.445 15.5334 17.2859 15.8954 17.2231L21.7128 16.2169L19.7503 10.9445H17.7797C17.511 10.9519 17.2435 10.9064 16.993 10.8107C16.7425 10.7149 16.5142 10.5708 16.3214 10.3869C16.1287 10.2031 15.9755 9.9831 15.8709 9.74013C15.7663 9.49716 15.7124 9.23602 15.7124 8.97226C15.7124 8.70845 15.7663 8.44737 15.8709 8.20434C15.9755 7.96137 16.1287 7.74145 16.3214 7.55754C16.5142 7.37369 16.7425 7.22963 16.993 7.13382C17.2435 7.03806 17.511 6.99254 17.7797 6.99999H20.8587C20.9962 6.99994 21.1334 7.01364 21.2682 7.04079C21.6642 7.05916 22.046 7.19204 22.3653 7.42272C22.6846 7.65341 22.9273 7.97161 23.0628 8.33733L29.1409 24.7291C29.2312 24.9724 29.2718 25.2308 29.2604 25.4895C29.2489 25.7483 29.1857 26.0023 29.0742 26.237C28.9627 26.4717 28.8052 26.6826 28.6107 26.8576C28.4162 27.0326 28.1884 27.1683 27.9405 27.257C27.6925 27.3456 27.4292 27.3854 27.1656 27.3742C26.9019 27.363 26.6431 27.3009 26.4039 27.1915C26.1647 27.0821 25.9498 26.9276 25.7714 26.7367Z" fill="black"/>
<path d="M12.3494 28.2498C11.6869 28.2513 11.0397 28.4455 10.4897 28.8078C9.93966 29.1702 9.51141 29.6844 9.25905 30.2855C9.00668 30.8866 8.94158 31.5477 9.07188 32.1851C9.20224 32.8225 9.52218 33.4077 9.99126 33.8667C10.4604 34.3257 11.0576 34.638 11.7075 34.7641C12.3574 34.8902 13.0309 34.8244 13.6426 34.575C14.2545 34.3256 14.7773 33.9039 15.1449 33.3631C15.5126 32.8223 15.7086 32.1867 15.7083 31.5366C15.7081 31.1042 15.621 30.6761 15.452 30.2768C15.283 29.8775 15.0355 29.5149 14.7235 29.2096C14.4114 28.9043 14.0412 28.6624 13.6338 28.4977C13.2264 28.333 12.7899 28.2487 12.3494 28.2498Z" fill="black"/>
<path d="M26.8883 28.8033C27.4397 28.4421 28.0877 28.2495 28.7506 28.2498C29.6382 28.2523 30.4886 28.5994 31.1162 29.2152C31.7438 29.8311 32.0975 30.6657 32.1 31.5366C32.1003 32.1872 31.904 32.8231 31.5359 33.3642C31.1678 33.9052 30.6445 34.3269 30.0321 34.576C29.4198 34.8251 28.7459 34.8903 28.0957 34.7635C27.4455 34.6367 26.8483 34.3234 26.3795 33.8634C25.9108 33.4035 25.5916 32.8174 25.4624 32.1793C25.3332 31.5413 25.3996 30.88 25.6535 30.279C25.9073 29.6781 26.337 29.1646 26.8883 28.8033Z" fill="black"/>
<path fill-rule="evenodd" clip-rule="evenodd" d="M0 5C0 2.23858 2.23858 0 5 0H37C39.7614 0 42 2.23858 42 5V37C42 39.7614 39.7614 42 37 42H5C2.23858 42 0 39.7614 0 37V5ZM5 2H37C38.6569 2 40 3.34315 40 5V37C40 38.6569 38.6569 40 37 40H5C3.34315 40 2 38.6569 2 37V5C2 3.34315 3.34315 2 5 2Z" fill="black"/>
</svg>
