<svg width="34" height="26" viewBox="0 0 34 26" xmlns="http://www.w3.org/2000/svg">
    <path d="M16.899 20.687a2.56 2.56 0 1 0-.002 5.117 2.56 2.56 0 0 0 .003-5.116h-.001zm-.045-4.183a9.477 9.477 0 0 1 5 1.384 1.94 1.94 0 0 0 2.215-.122c.73-.615.34-1.787-.49-2.305a12.181 12.181 0 0 0-6.721-1.784 12.098 12.098 0 0 0-6.7 1.74c-.831.517-1.241 1.738-.508 2.353a1.948 1.948 0 0 0 2.215.122 9.423 9.423 0 0 1 4.99-1.383l-.001-.005zm0-6.648c3.356-.029 6.64.97 9.413 2.862a1.922 1.922 0 0 0 2.253-.094c.7-.584.285-1.808-.473-2.337A18.882 18.882 0 0 0 16.855 7.04a19.02 19.02 0 0 0-11.221 3.293c-.758.53-1.141 1.707-.445 2.288a1.922 1.922 0 0 0 2.253.094 16.436 16.436 0 0 1 9.413-2.859h-.001zm-14.3-2.493a2.05 2.05 0 0 1-2.41-.054c-.713-.584-.25-1.829.508-2.375A27.246 27.246 0 0 1 17.005.01c6.429 0 11.822 1.59 16.31 4.823.759.546 1.267 1.881.554 2.465a2.057 2.057 0 0 1-2.41.06 24.793 24.793 0 0 0-14.454-4.458A24.788 24.788 0 0 0 2.554 7.363z" fill="currentColor" fill-rule="evenodd"/>
</svg>
