<svg width="42" height="42" viewBox="0 0 42 42" fill="none" xmlns="http://www.w3.org/2000/svg">
<path fill-rule="evenodd" clip-rule="evenodd" d="M16.551 15.4589C15.94 15.4809 15.3395 15.6228 14.7842 15.8764C15.518 14.3881 16.3727 14.3933 17.2716 14.3988L17.2821 14.3989H17.4815C17.9353 14.4894 18.3675 14.6647 18.7554 14.9152C19.1792 15.1923 19.6563 15.3793 20.1566 15.4644C20.2825 15.4794 20.41 15.468 20.5312 15.4311C20.6523 15.3943 20.7644 15.3326 20.8601 15.2502C20.921 15.1891 21.001 15.1504 21.0871 15.1404H21.2422L21.1924 14.9921C20.6385 13.2289 18.0409 12.3062 16.8169 12.3062C16.1684 12.3885 15.5482 12.6198 15.0058 12.9818C15.4581 11.9479 16.5697 11.6386 17.6511 11.3377L17.6745 11.3312C18.7554 11.0304 19.6478 10.782 19.8797 9.91693V9.84553L19.8299 9.79607C19.7804 9.74205 19.7342 9.68519 19.6914 9.62582C19.5363 9.41162 19.4588 9.38962 18.9382 9.38962C16.7763 9.53148 14.7266 10.3949 13.1226 11.8393C13.3208 11.2451 13.6882 10.7205 14.1805 10.3288C14.6347 9.87847 15.0611 9.45554 15.0611 8.98868C15.0611 8.52179 15.0611 8.39548 14.8119 8.23619C14.7461 8.19467 14.6832 8.14878 14.6236 8.09885L14.5405 8.02194L14.4519 8.0934C10.7854 11.0429 9.15148 14.9152 8.0327 18.3096C7.8248 19.0679 7.36894 19.7364 6.73663 20.21C6.48826 20.3699 6.28744 20.5927 6.15499 20.8554C6.02258 21.118 5.96331 21.411 5.98342 21.704C6.1699 23.4717 6.66271 25.1942 7.44003 26.7956L7.51206 26.9384L7.63942 26.8396C9.05178 25.7081 10.5915 25.7411 11.9485 25.7905C12.5607 25.8345 13.176 25.8069 13.7818 25.7081C14.6835 25.4935 15.5669 25.2088 16.4236 24.8568C17.1363 24.5688 17.8649 24.3213 18.6058 24.1152C19.8465 23.7802 20.4059 20.3089 20.4059 19.452C20.4225 17.7823 19.2207 15.4589 16.551 15.4589ZM19.0877 20.2265C19.0877 21.8743 15.5153 22.083 15.4821 22.083C14.9282 22.083 13.743 20.8307 13.743 20.2265C13.743 18.749 15.6482 17.8427 16.684 17.8427C17.7197 17.8427 19.0877 19.2708 19.0877 20.2265Z" fill="black"/>
<path fill-rule="evenodd" clip-rule="evenodd" d="M34.3908 14.3384L34.7065 14.9426L34.7318 14.9912C35.9143 17.2612 35.9417 17.3137 35.9472 18.6227V19.2653C35.9472 20.5121 35.925 20.5945 35.4487 21.0285C35.043 21.3868 34.6721 21.7821 34.341 22.2093C33.8573 22.9449 33.5138 23.7621 33.3274 24.6206C33.1412 25.3223 32.8966 26.0076 32.5963 26.6693C31.6658 28.5148 29.3563 31.7884 27.4288 33.1451L27.3956 33.1725H27.3513C27.2405 33.1657 27.136 33.1188 27.0577 33.0407C26.903 32.8569 26.8274 32.6202 26.8473 32.3816C26.8473 31.8763 27.3291 31.3215 27.883 30.7338C28.2652 30.3458 28.5998 29.9144 28.8799 29.4486C27.595 30.624 24.4103 31.8543 23.3413 31.8543H22.4773C22.3838 31.8479 22.2956 31.809 22.2281 31.7444C22.0733 31.5545 21.9998 31.312 22.0232 31.0689C22.0195 30.8753 22.0846 30.6867 22.2072 30.5361C22.3297 30.3854 22.5018 30.2824 22.6933 30.245C22.7817 30.2124 22.867 30.172 22.9481 30.1242C23.2688 30.001 23.6008 29.909 23.9395 29.8495C24.9364 29.6408 26.1439 29.388 26.8141 28.328C26.2992 28.6676 25.711 28.8821 25.0971 28.9542C23.7958 28.9542 22.732 28.3601 21.6073 27.7319L21.5634 27.7074C21.3087 27.5646 21.0539 27.4218 20.7936 27.2845L20.7216 27.246V26.0816H20.8434C20.9241 26.0758 21.0003 26.0429 21.0594 25.9882C21.156 25.9096 21.2676 25.8511 21.3875 25.8162C21.5074 25.7813 21.6332 25.7707 21.7573 25.785C22.2574 25.871 22.7343 26.058 23.1586 26.3343C23.545 26.5837 23.9752 26.7588 24.4269 26.8505C25.5649 26.8505 25.6229 26.8068 26.5574 26.1036L27.1187 25.6806C21.7795 25.439 21.2256 24.4668 21.2256 20.6219C21.2256 19.9079 21.8127 18.1064 22.7321 17.4308C23.8782 16.5892 25.6109 16.1554 27.2921 15.7345L27.3181 15.7281L28.099 15.5358C28.7187 15.4145 29.3518 15.3739 29.9821 15.415C31.3335 15.4315 32.8566 15.448 34.2634 14.4263L34.3908 14.3384ZM27.7999 22.0775C27.8347 21.9967 27.8773 21.9194 27.9273 21.8468C28.0933 21.6044 28.1767 21.3157 28.1655 21.0229C28.1655 20.4133 26.9857 19.1664 26.4319 19.1664C25.9422 19.1915 25.4552 19.254 24.9752 19.3532C24.6318 19.4136 24.2774 19.474 23.9672 19.5069C23.8316 19.6665 23.6854 19.817 23.5297 19.9573L23.5169 19.9696C23.1774 20.2954 22.8263 20.6323 22.8263 21.0229C22.8501 21.3481 22.9652 21.6601 23.1586 21.9237C23.2797 22.103 23.373 22.2992 23.4355 22.506L23.7456 22.7751C24.1943 23.176 24.7537 23.6704 25.23 23.6704C25.8282 23.6704 27.0688 22.9014 27.7999 22.0775Z" fill="black"/>
<path fill-rule="evenodd" clip-rule="evenodd" d="M5 0C2.23858 0 0 2.23858 0 5V37C0 39.7614 2.23858 42 5 42H37C39.7614 42 42 39.7614 42 37V5C42 2.23858 39.7614 0 37 0H5ZM37 2H5C3.34315 2 2 3.34315 2 5V37C2 38.6569 3.34315 40 5 40H37C38.6569 40 40 38.6569 40 37V5C40 3.34315 38.6569 2 37 2Z" fill="black"/>
</svg>
