<svg width="42" height="42" viewBox="0 0 42 42" fill="none" xmlns="http://www.w3.org/2000/svg">
<path d="M10.0141 28.9194C10.5889 28.5337 11.2646 28.328 11.9557 28.3283C12.8819 28.3283 13.7701 28.6981 14.425 29.3563C15.0798 30.0146 15.4478 30.9074 15.4478 31.8383C15.4481 32.533 15.2434 33.2122 14.8597 33.7899C14.4759 34.3677 13.9302 34.8181 13.2918 35.084C12.6533 35.35 11.9507 35.4197 11.2729 35.2843C10.595 35.1488 9.97232 34.8143 9.48365 34.3231C8.99493 33.8319 8.66213 33.2061 8.52742 32.5247C8.39265 31.8433 8.46195 31.1371 8.7266 30.4953C8.99126 29.8536 9.43929 29.3051 10.0141 28.9194Z" fill="black"/>
<path d="M33.0063 28.231C32.3157 28.2327 31.641 28.4401 31.0676 28.827C30.4942 29.2138 30.0476 29.7629 29.7845 30.4047C29.5213 31.0465 29.4533 31.7523 29.5891 32.433C29.7248 33.1137 30.0582 33.7386 30.5472 34.2289C31.0361 34.7192 31.6587 35.0527 32.3361 35.1876C33.0136 35.3224 33.7157 35.2523 34.3535 34.9863C34.9915 34.7203 35.5366 34.2702 35.9201 33.6929C36.3036 33.1156 36.5083 32.4369 36.5083 31.7428C36.5083 31.2809 36.4177 30.8235 36.2416 30.3969C36.0655 29.9704 35.8074 29.5829 35.4821 29.2566C35.1568 28.9305 34.7707 28.6719 34.3458 28.496C33.921 28.32 33.4658 28.2299 33.0063 28.231Z" fill="black"/>
<path d="M34.2002 26.9801C33.8101 26.8793 33.409 26.8275 33.0062 26.8259C31.7879 26.8262 30.6135 27.2828 29.7122 28.1067C28.8109 28.9305 28.2474 30.0623 28.1317 31.2813C28.0684 31.5999 27.8979 31.8868 27.6489 32.0938C27.3997 32.3008 27.0874 32.4152 26.7642 32.4178H18.1825C17.8526 32.4171 17.5337 32.2988 17.2824 32.0839C17.0311 31.8691 16.8637 31.5716 16.8101 31.2444C16.7235 30.5185 16.4764 29.8213 16.0869 29.2038C15.6975 28.5862 15.1755 28.0641 14.5593 27.6756C13.9431 27.2872 13.2482 27.0422 12.5256 26.9588C11.8029 26.8752 11.0708 26.9553 10.383 27.193L10.373 27.1847C10.3335 27.1967 10.2925 27.2029 10.2513 27.2031C10.13 27.2031 10.0136 27.1554 9.92691 27.0702C9.84028 26.985 9.79025 26.869 9.78763 26.7471L9.45415 23.4835H8.87544C8.53104 23.4669 8.20139 23.338 7.93632 23.1163C7.67125 22.8946 7.48519 22.5922 7.40628 22.2549L5.02152 8.65227C4.98859 8.47036 4.99169 8.28372 5.03065 8.10302C5.06966 7.92226 5.14374 7.75111 5.24874 7.59923C5.35369 7.44734 5.48746 7.31783 5.64233 7.21808C5.79721 7.11827 5.97014 7.05023 6.15127 7.01779C6.33239 6.98534 6.51808 6.98918 6.69774 7.02902C6.87734 7.06892 7.04739 7.144 7.19806 7.2501C7.34874 7.35615 7.47715 7.49113 7.5758 7.64716C7.6745 7.80324 7.74154 7.97733 7.77315 8.15951L8.55194 12.6065H15.9229C16.2935 12.6065 16.649 12.7545 16.911 13.0179C17.1731 13.2814 17.3204 13.6387 17.3204 14.0112C17.3204 14.3837 17.1731 14.741 16.911 15.0045C16.649 15.2678 16.2935 15.4158 15.9229 15.4158H9.04554L9.96607 20.6725H17.4154C17.7861 20.6725 18.1415 20.8205 18.4036 21.0839C18.6657 21.3473 18.8129 21.7047 18.8129 22.0772C18.8129 22.4497 18.6657 22.807 18.4036 23.0705C18.1415 23.3338 17.7861 23.4818 17.4154 23.4818H16.8634L17.2903 24.6552C17.6166 24.5896 17.9555 24.6434 18.2457 24.8069C18.536 24.9705 18.7584 25.233 18.873 25.547L20.3438 29.6051H25.6302L26.996 21.8341C27.0454 21.5539 27.1787 21.2955 27.3781 21.0933C27.5774 20.8912 27.8333 20.7549 28.1117 20.7027L24.7347 11.3795H22.7152C22.3445 11.3795 21.9891 11.2315 21.727 10.9681C21.4649 10.7047 21.3177 10.3474 21.3177 9.97485C21.3177 9.60231 21.4649 9.245 21.727 8.9816C21.9891 8.71816 22.3445 8.57016 22.7152 8.57016H27.3579C27.6981 8.57137 28.0261 8.69747 28.2804 8.92475C28.5346 9.15197 28.6975 9.46476 28.7385 9.80423C28.7794 10.1437 28.6957 10.4866 28.5028 10.7683C28.31 11.0501 28.0215 11.2513 27.6914 11.3342L31.0801 20.6624H32.0423C33.0128 20.6624 33.8316 21.4352 33.9984 22.3789L34.7272 26.4421V26.5041C34.7276 26.6291 34.679 26.7491 34.5919 26.8383C34.5048 26.9274 34.3862 26.9784 34.2619 26.9801H34.2002Z" fill="black"/>
<path fill-rule="evenodd" clip-rule="evenodd" d="M0 5C0 2.23858 2.23858 0 5 0H37C39.7614 0 42 2.23858 42 5V37C42 39.7614 39.7614 42 37 42H5C2.23858 42 0 39.7614 0 37V5ZM5 2H37C38.6569 2 40 3.34315 40 5V37C40 38.6569 38.6569 40 37 40H5C3.34315 40 2 38.6569 2 37V5C2 3.34315 3.34315 2 5 2Z" fill="black"/>
</svg>
