<svg width="42" height="42" viewBox="0 0 42 42" fill="none" xmlns="http://www.w3.org/2000/svg">
<path d="M15.105 5.28141C16.9299 4.43495 18.9145 3.9978 20.9224 4.00001C24.6106 4.00618 28.146 5.48931 30.7539 8.12444C33.3619 10.7595 34.8298 14.3317 34.8359 18.0583C34.8348 18.7752 34.7802 19.4908 34.6726 20.1994V20.2554L34.6033 20.6569C34.6027 20.6625 34.6027 20.6683 34.6033 20.674L33.5947 26.4918C33.5596 26.6928 33.4557 26.875 33.3011 27.0064C33.1466 27.1378 32.9512 27.2101 32.7493 27.2107C32.6976 27.2108 32.646 27.2061 32.5952 27.1967C32.484 27.177 32.3777 27.1352 32.2823 27.0739C32.187 27.0127 32.1046 26.933 32.0398 26.8395C31.975 26.746 31.9292 26.6405 31.9047 26.529C31.8803 26.4175 31.8779 26.3024 31.8977 26.19L32.9217 20.3332C33.2503 18.5519 33.1863 16.7193 32.7341 14.9658C32.2819 13.2124 31.4528 11.5812 30.3056 10.1884C29.1585 8.7956 27.7216 7.67541 26.0973 6.90759C24.4729 6.13978 22.701 5.74325 20.9077 5.74614C19.1144 5.74908 17.3438 6.15138 15.7218 6.92445C14.0999 7.69751 12.6666 8.82232 11.5239 10.2189C10.3812 11.6154 9.55723 13.2492 9.11066 15.0041C8.66404 16.7591 8.60582 18.5919 8.94009 20.3721L9.95801 26.2024C9.99739 26.4294 9.94609 26.6628 9.81526 26.8516C9.68449 27.0403 9.48493 27.1689 9.26039 27.2091C9.20947 27.2172 9.15796 27.2214 9.10641 27.2216C8.90418 27.2232 8.70788 27.1528 8.55185 27.0228C8.39587 26.8927 8.29019 26.7114 8.25328 26.5105L7.16454 20.2694C7.16296 20.2487 7.16296 20.2279 7.16454 20.2072C6.85657 18.2023 6.98194 16.1538 7.53204 14.2026C8.08213 12.2514 9.04383 10.4436 10.3511 8.90359C11.6584 7.36361 13.2802 6.12786 15.105 5.28141Z" fill="black"/>
<path d="M30.4071 24.1236C30.2753 23.9356 30.0756 23.8076 29.8512 23.7673L28.7732 23.5759C28.5484 23.5366 28.3174 23.5888 28.1306 23.7212C27.9439 23.8536 27.8167 24.0554 27.7768 24.2823L25.5886 36.8173C25.5686 36.9298 25.5709 37.0451 25.5952 37.1566C25.6195 37.2681 25.6654 37.3737 25.7302 37.4672C25.7951 37.5608 25.8775 37.6405 25.9729 37.7018C26.0684 37.763 26.1748 37.8045 26.2862 37.8241L27.3564 38.0155C27.4073 38.0236 27.4588 38.0278 27.5104 38.0279C27.7123 38.0277 27.9076 37.9557 28.0622 37.8246C28.2168 37.6934 28.3208 37.5115 28.3559 37.3106L30.5441 24.774C30.5855 24.5475 30.5362 24.3135 30.4071 24.1236Z" fill="black"/>
<path d="M31.5436 27.8315L33.4993 28.1832C33.7236 28.2231 33.9231 28.351 34.0544 28.539C34.1857 28.7271 34.238 28.9599 34.2 29.1867L33.3392 34.1146C33.304 34.3154 33.2001 34.4974 33.0455 34.6285C32.8909 34.7597 32.6956 34.8317 32.4937 34.8319C32.4421 34.8325 32.3905 34.8284 32.3397 34.8194L30.3855 34.4709C30.1609 34.4307 29.9612 34.3021 29.8302 34.1134C29.6991 33.9247 29.6474 33.6913 29.6864 33.4642L30.5472 28.5364C30.5667 28.4239 30.608 28.3165 30.6686 28.2202C30.7293 28.1239 30.8082 28.0406 30.9008 27.9752C30.9933 27.9097 31.0977 27.8633 31.208 27.8387C31.3183 27.814 31.4323 27.8116 31.5436 27.8315Z" fill="black"/>
<path d="M14.0543 24.2807C14.0138 24.0542 13.8863 23.8531 13.6997 23.7211C13.5131 23.5891 13.2825 23.5369 13.058 23.5758L11.98 23.7672C11.7557 23.8078 11.5564 23.9365 11.4257 24.1251C11.2949 24.3138 11.2434 24.547 11.2824 24.7739L13.4707 37.3105C13.5061 37.5113 13.6101 37.693 13.7646 37.8241C13.9191 37.9553 14.1143 38.0273 14.3161 38.0278C14.3677 38.0285 14.4193 38.0244 14.4701 38.0154L15.5481 37.8255C15.7727 37.785 15.9723 37.6561 16.103 37.4671C16.2338 37.2781 16.2851 37.0444 16.2457 36.8173L14.0543 24.2807Z" fill="black"/>
<path d="M10.9384 27.9774C11.1251 28.1101 11.2522 28.3122 11.2917 28.5395L12.1525 33.4673C12.1723 33.5798 12.17 33.6952 12.1457 33.8067C12.1214 33.9183 12.0756 34.024 12.0108 34.1177C11.8789 34.3055 11.6792 34.4334 11.4549 34.474L9.49917 34.8225C9.44835 34.8316 9.3968 34.8357 9.34519 34.835C9.14317 34.8349 8.94761 34.763 8.79273 34.6318C8.63791 34.5007 8.53364 34.3187 8.49821 34.1177L7.63894 29.1899C7.6192 29.0775 7.62161 28.9623 7.64603 28.8508C7.67039 28.7394 7.71632 28.6339 7.78111 28.5404C7.84589 28.4469 7.92832 28.3672 8.02361 28.3059C8.11889 28.2446 8.22526 28.2029 8.3365 28.1832L10.2953 27.8315C10.5203 27.7922 10.7516 27.8447 10.9384 27.9774Z" fill="black"/>
<path fill-rule="evenodd" clip-rule="evenodd" d="M0 5C0 2.23858 2.23858 0 5 0H37C39.7614 0 42 2.23858 42 5V37C42 39.7614 39.7614 42 37 42H5C2.23858 42 0 39.7614 0 37V5ZM5 2H37C38.6569 2 40 3.34315 40 5V37C40 38.6569 38.6569 40 37 40H5C3.34315 40 2 38.6569 2 37V5C2 3.34315 3.34315 2 5 2Z" fill="black"/>
</svg>
