<svg width="29" height="29" viewBox="0 0 29 29" fill="none" xmlns="http://www.w3.org/2000/svg">
<path d="M23.055 12.905C18.415 10.15 10.6575 9.86 6.235 11.2375C5.51 11.455 4.785 11.02 4.5675 10.3675C4.35 9.6425 4.785 8.9175 5.4375 8.7C10.585 7.1775 19.0675 7.4675 24.4325 10.6575C25.085 11.02 25.3025 11.89 24.94 12.5425C24.5775 13.05 23.7075 13.2675 23.055 12.905ZM22.91 16.965C22.5475 17.4725 21.895 17.69 21.3875 17.3275C17.4725 14.935 11.5275 14.21 6.96 15.66C6.38 15.805 5.7275 15.515 5.5825 14.935C5.4375 14.355 5.7275 13.7025 6.3075 13.5575C11.6 11.9625 18.125 12.76 22.62 15.515C23.055 15.7325 23.2725 16.4575 22.91 16.965ZM21.17 20.9525C20.88 21.3875 20.3725 21.5325 19.9375 21.2425C16.53 19.14 12.2525 18.705 7.1775 19.865C6.67 20.01 6.235 19.6475 6.09 19.2125C5.945 18.705 6.3075 18.27 6.7425 18.125C12.2525 16.8925 17.0375 17.4 20.8075 19.72C21.315 19.9375 21.3875 20.5175 21.17 20.9525ZM14.5 0C12.5958 0 10.7103 0.375054 8.95109 1.10375C7.19187 1.83244 5.5934 2.9005 4.24695 4.24695C1.52767 6.96623 0 10.6544 0 14.5C0 18.3456 1.52767 22.0338 4.24695 24.753C5.5934 26.0995 7.19187 27.1676 8.95109 27.8963C10.7103 28.6249 12.5958 29 14.5 29C18.3456 29 22.0338 27.4723 24.753 24.753C27.4723 22.0338 29 18.3456 29 14.5C29 12.5958 28.6249 10.7103 27.8963 8.95109C27.1676 7.19187 26.0995 5.5934 24.753 4.24695C23.4066 2.9005 21.8081 1.83244 20.0489 1.10375C18.2897 0.375054 16.4042 0 14.5 0Z" fill="black"/>
</svg>
