<svg width="43" height="43" viewBox="0 0 43 43" fill="none" xmlns="http://www.w3.org/2000/svg">
<path d="M14.4202 26.7331C15.4782 26.7364 16.5193 26.4726 17.4437 25.9672C18.3682 25.4618 19.1449 24.7316 19.6994 23.8467C19.7483 23.7692 19.7812 23.6831 19.7961 23.5932C19.8111 23.5033 19.8079 23.4114 19.7867 23.3227C19.7655 23.234 19.7267 23.1503 19.6726 23.0763C19.6185 23.0023 19.55 22.9396 19.4712 22.8916C19.3924 22.8436 19.3047 22.8113 19.2131 22.7966C19.1216 22.7819 19.028 22.785 18.9377 22.8058C18.8474 22.8267 18.7622 22.8647 18.6868 22.9179C18.6115 22.9711 18.5476 23.0383 18.4988 23.1157C18.1243 23.7072 17.6209 24.2098 17.0249 24.5873C16.4289 24.9648 15.7551 25.2079 15.052 25.299C14.3489 25.3901 13.634 25.3269 12.9588 25.1141C12.2835 24.9012 11.6647 24.544 11.1468 24.0681C10.629 23.5922 10.225 23.0095 9.96401 22.3619C9.70299 21.7142 9.59139 21.0178 9.63728 20.3228C9.68321 19.6277 9.88541 18.9513 10.2294 18.3422C10.5734 17.7331 11.0506 17.2065 11.6267 16.8003C11.7034 16.7477 11.7687 16.6806 11.8188 16.603C11.8689 16.5254 11.9028 16.4388 11.9186 16.3482C11.9343 16.2577 11.9316 16.1649 11.9105 16.0754C11.8894 15.9859 11.8505 15.9013 11.7959 15.8267C11.7413 15.7521 11.6721 15.6889 11.5924 15.6407C11.5127 15.5926 11.4241 15.5605 11.3317 15.5463C11.2392 15.532 11.1448 15.536 11.054 15.5579C10.9631 15.5798 10.8776 15.6192 10.8024 15.6739C9.7335 16.426 8.93536 17.4919 8.52288 18.7181C8.11043 19.9443 8.10499 21.2675 8.50734 22.4969C8.90965 23.7263 9.69904 24.7986 10.7617 25.5592C11.8243 26.3197 13.1054 26.7293 14.4202 26.729V26.7331Z" fill="black"/>
<path d="M14.1451 11.8204C13.6772 11.8445 13.2383 12.0501 12.9247 12.392C12.6112 12.7339 12.4488 13.1841 12.4732 13.6436L12.7441 18.7167C12.7446 18.7242 12.7446 18.7318 12.7441 18.7394C12.7664 19.1858 12.9632 19.6064 13.2935 19.9137C13.6239 20.2209 14.0622 20.3911 14.5172 20.3887H19.2988L20.7325 24.2546C20.8062 24.4555 20.9414 24.6292 21.1196 24.7517C21.2977 24.8742 21.5101 24.9396 21.7276 24.9389C21.7959 24.9387 21.8641 24.9318 21.9311 24.9182C21.9751 24.9109 22.0184 24.9002 22.0607 24.8861L23.9466 24.2111C24.0355 24.1813 24.1175 24.1344 24.1878 24.0732C24.2581 24.0119 24.3152 23.9374 24.3558 23.8542C24.3964 23.771 24.4197 23.6806 24.4242 23.5884C24.4288 23.4963 24.4147 23.4041 24.3825 23.3174C24.3504 23.2306 24.301 23.1511 24.2372 23.0833C24.1733 23.0156 24.0964 22.9611 24.0108 22.9229C23.9253 22.8847 23.8328 22.8637 23.7389 22.8611C23.6449 22.8585 23.5514 22.8743 23.4638 22.9076L22.6025 23.2182C22.6025 23.2182 21.0213 18.9527 20.9897 18.8782C20.9712 18.8374 20.9505 18.7976 20.9275 18.7591C20.8314 18.5885 20.6907 18.4462 20.5198 18.347C20.3489 18.2478 20.1541 18.1952 19.9556 18.1949H16.2502L16.1806 16.8811H19.2524C19.4398 16.8811 19.6194 16.808 19.7519 16.6779C19.8843 16.5478 19.9587 16.3714 19.9587 16.1874C19.9587 16.0034 19.8843 15.827 19.7519 15.6969C19.6194 15.5668 19.4398 15.4937 19.2524 15.4937H16.1058L16.0004 13.5349C16.0004 13.5121 16.0004 13.4904 16.0004 13.4676C15.9891 13.2397 15.932 13.0162 15.8326 12.81C15.7331 12.6037 15.5932 12.4188 15.4209 12.2658C15.2485 12.1128 15.0471 11.9946 14.8282 11.9182C14.6092 11.8418 14.3771 11.8085 14.1451 11.8204Z" fill="black"/>
<path d="M14.3148 11.34C14.6635 11.322 14.9989 11.2028 15.2786 10.9975C15.5583 10.7923 15.7698 10.5102 15.8863 10.187C16.0028 9.8637 16.0191 9.51376 15.9332 9.18141C15.8472 8.84905 15.6629 8.54918 15.4035 8.31968C15.144 8.09021 14.8211 7.94139 14.4756 7.89211C14.1301 7.84283 13.7774 7.89527 13.4622 8.04279C13.147 8.1903 12.8834 8.42629 12.7048 8.72091C12.5261 9.01553 12.4404 9.35556 12.4585 9.698C12.483 10.1575 12.6923 10.5886 13.0404 10.8965C13.3886 11.2045 13.847 11.364 14.3148 11.34Z" fill="black"/>
<path d="M20.4372 29.0669C20.4372 28.7908 20.661 28.5669 20.9372 28.5669H36.8005C37.0767 28.5669 37.3005 28.7908 37.3005 29.0669V31.9041C37.3005 32.1802 37.0767 32.4041 36.8005 32.4041H20.9372C20.661 32.4041 20.4372 32.1802 20.4372 31.9041V29.0669Z" fill="black"/>
<path d="M17.1168 31.976C17.1168 31.6998 17.3407 31.476 17.6168 31.476H36.8005C37.0767 31.476 37.3005 31.6998 37.3005 31.976V34.8132C37.3005 35.0893 37.0767 35.3132 36.8005 35.3132H17.6168C17.3407 35.3132 17.1168 35.0893 17.1168 34.8132V31.976Z" fill="black"/>
<path d="M23.9529 26.158C23.9529 25.8818 24.1768 25.658 24.4529 25.658H36.8005C37.0767 25.658 37.3005 25.8818 37.3005 26.158V28.9952C37.3005 29.2713 37.0767 29.4952 36.8005 29.4952H24.4529C24.1768 29.4952 23.9529 29.2713 23.9529 28.9952V26.158Z" fill="black"/>
<path d="M27.4687 23.2491C27.4687 22.9729 27.6925 22.7491 27.9687 22.7491H36.8005C37.0767 22.7491 37.3005 22.9729 37.3005 23.2491V26.0862C37.3005 26.3624 37.0767 26.5862 36.8005 26.5862H27.9687C27.6925 26.5862 27.4687 26.3624 27.4687 26.0862V23.2491Z" fill="black"/>
<path d="M30.9845 20.3401C30.9845 20.064 31.2083 19.8401 31.4845 19.8401H36.8005C37.0767 19.8401 37.3005 20.064 37.3005 20.3401V23.1773C37.3005 23.4534 37.0767 23.6773 36.8005 23.6773H31.4845C31.2083 23.6773 30.9845 23.4534 30.9845 23.1773V20.3401Z" fill="black"/>
<path d="M25.0779 17.6592L24.6064 17.1878L27.4349 14.3594H24.8421V13.69H28.5757V17.4235H27.9063V14.8308L25.0779 17.6592Z" fill="black"/>
<path fill-rule="evenodd" clip-rule="evenodd" d="M25.0779 17.9421L24.3236 17.1878L26.952 14.5594H24.6422L24.6421 13.49H28.7757V17.6235H27.7063V15.3136L25.0779 17.9421ZM27.9063 14.8308L25.0779 17.6592L24.6064 17.1878L27.4349 14.3594H24.8421V13.69H28.5757V17.4235H27.9063V14.8308Z" fill="black"/>
<path d="M13.5741 28.3642L14.0455 28.8356L11.2171 31.664L13.8098 31.664L13.8098 32.3334H10.0763V28.5999H10.7457V31.1926L13.5741 28.3642Z" fill="black"/>
<path fill-rule="evenodd" clip-rule="evenodd" d="M13.5741 28.0813L14.3283 28.8356L11.6999 31.464H14.0098V32.5334H9.87626V28.3999H10.9457V30.7098L13.5741 28.0813ZM10.7457 31.1926L13.5741 28.3642L14.0455 28.8356L11.2171 31.664L13.8098 31.664L13.8098 32.3334H10.0763V28.5999H10.7457V31.1926Z" fill="black"/>
<path fill-rule="evenodd" clip-rule="evenodd" d="M37.6499 2.93826H5.64987C3.99302 2.93826 2.64987 4.28141 2.64987 5.93826V37.9383C2.64987 39.5951 3.99302 40.9383 5.64987 40.9383H37.6499C39.3067 40.9383 40.6499 39.5951 40.6499 37.9383V5.93826C40.6499 4.28141 39.3067 2.93826 37.6499 2.93826ZM5.64987 0.938263C2.88845 0.938263 0.649872 3.17684 0.649872 5.93826V37.9383C0.649872 40.6997 2.88845 42.9383 5.64987 42.9383H37.6499C40.4113 42.9383 42.6499 40.6997 42.6499 37.9383V5.93826C42.6499 3.17684 40.4113 0.938263 37.6499 0.938263H5.64987Z" fill="black"/>
</svg>
