<svg width="44" height="44" viewBox="0 0 44 44" fill="none" xmlns="http://www.w3.org/2000/svg">
<path d="M9.02606 34.1231L13.0754 34.0998V28.8452H20.458V21.4608H27.8405V14.0764H35.2231V10.026H23.7921V17.4113H16.4095V24.7957H9.02606V34.1231Z" fill="black"/>
<path fill-rule="evenodd" clip-rule="evenodd" d="M1 6C1 3.23858 3.23858 1 6 1H38C40.7614 1 43 3.23858 43 6V38C43 40.7614 40.7614 43 38 43H6C3.23858 43 1 40.7614 1 38V6ZM6 3H38C39.6569 3 41 4.34315 41 6V38C41 39.6569 39.6569 41 38 41H6C4.34315 41 3 39.6569 3 38V6C3 4.34315 4.34315 3 6 3Z" fill="black"/>
<path d="M9.02606 34.1231L13.0754 34.0998V28.8452H20.458V21.4608H27.8405V14.0764H35.2231V10.026H23.7921V17.4113H16.4095V24.7957H9.02606V34.1231Z" stroke="black" stroke-width="0.57" stroke-miterlimit="22.93"/>
<path fill-rule="evenodd" clip-rule="evenodd" d="M1 6C1 3.23858 3.23858 1 6 1H38C40.7614 1 43 3.23858 43 6V38C43 40.7614 40.7614 43 38 43H6C3.23858 43 1 40.7614 1 38V6ZM6 3H38C39.6569 3 41 4.34315 41 6V38C41 39.6569 39.6569 41 38 41H6C4.34315 41 3 39.6569 3 38V6C3 4.34315 4.34315 3 6 3Z" stroke="black" stroke-width="0.57" stroke-miterlimit="22.93"/>
</svg>
