<svg width="43" height="42" viewBox="0 0 43 42" fill="none" xmlns="http://www.w3.org/2000/svg">
<path d="M16.8754 9.135C16.6407 9.29182 16.3648 9.37552 16.0825 9.37552C15.704 9.37552 15.341 9.22516 15.0733 8.95751C14.8057 8.68985 14.6553 8.32684 14.6553 7.94832C14.6553 7.66605 14.739 7.39011 14.8958 7.15541C15.0527 6.9207 15.2756 6.73778 15.5364 6.62976C15.7971 6.52173 16.0841 6.49347 16.361 6.54854C16.6378 6.60361 16.8921 6.73954 17.0917 6.93913C17.2913 7.13873 17.4272 7.39304 17.4823 7.66989C17.5374 7.94674 17.5091 8.2337 17.4011 8.49449C17.2931 8.75527 17.1101 8.97817 16.8754 9.135Z" fill="black"/>
<path d="M12.6382 18.3776C13.0673 18.183 13.4416 17.8851 13.7276 17.5106C13.8412 17.3592 14.0102 17.2591 14.1976 17.2323C14.385 17.2055 14.5753 17.2543 14.7267 17.3679C14.8781 17.4814 14.9782 17.6505 15.0049 17.8378C15.0317 18.0252 14.9829 18.2155 14.8694 18.3669C14.4706 18.8987 13.9534 19.3303 13.3589 19.6275C12.7644 19.9248 12.1088 20.0795 11.4441 20.0795C10.3086 20.143 9.19432 19.7527 8.34653 18.9945C7.49874 18.2364 6.98684 17.1726 6.92344 16.037C6.86003 14.9014 7.25033 13.7872 8.00845 12.9394C8.76658 12.0916 9.83044 11.5797 10.966 11.5163C11.1553 11.4955 11.345 11.5507 11.4936 11.6698C11.6421 11.7889 11.7373 11.9622 11.7581 12.1514C11.7789 12.3407 11.7237 12.5305 11.6046 12.679C11.4855 12.8276 11.3122 12.9227 11.123 12.9435C10.655 12.999 10.2081 13.1695 9.82206 13.4398C9.43603 13.7101 9.12291 14.0717 8.91066 14.4924C8.69841 14.9132 8.59363 15.3799 8.60566 15.851C8.61769 16.3221 8.74617 16.7828 8.97963 17.1922C9.21308 17.6015 9.54425 17.9467 9.94358 18.1969C10.3429 18.4471 10.798 18.5946 11.2681 18.6261C11.7383 18.6576 12.209 18.5723 12.6382 18.3776Z" fill="black"/>
<path d="M17.8665 18.6523H18.5801L18.6158 18.6238C18.8051 18.6238 18.9866 18.699 19.1204 18.8328C19.2542 18.9666 19.3294 19.1481 19.3294 19.3374C19.3294 19.5267 19.2542 19.7082 19.1204 19.842C18.9866 19.9758 18.8051 20.051 18.6158 20.051H17.1886C16.9993 20.051 16.8178 19.9758 16.684 19.842C16.5502 19.7082 16.475 19.5267 16.475 19.3374V15.7694H12.907C12.8242 15.7693 12.7421 15.7548 12.6644 15.7266C12.6166 15.7023 12.5712 15.6736 12.5288 15.6409C12.4929 15.6238 12.4594 15.6022 12.4289 15.5767C12.3964 15.5434 12.3698 15.5048 12.3504 15.4625L12.2719 15.3555C12.247 15.2664 12.2279 15.1759 12.2148 15.0843C12.2081 15.0418 12.2081 14.9984 12.2148 14.9559C12.2113 14.9179 12.2113 14.8797 12.2148 14.8417L13.5635 11.1238L11.2514 9.78228L9.6601 10.71C9.54716 10.7741 9.41885 10.8061 9.28903 10.8027C9.13224 10.8007 8.98049 10.7471 8.85722 10.6502C8.73395 10.5533 8.64602 10.4185 8.60704 10.2666C8.56806 10.1147 8.58018 9.95424 8.64154 9.80994C8.70289 9.66565 8.81007 9.54558 8.9465 9.46829L10.8661 8.34794H10.9446C10.9897 8.32503 11.0377 8.30823 11.0873 8.29798H11.3727C11.4192 8.30797 11.4646 8.3223 11.5083 8.3408H11.594L14.7909 10.1819C14.848 10.1962 14.848 10.239 14.848 10.239C14.8883 10.2641 14.9244 10.2954 14.955 10.3317C14.9857 10.3639 15.0121 10.3999 15.0335 10.4388C15.0577 10.4777 15.0791 10.5182 15.0977 10.5601C15.1018 10.6052 15.1018 10.6506 15.0977 10.6957C15.1013 10.7384 15.1013 10.7814 15.0977 10.8241V11.0454L13.8918 14.3707H17.1529C17.3422 14.3707 17.5237 14.4459 17.6575 14.5797C17.7913 14.7136 17.8665 14.8951 17.8665 15.0843V18.6523Z" fill="black"/>
<path d="M30.5238 19.402C30.5238 19.1258 30.7477 18.902 31.0238 18.902H36.3399C36.616 18.902 36.8399 19.1258 36.8399 19.402V22.2392C36.8399 22.2512 36.8394 22.2631 36.8386 22.2749C36.8395 22.2868 36.8399 22.2988 36.8399 22.3109V25.1481C36.8399 25.1602 36.8395 25.1722 36.8386 25.1841C36.8391 25.1905 36.8394 25.197 36.8396 25.2035L36.8399 25.2198V28.057C36.8399 28.069 36.8394 28.081 36.8386 28.0928C36.8395 28.1047 36.8399 28.1167 36.8399 28.1288V30.966C36.8399 30.9781 36.8395 30.9901 36.8386 31.002C36.8394 31.0138 36.8399 31.0258 36.8399 31.0378V33.875C36.8399 34.1512 36.616 34.375 36.3399 34.375H17.1562C16.88 34.375 16.6562 34.1512 16.6562 33.875V31.0378C16.6562 30.7617 16.88 30.5378 17.1562 30.5378H19.9765V28.1288C19.9765 27.8526 20.2004 27.6288 20.4765 27.6288H23.4922V25.2198C23.4922 24.9437 23.7161 24.7198 23.9922 24.7198H27.008V22.3109C27.008 22.0348 27.2319 21.8109 27.508 21.8109H30.5238V19.402Z" fill="black"/>
<path d="M20.6496 23.3985H5.80665V21.8985H20.6496V23.3985Z" fill="black"/>
<path d="M25.0068 14.6714L22.1783 17.4998L22.6497 17.9712L25.4782 15.1428V17.7355H26.1476V14.002H22.414V14.6714H25.0068Z" fill="black"/>
<path d="M13.5848 27.8975L10.7564 30.7259L13.3491 30.7259L13.3491 31.3953H9.61559V27.6618H10.285V30.2545L13.1134 27.426L13.5848 27.8975Z" fill="black"/>
<path fill-rule="evenodd" clip-rule="evenodd" d="M0.189209 5C0.189209 2.23858 2.42779 0 5.18921 0H37.1892C39.9506 0 42.1892 2.23858 42.1892 5V37C42.1892 39.7614 39.9506 42 37.1892 42H5.18921C2.42779 42 0.189209 39.7614 0.189209 37V5ZM5.18921 2H37.1892C38.8461 2 40.1892 3.34315 40.1892 5V37C40.1892 38.6569 38.8461 40 37.1892 40H5.18921C3.53236 40 2.18921 38.6569 2.18921 37V5C2.18921 3.34315 3.53236 2 5.18921 2Z" fill="black"/>
</svg>
