<svg width="42" height="42" viewBox="0 0 42 42" fill="none" xmlns="http://www.w3.org/2000/svg">
<path d="M9.01542 17.6405L7.36698 19.3228C7.16606 19.5302 7 19.9376 7 20.2292V33.7194C7.00042 33.86 7.05534 33.9947 7.15272 34.0941C7.25011 34.1935 7.38204 34.2496 7.51975 34.25H19.4763V19.3878H8.77518L9.81363 18.3259H20.5174V32.1269H21.5581V17.2647H9.9033C9.57402 17.2828 9.26065 17.4154 9.01542 17.6405Z" fill="black"/>
<path d="M23.698 23.5958C23.5543 23.4477 23.4736 23.2467 23.4736 23.0373V14.5625H28.0709V23.8272H24.2398C24.0366 23.8272 23.8417 23.744 23.698 23.5958Z" fill="black"/>
<path fill-rule="evenodd" clip-rule="evenodd" d="M34.5599 11.3019H32.06C32.2174 11.1929 32.3649 11.0688 32.5005 10.9312C32.807 10.6066 32.9789 10.1681 32.9789 9.71108C32.9789 9.25401 32.807 8.81548 32.5005 8.49093C31.8812 7.83557 30.8016 7.83715 30.1833 8.49093C29.8401 8.85381 28.9314 10.3205 29.0573 11.3019H29C29.125 10.3205 28.2163 8.85176 27.8741 8.49093C27.2548 7.83715 26.1752 7.83715 25.5569 8.49093C25.251 8.8158 25.0795 9.25422 25.0795 9.71108C25.0795 10.1679 25.251 10.6063 25.5569 10.9312C25.6931 11.0686 25.8409 11.1926 25.9985 11.3019H23.4976C23.288 11.3019 23.087 11.3893 22.9389 11.5449C22.7907 11.7004 22.7074 11.9114 22.7074 12.1314V13.3757C22.7074 13.4857 22.749 13.5912 22.8232 13.669C22.8972 13.7468 22.9977 13.7904 23.1025 13.7904H28.2385V12.1314H29.8189V13.7904H34.9549C35.0597 13.7904 35.1602 13.7468 35.2343 13.669C35.3083 13.5912 35.35 13.4857 35.35 13.3757V12.1314C35.35 11.9114 35.2668 11.7004 35.1186 11.5449C34.9704 11.3893 34.7694 11.3019 34.5599 11.3019ZM28.1921 11.2744C28.1921 11.2744 28.1585 11.3019 28.044 11.3019C27.4978 11.3019 26.4557 10.7062 26.115 10.3464C25.956 10.1771 25.8669 9.94885 25.8669 9.71108C25.8669 9.47331 25.956 9.24509 26.115 9.07573C26.1931 8.9923 26.2863 8.9261 26.3891 8.8809C26.4918 8.83564 26.6021 8.81239 26.7135 8.81239C26.825 8.81239 26.9353 8.83564 27.038 8.8809C27.1408 8.9261 27.2339 8.9923 27.3121 9.07573C27.8464 9.63978 28.3758 11.0748 28.1921 11.2744ZM30.011 11.3019C29.8988 11.3019 29.8653 11.2744 29.8653 11.2744C29.6816 11.0748 30.211 9.63821 30.7434 9.07573C30.9039 8.90878 31.121 8.81564 31.3469 8.81674C31.5729 8.81785 31.7891 8.91319 31.9481 9.08166C32.1071 9.25018 32.1958 9.47809 32.1948 9.71528C32.1937 9.95248 32.103 10.1795 31.9424 10.3464C31.5997 10.7062 30.5597 11.3019 30.011 11.3019Z" fill="black"/>
<path d="M33.8176 23.8272H29.9865V14.5625H34.5838V23.0373C34.5838 23.2467 34.5031 23.4477 34.3594 23.5958C34.2157 23.744 34.0208 23.8272 33.8176 23.8272Z" fill="black"/>
<path fill-rule="evenodd" clip-rule="evenodd" d="M5 0C2.23858 0 0 2.23858 0 5V37C0 39.7614 2.23858 42 5 42H37C39.7614 42 42 39.7614 42 37V5C42 2.23858 39.7614 0 37 0H5ZM37 2H5C3.34315 2 2 3.34315 2 5V37C2 38.6569 3.34315 40 5 40H37C38.6569 40 40 38.6569 40 37V5C40 3.34315 38.6569 2 37 2Z" fill="black"/>
</svg>
