<svg width="42" height="42" viewBox="0 0 42 42" fill="none" xmlns="http://www.w3.org/2000/svg">
<path fill-rule="evenodd" clip-rule="evenodd" d="M34.4856 18.6463L36.5 24.0957L34.4911 24.7926L34.9487 26.0274L10.6192 34.7365L8.94517 30.264C9.29387 30.1378 9.62557 29.97 9.93285 29.7646C9.67618 29.0676 9.44738 28.4475 9.34138 28.1676L9.16283 27.6792L9.65943 27.5036C10.3001 27.2945 10.8595 26.8959 11.2609 26.3622C10.8368 24.7597 9.15721 23.503 6.75775 24.3591L5 19.6122L6.03793 19.239L5.21761 17.0439L30.5404 7.97803L32.6943 13.7951L32.1977 13.9762C31.664 14.152 31.1789 14.4469 30.7803 14.8378L31.1207 15.7597C30.7601 15.8874 30.417 16.0588 30.0996 16.2701C30.0574 16.6812 30.1182 17.0962 30.2768 17.4789C30.4353 17.8616 30.6868 18.2002 31.0091 18.4652C31.4261 18.7849 31.9234 18.9874 32.4482 19.0512C32.9729 19.115 33.5053 19.0376 33.9889 18.8274L34.4856 18.6463ZM12.6341 25.9489C12.4067 26.7029 11.9366 27.3641 11.2944 27.8329V27.8384C11.0488 28.029 10.7854 28.1962 10.5076 28.3378L10.7643 29.0347L11.7911 31.806L34.1117 23.8268L35.1496 23.4536L33.8439 19.9304C33.2443 20.1031 32.6111 20.1298 31.9987 20.0084C31.3863 19.887 30.8131 19.6211 30.3284 19.2335C29.7101 18.7214 29.2806 18.0232 29.1063 17.2469C29.0105 16.8082 29.001 16.3556 29.0784 15.9134C29.2315 15.0681 29.6989 14.3091 30.3897 13.7841C30.6859 13.5516 31.0079 13.3528 31.3495 13.1914L29.9098 9.30061L6.57364 17.6585L7.03117 18.8932L7.97423 21.4561C8.87807 21.159 9.86428 21.2226 10.721 21.633C11.5776 22.0435 12.2363 22.7682 12.5555 23.6512C12.8339 24.3885 12.8615 25.1948 12.6341 25.9489Z" fill="black"/>
<path fill-rule="evenodd" clip-rule="evenodd" d="M0 5C0 2.23858 2.23858 0 5 0H37C39.7614 0 42 2.23858 42 5V37C42 39.7614 39.7614 42 37 42H5C2.23858 42 0 39.7614 0 37V5ZM5 2H37C38.6569 2 40 3.34315 40 5V37C40 38.6569 38.6569 40 37 40H5C3.34315 40 2 38.6569 2 37V5C2 3.34315 3.34315 2 5 2Z" fill="black"/>
</svg>
