<svg xmlns="http://www.w3.org/2000/svg" width="37" height="31" viewBox="0 0 37 31">
    <g fill="none" fill-rule="evenodd">
        <g fill="currentColor" fill-rule="nonzero">
            <g>
                <path d="M37 3.67c-1.376.622-2.842 1.035-4.37 1.235 1.572-.968 2.772-2.49 3.336-4.323-1.466.901-3.085 1.538-4.81 1.893C29.764.947 27.78 0 25.616 0c-4.2 0-7.58 3.515-7.58 7.824 0 .62.05 1.216.175 1.784C11.905 9.29 6.325 6.174 2.576 1.426c-.654 1.17-1.038 2.511-1.038 3.954 0 2.709 1.353 5.11 3.37 6.5-1.22-.024-2.415-.389-3.428-.963v.086c0 3.8 2.63 6.958 6.077 7.685-.617.174-1.29.258-1.989.258-.485 0-.975-.029-1.436-.134.983 3.098 3.772 5.375 7.088 5.45-2.58 2.08-5.857 3.335-9.405 3.335-.622 0-1.218-.028-1.815-.107C3.36 29.724 7.342 31 11.636 31c13.959 0 21.59-11.923 21.59-22.258 0-.346-.012-.68-.028-1.011C34.704 6.629 35.968 5.253 37 3.67z" transform="translate(-1163.000000, -138.000000) translate(1163.000000, 138.000000)"/>
            </g>
        </g>
    </g>
</svg>
