<svg width="42" height="42" viewBox="0 0 42 42" fill="none" xmlns="http://www.w3.org/2000/svg">
<path d="M17.9676 11.0446C18.5716 11.0463 19.1626 10.8701 19.6657 10.5383C20.1687 10.2064 20.5613 9.73389 20.7936 9.18043C21.026 8.62703 21.0877 8.01761 20.9709 7.4294C20.8541 6.84114 20.5641 6.30055 20.1376 5.87598C19.7111 5.45144 19.1673 5.16204 18.575 5.04445C17.9827 4.92685 17.3685 4.98633 16.8103 5.21538C16.2521 5.44442 15.7749 5.83272 15.4391 6.3311C15.1034 6.82948 14.9241 7.41554 14.9241 8.01509C14.923 8.41252 15.0008 8.80626 15.1533 9.17382C15.3057 9.54132 15.5297 9.87532 15.8124 10.1568C16.0952 10.4382 16.431 10.6615 16.8009 10.8139C17.1707 10.9662 17.5672 11.0446 17.9676 11.0446Z" fill="black"/>
<path d="M19.0358 25.2689H19.0213C19.0091 25.2884 18.9981 25.3083 18.9874 25.3277C18.9752 25.3499 18.9633 25.3716 18.9501 25.3915L12.4097 36.644C12.1645 37.0547 11.7661 37.3528 11.3008 37.4737C10.8355 37.5946 10.341 37.5286 9.92451 37.2899C9.50803 37.0512 9.20316 36.6591 9.07606 36.1987C8.94896 35.7383 9.00991 35.2467 9.24564 34.8307L14.3791 26.0003C14.0588 25.717 13.8025 25.3697 13.6272 24.981C13.4518 24.5924 13.3613 24.1713 13.3617 23.7455V14.8748C13.3617 14.0728 13.682 13.3036 14.2526 12.7357C14.8231 12.1677 15.5972 11.8476 16.4052 11.8453H17.5548C18.084 11.8462 18.6038 11.9843 19.0627 12.2459C19.5215 12.5076 19.9036 12.8837 20.171 13.337C20.1745 13.3422 20.1782 13.3472 20.182 13.3521L20.1917 13.3644C20.2003 13.3751 20.2089 13.3857 20.216 13.3975L24.992 21.6162C25.0761 21.7538 25.1317 21.9067 25.1555 22.0659C25.1793 22.2252 25.1709 22.3875 25.1306 22.5435C25.0904 22.6994 25.0192 22.8458 24.9211 22.974C24.8232 23.1023 24.7003 23.2098 24.5599 23.2903C24.4194 23.3708 24.2642 23.4227 24.1033 23.4428C23.9424 23.463 23.7791 23.4511 23.6229 23.4077C23.4667 23.3644 23.3208 23.2905 23.1938 23.1905C23.0667 23.0905 22.9611 22.9662 22.883 22.8251L19.6652 17.2926C19.6548 17.2776 19.6409 17.2653 19.6248 17.2567C19.6086 17.2482 19.5905 17.2437 19.5722 17.2436C19.5417 17.2436 19.5125 17.2556 19.491 17.277C19.4694 17.2984 19.4574 17.3273 19.4574 17.3576V23.7383C19.4582 24.2769 19.3126 24.8056 19.0358 25.2689Z" fill="black"/>
<path d="M25.3422 34.3834L20.0097 25.2141L17.9007 28.8394L22.4136 36.5979L22.4398 36.6411C22.695 37.0386 23.0963 37.3217 23.5583 37.4303C24.0204 37.5389 24.507 37.4645 24.9147 37.2229C25.3225 36.9814 25.6193 36.5916 25.7423 36.1363C25.8652 35.681 25.8047 35.1961 25.5733 34.7845L25.3422 34.3834Z" fill="black"/>
<path d="M25.4164 23.7311L33.0962 36.9254H33.0948C33.1305 36.9865 33.1494 37.0559 33.1495 37.1266C33.1497 37.1973 33.131 37.2667 33.0955 37.328C33.06 37.3893 33.0089 37.4402 32.9473 37.4756C32.8857 37.5111 32.8157 37.5298 32.7445 37.5298C32.6733 37.5301 32.6032 37.5117 32.5415 37.4765C32.4797 37.4413 32.4284 37.3905 32.3928 37.3293L24.7129 24.1336C24.6591 24.041 24.6446 23.931 24.6726 23.8278C24.7005 23.7246 24.7686 23.6366 24.8619 23.5832C24.9552 23.5298 25.066 23.5155 25.17 23.5432C25.2739 23.5709 25.3626 23.6385 25.4164 23.7311Z" fill="black"/>
<path fill-rule="evenodd" clip-rule="evenodd" d="M5 0C2.23858 0 0 2.23858 0 5V37C0 39.7614 2.23858 42 5 42H37C39.7614 42 42 39.7614 42 37V5C42 2.23858 39.7614 0 37 0H5ZM37 2H5C3.34315 2 2 3.34315 2 5V37C2 38.6569 3.34315 40 5 40H37C38.6569 40 40 38.6569 40 37V5C40 3.34315 38.6569 2 37 2Z" fill="black"/>
</svg>
