<svg width="42" height="42" viewBox="0 0 42 42" fill="none" xmlns="http://www.w3.org/2000/svg">
<path d="M19.1757 25.0908L16.9933 13.2339H13.8451L11.7045 25.1084L9.52205 13.2339H7L10.0217 28.0119H13.1282L15.332 15.6365L17.6368 28.0119H20.7432L23.7058 13.2339H21.3582L19.1757 25.0908Z" fill="black"/>
<path d="M33.4472 25.9041C33.9015 25.7664 34.3372 25.5721 34.7444 25.3257L34.828 27.6787C34.3459 27.8667 33.8469 28.0071 33.3381 28.0977C32.7971 28.1885 32.2496 28.2335 31.7012 28.2323C29.7004 28.2302 28.0948 27.5404 26.8846 26.1628C25.6744 24.7852 25.0693 22.9469 25.0693 20.6477C25.0693 18.2947 25.6615 16.4322 26.8458 15.0602C28.0302 13.6881 29.628 13.0021 31.639 13.0021C32.1511 13.002 32.6619 13.0512 33.1647 13.149C33.7046 13.2595 34.2336 13.4187 34.7455 13.625L34.6434 15.9211C34.2622 15.6672 33.8446 15.4745 33.4054 15.3499C32.9182 15.2251 32.4168 15.1663 31.9144 15.175C30.6464 15.1667 29.6534 15.6355 28.9355 16.5812C28.2176 17.527 27.8586 18.8376 27.8586 20.5132C27.8599 22.2812 28.2338 23.6536 28.9804 24.6304C29.7269 25.6071 30.7739 26.0956 32.1214 26.0956C32.5701 26.0956 33.0164 26.0311 33.4472 25.9041Z" fill="black"/>
<path fill-rule="evenodd" clip-rule="evenodd" d="M5 0C2.23858 0 0 2.23858 0 5V37C0 39.7614 2.23858 42 5 42H37C39.7614 42 42 39.7614 42 37V5C42 2.23858 39.7614 0 37 0H5ZM37 2H5C3.34315 2 2 3.34315 2 5V37C2 38.6569 3.34315 40 5 40H37C38.6569 40 40 38.6569 40 37V5C40 3.34315 38.6569 2 37 2Z" fill="black"/>
</svg>
