<svg width="42" height="42" viewBox="0 0 42 42" fill="none" xmlns="http://www.w3.org/2000/svg">
<path d="M25.6439 4.9947H35.484C35.7002 4.9947 35.9142 5.03743 36.1139 5.12043C36.3136 5.20344 36.4949 5.32513 36.6475 5.47848C36.8001 5.63178 36.9209 5.8138 37.0031 6.01404C37.0853 6.21422 37.1273 6.42873 37.1265 6.64519V17.4685C37.1221 17.7409 37.101 18.0129 37.0633 18.2827C36.503 21.3246 33.8915 23.3697 30.564 23.3697C27.2349 23.3697 24.6234 21.3246 24.0647 18.2827C24.0255 18.013 24.0038 17.741 24 17.4685V6.63931C24.0004 6.20298 24.1738 5.78466 24.482 5.47628C24.7903 5.16789 25.2082 4.9947 25.6439 4.9947Z" fill="black"/>
<path fill-rule="evenodd" clip-rule="evenodd" d="M0 5C0 2.23858 2.23858 0 5 0H37C39.7614 0 42 2.23858 42 5V37C42 39.7614 39.7614 42 37 42H5C2.23858 42 0 39.7614 0 37V5ZM5 2H37C38.6569 2 40 3.34315 40 5V37C40 38.6569 38.6569 40 37 40H5C3.34315 40 2 38.6569 2 37V5C2 3.34315 3.34315 2 5 2Z" fill="black"/>
</svg>
