<svg width="42" height="42" viewBox="0 0 42 42" fill="none" xmlns="http://www.w3.org/2000/svg">
<path d="M6.64393 4.99469H16.484C16.7002 4.99469 16.9142 5.03743 17.1139 5.12043C17.3136 5.20343 17.4949 5.32513 17.6475 5.47848C17.8001 5.63178 17.9209 5.8138 18.0031 6.01403C18.0853 6.21421 18.1273 6.42873 18.1265 6.64519V17.4685C18.1221 17.7409 18.101 18.0129 18.0633 18.2827C17.503 21.3246 14.8915 23.3697 11.564 23.3697C8.23494 23.3697 5.62344 21.3246 5.06468 18.2827C5.02546 18.013 5.00383 17.741 5 17.4685V6.63931C5.00037 6.20298 5.17377 5.78466 5.482 5.47627C5.79028 5.16789 6.20818 4.99469 6.64393 4.99469Z" fill="black"/>
<path fill-rule="evenodd" clip-rule="evenodd" d="M0 5C0 2.23858 2.23858 0 5 0H37C39.7614 0 42 2.23858 42 5V37C42 39.7614 39.7614 42 37 42H5C2.23858 42 0 39.7614 0 37V5ZM5 2H37C38.6569 2 40 3.34315 40 5V37C40 38.6569 38.6569 40 37 40H5C3.34315 40 2 38.6569 2 37V5C2 3.34315 3.34315 2 5 2Z" fill="black"/>
</svg>
