<svg width="43" height="43" viewBox="0 0 43 43" fill="none" xmlns="http://www.w3.org/2000/svg">
<path d="M20.7835 33.1735H21.4501V37.1735L23.2835 35.3401L23.7568 35.8134L21.1168 38.4534L18.4768 35.8134L18.9501 35.3401L20.7835 37.1735V33.1735Z" fill="black"/>
<path fill-rule="evenodd" clip-rule="evenodd" d="M20.5835 32.9734H21.6501V36.6906L23.2835 35.0573L24.0396 35.8134L21.1168 38.7363L18.194 35.8134L18.9501 35.0573L20.5835 36.6906L20.5835 32.9734ZM20.7835 37.1735V33.1735H21.4501V37.1735L23.2835 35.3401L23.7568 35.8134L21.1168 38.4534L18.4768 35.8134L18.9501 35.3401L20.7835 37.1735Z" fill="black"/>
<path d="M21.4501 10.5791H20.7835V6.57905L18.9501 8.41239L18.4768 7.93905L21.1168 5.29905L23.7568 7.93905L23.2835 8.41239L21.4501 6.57905V10.5791Z" fill="black"/>
<path fill-rule="evenodd" clip-rule="evenodd" d="M21.6501 10.7791H20.5835V7.06189L18.9501 8.69523L18.194 7.93905L21.1168 5.01621L24.0396 7.93905L23.2835 8.69523L21.6501 7.06189L21.6501 10.7791ZM21.4501 6.57905V10.5791H20.7835V6.57905L18.9501 8.41239L18.4768 7.93905L21.1168 5.29905L23.7568 7.93905L23.2835 8.41239L21.4501 6.57905Z" fill="black"/>
<path d="M19.7574 28.6696C20.5156 28.672 21.2616 28.483 21.9241 28.1208C22.5865 27.7586 23.1431 27.2353 23.5405 26.6012C23.5755 26.5457 23.5991 26.484 23.6098 26.4196C23.6205 26.3551 23.6182 26.2893 23.6031 26.2257C23.5879 26.1622 23.5601 26.1022 23.5213 26.0492C23.4825 25.9961 23.4334 25.9512 23.3769 25.9168C23.3205 25.8824 23.2576 25.8593 23.192 25.8487C23.1264 25.8382 23.0594 25.8404 22.9946 25.8553C22.9299 25.8703 22.8688 25.8975 22.8149 25.9356C22.7609 25.9737 22.7151 26.0219 22.6801 26.0774C22.4117 26.5013 22.051 26.8614 21.6239 27.132C21.1968 27.4025 20.714 27.5767 20.2101 27.6419C19.7063 27.7072 19.194 27.6619 18.7101 27.5094C18.2262 27.3569 17.7827 27.1009 17.4116 26.7599C17.0406 26.4188 16.7511 26.0013 16.564 25.5372C16.377 25.0731 16.297 24.574 16.3299 24.0759C16.3628 23.5779 16.5077 23.0931 16.7542 22.6567C17.0008 22.2202 17.3427 21.8428 17.7555 21.5517C17.8105 21.514 17.8573 21.466 17.8932 21.4103C17.9291 21.3547 17.9534 21.2927 17.9647 21.2278C17.976 21.1629 17.974 21.0964 17.9589 21.0322C17.9438 20.9681 17.9159 20.9075 17.8768 20.8541C17.8376 20.8006 17.7881 20.7553 17.731 20.7208C17.6739 20.6863 17.6104 20.6633 17.5441 20.6531C17.4779 20.6429 17.4102 20.6457 17.3451 20.6614C17.28 20.6771 17.2187 20.7054 17.1648 20.7445C16.3989 21.2835 15.8269 22.0473 15.5313 22.9261C15.2358 23.8048 15.2319 24.7529 15.5202 25.634C15.8085 26.515 16.3742 27.2833 17.1357 27.8284C17.8971 28.3734 18.8152 28.6669 19.7574 28.6667V28.6696Z" fill="black"/>
<path d="M19.5602 17.9831C19.225 18.0004 18.9104 18.1477 18.6857 18.3927C18.4611 18.6377 18.3447 18.9603 18.3621 19.2896L18.5563 22.925C18.5567 22.9304 18.5567 22.9359 18.5563 22.9413C18.5723 23.2612 18.7133 23.5626 18.95 23.7828C19.1867 24.003 19.5009 24.1249 19.8269 24.1232H23.2534L24.2808 26.8935C24.3336 27.0375 24.4305 27.1619 24.5582 27.2497C24.6859 27.3375 24.8381 27.3844 24.9939 27.3839C25.0429 27.3838 25.0917 27.3788 25.1397 27.3691C25.1713 27.3639 25.2023 27.3562 25.2326 27.3461L26.5841 26.8624C26.6478 26.841 26.7066 26.8074 26.7569 26.7635C26.8073 26.7196 26.8482 26.6662 26.8773 26.6066C26.9064 26.5469 26.9231 26.4822 26.9263 26.4161C26.9296 26.3501 26.9195 26.2841 26.8964 26.2219C26.8734 26.1597 26.838 26.1027 26.7923 26.0542C26.7465 26.0057 26.6914 25.9666 26.6301 25.9392C26.5688 25.9119 26.5025 25.8968 26.4352 25.895C26.3679 25.8931 26.3009 25.9044 26.2381 25.9283L25.6209 26.1508C25.6209 26.1508 24.4878 23.0942 24.4651 23.0407C24.4519 23.0115 24.437 22.983 24.4205 22.9554C24.3517 22.8332 24.2508 22.7312 24.1284 22.6601C24.0059 22.589 23.8663 22.5514 23.7241 22.5511H21.0688L21.0189 21.6096H23.2202C23.3544 21.6096 23.4832 21.5572 23.5781 21.464C23.673 21.3708 23.7263 21.2443 23.7263 21.1125C23.7263 20.9807 23.673 20.8542 23.5781 20.761C23.4832 20.6678 23.3544 20.6154 23.2202 20.6154H20.9653L20.8898 19.2117C20.8898 19.1954 20.8898 19.1798 20.8898 19.1635C20.8816 19.0002 20.8408 18.84 20.7695 18.6922C20.6982 18.5445 20.598 18.4119 20.4745 18.3023C20.351 18.1926 20.2066 18.108 20.0497 18.0532C19.8929 17.9984 19.7265 17.9746 19.5602 17.9831Z" fill="black"/>
<path d="M19.6819 17.6389C19.9317 17.6259 20.1721 17.5405 20.3725 17.3934C20.573 17.2464 20.7245 17.0442 20.808 16.8126C20.8915 16.5809 20.9032 16.3302 20.8416 16.092C20.78 15.8538 20.6479 15.6389 20.462 15.4745C20.2761 15.31 20.0447 15.2034 19.7971 15.1681C19.5495 15.1328 19.2967 15.1703 19.0709 15.276C18.845 15.3818 18.6561 15.5509 18.5281 15.762C18.4001 15.9731 18.3386 16.2168 18.3516 16.4622C18.3691 16.7915 18.5192 17.1004 18.7686 17.321C19.0181 17.5417 19.3466 17.656 19.6819 17.6389Z" fill="black"/>
<path fill-rule="evenodd" clip-rule="evenodd" d="M9.56418 35.3705L9.56418 8.16922H11.0642L11.0642 35.3705H9.56418Z" fill="black"/>
<path fill-rule="evenodd" clip-rule="evenodd" d="M31.1563 35.3705L31.1562 8.16922H32.6562V35.3705H31.1563Z" fill="black"/>
<path fill-rule="evenodd" clip-rule="evenodd" d="M29.7831 13.6624H12.4506V12.1624H29.7831V13.6624Z" fill="black"/>
<path fill-rule="evenodd" clip-rule="evenodd" d="M29.7831 31.6624H12.4506V30.1624H29.7831V31.6624Z" fill="black"/>
<path fill-rule="evenodd" clip-rule="evenodd" d="M37.6499 2.88284H5.64987C3.99302 2.88284 2.64987 4.22599 2.64987 5.88284V37.8828C2.64987 39.5397 3.99302 40.8828 5.64987 40.8828H37.6499C39.3067 40.8828 40.6499 39.5397 40.6499 37.8828V5.88284C40.6499 4.22599 39.3067 2.88284 37.6499 2.88284ZM5.64987 0.882843C2.88845 0.882843 0.649872 3.12142 0.649872 5.88284V37.8828C0.649872 40.6443 2.88845 42.8828 5.64987 42.8828H37.6499C40.4113 42.8828 42.6499 40.6443 42.6499 37.8828V5.88284C42.6499 3.12142 40.4113 0.882843 37.6499 0.882843H5.64987Z" fill="black"/>
</svg>
