<svg width="43" height="42" viewBox="0 0 43 42" fill="none" xmlns="http://www.w3.org/2000/svg">
<path d="M20.3228 9.69615V5.69615L18.4895 7.52948L18.0162 7.05615L20.6562 4.41615L23.2962 7.05615L22.8228 7.52948L20.9895 5.69615V9.69615H20.3228Z" fill="black"/>
<path d="M9.10352 7.28632L9.10352 34.4876H10.6035L10.6035 7.28632H9.10352Z" fill="black"/>
<path d="M24.2766 17.2491C24.0436 17.4047 23.7697 17.4878 23.4895 17.4878C23.1138 17.4878 22.7534 17.3386 22.4878 17.0729C22.2221 16.8072 22.0728 16.4469 22.0728 16.0711C22.0728 15.791 22.1559 15.5171 22.3116 15.2841C22.4672 15.0511 22.6885 14.8695 22.9474 14.7623C23.2062 14.6551 23.4911 14.627 23.7659 14.6817C24.0407 14.7364 24.2931 14.8713 24.4912 15.0694C24.6894 15.2675 24.8243 15.52 24.8789 15.7948C24.9336 16.0696 24.9055 16.3544 24.7983 16.6133C24.6911 16.8721 24.5095 17.0934 24.2766 17.2491Z" fill="black"/>
<path d="M20.0706 26.4234C20.4966 26.2302 20.8681 25.9346 21.152 25.5628C21.2647 25.4125 21.4325 25.3132 21.6185 25.2866C21.8045 25.26 21.9934 25.3084 22.1437 25.4211C22.2939 25.5339 22.3933 25.7017 22.4199 25.8876C22.4464 26.0736 22.398 26.2625 22.2853 26.4128C21.8895 26.9406 21.3761 27.3691 20.786 27.6641C20.1958 27.9592 19.5451 28.1128 18.8853 28.1128C17.7582 28.1757 16.6522 27.7883 15.8106 27.0358C14.9691 26.2833 14.461 25.2273 14.398 24.1001C14.3351 22.9729 14.7225 21.8669 15.475 21.0254C16.2276 20.1839 17.2836 19.6757 18.4107 19.6128C18.5986 19.5921 18.787 19.647 18.9344 19.7652C19.0819 19.8834 19.1763 20.0554 19.197 20.2432C19.2177 20.4311 19.1628 20.6195 19.0446 20.7669C18.9264 20.9144 18.7544 21.0088 18.5666 21.0295C18.1021 21.0846 17.6584 21.2538 17.2753 21.5221C16.8921 21.7903 16.5813 22.1493 16.3706 22.5669C16.1599 22.9846 16.0559 23.4478 16.0678 23.9155C16.0798 24.3831 16.2073 24.8404 16.439 25.2468C16.6708 25.6531 16.9995 25.9957 17.3959 26.2441C17.7923 26.4924 18.244 26.6388 18.7107 26.6701C19.1774 26.7014 19.6446 26.6166 20.0706 26.4234Z" fill="black"/>
<path d="M25.2603 26.6961H25.9687L26.0041 26.6678C26.1919 26.6678 26.3721 26.7424 26.5049 26.8753C26.6378 27.0081 26.7124 27.1883 26.7124 27.3761C26.7124 27.564 26.6378 27.7442 26.5049 27.877C26.3721 28.0099 26.1919 28.0845 26.0041 28.0845H24.5874C24.3995 28.0845 24.2194 28.0099 24.0865 27.877C23.9537 27.7442 23.8791 27.564 23.8791 27.3761V23.8345H20.3374C20.2553 23.8344 20.1738 23.82 20.0966 23.792C20.0492 23.7678 20.0041 23.7394 19.962 23.707C19.9264 23.6899 19.8931 23.6685 19.8628 23.6432C19.8306 23.6102 19.8042 23.5719 19.7849 23.5299L19.707 23.4236C19.6823 23.3352 19.6634 23.2453 19.6503 23.1545C19.6437 23.1122 19.6437 23.0692 19.6503 23.027C19.6469 22.9893 19.6469 22.9513 19.6503 22.9136L20.9891 19.2232L18.6941 17.8916L17.1145 18.8124C17.0024 18.876 16.875 18.9079 16.7462 18.9045C16.5905 18.9025 16.4399 18.8493 16.3175 18.7531C16.1952 18.6569 16.1079 18.5231 16.0692 18.3723C16.0305 18.2216 16.0425 18.0623 16.1034 17.919C16.1644 17.7758 16.2707 17.6566 16.4062 17.5799L18.3116 16.4678H18.3895C18.4343 16.4451 18.4819 16.4284 18.5312 16.4182H18.8145C18.8606 16.4281 18.9056 16.4424 18.9491 16.4607H19.0341L22.2074 18.2882C22.2641 18.3024 22.2641 18.3449 22.2641 18.3449C22.3041 18.3699 22.3399 18.4009 22.3703 18.437C22.4008 18.4689 22.427 18.5046 22.4482 18.5432C22.4722 18.5819 22.4935 18.6221 22.512 18.6636C22.516 18.7084 22.516 18.7535 22.512 18.7982C22.5155 18.8407 22.5155 18.8833 22.512 18.9257V19.1453L21.3149 22.4461H24.552C24.7399 22.4461 24.92 22.5208 25.0529 22.6536C25.1857 22.7865 25.2603 22.9666 25.2603 23.1545V26.6961Z" fill="black"/>
<path d="M30.6956 34.4876L30.6956 7.28632H32.1956V34.4876H30.6956Z" fill="black"/>
<path d="M11.9899 12.7795H29.3224V11.2795H11.9899V12.7795Z" fill="black"/>
<path d="M11.9899 30.7795V29.2795H29.3224V30.7795H11.9899Z" fill="black"/>
<path d="M20.3228 32.2906V36.2906L18.4895 34.4573L18.0162 34.9306L20.6562 37.5706L23.2962 34.9306L22.8228 34.4573L20.9895 36.2906V32.2906H20.3228Z" fill="black"/>
<path fill-rule="evenodd" clip-rule="evenodd" d="M0.189209 5C0.189209 2.23858 2.42779 0 5.18921 0H37.1892C39.9506 0 42.1892 2.23858 42.1892 5V37C42.1892 39.7614 39.9506 42 37.1892 42H5.18921C2.42779 42 0.189209 39.7614 0.189209 37V5ZM5.18921 2H37.1892C38.8461 2 40.1892 3.34315 40.1892 5V37C40.1892 38.6569 38.8461 40 37.1892 40H5.18921C3.53236 40 2.18921 38.6569 2.18921 37V5C2.18921 3.34315 3.53236 2 5.18921 2Z" fill="black"/>
</svg>
