<svg xmlns="http://www.w3.org/2000/svg" width="43" height="31" viewBox="0 0 43 31">
    <g fill="none" fill-rule="evenodd">
        <g fill="currentColor" fill-rule="nonzero">
            <g>
                <path d="M41.172 2.987C40.007.812 38.74.411 36.163.26 33.588.076 27.114 0 21.505 0 15.885 0 9.41.076 6.837.256 4.265.411 2.997.81 1.819 2.987.62 5.16 0 8.903 0 15.492v.022c0 6.56.618 10.332 1.82 12.482 1.177 2.175 2.442 2.57 5.014 2.753 2.575.158 9.052.251 14.671.251 5.61 0 12.083-.093 14.66-.248 2.578-.183 3.844-.578 5.01-2.753C42.387 25.849 43 22.078 43 15.517v-.014-.009c0-6.591-.613-10.334-1.828-12.507zM16.125 23.955V7.045L29.563 15.5l-13.438 8.455z" transform="translate(-1299.000000, -138.000000) translate(1299.000000, 138.000000)"/>
            </g>
        </g>
    </g>
</svg>
