<svg width="20" height="20" viewBox="0 0 20 20" xmlns="http://www.w3.org/2000/svg">
    <path d="m17.883 13.468-3.306-.923a1.38 1.38 0 0 0-.278-.05 1.455 1.455 0 0 0-1.137.387l-1.015.947-.052.051c-.08.083-.488.451-1.116.014a2.463 2.463 0 0 0-.057-.039c-.28-.18-2.79-1.837-4.91-4.936 0 0-.346-.519.044-.913l1.09-1.151a1.55 1.55 0 0 1 .044-.044c.076-.075.434-.481.236-1.342L6.56 2.202a1.435 1.435 0 0 0-.271-.539 1.357 1.357 0 0 0-.81-.502l-.066-.012c-.167-.036-1.013-.206-1.633-.13-.16.02-.316.07-.46.143C2.74 1.453 1.023 2.52 1 4.94c0 0 .014 1.615.505 3.07 0 0 .764 2.409 2.364 4.283 0 0 2.4 3.14 5.568 5.03 0 0 1.8 1.04 3.804 1.523 0 0 1.801.425 3.236-.137 0 0 1.811-.625 2.442-2.2.061-.152.094-.314.1-.477.008-.28-.016-.774-.199-1.49 0 0-.238-.887-.937-1.074z" stroke="#000" stroke-width="1.5" fill="none" fill-rule="evenodd"/>
</svg>
