<svg width="427" height="246" viewBox="0 0 427 246" xmlns="http://www.w3.org/2000/svg" xmlns:xlink="http://www.w3.org/1999/xlink">
    <defs>
        <path id="a" d="M0 0h427v244.861H0z"/>
    </defs>
    <g transform="translate(0 .803)" fill="none" fill-rule="evenodd">
        <mask id="b" fill="#fff">
            <use xlink:href="#a"/>
        </mask>
        <use fill="#91C9EA" xlink:href="#a"/>
        <g fill="#0074A1" mask="url(#b)">
            <path d="M-1.907 265.921c7-7.896 17.068-11.03 30.543-11.03h18.616v-49.679H22.597c-6.717 0-12.48 2.381-17.3 7.143-4.808 4.774-7.204 10.487-7.204 17.158v36.408zM101.585 192.387c-7 7.895-17.067 11.03-30.543 11.03H52.426v49.678h24.655c6.718 0 12.481-2.38 17.3-7.142 4.808-4.774 7.204-10.487 7.204-17.159v-36.407zM105.898 140.229c7-7.896 17.068-11.03 30.543-11.03h18.616v-49.68h-24.655c-6.717 0-12.481 2.382-17.3 7.143-4.808 4.774-7.204 10.487-7.204 17.159v36.408zM207.665 69.26c-7 7.895-17.068 11.029-30.543 11.029h-18.616v49.679h24.655c6.718 0 12.481-2.38 17.3-7.143 4.808-4.773 7.204-10.486 7.204-17.158V69.259zM215.427 107.296c7-7.896 17.068-11.03 30.544-11.03h18.615V46.587h-24.654c-6.718 0-12.481 2.38-17.3 7.142-4.809 4.774-7.205 10.487-7.205 17.159v36.408zM317.195 35.057c-7 7.896-17.068 11.03-30.543 11.03h-18.616v49.679h24.655c6.717 0 12.48-2.381 17.3-7.143 4.808-4.774 7.204-10.486 7.204-17.158V35.057zM321.507 71.824c7-7.895 17.068-11.03 30.544-11.03h18.615V11.117h-24.654c-6.718 0-12.481 2.38-17.3 7.142-4.809 4.774-7.205 10.487-7.205 17.159v36.407zM425 0c-7 7.896-17.068 11.029-30.542 11.029H375.84v49.68h24.656c6.716 0 12.48-2.381 17.3-7.143C422.603 48.792 425 43.08 425 36.408V0zM105.898 230.009c7-7.896 17.068-11.03 30.543-11.03h18.616V169.3h-24.655c-6.717 0-12.481 2.381-17.3 7.143-4.808 4.774-7.204 10.486-7.204 17.158v36.408zM207.665 159.04c-7 7.895-17.068 11.03-30.543 11.03h-18.616v49.678h24.655c6.718 0 12.481-2.38 17.3-7.142 4.808-4.774 7.204-10.487 7.204-17.159V159.04zM215.427 195.816c7-7.896 17.068-11.03 30.544-11.03h18.615v-49.679h-24.654c-6.718 0-12.481 2.38-17.3 7.143-4.809 4.773-7.205 10.486-7.205 17.158v36.408zM317.195 123.983c-7 7.895-17.068 11.03-30.543 11.03h-18.616v49.678h24.655c6.717 0 12.48-2.38 17.3-7.142 4.808-4.774 7.204-10.487 7.204-17.159v-36.407zM321.507 159.04c7-7.896 17.068-11.03 30.544-11.03h18.615V98.331h-24.654c-6.718 0-12.481 2.38-17.3 7.142-4.809 4.774-7.205 10.487-7.205 17.159v36.408zM425 87.215c-7 7.896-17.068 11.03-30.542 11.03H375.84v49.679h24.656c6.716 0 12.48-2.38 17.3-7.142 4.807-4.774 7.203-10.487 7.203-17.16V87.216zM215.427 282.15c7-7.897 17.068-11.03 30.544-11.03h18.615v-49.68h-24.654c-6.718 0-12.481 2.381-17.3 7.143-4.809 4.774-7.205 10.486-7.205 17.158v36.408zM317.195 210.343c-7 7.895-17.068 11.03-30.543 11.03h-18.616v49.678h24.655c6.717 0 12.48-2.38 17.3-7.142 4.808-4.774 7.204-10.487 7.204-17.159v-36.407z"/>
        </g>
    </g>
</svg>
