<svg width="496" height="412" viewBox="0 0 496 412" xmlns="http://www.w3.org/2000/svg" xmlns:xlink="http://www.w3.org/1999/xlink">
    <defs>
        <path id="a" d="M0 .55h56.73v69.555H0z"/>
    </defs>
    <g fill="none" fill-rule="evenodd" opacity=".1">
        <path d="M.5 308.673c8.116-9.139 19.79-12.766 35.415-12.766H57.5v-57.502H28.913c-7.789 0-14.472 2.756-20.06 8.267C3.279 252.198.5 258.81.5 266.532v42.141zM120.5 223.56c-8.116 9.139-19.79 12.766-35.415 12.766H63.5v57.502h28.587c7.789 0 14.472-2.756 20.06-8.267 5.575-5.526 8.353-12.138 8.353-19.86V223.56z" fill="#FFF"/>
        <g transform="translate(.5 340.343)">
            <mask id="b" fill="#fff">
                <use xlink:href="#a"/>
            </mask>
            <path d="M0 70.105c8.078-9.047 19.697-12.637 35.248-12.637H56.73V.551H28.278c-7.752 0-14.403 2.726-19.964 8.183C2.765 14.204 0 20.747 0 28.391v41.714z" fill="#FFF" mask="url(#b)"/>
        </g>
        <path d="M120.5 327.477c-8.116 9.14-19.79 12.767-35.415 12.767H63.5v57.501h28.587c7.789 0 14.472-2.754 20.06-8.267 5.575-5.526 8.353-12.137 8.353-19.86v-42.14zM125.5 163.189c8.116-9.14 19.79-12.767 35.415-12.767H182.5V92.921h-28.587c-7.789 0-14.472 2.755-20.06 8.267-5.575 5.525-8.353 12.138-8.353 19.86v42.14zM243.5 81.044c-8.116 9.14-19.79 12.767-35.415 12.767H186.5v57.501h28.587c7.789 0 14.472-2.755 20.06-8.267 5.575-5.525 8.353-12.138 8.353-19.86v-42.14zM252.5 125.07c8.116-9.139 19.79-12.766 35.415-12.766H309.5V54.802h-28.587c-7.789 0-14.472 2.756-20.06 8.267-5.575 5.526-8.353 12.138-8.353 19.86v42.141zM370.5 41.457c-8.116 9.139-19.79 12.766-35.415 12.766H313.5v57.502h28.587c7.789 0 14.472-2.756 20.06-8.267 5.575-5.526 8.353-12.138 8.353-19.86V41.456zM375.5 84.013c8.116-9.138 19.79-12.766 35.415-12.766H432.5V13.745h-28.587c-7.789 0-14.472 2.756-20.06 8.268-5.575 5.525-8.353 12.138-8.353 19.86v42.14zM495.5.88c-8.116 9.138-19.79 12.765-35.414 12.765H438.5v57.503h28.588c7.788 0 14.47-2.756 20.06-8.268 5.574-5.525 8.352-12.138 8.352-19.86V.88zM125.5 267.106c8.116-9.139 19.79-12.766 35.415-12.766H182.5v-57.502h-28.587c-7.789 0-14.472 2.756-20.06 8.267-5.575 5.526-8.353 12.138-8.353 19.86v42.141zM243.5 184.962c-8.116 9.139-19.79 12.766-35.415 12.766H186.5v57.502h28.587c7.789 0 14.472-2.756 20.06-8.267 5.575-5.526 8.353-12.138 8.353-19.86v-42.141zM252.5 227.529c8.116-9.139 19.79-12.766 35.415-12.766H309.5V157.26h-28.587c-7.789 0-14.472 2.756-20.06 8.267-5.575 5.526-8.353 12.138-8.353 19.86v42.14zM370.5 144.385c-8.116 9.139-19.79 12.766-35.415 12.766H313.5v57.502h28.587c7.789 0 14.472-2.756 20.06-8.267 5.575-5.526 8.353-12.138 8.353-19.86v-42.141zM375.5 184.962c8.116-9.139 19.79-12.766 35.415-12.766H432.5v-57.502h-28.587c-7.789 0-14.472 2.756-20.06 8.267-5.575 5.526-8.353 12.138-8.353 19.86v42.14zM495.5 101.828c-8.116 9.139-19.79 12.766-35.414 12.766H438.5v57.502h28.588c7.788 0 14.47-2.756 20.06-8.267 5.574-5.526 8.352-12.138 8.352-19.86v-42.141zM125.5 370.034c8.116-9.139 19.79-12.767 35.415-12.767H182.5v-57.5h-28.587c-7.789 0-14.472 2.754-20.06 8.266-5.575 5.526-8.353 12.137-8.353 19.86v42.141zM243.5 284.92c-8.116 9.14-19.79 12.767-35.415 12.767H186.5v57.502h28.587c7.789 0 14.472-2.755 20.06-8.267 5.575-5.526 8.353-12.137 8.353-19.86v-42.141zM252.5 327.457c8.116-9.14 19.79-12.767 35.415-12.767H309.5V257.19h-28.587c-7.789 0-14.472 2.755-20.06 8.267-5.575 5.525-8.353 12.137-8.353 19.859v42.142zM370.5 244.343c-8.116 9.14-19.79 12.767-35.415 12.767H313.5v57.501h28.587c7.789 0 14.472-2.755 20.06-8.267 5.575-5.525 8.353-12.138 8.353-19.86v-42.14z" fill="#FFF"/>
    </g>
</svg>
