<svg width="495" height="411" viewBox="0 0 495 411" xmlns="http://www.w3.org/2000/svg" xmlns:xlink="http://www.w3.org/1999/xlink">
    <defs>
        <path id="a" d="M0 .55h56.73v69.555H0z"/>
    </defs>
    <g fill="none" fill-rule="evenodd" opacity=".4">
        <path d="M0 308.283c8.116-9.14 19.79-12.767 35.415-12.767H57v-57.501H28.413c-7.789 0-14.472 2.755-20.06 8.267C2.779 251.807 0 258.42 0 266.142v42.14zM120 223.17c-8.116 9.138-19.79 12.766-35.415 12.766H63v57.501h28.587c7.789 0 14.472-2.755 20.06-8.267 5.575-5.525 8.353-12.138 8.353-19.86v-42.14z" fill="#91C9EA"/>
        <g transform="translate(0 339.953)">
            <mask id="b" fill="#fff">
                <use xlink:href="#a"/>
            </mask>
            <path d="M0 70.105c8.078-9.047 19.697-12.637 35.248-12.637H56.73V.551H28.278c-7.752 0-14.403 2.726-19.964 8.183C2.765 14.204 0 20.747 0 28.391v41.714z" fill="#91C9EA" mask="url(#b)"/>
        </g>
        <path d="M120 327.087c-8.116 9.139-19.79 12.766-35.415 12.766H63v57.502h28.587c7.789 0 14.472-2.755 20.06-8.268 5.575-5.525 8.353-12.136 8.353-19.859v-42.141zM125 162.798c8.116-9.139 19.79-12.766 35.415-12.766H182V92.53h-28.587c-7.789 0-14.472 2.756-20.06 8.267-5.575 5.526-8.353 12.138-8.353 19.86v42.141zM243 80.654c-8.116 9.139-19.79 12.766-35.415 12.766H186v57.502h28.587c7.789 0 14.472-2.756 20.06-8.267 5.575-5.526 8.353-12.138 8.353-19.86V80.653zM252 124.68c8.116-9.14 19.79-12.767 35.415-12.767H309V54.411h-28.587c-7.789 0-14.472 2.756-20.06 8.268-5.575 5.525-8.353 12.138-8.353 19.86v42.14zM370 41.066c-8.116 9.139-19.79 12.767-35.415 12.767H313v57.501h28.587c7.789 0 14.472-2.756 20.06-8.267 5.575-5.526 8.353-12.138 8.353-19.86v-42.14zM375 83.623c8.116-9.14 19.79-12.767 35.415-12.767H432V13.355h-28.587c-7.789 0-14.472 2.755-20.06 8.267C377.779 27.147 375 33.76 375 41.482v42.14zM495 .489c-8.116 9.139-19.79 12.765-35.414 12.765H438v57.503h28.588c7.788 0 14.47-2.756 20.06-8.267C492.221 56.964 495 50.352 495 42.63V.488zM125 266.716c8.116-9.14 19.79-12.767 35.415-12.767H182v-57.501h-28.587c-7.789 0-14.472 2.755-20.06 8.267-5.575 5.525-8.353 12.138-8.353 19.86v42.14zM243 184.571c-8.116 9.14-19.79 12.767-35.415 12.767H186v57.501h28.587c7.789 0 14.472-2.755 20.06-8.267 5.575-5.525 8.353-12.138 8.353-19.86v-42.14zM252 227.138c8.116-9.139 19.79-12.766 35.415-12.766H309V156.87h-28.587c-7.789 0-14.472 2.756-20.06 8.267-5.575 5.526-8.353 12.138-8.353 19.86v42.141zM370 143.994c-8.116 9.139-19.79 12.766-35.415 12.766H313v57.502h28.587c7.789 0 14.472-2.756 20.06-8.267 5.575-5.526 8.353-12.138 8.353-19.86v-42.141zM375 184.571c8.116-9.139 19.79-12.766 35.415-12.766H432v-57.502h-28.587c-7.789 0-14.472 2.756-20.06 8.267-5.575 5.526-8.353 12.138-8.353 19.86v42.141zM495 101.437c-8.116 9.14-19.79 12.767-35.414 12.767H438v57.501h28.588c7.788 0 14.47-2.755 20.06-8.267 5.574-5.525 8.352-12.138 8.352-19.86v-42.14zM125 369.643c8.116-9.139 19.79-12.766 35.415-12.766H182v-57.502h-28.587c-7.789 0-14.472 2.755-20.06 8.268-5.575 5.525-8.353 12.137-8.353 19.86v42.14zM243 284.53c-8.116 9.14-19.79 12.766-35.415 12.766H186v57.502h28.587c7.789 0 14.472-2.754 20.06-8.267 5.575-5.526 8.353-12.137 8.353-19.86V284.53zM252 327.066c8.116-9.14 19.79-12.766 35.415-12.766H309v-57.502h-28.587c-7.789 0-14.472 2.756-20.06 8.267-5.575 5.526-8.353 12.137-8.353 19.86v42.141zM370 243.953c-8.116 9.139-19.79 12.766-35.415 12.766H313v57.502h28.587c7.789 0 14.472-2.756 20.06-8.267 5.575-5.526 8.353-12.138 8.353-19.86v-42.141z" fill="#91C9EA"/>
    </g>
</svg>
