<svg width="495" height="411" viewBox="0 0 495 411" xmlns="http://www.w3.org/2000/svg" xmlns:xlink="http://www.w3.org/1999/xlink">
    <defs>
        <path id="a" d="M0 .55h56.73v69.555H0z"/>
    </defs>
    <g fill="none" fill-rule="evenodd" opacity=".395">
        <path d="M0 307.794c8.116-9.14 19.79-12.767 35.415-12.767H57v-57.501H28.413c-7.789 0-14.472 2.755-20.06 8.267C2.779 251.318 0 257.93 0 265.653v42.14zM120 222.68c-8.116 9.14-19.79 12.767-35.415 12.767H63v57.501h28.587c7.789 0 14.472-2.755 20.06-8.267 5.575-5.525 8.353-12.138 8.353-19.86v-42.14z" fill="#FFF"/>
        <g transform="translate(0 339.464)">
            <mask id="b" fill="#fff">
                <use xlink:href="#a"/>
            </mask>
            <path d="M0 70.105c8.078-9.047 19.697-12.637 35.248-12.637H56.73V.551H28.278c-7.752 0-14.403 2.726-19.964 8.183C2.765 14.204 0 20.747 0 28.391v41.714z" fill="#FFF" mask="url(#b)"/>
        </g>
        <path d="M120 326.598c-8.116 9.139-19.79 12.767-35.415 12.767H63v57.501h28.587c7.789 0 14.472-2.754 20.06-8.267 5.575-5.526 8.353-12.137 8.353-19.86v-42.141zM125 162.31c8.116-9.14 19.79-12.767 35.415-12.767H182V92.04h-28.587c-7.789 0-14.472 2.756-20.06 8.267-5.575 5.526-8.353 12.138-8.353 19.86v42.141zM243 80.165c-8.116 9.139-19.79 12.766-35.415 12.766H186v57.502h28.587c7.789 0 14.472-2.756 20.06-8.267 5.575-5.526 8.353-12.138 8.353-19.86V80.164zM252 124.19c8.116-9.138 19.79-12.766 35.415-12.766H309V53.923h-28.587c-7.789 0-14.472 2.755-20.06 8.267C254.779 67.715 252 74.328 252 82.05v42.14zM370 40.577c-8.116 9.14-19.79 12.767-35.415 12.767H313v57.501h28.587c7.789 0 14.472-2.755 20.06-8.267C367.221 97.053 370 90.44 370 82.718v-42.14zM375 83.134c8.116-9.139 19.79-12.766 35.415-12.766H432V12.866h-28.587c-7.789 0-14.472 2.756-20.06 8.267C377.779 26.66 375 33.271 375 40.993v42.141zM495 0c-8.116 9.139-19.79 12.765-35.414 12.765H438v57.503h28.588c7.788 0 14.47-2.756 20.06-8.267C492.221 56.475 495 49.863 495 42.14V0zM125 266.227c8.116-9.14 19.79-12.767 35.415-12.767H182V195.96h-28.587c-7.789 0-14.472 2.755-20.06 8.267-5.575 5.525-8.353 12.138-8.353 19.86v42.14zM243 184.082c-8.116 9.14-19.79 12.767-35.415 12.767H186v57.502h28.587c7.789 0 14.472-2.756 20.06-8.268 5.575-5.525 8.353-12.138 8.353-19.86v-42.14zM252 226.65c8.116-9.14 19.79-12.767 35.415-12.767H309v-57.502h-28.587c-7.789 0-14.472 2.756-20.06 8.268-5.575 5.525-8.353 12.138-8.353 19.86v42.14zM370 143.505c-8.116 9.14-19.79 12.767-35.415 12.767H313v57.501h28.587c7.789 0 14.472-2.756 20.06-8.267 5.575-5.526 8.353-12.138 8.353-19.86v-42.14zM375 184.082c8.116-9.138 19.79-12.766 35.415-12.766H432v-57.502h-28.587c-7.789 0-14.472 2.756-20.06 8.268-5.575 5.525-8.353 12.138-8.353 19.86v42.14zM495 100.948c-8.116 9.14-19.79 12.767-35.414 12.767H438v57.501h28.588c7.788 0 14.47-2.755 20.06-8.267 5.574-5.525 8.352-12.138 8.352-19.86v-42.14zM125 369.155c8.116-9.14 19.79-12.767 35.415-12.767H182v-57.501h-28.587c-7.789 0-14.472 2.754-20.06 8.267-5.575 5.526-8.353 12.137-8.353 19.86v42.14zM243 284.041c-8.116 9.14-19.79 12.767-35.415 12.767H186v57.501h28.587c7.789 0 14.472-2.754 20.06-8.267 5.575-5.525 8.353-12.137 8.353-19.859v-42.142zM252 326.577c8.116-9.14 19.79-12.766 35.415-12.766H309v-57.502h-28.587c-7.789 0-14.472 2.756-20.06 8.267-5.575 5.526-8.353 12.137-8.353 19.86v42.141zM370 243.464c-8.116 9.139-19.79 12.766-35.415 12.766H313v57.502h28.587c7.789 0 14.472-2.756 20.06-8.267 5.575-5.526 8.353-12.138 8.353-19.86v-42.141z" fill="#FFF"/>
    </g>
</svg>
