<svg width="496" height="309" viewBox="0 0 496 309" fill="none" xmlns="http://www.w3.org/2000/svg">
<g opacity="0.395">
<path fill-rule="evenodd" clip-rule="evenodd" d="M0.150146 308.042C8.2661 298.903 19.9405 295.275 35.5653 295.275H57.1501V237.774H28.563C20.7741 237.774 14.0912 240.53 8.50409 246.041C2.92843 251.567 0.150146 258.179 0.150146 265.901V308.042Z" fill="white"/>
<path fill-rule="evenodd" clip-rule="evenodd" d="M120.15 222.928C112.034 232.067 100.36 235.695 84.735 235.695H63.1501V293.197H91.7373C99.5262 293.197 106.209 290.441 111.796 284.929C117.372 279.404 120.15 272.791 120.15 265.069V222.928Z" fill="white"/>
<path fill-rule="evenodd" clip-rule="evenodd" d="M125.15 162.557C133.266 153.418 144.94 149.791 160.565 149.791H182.15V92.2893H153.563C145.774 92.2893 139.091 95.045 133.504 100.556C127.928 106.082 125.15 112.694 125.15 120.417V162.557Z" fill="white"/>
<path fill-rule="evenodd" clip-rule="evenodd" d="M243.15 80.413C235.034 89.5519 223.36 93.1794 207.735 93.1794H186.15V150.681H214.737C222.526 150.681 229.209 147.925 234.796 142.414C240.372 136.888 243.15 130.276 243.15 122.553V80.413Z" fill="white"/>
<path fill-rule="evenodd" clip-rule="evenodd" d="M252.15 124.439C260.266 115.3 271.94 111.672 287.565 111.672H309.15V54.1707H280.563C272.774 54.1707 266.091 56.9264 260.504 62.4379C254.928 67.9634 252.15 74.5759 252.15 82.2983V124.439Z" fill="white"/>
<path fill-rule="evenodd" clip-rule="evenodd" d="M370.15 40.8254C362.034 49.9643 350.36 53.5918 334.735 53.5918H313.15V111.093H341.737C349.526 111.093 356.209 108.338 361.796 102.826C367.372 97.3007 370.15 90.6883 370.15 82.9659V40.8254Z" fill="white"/>
<path fill-rule="evenodd" clip-rule="evenodd" d="M375.15 83.3821C383.266 74.2432 394.94 70.6157 410.565 70.6157H432.15V13.114H403.563C395.774 13.114 389.091 15.8697 383.504 21.3812C377.928 26.9067 375.15 33.5192 375.15 41.2416V83.3821Z" fill="white"/>
<path fill-rule="evenodd" clip-rule="evenodd" d="M495.15 0.248047C487.034 9.38696 475.36 13.0132 459.736 13.0132H438.15V70.5161H466.739C474.526 70.5161 481.209 67.7604 486.797 62.249C492.372 56.7234 495.15 50.111 495.15 42.3885V0.248047Z" fill="white"/>
<path fill-rule="evenodd" clip-rule="evenodd" d="M125.15 266.475C133.266 257.336 144.94 253.708 160.565 253.708H182.15V196.207H153.563C145.774 196.207 139.091 198.963 133.504 204.474C127.928 210 125.15 216.612 125.15 224.334V266.475Z" fill="white"/>
<path fill-rule="evenodd" clip-rule="evenodd" d="M243.15 184.331C235.034 193.469 223.36 197.097 207.735 197.097H186.15V254.599H214.737C222.526 254.599 229.209 251.843 234.796 246.331C240.372 240.806 243.15 234.193 243.15 226.471V184.331Z" fill="white"/>
<path fill-rule="evenodd" clip-rule="evenodd" d="M252.15 226.898C260.266 217.759 271.94 214.131 287.565 214.131H309.15V156.629H280.563C272.774 156.629 266.091 159.385 260.504 164.897C254.928 170.422 252.15 177.035 252.15 184.757V226.898Z" fill="white"/>
<path fill-rule="evenodd" clip-rule="evenodd" d="M370.15 143.753C362.034 152.892 350.36 156.52 334.735 156.52H313.15V214.021H341.737C349.526 214.021 356.209 211.266 361.796 205.754C367.372 200.229 370.15 193.616 370.15 185.894V143.753Z" fill="white"/>
<path fill-rule="evenodd" clip-rule="evenodd" d="M375.15 184.331C383.266 175.192 394.94 171.564 410.565 171.564H432.15V114.062H403.563C395.774 114.062 389.091 116.818 383.504 122.33C377.928 127.855 375.15 134.468 375.15 142.19V184.331Z" fill="white"/>
<path fill-rule="evenodd" clip-rule="evenodd" d="M495.15 101.197C487.034 110.335 475.36 113.963 459.736 113.963H438.15V171.465H466.739C474.526 171.465 481.209 168.709 486.797 163.197C492.372 157.672 495.15 151.059 495.15 143.337V101.197Z" fill="white"/>
</g>
</svg>
