<svg width="66.922" height="39.954" viewBox="0 0 66.922 39.954" xmlns="http://www.w3.org/2000/svg">
    <g fill="currentColor" fill-rule="evenodd">
        <path d="M63.17 30.59h-1.88c-.56 0-1.02.46-1.02 1.02v.97h-4.01c-.54-2.91-3.12-5.13-6.22-5.13-2.38 0-4.46 1.31-5.54 3.25v-7.84h18.88l-.21 7.73zm-13.13 6.49c-1.9 0-3.45-1.51-3.45-3.38 0-1.86 1.55-3.38 3.45-3.38 1.9 0 3.45 1.52 3.45 3.38 0 1.87-1.55 3.38-3.45 3.38zM44.5 5.41h1.06c.1 1.12.33 3.06.72 5.03.89 4.55 2.14 6.67 3.91 6.67h7.07c.48 1.04 1.15 1.39 1.7 1.6.86.33 2.71.86 3.44 1.28.21.13.44.26.66.4l-18.56-.01V5.41zm2.76-2.04h2.53V2.04h-2.53v1.33zm5.29 2.05c.47.92 1.44 3.65 2.17 5.7.48 1.36.98 2.74 1.43 3.95h-5.96s-1.03-.21-1.98-5.01c-.34-1.76-.56-3.54-.67-4.64h5.01zM41.78 20.37l-21.66-.01c-.69 0-1.24.55-1.24 1.24 0 .68.55 1.23 1.24 1.23l21.66.02v9.73H21.39a6.315 6.315 0 0 0-6.21-5.13c-3.1 0-5.68 2.22-6.22 5.14h-2.3v-.98c0-.56-.46-1.02-1.02-1.02H3.09V3.65h38.69v16.72zM18.33 35.06a3.462 3.462 0 0 1-3.16 2.02c-1.41 0-2.62-.83-3.16-2.02-.19-.42-.29-.88-.29-1.36 0-.39.08-.76.21-1.11a3.447 3.447 0 0 1 6.48 0c.13.35.1 2.05-.08 2.47zm47.58-4.47h-.59l.04-7.84v-.03c.39-.16.72-.51.72-.91 0-.13-.02-.25-.07-.36-.43-1.51-1.99-2.9-3.56-3.22-1.47-.3-3.76-2.23-4.3-3.48-.49-1.27-1.04-2.83-1.58-4.34-.6-1.67-1.16-3.24-1.63-4.44-.73-1.85-1.11-2.6-1.93-2.6h-1.18V1.02c0-.56-.46-1.02-1.02-1.02h-4.57c-.56 0-1.02.46-1.02 1.02v2.35h-.72V2.01c0-1.21-.64-1.2-1.43-1.2H1.9C1.11.81.46.8.46 2.01v28.75a1 1 0 0 0-.46.85v3.22c0 .56.46 1.02 1.02 1.02h4.61a1 1 0 0 0 .99-.79H9c.63 2.79 3.15 4.9 6.17 4.9 3.01 0 5.54-2.11 6.16-4.9h22.54c.63 2.79 3.16 4.9 6.17 4.9 3.03 0 5.56-2.12 6.18-4.94.05.02.09.04.14.04h3.93c.11.45.51.79 1 .79h4.61c.56 0 1.02-.46 1.02-1.02v-3.22a1.01 1.01 0 0 0-1.01-1.02z"/>
        <path d="M17.03 21.55c0 .09-.02.17-.03.26-.01.09-.04.18-.07.26-.04.09-.08.16-.13.24-.05.08-.11.14-.17.21-.07.06-.14.12-.21.16-.08.05-.15.09-.23.13-.09.03-.17.05-.26.07-.09.02-.17.03-.26.03-.36 0-.71-.15-.96-.4-.06-.07-.12-.14-.17-.21-.05-.08-.09-.16-.13-.24-.04-.09-.06-.17-.08-.25-.02-.09-.03-.18-.03-.27 0-.09.02-.17.03-.26.02-.09.05-.18.08-.26.04-.08.08-.16.13-.24.05-.06.11-.14.17-.2a1.34 1.34 0 0 1 1.48-.29c.08.03.15.08.23.12.08.05.15.11.21.17.06.06.12.13.17.2.05.08.09.16.13.24.03.09.06.17.07.26.01.09.03.17.03.27M28.97 13.29h-2.36c-.5 0-.9.4-.9.9v2.31h-2.48v-2.31c0-.5-.4-.9-.9-.9h-2.35v-2.42h2.35c.5 0 .9-.41.9-.9V7.66h2.48v2.31c0 .5.41.9.9.9h2.36v2.42zm.89-4.23h-2.35V6.75c0-.5-.41-.9-.9-.9h-4.28c-.5 0-.89.41-.89.9v2.31h-2.36c-.5 0-.9.41-.9.9v4.22c0 .5.41.9.9.9h2.36v2.31c0 .5.4.9.89.9h4.28c.49 0 .9-.4.9-.9v-2.31h2.35c.5 0 .9-.41.9-.9V9.96c0-.5-.41-.9-.9-.9z"/>
    </g>
</svg>
