<?xml version="1.0" encoding="UTF-8"?>
<svg id="Layer_1" data-name="Layer 1" xmlns="http://www.w3.org/2000/svg" viewBox="0 0 94.48 94.45" fill="currentColor" fill-rule="evenodd">
  <path class="cls-1" d="M32.9,36.15c-.68-1.1-1.74-1.87-3-2.17h0c-1.26-.3-2.56-.09-3.66.58-1.1.68-1.87,1.74-2.17,3-.3,1.26-.09,2.55.59,3.66.25.41.56.77.91,1.08.59.53,1.3.9,2.09,1.09.21.05.42.09.64.11,1.06.11,2.11-.13,3.02-.69,1.1-.68,1.87-1.74,2.17-3,.3-1.25.09-2.55-.59-3.66ZM29.93,40.55c-.5.31-1.09.4-1.66.26-.57-.13-1.05-.48-1.36-.99-.31-.5-.4-1.09-.27-1.66.14-.57.49-1.05.98-1.36.42-.25.89-.36,1.37-.32.1.01.2.03.29.05.37.09.69.26.95.5.58.52.87,1.34.68,2.15-.14.57-.49,1.05-.99,1.36Z"/>
  <path class="cls-1" d="M58.33,50.17c-1.77-.42-3.6-.13-5.15.82-1.55.96-2.64,2.46-3.06,4.23-.42,1.77-.13,3.6.82,5.15.35.57.78,1.09,1.27,1.52.83.74,1.84,1.27,2.96,1.54.3.07.59.12.89.15,1.49.15,2.97-.18,4.26-.98,1.55-.95,2.64-2.45,3.06-4.23.42-1.77.13-3.6-.82-5.15h0c-.96-1.55-2.46-2.64-4.23-3.06ZM60.81,57.77c-.26,1.09-.93,2.01-1.87,2.59h0c-.95.58-2.07.76-3.16.51-1.08-.26-2-.92-2.59-1.87-.58-.95-.76-2.07-.5-3.16.26-1.09.93-2.01,1.88-2.59.79-.49,1.69-.69,2.6-.6.18.02.37.05.55.09.68.16,1.3.49,1.81.94.3.27.56.58.78.93.58.95.76,2.07.5,3.16Z"/>
  <path class="cls-1" d="M24.18,45.76c-.2-.29-.51-.48-.85-.54-.18-.03-.39-.06-.63-.09-.05,0-5.39-.6-5.44-4.12-.05-3.92,4.06-6.57,4.11-6.59,3.88-2.49,8.12-4.13,12.62-4.87,2.04-.34,2.33-.35,4.38-.28.35.01.69-.11.95-.35s.41-.57.42-.92c.03-.73-.54-1.34-1.27-1.37-2.24-.08-2.7-.06-4.91.31-4.85.8-9.43,2.57-13.59,5.24-.22.14-5.42,3.42-5.34,8.87.03,1.88.85,3.28,2,4.31,1.74,1.55,4.21,2.24,5.82,2.4.17.02.31.04.53.07.69.07,1.32-.41,1.44-1.08.06-.35-.02-.7-.22-.99Z"/>
  <path class="cls-1" d="M59.19,27.67c1.29-1.53,1.7-3.05,2.13-4.66l-.48-.13h0s0,0,0,0l.48.13h0c.34-1.25.68-2.53,1.5-4.02,1.58-2.88,4.66-3.18,4.69-3.18.61-.05,1.12-.53,1.2-1.14.08-.61-.28-1.21-.86-1.42-.27-.1-6.66-2.32-13.21,4.3-.25.25-.36.6-.31.95s.26.65.58.82l.17.09c.56.3,1.23.2,1.68-.24,1.59-1.55,3.27-2.62,5-3.21-.49.52-.91,1.11-1.26,1.75-.97,1.77-1.38,3.28-1.73,4.61-.4,1.49-.69,2.56-1.6,3.64l-.29.36q-.46.57-1.35.59c-.68.02-1.25.52-1.33,1.15-.05.36.05.71.28.99.05.06.1.11.15.16.21.18.47.3.75.33.02,0,.34-.02.6-.05l.25-.03c1.5-.03,1.73-.18,2.37-1.05.15-.2.33-.45.59-.76Z"/>
  <path class="cls-1" d="M48.68,74.67c1.33.14,2.63-.16,3.77-.86,1.38-.85,2.34-2.18,2.71-3.75.37-1.57.12-3.19-.73-4.57-.84-1.38-2.17-2.34-3.75-2.71-1.57-.37-3.19-.12-4.57.73-1.37.85-2.34,2.18-2.71,3.75-.37,1.57-.12,3.19.73,4.57.31.51.69.96,1.13,1.35.74.66,1.63,1.13,2.62,1.36.26.06.53.11.79.13ZM51.06,71.56c-.77.48-1.68.62-2.57.41-.89-.21-1.63-.75-2.11-1.53-.48-.77-.62-1.68-.41-2.57.21-.88.75-1.63,1.53-2.11.64-.39,1.38-.56,2.12-.49.15.02.3.04.45.08.56.13,1.06.4,1.47.77.24.22.46.47.63.76.48.77.62,1.69.41,2.57s-.75,1.63-1.53,2.11Z"/>
  <path class="cls-1" d="M69.38,54.04c-.36-7.16-1.94-15.06-10.92-19.4-.32-.15-.68-.17-1.01-.06-.33.12-.6.36-.76.67-.32.66-.04,1.45.62,1.76,7.28,3.52,9.04,9.4,9.43,17.16.68,13.71-11.25,26.93-26.6,29.46-2.13.35-4.27.49-6.34.4-.06,0-5.62-.35-6.76-5.17-.51-3.24,3.62-5.98,3.66-6.01,2.63-1.73,4.44-4.49,5.1-7.76.31-1.55.31-2.73,0-4.51-.13-.72-.81-1.2-1.53-1.07-.72.13-1.2.81-1.07,1.53.22,1.28.29,2.18.01,3.54-.52,2.58-1.92,4.73-3.95,6.07-.23.15-5.64,3.71-4.8,8.76.48,2.05,1.49,3.52,2.68,4.58,2.39,2.13,5.48,2.59,6.32,2.67.15.02.24.02.24.02,2.26.1,4.58-.05,6.89-.43,16.64-2.75,29.56-17.19,28.81-32.2Z"/>
  <path class="cls-1" d="M49.25,46.77h0c.29.48.65.9,1.06,1.27.69.62,1.53,1.06,2.45,1.28.25.06.49.1.74.13,1.24.13,2.46-.15,3.54-.81,1.29-.79,2.19-2.04,2.54-3.51.35-1.47.11-2.99-.68-4.28-.79-1.29-2.04-2.19-3.51-2.54-1.47-.35-2.99-.11-4.28.68-1.29.79-2.19,2.04-2.54,3.51-.35,1.47-.11,2.99.68,4.28ZM56.08,41.55c.22.19.41.42.56.67.42.69.55,1.5.37,2.28-.19.78-.67,1.45-1.35,1.87-.69.42-1.5.55-2.28.36-.79-.19-1.45-.67-1.87-1.36-.42-.69-.55-1.5-.36-2.28.19-.79.67-1.45,1.35-1.87h0c.57-.35,1.22-.5,1.88-.43.13.01.27.04.4.07.49.12.94.35,1.31.68Z"/>
  <path class="cls-1" d="M38.44,71.15c-1.32-.31-2.68-.1-3.84.62s-1.97,1.83-2.28,3.15-.1,2.68.61,3.84c.26.43.58.81.95,1.14.62.55,1.37.95,2.2,1.14.22.05.44.09.67.11,1.11.11,2.21-.14,3.17-.73,1.15-.71,1.96-1.83,2.28-3.15.65-2.73-1.04-5.47-3.76-6.12ZM38.54,78.17c-.56.34-1.21.44-1.84.29-.63-.15-1.17-.54-1.51-1.09-.34-.55-.45-1.21-.29-1.84.28-1.18,1.41-1.98,2.62-1.86.1.01.21.03.32.05.4.09.76.28,1.05.55.18.16.33.34.46.55.34.55.45,1.21.29,1.84-.15.63-.54,1.17-1.09,1.51Z"/>
  <path class="cls-1" d="M36.03,50.14h0c-.34.03-.65.18-.87.45s-.33.59-.3.93c.03.33.17.64.42.86,0,0,.01.01.02.02.26.22.59.33.93.3.71-.06,1.23-.67,1.18-1.38-.06-.71-.67-1.23-1.38-1.18Z"/>
  <path class="cls-1" d="M53.09,19.57h0c-.34.03-.65.18-.87.45s-.33.59-.3.93c.03.33.17.64.42.86,0,0,.01.01.02.02.26.22.59.33.93.3.71-.06,1.23-.67,1.18-1.38-.06-.71-.67-1.23-1.38-1.18Z"/>
  <path class="cls-1" d="M34.9,53.46l-.06-.31-.12-.11c-.26-.26-.59-.36-.95-.34-.35.02-.67.18-.9.44l-.66.75c-8.48,9.6-14.79,15.3-17.78,17.83,1.93-2.95,7.72-11.46,16.59-21.85,1.4-1.64,2.85-3.31,4.34-4.99,1.65-1.93,3.29-3.79,4.86-5.53.33.25.82.63,1.22.95.42.34,1.04.91,1.45,1.3-1.54,1.84-3.16,3.73-4.85,5.64l-.4.47c-.46.53-.41,1.32.1,1.79.26.23.62.38.99.36.37-.02.71-.19.95-.47l.35-.41c2.37-2.68,4.59-5.3,6.62-7.79.04-.05.07-.1.07-.1,0,0,0,0,0,0,3.93-4.86,6.41-8.34,7.04-9.25.38-.44.65-1.2-.17-2.35-.31-.43-.77-.92-1.3-1.38-1.78-1.55-3.09-1.86-3.86-.97-1.1,1.02-4.1,3.87-8.3,8.39-2.19,2.37-4.47,4.94-6.77,7.63-1.48,1.68-2.94,3.36-4.35,5.01-11.1,13-17.48,23.18-17.54,23.27-1.12,1.73-.2,2.87.28,3.3l.02.02c.4.34.85.55,1.31.6.68.07,1.36-.18,2.03-.77,1.34-1.07,8.55-7.04,19.06-18.94l.63-.72c.46-.52.49-1.01.08-1.46ZM51.27,30.8c-1,1.4-3.28,4.54-6.66,8.72-.01.02-.02.03-.03.04-.6-.56-1.12-1.02-1.47-1.31-.27-.22-.57-.46-.84-.67l-.03-.43c3.58-3.84,6.32-6.49,7.55-7.65.19.12.47.32.79.6.32.27.55.52.7.7Z"/>
</svg>