<svg width="66.908" height="41.25" viewBox="0 0 66.908 41.25" xmlns="http://www.w3.org/2000/svg">
    <g fill="currentColor" fill-rule="evenodd">
        <path d="M55.22 39.126c-5.27 0-9.56-4.29-9.56-9.56 0-3.89 2.34-7.37 5.96-8.85l.28-.11.63 2.52-.19.09a7.008 7.008 0 0 0-4.09 6.35c0 3.86 3.13 6.99 6.98 6.99 1.95 0 3.83-.83 5.15-2.27a1.038 1.038 0 0 0-.07-1.49c-.21-.19-.48-.29-.75-.27-.29.01-.54.13-.73.33a4.871 4.871 0 0 1-3.59 1.59c-2.69 0-4.88-2.19-4.88-4.88 0-1.71.92-3.31 2.39-4.19l.3-.17 1.15 4.63c.12.47.54.79 1.02.79a1.056 1.056 0 0 0 1.03-1.31l-1.15-4.63.35.01c1.29.07 2.53.65 3.4 1.61.19.21.45.33.73.35.29.01.56-.08.77-.27.21-.19.33-.45.34-.73.02-.29-.08-.56-.27-.77a7.03 7.03 0 0 0-5.19-2.31c-.14 0-.28.01-.43.02l-.22.01-.63-2.53.3-.03c.33-.04.66-.05.98-.05 5.27 0 9.56 4.29 9.56 9.57 0 5.27-4.29 9.56-9.57 9.56zm-4.23-24.8-1.53-6.71 1.22-.28.68 3 .85 3.72-1.22.27zm-4.78.47-.19-.71c-.09-.36-.37-.64-.72-.74-.35-.1-.74-.02-1.01.23l-8.49 7.74c-.55.51-.88 1.2-.91 1.94-.02.31.02.61.11.91l.04.16-1.37 1.18-.17-.13c-1-.78-2.19-1.2-3.47-1.2-.2 0-.4.02-.61.04l-.22.02-2.64-9.22 21.45-4.27.48 2.12-2.28 1.93zm-8.05 9.11c-.13.12-.3.17-.47.17-.19 0-.37-.07-.5-.22a.695.695 0 0 1 .04-.98l7.2-6.57.4 1.5-6.67 6.1zm-4.77 7-.12.38-2.53-2.26-.12-.09c-.44-.29-1.03-.21-1.37.17-.39.44-.35 1.1.08 1.5l2.52 2.25-.36.17c-.46.21-.95.31-1.46.31-1.33 0-2.54-.74-3.14-1.93-.25-.49-.38-1.03-.38-1.59 0-.44.08-.86.23-1.26.17-.44.43-.84.76-1.19a3.516 3.516 0 0 1 4.21-.66 3.568 3.568 0 0 1 1.86 3.11c-.01.37-.07.74-.18 1.09zm-8.89-2.2-.04.21h-2.09l-.02-.23c-.28-2.33-1.27-4.47-2.85-6.22l-.15-.17 5.35-6.1 2.51 8.74-.16.1a5.685 5.685 0 0 0-2.55 3.67zm-10.97.21 1.16-1.33.19.31c.13.22.23.44.31.66l.13.36h-1.79zm-3.38 1.19c0 .02.01.03.01.04l.01.08s.01.02.01.03c.01.02.01.04.01.05l.04.09c.01.02.02.04.02.05.01.01.02.03.02.03l.06.09c.02.03.03.04.04.06l.02.02c.03.02.04.04.05.05.01.01.02.02.04.03 0 .01.01.02.02.03l.13.09c.03.01.04.03.06.03l.08.04c.02.01.02.02.04.02s.04.01.06.02c.02 0 .03.01.04.01.01.01.03.01.05.02h.05c.02.01.04.01.06.01.01 0 .02.01.03.01h4.25l-.11.35a4.27 4.27 0 0 1-4.03 2.9c-2.35 0-4.26-1.9-4.26-4.24 0-2.34 1.91-4.25 4.26-4.25.53 0 1.05.1 1.55.3l.35.14-2.69 3.06c0 .01-.01.01-.01.02-.01 0-.02.02-.02.03l-.02.02-.02.02-.09.15c-.01.01-.01.03-.02.04 0 0-.01.02-.01.03v.03c-.01.01-.01.02-.02.03l-.03.15c-.01.03-.01.05-.01.06v.03l-.01.08-.02.05v.05c0 .03.01.03.01.05zm10.07 1.22c-.64 4.45-4.52 7.81-9.01 7.81-5.03 0-9.12-4.09-9.12-9.11 0-5.03 4.09-9.11 9.11-9.11 1.73 0 3.42.49 4.89 1.43l.25.16-1.83 2.09-.18-.1c-.95-.55-2.04-.83-3.13-.83-3.51 0-6.36 2.85-6.36 6.36 0 3.51 2.85 6.36 6.36 6.36a6.38 6.38 0 0 0 6.25-5.15l.04-.21h2.77l-.04.3zm-2.28-7.43.2.23a8.996 8.996 0 0 1 2.06 4.49l.05.3h-2.78l-.04-.21c-.19-.92-.6-1.81-1.18-2.57l-.13-.16 1.82-2.08zm2.67-14.14-.28.15-1.04-3.41.29-.06c4.39-.79 7.72-1.15 8.9-.98.7.11 1.16.32 1.28.61.13.31-.01.79-.16 1.14l-.07.17-.19-.02c-3-.29-6.4 1.14-8.73 2.4zm34.62 8.14c-.52 0-1.05.04-1.57.11l-.23.04-.49-1.99.26-.06c.85-.19 1.37-1.05 1.19-1.9l-1.76-7.74c-.1-.41-.35-.76-.71-.99-.35-.23-.79-.3-1.2-.2l-.33.08-.43-2.02c-.04-.19 0-.38.13-.54.12-.16.29-.25.49-.27l5.04-.3c.36-.02.7.2.83.55.15.37 0 .8-.34 1.01l-1.43.89c-.24.15-.41.39-.48.66-.06.27-.02.56.13.8.15.23.39.4.66.47.27.06.56.02.79-.14l1.44-.89c1.19-.74 1.7-2.24 1.2-3.56a2.938 2.938 0 0 0-2.93-1.9l-5.04.3c-.81.04-1.55.44-2.05 1.08-.49.65-.67 1.48-.5 2.27l.43 2.04-.18.09c-.27.13-.5.33-.65.58-.23.36-.3.78-.21 1.2l.25 1.11-21.56 4.29-.83-2.9.24-.08c1.76-.54 3.29-.69 4.43-.41.42.1.86-.06 1.11-.41.16-.22 1.52-2.2.79-3.93-.3-.7-1.04-1.59-2.91-1.87-1.86-.29-6.25.38-9.61.99-.67.12-1.25.52-1.59 1.09-.35.58-.44 1.27-.24 1.91l.87 2.86c.21.69.7 1.23 1.36 1.5.65.27 1.4.23 2.02-.11.41-.22.84-.44 1.28-.64l.27-.13.85 2.93-6.26 7.13-.19-.13a11.15 11.15 0 0 0-6.35-1.98C5.03 18.786 0 23.826 0 30.006c0 6.19 5.03 11.22 11.22 11.22 5.73 0 10.53-4.29 11.15-9.99l.03-.23h2.14l.05.2a5.638 5.638 0 0 0 8.71 3.2l.17-.13 1.36 1.23-1.04.98c-.21.19-.33.45-.34.73 0 .29.1.55.29.76.2.22.47.33.77.33.27 0 .53-.1.72-.28l3.66-3.43c.21-.19.32-.45.33-.74.01-.28-.09-.55-.28-.75-.2-.21-.46-.33-.74-.33-.28-.02-.55.09-.76.28l-1.06.99-1.5-1.33.1-.19c.46-.83.71-1.77.71-2.73 0-.87-.2-1.71-.59-2.49l-.08-.19 1.44-1.23.15.07c.35.14.72.22 1.1.22.71 0 1.38-.26 1.89-.73l7.14-6.52c.29-.26.41-.67.31-1.05l-.22-.83 2.16-1.84.14.34c.12.31.33.58.62.75.26.16.55.24.85.24h.03l.25-.01.5 2.02-.21.08c-4.55 1.69-7.61 6.09-7.61 10.94-.01 6.44 5.23 11.68 11.67 11.68 6.44 0 11.68-5.24 11.68-11.67 0-6.44-5.24-11.68-11.68-11.68z"/>
        <path d="M62.55 29.536c0 .09 0 .17-.03.26-.02.09-.04.17-.08.26-.03.08-.07.16-.12.24-.05.07-.11.14-.17.21-.06.06-.13.12-.21.16-.07.05-.15.09-.23.13-.08.04-.17.06-.26.08-.09.02-.18.02-.26.02-.09 0-.18 0-.27-.02-.09-.02-.17-.04-.25-.08a.698.698 0 0 1-.24-.13c-.08-.04-.14-.1-.21-.16-.06-.07-.12-.13-.17-.21-.05-.08-.09-.16-.13-.24-.03-.08-.06-.17-.07-.26a1.33 1.33 0 0 1 .58-1.39c.07-.05.15-.09.24-.13.08-.03.16-.06.25-.08.18-.03.36-.03.54 0 .08.02.17.04.25.08.08.03.17.08.24.13.07.05.14.11.2.17.26.26.4.6.4.96"/>
    </g>
</svg>
