<svg width="66.922" height="40.739" viewBox="0 0 66.922 40.739" xmlns="http://www.w3.org/2000/svg">
    <g fill="currentColor" fill-rule="evenodd">
        <path d="M1.636 19.789c.886 0 1.602.757 1.602 1.69 0 .933-.716 1.69-1.602 1.69h-.034c-.885 0-1.602-.757-1.602-1.69 0-.933.717-1.69 1.602-1.69h.034z"/>
        <path d="M64.11 37.917H38.05c2.82-1.48 5.81-2.55 8.95-3.19 4.25-.87 8.58-.92 12.86-.13.34.06.67-.03.93-.25.26-.21.41-.53.41-.86V6.867h2.91v31.05zM35.28 7.777A33.94 33.94 0 0 1 47 2.937c3.95-.8 7.96-.89 11.94-.28v29.5c-4.13-.6-8.29-.48-12.39.35-4 .82-7.78 2.3-11.27 4.39V7.777zm-3.38 29.12a35.943 35.943 0 0 0-11.28-4.39c-2.39-.48-4.79-.73-7.2-.73-1.73 0-3.46.13-5.19.38v-29.5c3.98-.61 7.99-.53 11.94.28 4.15.85 8.17 2.52 11.73 4.84v29.12zm33.62-32.84H61.2v-2.35c0-.55-.38-1.01-.92-1.11-4.57-.84-9.19-.79-13.73.13-4.59.94-9.06 2.82-12.96 5.45A36.562 36.562 0 0 0 20.62.727 35.98 35.98 0 0 0 6.9.597c-.54.09-.93.56-.93 1.11v2.35H1.65c-.78 0-1.41.63-1.41 1.41v11.5s.27.56 1.45.56c1.13 0 1.37-.56 1.37-.56v-10.1h2.92v26.62c0 .34.14.65.4.86.26.22.59.31.93.25 4.28-.79 8.61-.75 12.86.13 3.15.64 6.13 1.71 8.95 3.19H3.06v-11.83s-.34-.57-1.47-.57-1.35.57-1.35.57v13.25c0 .77.62 1.4 1.4 1.4h63.87c.78 0 1.41-.63 1.41-1.4V5.467c.01-.78-.62-1.41-1.4-1.41z"/>
    </g>
</svg>
