<svg width="66.922" height="40.779" viewBox="0 0 66.922 40.779" xmlns="http://www.w3.org/2000/svg" xmlns:xlink="http://www.w3.org/1999/xlink">
    <defs>
        <path id="xafg5a32aa" d="M0 0h66.92v40.78H0z"/>
    </defs>
    <g fill="none" fill-rule="evenodd">
        <path d="M7.18 16.77h7.53v-4.51H7.18v4.51zm7.83-7.12H6.87c-1.27 0-2.31 1.03-2.31 2.31v5.12c0 1.27 1.04 2.31 2.31 2.31h8.14c1.27 0 2.31-1.04 2.31-2.31v-5.12c0-1.28-1.04-2.31-2.31-2.31zM23.28 16.77h7.53v-4.51h-7.53v4.51zm7.83-7.12h-8.13c-1.28 0-2.32 1.03-2.32 2.31v5.12c0 1.27 1.05 2.31 2.32 2.31h8.13c1.28 0 2.31-1.04 2.31-2.31v-5.12c0-1.28-1.03-2.31-2.31-2.31zM44.55 22.66c.01.1.03.18.02.27 0 .09-.01.18-.03.27-.01.09-.04.18-.07.26-.04.08-.08.16-.13.24-.05.07-.12.14-.18.2-.06.07-.13.13-.21.17-.07.06-.15.1-.23.13-.08.04-.17.06-.26.08-.09.02-.18.03-.27.03-.36 0-.72-.15-.97-.41-.06-.06-.13-.13-.17-.2a.945.945 0 0 1-.13-.24c-.03-.08-.06-.17-.08-.26a1.241 1.241 0 0 1 0-.54c.02-.09.05-.17.08-.26.03-.08.08-.17.13-.24.04-.07.1-.14.17-.21.32-.32.79-.47 1.25-.38.08.02.17.05.25.08.09.04.17.08.24.13.07.05.15.11.21.17.07.07.12.14.18.21.04.08.09.16.12.24.03.09.06.17.08.26M39.38 16.77h7.53v-4.51h-7.53v4.51zm7.83-7.12h-8.13c-1.28 0-2.31 1.04-2.31 2.31v5.12c0 1.27 1.04 2.31 2.31 2.31h8.13c1.28 0 2.31-1.04 2.31-2.31v-5.12a2.298 2.298 0 0 0-2.31-2.31z" fill="currentColor" mask="url(#6fis783i6b)"/>
        <path d="m64.31 22.15-3.33-2.3a10.862 10.862 0 0 0-6.2-1.94c-.54 0-.98-.43-.98-.97V7.27h.84c5.33 0 9.67 4.34 9.67 9.67v5.21zm0 6.83h-1.33c-1.52 0-1.23.72-1.23 2.25v2.52h-2.54c-.37-3.13-3.03-5.57-6.26-5.57-3.22 0-5.89 2.44-6.25 5.57H21.13c-.36-3.13-3.03-5.57-6.25-5.57-3.23 0-5.89 2.44-6.26 5.57H5.63v-2.52c0-1.49.34-2.42-1.15-2.42H2.61v-4.46H38.9a1.306 1.306 0 0 0 0-2.61H2.61V9.38c0-1.17.95-2.11 2.12-2.11h46.46v9.67c0 1.98 1.61 3.59 3.59 3.59 1.69 0 3.32.51 4.72 1.48l4.81 3.32v3.65zm-8.19 7.38a3.675 3.675 0 0 1-3.17 1.8c-1.34 0-2.53-.72-3.17-1.8-.32-.55-.51-1.19-.51-1.88 0-.25.02-.5.07-.74.35-1.68 1.83-2.95 3.61-2.95a3.69 3.69 0 0 1 3.61 2.95 3.634 3.634 0 0 1-.44 2.62zm-38.07 0a3.675 3.675 0 0 1-3.17 1.8 3.688 3.688 0 0 1-3.69-3.68c0-.25.03-.5.08-.74a3.69 3.69 0 0 1 3.61-2.95c1.78 0 3.26 1.27 3.61 2.95.04.24.07.49.07.74 0 .69-.19 1.33-.51 1.88zM30.08 3.39c0-.43.35-.78.79-.78h10.19c.43 0 .78.35.78.78v1.26H30.08V3.39zm24.56 1.26H44.45V3.39c0-1.87-1.52-3.39-3.39-3.39H30.87c-1.88 0-3.4 1.52-3.4 3.39v1.26H4.73C2.12 4.65 0 6.77 0 9.38v24.04c0 1.62 1.32 2.94 2.94 2.94h5.93c.8 2.55 3.19 4.42 6.01 4.42s5.21-1.86 6.01-4.42h26.05c.81 2.55 3.19 4.42 6.01 4.42s5.21-1.86 6.01-4.42h5.3c1.46 0 2.66-1.19 2.66-2.66V16.94c.01-6.77-5.5-12.29-12.28-12.29z" fill="currentColor"/>
    </g>
</svg>
