<svg width="66.928" height="52.245" viewBox="0 0 66.928 52.245" xmlns="http://www.w3.org/2000/svg">
    <g fill="currentColor" fill-rule="evenodd">
        <path d="M34.93 18.41c.11 1.05-1.3 1.55-2.35 1.66-2.3.25-4.31 1.16-5.62 3.08-1.31 1.92-2.05 3.86-1.79 6.17.11 1.05.35 2.25-1.23 2.7-1.01.29-1.63-.59-1.74-1.64-.37-3.34.24-7.23 2.63-9.76 2.39-2.54 4.35-3.37 7.69-3.74 1.05-.11 2.29.49 2.41 1.53M41.89 19.71a2.279 2.279 0 1 1-4.562.002 2.279 2.279 0 0 1 4.562-.002"/>
        <path d="M62.38 46.05c0 .61-.25 1.17-.65 1.58-.41.4-.96.65-1.56.65H6.29c-.61 0-1.17-.25-1.57-.65-.4-.41-.65-.97-.65-1.58V14.13c0-.62.25-1.18.65-1.58h.01c.41-.4.95-.65 1.56-.65h9.19c.91 0 1.68-.63 1.89-1.49l1.69-4.87c.18-.52.44-1 .79-1.29.22-.18.53-.3.94-.3h24.88c.41 0 .72.12.95.3.35.29.61.77.79 1.29l1.74 5.03c.28.81 1.03 1.32 1.84 1.32v.01h9.18c.6 0 1.16.25 1.56.65.4.41.65.97.65 1.59v31.91zm2.73-36.28v-.01a6.177 6.177 0 0 0-4.37-1.82h-7.9l-1.29-3.69c-.41-1.16-1.06-2.26-2.06-3.07C48.59.45 47.46 0 46.06 0H20.87c-1.39 0-2.52.46-3.42 1.18-1 .81-1.65 1.91-2.06 3.07L14.1 7.94H6.2c-1.71 0-3.24.7-4.37 1.82l-.01.01A6.177 6.177 0 0 0 0 14.14v31.91c0 1.7.7 3.25 1.82 4.37l.01.01a6.168 6.168 0 0 0 4.37 1.81h54.54c1.7 0 3.25-.69 4.37-1.81a6.159 6.159 0 0 0 1.82-4.38V14.14c0-1.7-.69-3.25-1.82-4.37z"/>
        <path d="M43.5 37.64c-2.6 2.61-6.2 4.22-10.18 4.22-3.97 0-7.58-1.62-10.18-4.22-2.61-2.61-4.22-6.2-4.22-10.18 0-3.97 1.62-7.58 4.22-10.18 2.6-2.61 6.21-4.22 10.18-4.22 3.98 0 7.58 1.62 10.18 4.22 2.6 2.6 4.21 6.21 4.22 10.18 0 3.98-1.62 7.58-4.22 10.18m2.69-23.05a18.171 18.171 0 0 0-12.87-5.34c-5.03 0-9.58 2.05-12.87 5.34a18.171 18.171 0 0 0-5.34 12.87c0 5.02 2.05 9.58 5.34 12.87 3.29 3.29 7.85 5.34 12.87 5.34s9.58-2.05 12.87-5.34c3.29-3.29 5.34-7.85 5.34-12.87s-2.05-9.58-5.34-12.87"/>
    </g>
</svg>
