<svg width="44.879" height="66.939" viewBox="0 0 44.879 66.939" xmlns="http://www.w3.org/2000/svg">
    <g fill="currentColor" fill-rule="evenodd">
        <path d="M7.691 28.337a1.33 1.33 0 0 1-1.332 1.332 1.33 1.33 0 0 1-1.332-1.332 1.33 1.33 0 0 1 1.332-1.332 1.33 1.33 0 0 1 1.332 1.332"/>
        <path d="M38.16 35.902c-1.608 4.685-5.265 8.18-10.85 10.384a1.32 1.32 0 0 1-1.5-.38 1.325 1.325 0 0 1-.13-1.54c.116-.196 2.854-4.935-.371-7.112-3.38-2.278-4.941-4.793-5.516-6.97-1.82 3.09-3.333 8.282 1.568 13.96.372.433.426 1.062.136 1.555a1.333 1.333 0 0 1-1.434.609c-.412-.095-9.464-1.386-13.48-8.77-1.298-2.385-1.548-2.317-1.575-4.61 0 0 .176-1.358 1.426-1.23 1.25.129 1.298 1.17 1.298 1.17.196.906.48 1.812 1.643 3.569 2.008 3.049 4.868 4.976 7.66 6.098-5.017-9.403 3.143-17.151 3.238-17.24a1.324 1.324 0 0 1 1.656-.12c.514.35.71 1.014.48 1.588-.568 1.42-.378 4.962 4.4 8.18 2.793 1.88 3.043 4.848 2.482 7.349 3.178-1.84 5.314-4.306 6.369-7.355 1.406-4.077.696-8.586-.38-12.115-.046.358-.094.717-.154 1.075-.305 1.825-1.467 4.009-3.381 4.779-1.304.528-2.731.284-4.022-.676-2.806-2.095-1.886-4.685-1.082-6.976.203-.575.413-1.163.595-1.8 2.42-8.26-.88-13.114-3.184-15.352-.243 3.009-1.11 7.91-4.002 11.419-.61.743-1.204 1.433-1.778 2.096-1.454 1.683-2.704 3.136-3.543 4.63a1.32 1.32 0 0 1-1.257.677 1.314 1.314 0 0 1-1.143-.852c-.033-.088-.588-1.772-.676-3.502-1.622 1.75-2.4 2.772-3.09 6.01 0 0-.472.635-1.487.453-1.426-.257-1.101-1.488-1.101-1.488 1.568-7.632 6.943-9.931 7.03-10.012a1.336 1.336 0 0 1 1.677-.101c.514.365.203.967-.027 1.555-.602 1.555-.203 2.17-.243 3.083a80.956 80.956 0 0 1 1.845-2.191c.568-.656 1.149-1.332 1.744-2.048 3.732-4.53 3.482-12.243 3.482-12.325a1.32 1.32 0 0 1 .635-1.183c.413-.25.927-.257 1.346-.02.1.06 10.39 6.044 6.328 19.903-.21.703-.44 1.359-.643 1.94-.885 2.495-.966 3.11.163 3.955.716.534 1.162.446 1.44.338.777-.311 1.548-1.521 1.75-2.752.42-2.528.426-5.178.007-7.26a1.332 1.332 0 0 1 2.454-.933c.244.459 6.436 11.148 3.198 20.538M3.547 64.106l-.8-3.14 38.58-9.82.8 3.14-38.58 9.82zm38.17-3.06-.81 3.14-13.33-3.45 6.52-1.66 7.62 1.97zm-38.56-6.84.82-3.14 13.32 3.45-6.64 1.69.01-.06-7.51-1.94zm41.41 1.53c.3-.51.39-1.11.24-1.7l-1.01-3.94c-.15-.59-.51-1.07-1.03-1.38-.51-.3-1.11-.39-1.69-.24l-18.44 4.68v-.01l-18.43-4.78c-.57-.15-1.17-.07-1.67.24-.51.3-.88.78-1.02 1.34l-1.04 4.02c-.3 1.18.41 2.39 1.58 2.69l3.38.87-3.78.96c-.56.14-1.05.51-1.35 1.02-.3.5-.38 1.1-.24 1.67l1.02 4.02c.14.57.51 1.05 1.01 1.35.35.2.73.31 1.13.31.18 0 .36-.02.54-.07l18.47-4.69 18.4 4.77c.19.05.38.07.57.07 1 0 1.91-.67 2.17-1.68l1.02-3.94c.31-1.2-.42-2.42-1.61-2.73l-3.34-.87 3.74-.95a2.28 2.28 0 0 0 1.38-1.03z"/>
    </g>
</svg>
