<svg width="62.529" height="66.933" viewBox="0 0 62.529 66.933" xmlns="http://www.w3.org/2000/svg">
    <g fill="currentColor" fill-rule="evenodd">
        <path d="M59.777 42.553c-.51 1.49-1.34 2.64-2.08 3.64-.9 1.25-1.69 2.32-1.43 3.57.34 1.57-.01 5.47-.67 7.6-1.1 3.57-4.8 6.45-9.66 7.5-4.94 1.08-9.82-.29-12.08-2.2l-.15-.13c-2-1.68-2.6-2.19-3.6-2.19-.3 0-.57.13-1.17.4-2.2.99-8.04 3.62-13.95-.85-1.44-1.09-2.41-3.84-3-5.49-.31-.88-.49-1.35-.69-1.65-.39-.6-1.27-1.04-2.65-1.71-.84-.42-1.79-.88-2.47-1.36-1.39-1-3.56-4.29-4.16-6.27-1.24-4.14 1.3-11.02 1.33-11.09l.12-.33-.14-.32c-.02-.03-1.7-3.78-1.45-6.74l.06-.77c.27-3.69.83-11.36 6.63-16.37 5.97-5.15 12.98-2.48 13.27-2.36l.55.22.39-.44c.84-.92 3.4-3.35 5.25-3.48 2.28-.15 21.92.04 25.89.08.31 1.95.87 7.78-2.59 10.59-.94.75-1.3 3.26-.64 4.33.31.5.97.79 1.97 1.24 1.17.52 2.77 1.24 3.83 2.38 6 6.44 4.49 18.7 3.29 22.2m-2.06-23.34c-1.3-1.39-3.07-2.19-4.37-2.77-.5-.22-1.12-.5-1.23-.6-.22-.36-.03-1.81.26-2.12 5-4.04 3.14-12.55 3.06-12.91l-.15-.65-.66-.01c-.99-.01-24.13-.27-26.72-.09-2.39.16-5 2.6-6 3.63-1.95-.62-8.62-2.18-14.44 2.83-6.33 5.47-6.95 13.92-7.21 17.53l-.06.75c-.24 2.88 1.02 6.22 1.46 7.25-.52 1.5-2.5 7.65-1.25 11.85.65 2.13 2.92 5.8 4.79 7.15.79.57 1.82 1.07 2.72 1.51.72.35 1.81.88 1.99 1.14.1.14.32.77.5 1.28.68 1.94 1.73 4.87 3.57 6.26 6.71 5.07 13.44 2.04 15.66 1.04.24-.11.42-.2.55-.24.36.05.9.49 2.44 1.79l.16.13c2.25 1.9 5.87 2.97 9.6 2.97 1.32 0 2.64-.14 3.93-.41 5.45-1.18 9.62-4.5 10.91-8.66.74-2.42 1.1-6.59.71-8.43-.11-.52.46-1.32 1.13-2.23.77-1.05 1.72-2.36 2.32-4.09 1.27-3.76 2.86-16.92-3.67-23.9"/>
        <path d="M17.357 39.653c-1.23 0-2.23 1-2.23 2.23s1 2.23 2.23 2.23 2.23-1 2.23-2.23-1-2.23-2.23-2.23zM36.267 20.883c0 .71-.58 1.29-1.3 1.29-.71 0-1.3-.58-1.3-1.29 0-.72.59-1.3 1.3-1.3.72 0 1.3.58 1.3 1.3"/>
        <path d="m56.057 37.283-16.46-.5c.28-.77.56-1.56.66-2.24l15.12-3.02c.64.79 1.55 2.11 1.65 3.07.14 1.27-.79 2.47-.97 2.69zm.17 3.54c-.16 1.65-1.46 3.22-1.47 3.23l-.02.02-15.73-3.57c-.01-.17-.01-.34-.01-.5-.02-.4-.03-.71-.03-.91 0-.28.09-.65.21-1.06l16.9.52c.12.49.24 1.28.15 2.27zm-1.5 6.87c-.33 1.16-1.02 2.15-1.52 2.87-.19.26-.35.49-.48.71l-13.7-6.86c.03-.82.03-1.7.02-2.6l15.74 3.57c.1.62.16 1.52-.06 2.31zm-2.05 7.39c-.43 1.26-.89 1.51-1.99 2.12-.2.11-.41.23-.65.37a.628.628 0 0 0-.23-.61l-11.38-8.67c.25-.68.41-1.54.5-2.51l13.69 6.84c.03.04.04.09.07.15.22.4.48.91-.01 2.31zm-3.6 3.07c-2.45 1.64-5.63 1.34-5.66 1.34l-.26-.02-.2.14c0 .01-.04.03-.08.06l-7.05-8.24c.78-.59 1.49-1.27 2-2.01l11.2 8.53c.07.05.13.08.2.1-.05.04-.1.06-.15.1zm-8.42 2.05c-1.33 0-3.69-1.07-4.48-1.48l-.35-.17-.3.21-2.52-5.72c.56-.23 1.16-.53 1.77-.9l6.81 7.97c-.27.05-.57.09-.93.09zm-6.52-.98c-.74 0-1.68-.42-2.55-1.12-.82-.65-1.97-.14-3.32.45-.82.37-1.68.75-2.44.85-6.18.84-9.08-1.36-9.94-2.21l1.64-2.52c.63.58 1.73 1.5 3 2.16 1.83.96 3.87.94 6.42-.06 1.59-.62 2.11-2.06 2.2-3.1.64-.03 1.67-.09 2.65-.26l2.55 5.79c-.07.01-.13.02-.21.02zm-26.93-17.34c0-5.6 4.56-10.15 10.15-10.15 5.59 0 10.15 4.55 10.15 10.15 0 5.6-4.56 10.15-10.15 10.15-5.59 0-10.15-4.55-10.15-10.15zm31.43-12.23c-.04-.04-.08-.09-.12-.13l-.5-.49c-1.17-1.15-1.57-1.58-1.31-2.35.16-.46.99-1.23 4.16-2.29 1.04-.34 3.78-2.24 4.51-2.76 1.2-.03 2.86-.57 2.86-.57.39-.07 2.67.11 3.67.9.68.54.77 1.48.76 1.97l-14.03 5.72zm14.64-4.6c.5.32 1.35.94 1.77 1.73.42.78.1 2.57-.2 3.55l-14.54 2.91c-.07-.94-.35-1.78-.85-2.56l13.82-5.63zm-27.93 3.93c-1.43-1-4.4-3.07-8.81-3.22-.1 0-.2-.01-.29-.01-3.55 0-7.06 2.1-7.94 2.66.11-2.17.81-9.73 1.56-11.93.42-1.24 2.23-5.3 7.63-5.3 3.97 0 7.64 3.88 7.68 3.92h.01c-.25.76-.26 1.49-.26 1.65l.53 12.29a.238.238 0 0 1-.11-.06zm32.93 5.47c-.16-1.55-1.57-3.34-2.15-4.03.24-.84.71-2.97.04-4.24-.58-1.09-1.66-1.86-2.23-2.2.01-.72-.13-2.12-1.26-3.01-1.35-1.07-4.27-1.36-4.89-1.09-.26.12-1.26.33-2.01.44.74-1.35 2.07-3.92 2.22-4.94.22-1.51-.62-2.55-.65-2.59l-.2-.24-17.63.23c-.21.02-2.16.19-3 .61-.29.14-.52.33-.71.55-1.01-.98-4.45-4.02-8.31-4.02-4.97 0-7.82 3.18-8.83 6.15-.88 2.58-1.65 11.66-1.65 12.82 0 .62.21 1.01.61 1.15.54.19 1.02-.23 1.25-.5.54-.34 4.17-2.64 7.61-2.52 4.04.13 6.8 2.06 8.13 2.99.45.32.69.49.93.55.51.15.82-.09.93-.2.39-.38.31-.99.23-1.3l-.53-12.34c0-.46.17-1.85.9-2.21.47-.24 1.81-.41 2.5-.47l16.93-.22c.14.27.33.76.24 1.38-.11.74-1.31 3.11-2.19 4.73-1.75-.99-3.87-2.21-4.24-2.47-1.77-1.28-3.62-1.67-6.21-1.91-4.21-.39-5.78 3.75-5.99 5.99v.07l1.36 9.96c.05.34.37.58.71.54a.63.63 0 0 0 .54-.71l-1.34-9.81c.07-.64.75-5.12 4.6-4.78 2.38.22 4.05.57 5.59 1.67.16.12.56.37 1.07.67a2.223 2.223 0 0 0-.13 4c-.04.02-.1.05-.14.06-2.15.72-4.41 1.64-4.88 3.06-.52 1.55.43 2.48 1.63 3.65l.49.48c.09.09.16.17.23.26.06.12.14.22.25.28.94 1.19 1.01 2.3.95 3.17-.03.57-.35 1.41-.64 2.23-.36 1.02-.71 1.98-.71 2.74 0 .2.02.53.03.94.07 1.97.23 6.58-.66 8.24-.48.89-1.36 1.71-2.3 2.36-.12.02-.24.06-.33.14-.06.05-.1.11-.14.17-1.03.65-2.07 1.09-2.69 1.21-1.45.25-3.1.25-3.11.25h-.71l.08.71c0 .02.19 1.85-1.4 2.46-2.21.88-3.87.91-5.38.13-1.19-.63-2.23-1.52-2.79-2.05 6.08-.48 10.89-5.58 10.89-11.78 0-6.52-5.31-11.83-11.84-11.83-6.52 0-11.83 5.31-11.83 11.83 0 6.29 4.93 11.43 11.13 11.8l-2.34 3.59.27.36c.12.17 3.18 4.13 11.41 3.02.94-.13 1.92-.56 2.78-.94.63-.28 1.81-.79 2.02-.62.65.52 1.94 1.39 3.34 1.39.76 0 1.41-.27 1.78-.47.85.4 3.17 1.45 4.75 1.45 1.51 0 2.45-.45 2.86-.7.85.06 3.8.08 6.26-1.55.59-.39 1.08-.66 1.51-.91 1.2-.66 1.98-1.1 2.58-2.81.67-1.92.21-2.79-.07-3.31a1.78 1.78 0 0 1-.07-.13c.08-.17.31-.5.5-.77.56-.79 1.32-1.88 1.71-3.25.36-1.32.13-2.79-.02-3.42.44-.59 1.4-2.05 1.56-3.67.13-1.42-.12-2.53-.28-3.07.42-.57 1.24-1.91 1.08-3.4z"/>
    </g>
</svg>
