<svg width="66.935" height="27.61" viewBox="0 0 66.935 27.61" xmlns="http://www.w3.org/2000/svg">
    <path d="M66.53 16.556a2.986 2.986 0 0 0-.311-.453v-1.697a3.941 3.941 0 0 0-2.982-3.826l-15.103-3.8L38.812.94A6.158 6.158 0 0 0 35.54 0H10.458a6.19 6.19 0 0 0-2.86.703L7.41.798a6.243 6.243 0 0 0-2.163 1.886L2.4 6.686c-.467.264-.832.69-1.007 1.224l-1.11 3.373A5.772 5.772 0 0 0 0 13.075v3.373c0 1.454.54 2.846 1.514 3.928l2.677 2.954c.413.453 1.001.717 1.616.717h3.766a6.584 6.584 0 0 0 1.933 2.258 6.607 6.607 0 0 0 4.935 1.23 6.607 6.607 0 0 0 4.895-3.481h24.121c.304 0 .595-.075.859-.19a6.528 6.528 0 0 0 5.408 2.88 6.51 6.51 0 0 0 5.408-2.88c.27.115.562.19.86.19h3.839a4.567 4.567 0 0 0 4.367-3.185l.588-1.825a3.106 3.106 0 0 0-.256-2.488zM35.54 2.17c.75 0 1.48.21 2.116.609l6.672 4.184h-13.44l-.797-4.793h5.449zm-7.653 0 .79 4.793h-13.81l2.656-4.793h10.364zM7.024 3.948a3.973 3.973 0 0 1 1.4-1.217l.189-.094a3.99 3.99 0 0 1 1.852-.453h4.577l-2.657 4.793h-7.51l2.15-3.029zm48.865 17.36c-.02.089-.027.17-.034.258a4.35 4.35 0 0 1-8.261 0c-.014-.088-.014-.176-.041-.257-.203-.778-.203-1.508.013-2.224.568-1.886 2.279-3.198 4.165-3.198h.135a4.304 4.304 0 0 1 4.178 4.32c0 .352-.054.723-.155 1.102zm8.829-2.94-.588 1.825a2.417 2.417 0 0 1-2.299 1.677h-3.806a6.45 6.45 0 0 0 .223-1.663 6.535 6.535 0 0 0-6.53-6.53 6.535 6.535 0 0 0-6.531 6.53c0 .575.08 1.129.223 1.663H22.032a6.395 6.395 0 0 0-.013-1.9 1.162 1.162 0 0 0-1.305-.966 1.151 1.151 0 0 0-.967 1.304 4.312 4.312 0 0 1-.804 3.232 4.312 4.312 0 0 1-2.853 1.717 4.312 4.312 0 0 1-3.232-.804 4.312 4.312 0 0 1-1.717-2.853 4.312 4.312 0 0 1 .805-3.232 4.312 4.312 0 0 1 2.853-1.717 1.151 1.151 0 0 0 .966-1.305 1.159 1.159 0 0 0-1.304-.967 6.607 6.607 0 0 0-4.36 2.624 6.608 6.608 0 0 0-1.238 4.86H5.807L3.13 18.91a3.662 3.662 0 0 1-.953-2.468v-3.373c0-.379.06-.757.176-1.116l.92-2.812h45.139v-.047l14.291 3.596a1.772 1.772 0 0 1 1.339 1.717v2.779c.527.122.838.67.676 1.183zm-45.965-2.981a1.18 1.18 0 0 1 1.346.994 1.18 1.18 0 0 1-.994 1.345l-.027.007a1.18 1.18 0 0 1-1.345-.994 1.18 1.18 0 0 1 .993-1.345l.027-.007" fill="currentColor" fill-rule="nonzero"/>
</svg>
