<svg width="66.93" height="61.679" viewBox="0 0 66.93 61.679" xmlns="http://www.w3.org/2000/svg">
    <g fill="currentColor" fill-rule="evenodd">
        <path d="M51.124 5.038a2.28 2.28 0 0 0 0 4.557 2.28 2.28 0 0 0 0-4.557"/>
        <path d="M66.93 28.227c0-7.714-3.198-15.8-7.153-18.267 0 0-1.71-.966-2.98.582-1.069 1.31.06 2.724.06 2.724 3.63 4.023 5.442 10.168 5.442 14.96 0 6.667-3.137 12.724-8.207 17.118-5.158 4.476-12.318 7.248-20.248 7.248-2.48 0-4.867-.264-7.112-.758a30.98 30.98 0 0 1-6.625-2.264 2.325 2.325 0 0 0-2.062.047L6.762 54.796l4.273-10.06a2.31 2.31 0 0 0-.44-2.481c-1.656-2.008-2.968-4.24-3.86-6.632a21.112 21.112 0 0 1-1.332-7.403c0-6.666 3.137-12.723 8.207-17.117 5.902-5.436 14.853-8.383 28.861-5.686 1.44.277 3.34.514 3.76-1.36.58-2.595-1.496-3.048-1.496-3.048C27.077-1.472 18.992.584 10.588 7.614 4.524 12.874.772 20.162.772 28.227c0 3.13.575 6.159 1.636 9.012a27.674 27.674 0 0 0 3.834 6.956L.184 58.473a2.287 2.287 0 0 0 .027 1.859 2.301 2.301 0 0 0 3.056 1.136l15.867-7.281a35.56 35.56 0 0 0 6.618 2.136c2.616.575 5.334.886 8.106.886 9.066 0 17.293-3.204 23.263-8.383 6.057-5.253 9.81-12.534 9.81-20.6"/>
        <path d="M45.114 24.63a3.489 3.489 0 1 0-.122 6.976 3.489 3.489 0 0 0 .122-6.976M34.446 24.63a3.489 3.489 0 1 0-.122 6.976 3.489 3.489 0 0 0 .122-6.976M27.53 28.18a3.49 3.49 0 1 1-6.978-.123 3.49 3.49 0 0 1 6.978.122"/>
    </g>
</svg>
