<svg width="49.749" height="66.922" viewBox="0 0 49.749 66.922" xmlns="http://www.w3.org/2000/svg">
    <g fill="currentColor" fill-rule="evenodd">
        <path d="M38.265 49.116a1.841 1.841 0 0 1-1.839 1.839 1.841 1.841 0 0 1-1.839-1.839c0-1.014.825-1.839 1.84-1.839 1.013 0 1.838.825 1.838 1.839"/>
        <path d="M47.676 14.415c2.46 2.312 2.846 5.74.534 8.2L38.17 32.972l-.04 10.202c0 1.264-.432 1.697-1.697 1.697-1.264 0-1.784-.528-1.784-1.785l.02-10.296c0-.582.223-1.143.622-1.562l10.492-11.175c.588-.622.318-2.271-.622-3.143-1.061-.812-2.887-.832-3.475-.21l-9.025 9.62a2.286 2.286 0 0 1-1.663.723L18.99 27.01c-.628 0-1.23-.264-1.663-.724l-9.363-9.62c-.588-.622-2.44-1.352-3.738-.054-1.298 1.197-.96 2.664-.372 3.286l10.262 10.958c.399.426.798 1.21.798 1.792V61.46c0 .77.007 2.123 1.156 2.102l7.038.014V47.129c0-1.264.31-1.947 1.575-1.947 1.264 0 1.683.683 1.683 1.947v16.536l7.247-.108c.77 0 1.156-.386 1.156-1.156V55.41c0-1.264.419-2.102 1.684-2.102 1.264 0 1.683.696 1.683 1.96l.108 7.248c0 3.292-1.332 4.407-4.617 4.407H16.172c-3.292 0-4.617-1.642-4.617-4.935l-.02-28.853-9.877-10.52a6.127 6.127 0 0 1 .27-8.653 6.128 6.128 0 0 1 8.653.27l8.519 9.425h11.668l8.295-9.032c1.116-1.19 2.596-1.812 4.225-1.866a6.13 6.13 0 0 1 4.388 1.656"/>
        <path d="M25.096 16.46c-3.58 0-6.5-2.92-6.5-6.5s2.92-6.5 6.5-6.5 6.5 2.92 6.5 6.5-2.92 6.5-6.5 6.5M25.176 0c-5.49 0-9.95 4.47-9.95 9.95-.01 5.49 4.46 9.95 9.95 9.95 5.49 0 9.95-4.46 9.95-9.95 0-5.49-4.47-9.95-9.95-9.95"/>
    </g>
</svg>
