<?xml version="1.0" encoding="UTF-8"?>
<svg id="Layer_1" data-name="Layer 1" xmlns="http://www.w3.org/2000/svg" viewBox="0 0 94.48 94.45" fill="currentColor" fill-rule="evenodd">
  <path class="cls-1" d="M62.23,46.75c5.74,0,10.4-4.67,10.4-10.4s-4.67-10.4-10.4-10.4-10.4,4.67-10.4,10.4,4.67,10.4,10.4,10.4ZM54.63,36.35c0-4.19,3.41-7.6,7.6-7.6s7.6,3.41,7.6,7.6-3.41,7.6-7.6,7.6-7.6-3.41-7.6-7.6Z"/>
  <path class="cls-1" d="M76.68,36.76c.77,0,1.4-.63,1.4-1.4v-14.7c0-.77-.63-1.4-1.4-1.4s-1.4.63-1.4,1.4v14.7c0,.77.63,1.4,1.4,1.4Z"/>
  <path class="cls-1" d="M47.78,35.75c.77,0,1.4-.63,1.4-1.4v-13.48c0-.77-.63-1.4-1.4-1.4s-1.4.63-1.4,1.4v13.48c0,.77.63,1.4,1.4,1.4Z"/>
  <path class="cls-1" d="M83.22,65.77h-5.15v-12.49c0-.77-.63-1.4-1.4-1.4s-1.4.63-1.4,1.4v12.49h-1.12l.06-.55c.13-1.21-.21-2.4-.98-3.35-.76-.95-1.85-1.55-3.06-1.68-.26-.03-.53-.04-.8-.02v-4.95c3.43-1.69,6.27-4.06,8.42-7.04,2.01-2.74,2.74-5.07,2.87-5.51.6-2.11-.63-4.32-2.73-4.92-.41-.12-.86-.17-1.35-.15-1.67.1-3.11,1.25-3.58,2.85-.06.2-1.52,4.82-7.16,7.6h-7.22c-5.66-2.78-7.14-7.54-7.16-7.58-.48-1.61-1.93-2.76-3.62-2.87-.47-.01-.9.03-1.31.15-2.11.61-3.34,2.82-2.74,4.93.08.27.82,2.69,2.86,5.5,2.18,2.99,5.01,5.35,8.43,7.04v4.95c-.23-.01-.46,0-.69.02-1.21.13-2.3.73-3.06,1.68-.76.95-1.11,2.14-.97,3.35l.06.55h-1.23v-13c0-.77-.63-1.4-1.4-1.4s-1.4.63-1.4,1.4v13h-5.15c-.77,0-1.4.63-1.4,1.4v4.82c0,.77.63,1.4,1.4,1.4h10.02l.7,6.38c.21,1.91,1.61,3.5,3.48,3.94.5.12,1.03.16,1.56.1,1.21-.13,2.3-.73,3.06-1.68.76-.95,1.11-2.14.97-3.35l-.59-5.38h3.69l-.59,5.38c-.13,1.21.21,2.4.98,3.35.76.95,1.85,1.55,3.06,1.68.17.02.34.03.51.03.36,0,.71-.04,1.05-.12,1.87-.45,3.27-2.03,3.48-3.94l.7-6.38h9.91c.77,0,1.4-.63,1.4-1.4v-4.82c0-.77-.63-1.4-1.4-1.4ZM81.82,68.56v2.03h-8.2l.22-2.03h7.98ZM57.87,80.38h0c-.29.37-.71.6-1.19.65-.2.02-.4.01-.6-.04-.72-.17-1.26-.79-1.35-1.53l-1.6-14.55c-.05-.47.08-.93.38-1.3.3-.37.72-.6,1.19-.65.07,0,.13-.01.2-.01.4,0,.78.13,1.1.39.37.3.6.72.65,1.19l1.6,14.55c.05.47-.08.93-.38,1.3ZM57.88,61.27v-6.95c0-.55-.32-1.05-.83-1.28-3.33-1.5-6.07-3.69-8.14-6.52-1.81-2.48-2.41-4.54-2.43-4.62-.18-.63.19-1.29.83-1.48.12-.03.25-.05.38-.04.5.03.94.38,1.07.82.01.06,1.73,6.12,8.94,9.5.19.09.39.13.6.13h7.86c.21,0,.41-.04.6-.13,6.98-3.28,8.85-9.2,8.92-9.46.14-.48.58-.83,1.05-.86.16-.01.3,0,.42.04.63.18,1,.84.82,1.46-.06.22-.68,2.22-2.44,4.63-2.04,2.82-4.78,5.01-8.14,6.52-.5.23-.82.73-.82,1.28v7.04c-.81.75-1.32,1.75-1.44,2.85l-.7,6.37h-4.31l-.7-6.37c-.12-1.13-.66-2.16-1.55-2.94ZM66.32,79.08l1.6-14.55c.05-.47.28-.89.65-1.19.32-.25.7-.39,1.1-.39.07,0,.13,0,.2.01.47.05.89.28,1.19.65.29.37.43.83.38,1.3l-1.6,14.55c-.08.74-.62,1.35-1.35,1.53-.2.05-.4.06-.6.04-.47-.05-.89-.28-1.19-.65-.29-.37-.43-.83-.38-1.3ZM50.95,70.59h-8.31v-2.03h8.09l.22,2.03Z"/>
  <path class="cls-1" d="M41.86,48.74c.28-2.31-.36-4.59-1.8-6.43s-3.51-3-5.82-3.28c-2.31-.28-4.59.36-6.43,1.8-1.83,1.44-3,3.51-3.27,5.82-.32,2.63.61,5.27,2.44,7.15l-6.03-3.06c-.87-.44-1.85-.52-2.77-.22-.92.3-1.67.94-2.11,1.81-.58,1.13-.52,2.46.14,3.54.35.57.85,1.04,1.45,1.34l6.78,3.45-.3,2.46-3.27,1.04c-1.35.43-2.34,1.62-2.51,3.03l-.84,7c-.12.96.15,1.91.75,2.68.6.76,1.46,1.25,2.42,1.36.96.12,1.92-.15,2.68-.75.76-.6,1.25-1.46,1.36-2.42l.56-4.68.42-.13c1.05,1.18,2.45,1.98,4,2.27l.54,9.03c.11,1.75,1.45,3.18,3.19,3.39.14.02.29.03.43.03.08,0,.15,0,.22,0,.97-.06,1.86-.49,2.5-1.22.64-.73.96-1.66.91-2.63l-.69-11.38c.73-.99,1.2-2.16,1.35-3.39l.69-5.73c.23-1.89-.31-3.77-1.47-5.26,2.45-1.34,4.14-3.82,4.48-6.61ZM34.73,81.28c.01.23-.06.45-.21.62s-.36.27-.59.29c-.05,0-.1,0-.16,0-.41-.05-.73-.39-.75-.8l-.62-10.21c-.04-.73-.65-1.3-1.38-1.3-.18,0-.35,0-.5-.03-1.29-.16-2.44-.87-3.15-1.97-.26-.4-.69-.63-1.16-.63-.14,0-.28.02-.42.06l-2.2.7c-.52.16-.89.62-.96,1.16l-.67,5.57c-.03.23-.14.43-.32.57-.18.14-.4.21-.63.18-.23-.03-.43-.14-.57-.32s-.2-.41-.18-.63l.84-7.01c.04-.33.27-.61.59-.71l4.12-1.3c.52-.17.89-.62.96-1.16l.52-4.31c.07-.58-.23-1.14-.75-1.4l-7.64-3.89c-.14-.07-.26-.18-.34-.31-.16-.26-.17-.57-.03-.84.1-.2.28-.36.5-.43.22-.07.45-.05.66.05l7.34,3.73c.54.27,1.19.17,1.61-.26.5-.5,1.1-.88,1.74-1.09.54-.18.91-.66.95-1.22s-.26-1.09-.77-1.34c-2.26-1.12-3.57-3.54-3.27-6.04.19-1.58.98-2.99,2.23-3.97,1.25-.98,2.8-1.42,4.39-1.23,3.26.39,5.59,3.36,5.2,6.62-.3,2.5-2.15,4.54-4.61,5.09-.55.12-.97.56-1.07,1.12-.09.56.15,1.11.63,1.41,1.44.9,2.24,2.56,2.04,4.24l-.69,5.73c-.11.88-.47,1.7-1.05,2.36-.24.28-.36.63-.34,1l.72,11.91Z"/>
  <path class="cls-1" d="M16.44,49.53l.12.49,2.2-.54-.12-.49c-.15-.62-.35-.97-.49-1.22-.18-.32-.25-.45-.12-1.03.82-3.69,4.39-6.7,9.29-7.85.43-.08,4.06-.81,5.05-3.91h.14c.21,0,.42-.03.62-.09.57-.17,1.03-.54,1.32-1.06.28-.52.35-1.11.18-1.68l-.38-1.3c.39-.15.77-.34,1.13-.55,1.16-.67,2.21-1.62,3.11-2.81,1.76-2.34,2.78-5.44,2.78-8.51,0-1.55-.25-3.03-.76-4.37-.49-1.3-1.19-2.46-2.1-3.43-1.81-1.94-4.29-3.01-6.99-3.01s-5.17,1.07-6.98,3.01c-.91.97-1.61,2.12-2.1,3.43-.5,1.34-.75,2.81-.75,4.37,0,3.06,1.01,6.17,2.78,8.51.9,1.19,1.94,2.14,3.1,2.81.36.21.74.39,1.13.55l-.38,1.3c-.06.2-.09.41-.09.62,0,.59.23,1.14.65,1.56.31.31.69.52,1.11.6-.92,1.35-2.95,1.72-3.04,1.74-5.79,1.36-10.02,5.03-11.03,9.57-.23,1.05-.07,1.5.21,2.14.13.29.28.63.41,1.16ZM32.35,28.99h-1.77c-.68-.1-1.34-.34-1.96-.7-.89-.51-1.7-1.25-2.42-2.2-1.47-1.95-2.31-4.54-2.31-7.12,0-1.28.21-2.48.61-3.56.38-1.02.93-1.92,1.62-2.66,1.37-1.47,3.25-2.28,5.29-2.28s3.93.81,5.3,2.28c.7.75,1.24,1.65,1.62,2.66.41,1.08.61,2.28.61,3.56,0,2.57-.84,5.17-2.31,7.12-.71.94-1.52,1.68-2.42,2.2-.62.36-1.28.6-1.88.7ZM31.99,31.36l.38,1.3h-1.9l.38-1.3c.38.03.76.03,1.14,0Z"/>
</svg>