<svg width="66.937" height="44.93" viewBox="0 0 66.937 44.93" xmlns="http://www.w3.org/2000/svg">
    <g fill="currentColor" fill-rule="evenodd">
        <path d="M64.83 23.58V12.56H49.283v26.616H64.83v-9.295s.034-.71 1.014-.71c.974 0 1.088.71 1.088.71v9.295a2.065 2.065 0 0 1-2.061 2.062H49.24v1.244a2.074 2.074 0 0 1-2.082 2.062H22.734a2.074 2.074 0 0 1-2.082-2.062v-3.17l2.312-1.833v4.773h23.965l-.135-40.096H22.828l.136 17.922-2.312-.913V2.062C20.652.926 21.584 0 22.734 0h24.432c1.149 0 2.082.926 2.082 2.062v8.518h15.63c1.136 0 2.062.926 2.062 2.062v10.945s-.04.71-1.088.71c-1.021-.007-1.021-.717-1.021-.717"/>
        <path d="M21.648 25.943c-.24 1.32-.6 1.67-1.31 2.36l-.78.77.22.54c.08.21.2.45.35.71.27.5.58 1.09.64 1.8.08 1.12-.26 2.11-.98 2.88-.83.89-2.12 1.41-3.54 1.41-.74 0-1.32-.39-2.04-.88l-1.72-1.14.02 8.54c-.18.1-.5.23-.98.2-.38-.03-.6-.1-.73-.16l.17-8.24-1.4.87c-.75.46-2.07.84-2.96.84-2.06 0-3.41-.38-4.13-1.13-.5-.53-.72-1.28-.67-2.3.06-1.16 1.17-2.48 1.46-2.73l.72-.61-.79-.84c-.54-.58-1.46-1.55-1.35-2.44.31-2.35 1.74-3.62 4.38-3.86l.77-.07.04-.77c.16-2.53 2.04-4.29 4.58-4.29 2.35 0 4.27 1.51 4.69 3.69l.12.69.7.05c1.62.1 3.12.8 3.94 1.83.53.68.73 1.45.58 2.28m1.77.31c.24-1.35-.08-2.63-.93-3.71-1.01-1.27-2.72-2.18-4.57-2.45-.82-2.68-3.31-4.5-6.3-4.5-3.22 0-5.77 2.17-6.29 5.24-3.02.51-4.88 2.38-5.26 5.33-.18 1.43.68 2.64 1.4 3.44-.61.76-1.39 2-1.46 3.31-.07 1.52.32 2.74 1.17 3.63 1.08 1.14 2.85 1.69 5.43 1.69.75 0 1.67-.17 2.5-.46l-.12 5.7.06.14c.06.2.5 1.19 2.36 1.31.1.01.19.01.29.01 1.6 0 2.36-.96 2.45-1.07l.18-.24-.02-5.92c.56.29 1.19.51 1.95.51 1.92 0 3.69-.73 4.86-1.98 1.05-1.13 1.56-2.64 1.45-4.24-.08-1.1-.52-1.92-.85-2.52.75-.73 1.38-1.43 1.7-3.22M55.198 33.663l-.05-5.99 3.65-.03.05 6-3.65.02zm4.89-6.22c-.06-.57-.45-.94-1-.93l-4.33.03c-.73 0-1.01.5-1.01.77l.08 6.68c0 .27.46.8 1 .8l4.33-.04c.55 0 .99-.34 1.01-.84l-.08-6.47zM55.198 23.273l-.05-6 3.65-.03.05 6-3.65.03zm4.89-6.22c-.06-.58-.45-.94-1-.94l-4.33.04c-.73 0-1.01.49-1.01.76l.08 6.68c0 .27.46.8 1 .8l4.33-.04c.55 0 .99-.33 1.01-.83l-.08-6.47zM37.938 36.283l-.05-6.53 3.98-.03.05 6.53-3.98.03zm5.35-6.77c-.07-.63-.49-1.02-1.08-1.02l-4.72.03c-.81.01-1.11.55-1.11.84l.09 7.27c0 .3.49.87 1.08.87l4.72-.04c.6 0 1.08-.37 1.11-.91l-.09-7.04zM28.418 36.283l-.05-6.53 3.99-.03.04 6.53-3.98.03zm5.35-6.77c-.08-.63-.49-1.02-1.09-1.02l-4.72.03c-.81.01-1.11.55-1.11.84l.09 7.27c0 .3.49.87 1.09.87l4.72-.04c.59 0 1.07-.37 1.11-.91l-.09-7.04zM37.938 24.903l-.05-6.54 3.98-.02.05 6.53-3.98.03zm5.35-6.77c-.07-.63-.49-1.02-1.08-1.02l-4.72.03c-.81.01-1.11.54-1.11.84l.09 7.27c0 .3.49.88 1.08.87l4.72-.03c.6-.01 1.08-.38 1.11-.92l-.09-7.04zM28.418 24.903l-.05-6.54 3.99-.02.04 6.53-3.98.03zm5.35-6.77c-.08-.63-.49-1.02-1.09-1.02l-4.72.03c-.81.01-1.11.54-1.11.84l.09 7.27c0 .3.49.88 1.09.87l4.72-.03c.59-.01 1.07-.38 1.11-.92l-.09-7.04zM37.938 13.573l-.05-6.53 3.98-.03.05 6.53-3.98.03zm5.35-6.77c-.07-.62-.49-1.02-1.08-1.02l-4.72.04c-.81 0-1.11.54-1.11.84l.09 7.27c0 .3.49.87 1.08.87l4.72-.04c.6-.01 1.08-.37 1.11-.91l-.09-7.05zM28.418 13.573l-.05-6.53 3.99-.03.04 6.53-3.98.03zm5.35-6.77c-.08-.62-.49-1.02-1.09-1.02l-4.72.04c-.81 0-1.11.54-1.11.84l.09 7.27c0 .3.49.87 1.09.87l4.72-.04c.59-.01 1.07-.37 1.11-.91l-.09-7.05z"/>
    </g>
</svg>
