<svg width="66.928" height="66.928" viewBox="0 0 66.928 66.928" xmlns="http://www.w3.org/2000/svg">
    <g fill="currentColor" fill-rule="evenodd">
        <path d="M10.94 33.45c0 1.24-1.01 2.25-2.25 2.25-1.25 0-2.25-1.01-2.25-2.25s1-2.25 2.25-2.25c1.24 0 2.25 1.01 2.25 2.25M35.32 58.09c0 1.25-1 2.25-2.25 2.26-1.24.01-2.25-1-2.26-2.25 0-1.24 1.01-2.25 2.25-2.25 1.24-.01 2.25 1 2.26 2.24M30.66 8.75a2.24 2.24 0 0 1 2.24-2.26c1.25-.01 2.25 1 2.26 2.24.01 1.25-1 2.25-2.24 2.26-1.25.01-2.25-1-2.26-2.24M30.02 33.4c.04-1.9 1.61-3.41 3.5-3.38 1.9.04 3.42 1.6 3.38 3.5-.03 1.9-1.6 3.42-3.5 3.38a3.44 3.44 0 0 1-3.38-3.5M35.94 26.21l7.16-9.65c.59-.83 1.75-1.03 2.58-.44.83.59 1.18 1.84.59 2.67l-7.05 9.57c-.9 1.21-1.65 1.29-2.61.7-.91-.57-1.45-1.79-.67-2.85M48.54 53.2c.87 1.23.7 1.97-.16 2.69-.83.68-2.15.82-2.92-.27l-10.7-15.35a1.86 1.86 0 0 1 .39-2.59c.83-.6 2.12-.53 2.72.29L48.54 53.2z"/>
        <path d="M33.46 62.48c-16.03 0-29.01-12.99-29.01-29.02S17.43 4.45 33.46 4.45s29.02 12.98 29.02 29.01-12.99 29.02-29.02 29.02m0-62.48C14.98 0 0 14.98 0 33.46c0 18.49 14.98 33.47 33.46 33.47 18.49 0 33.47-14.98 33.47-33.47C66.93 14.98 51.95 0 33.46 0"/>
        <path d="M60.3 33.45a2.256 2.256 0 0 1-4.51 0 2.256 2.256 0 0 1 4.51 0"/>
    </g>
</svg>
