<svg width="66.926" height="36.128" viewBox="0 0 66.926 36.128" xmlns="http://www.w3.org/2000/svg">
    <g fill="currentColor" fill-rule="evenodd">
        <path d="M54.05 19.08c-1.17.04-2.59-.31-3.63-.5 1.21-4.46 1.81-7.11 2.73-11.22 1.94-.07 3.83-.01 5.42.3 2.2.44 3.22 1.7 3.49 3.18.79 4.4-3.41 8.05-8.01 8.24m-8.6.93c-3.15 7.33-7.12 11.65-8.28 12.66h-19.6c-3.31-2.74-6.19-5.65-8.99-12.77C6.26 14 4.43 6.99 4.56 3.87h44.92c.71.22-.63 8.24-4.03 16.14m21.39-9.38c-.41-2.9-1.65-5.03-4.61-6.35-2.54-1.12-5.19-1.25-8.21-1.44.01-.58-.12-2.25-.12-2.84H0c.08 7 1.33 12.36 3.55 19.02 3.11 9.3 6.49 13.81 10.65 17.11H40c3.98-3.16 6.22-8.47 8.5-12.96 1.92.37 4.11.51 6.27.21 7.98-1.13 12.91-6.83 12.07-12.75"/>
        <path d="M11.05 12.57a1.893 1.893 0 0 1-1.87-1.9c.01-1.04.86-1.87 1.9-1.86 1.04 0 1.87.86 1.86 1.89 0 1.04-.85 1.87-1.89 1.87M20.24 25.61c1.08 1.34-.38 2.73-1.11 2.64-.73-.08-3.34-1.03-5.35-4.74-2.01-3.7-2.67-6.49-2.67-6.49s-.7-2.05 1.04-2.43c1.54-.43 1.94 1.69 1.94 1.69s.82 2.3 2.1 4.81c1.47 2.85 3.31 3.61 4.05 4.52"/>
    </g>
</svg>
