<svg width="66.922" height="40.468" viewBox="0 0 66.922 40.468" xmlns="http://www.w3.org/2000/svg">
    <g fill="currentColor" fill-rule="evenodd">
        <path d="M3.23 37.24H63.7V3.23H3.23v34.01zM64.23 0H2.69C1.21 0 0 1.21 0 2.69v35.09c0 1.48 1.21 2.69 2.69 2.69h61.55c1.48 0 2.69-1.21 2.68-2.7V2.69c0-1.48-1.2-2.69-2.69-2.69z"/>
        <path d="M57.87 20.12c0 .34-.03.62-.07.85h-5.63l-.14-.32 2.32-2.54c.7-.77 1.04-1.38 1.04-1.85 0-.21-.09-.4-.28-.55-.18-.14-.44-.21-.78-.21-.3 0-.56.02-.78.08-.22.05-.48.15-.79.28-.1-.24-.2-.5-.28-.76-.09-.27-.15-.56-.18-.85.38-.15.74-.27 1.08-.35.34-.09.74-.13 1.19-.13.86 0 1.56.21 2.09.61.52.39.79.96.79 1.69 0 .56-.15 1.06-.43 1.49-.28.43-.66.93-1.14 1.47l-.28.29h2.2c.05.23.07.49.07.8M50.59 26.06c-.46.19-.9.31-1.3.36-.41.06-.83.08-1.27.08-.76 0-1.42-.12-1.97-.35-.56-.24-1.02-.57-1.39-.99-.36-.42-.64-.91-.82-1.49-.18-.57-.28-1.2-.28-1.87 0-.66.09-1.28.27-1.85.18-.56.45-1.07.82-1.49.36-.43.82-.77 1.36-1.01.55-.24 1.18-.36 1.9-.36.26 0 .49 0 .71.02.21.01.42.03.62.06.2.04.39.09.59.15.19.06.42.13.66.23 0 .27-.03.56-.1.9-.07.33-.18.64-.33.94a6.47 6.47 0 0 0-.92-.23c-.26-.05-.56-.07-.89-.07-.72 0-1.27.24-1.63.71-.37.47-.55 1.14-.55 2.01 0 .94.19 1.62.59 2.06.4.42.93.64 1.61.64.17 0 .33 0 .48-.01.14 0 .29-.02.42-.04.14-.02.28-.05.43-.1.13-.07.3-.13.5-.2.14.23.25.5.35.82.09.3.14.67.14 1.08M41.81 20.57v5.72c-.42.07-.83.11-1.24.11-.4 0-.82-.03-1.23-.11v-5.08c0-.63-.09-1.11-.24-1.45-.16-.33-.47-.5-.95-.5-.19 0-.39.02-.58.08-.19.07-.36.17-.52.33-.16.15-.28.38-.39.66-.1.29-.14.66-.14 1.11v4.85c-.42.07-.84.11-1.24.11-.41 0-.82-.03-1.24-.11v-5.08c0-.63-.08-1.11-.23-1.45-.16-.33-.48-.5-.95-.5-.2 0-.39.02-.6.08-.19.07-.37.17-.52.34-.16.17-.29.41-.38.71-.1.3-.14.69-.14 1.18v4.72c-.42.07-.84.11-1.24.11-.41 0-.82-.04-1.24-.11v-9h.02c.16-.03.33-.06.49-.08.16-.02.34-.03.54-.03s.37.01.52.03c.15.02.3.04.47.08.04.06.07.14.1.25.03.11.05.23.08.35.03.12.04.24.06.36.02.11.03.22.04.3.1-.18.22-.35.37-.52.14-.18.33-.34.54-.48.21-.14.44-.25.7-.34.26-.08.55-.12.88-.12 1.4 0 2.3.53 2.7 1.6.23-.43.56-.81.98-1.12.42-.32.96-.48 1.61-.48 1.02 0 1.77.27 2.25.84.48.56.72 1.44.72 2.64M26.1 21.99c0 .36-.04.71-.11 1.06h-7.33c-.07-.35-.11-.7-.11-1.04 0-.36.04-.72.11-1.06h7.33c.07.34.11.69.11 1.04M26.1 18.44c0 .36-.04.72-.11 1.06h-7.33c-.07-.35-.11-.7-.11-1.05 0-.36.04-.71.11-1.06h7.33v.01c.07.35.11.69.11 1.04M16.4 25.19c0 .38-.03.75-.1 1.09H9.08V13.77h7.1c.07.36.1.71.1 1.07 0 .38-.03.75-.1 1.09h-4.56v2.72h3.62c.07.37.11.73.11 1.07 0 .37-.03.74-.11 1.1h-3.62v3.3h4.68c.07.36.1.71.1 1.07"/>
    </g>
</svg>
