<svg width="46.566" height="66.935" viewBox="0 0 46.566 66.935" xmlns="http://www.w3.org/2000/svg">
    <g fill="currentColor" fill-rule="evenodd">
        <path d="M10.975 9.762c.223.277.534.439.86.473.323.034.668-.054.945-.277a1.281 1.281 0 0 0 .196-1.805L10.083 4.55a1.28 1.28 0 0 0-1.805-.196 1.28 1.28 0 0 0-.196 1.805l2.893 3.603zM5.648 18.936a1.27 1.27 0 0 0 1.467-1.061A1.285 1.285 0 0 0 6.054 16.4l-4.564-.737a1.284 1.284 0 0 0-.412 2.535l4.57.737zM21.177 5.895c-.007.352.135.676.365.913a1.287 1.287 0 0 0 2.204-.886l.047-4.624a1.284 1.284 0 1 0-2.57-.027l-.046 4.624zM38.497 6.483a1.281 1.281 0 0 0-.196-1.805 1.281 1.281 0 0 0-1.805.196l-2.894 3.603a1.281 1.281 0 0 0 .196 1.805c.278.223.616.311.947.278.324-.034.642-.196.859-.474l2.893-3.603zM45.487 18.524a1.284 1.284 0 0 0-.412-2.535l-4.564.736a1.287 1.287 0 0 0-.547 2.312c.263.19.608.284.953.223l4.57-.736zM41.56 55.395c-.92 0-1.475.737-1.475 1.656l.081 4.875c0 .595 0 1.886-.912 1.947l-4.523.08c.007-.067.02-.134.02-.202l-.027-10.594c-.007-.96-.683-1.73-1.528-1.744h-.027c-.858.007-1.548.798-1.54 1.77l.026 10.595c0 .06.013.122.013.182H13.53c.034-.148.054-.297.054-.46l-.047-10.79c-.007-.96-.676-1.736-1.5-1.736h-.02c-.833.006-1.502.804-1.495 1.77l.047 10.79c0 .149.02.29.054.426l-4.577.034c-1.338-.182-1.216-2.09-1.216-2.684l-.055-11.756c0-5.47 3.103-9.708 8.573-9.708h17.8c5.47 0 8.83 1.372 8.83 6.842 0 .919.662 1.845 1.581 1.845.92 0 1.663-.743 1.663-1.663 0-7.301-4.536-9.735-11.844-9.735h-17.8c-7.302 0-11.845 5.239-11.845 12.547l.041 13.109c0 2.427 1.413 4.144 3.84 4.144l34.302-.061c2.927-.121 3.232-1.163 3.232-3.596l.067-6.206a1.659 1.659 0 0 0-1.656-1.677M22.88 30.86c-4.71 0-8.53-3.82-8.53-8.53 0-4.7 3.83-8.52 8.53-8.53 4.7 0 8.53 3.82 8.53 8.53 0 4.71-3.83 8.53-8.53 8.53m-.04-20c-6.34 0-11.49 5.16-11.49 11.5s5.15 11.49 11.49 11.49c6.33 0 11.49-5.16 11.49-11.49 0-6.34-5.16-11.5-11.49-11.5"/>
        <path d="M41.627 50.413a1.57 1.57 0 0 1 0 3.136h-.034a1.57 1.57 0 0 1 0-3.136h.034z"/>
    </g>
</svg>
