<svg width="58.328" height="66.99" viewBox="0 0 58.328 66.99" xmlns="http://www.w3.org/2000/svg">
    <g fill="currentColor" fill-rule="evenodd">
        <path d="M52.792 37.931c-4.297 3.911-8.791 6.747-13.745 8.662l-.568-.798c1.996-2.376 3.072-4.96 3.309-7.918.237-2.95-.426-5.678-2.023-8.338l-.833-1.387 1.476.663c4.162 1.875 8.215 4.61 12.391 8.358l.419.372-.426.386zm-17.291 7.004a143 143 0 0 0-2.422-3.715 5.952 5.952 0 0 0 1.428-3.87 6.024 6.024 0 0 0-12.046 0c0 1.826.832 3.437 2.118 4.533-.569.846-1.137 1.692-1.692 2.551-.257.4-.521.833-.792 1.26-2.808-1.977-4.662-5.225-4.656-8.913.007-5.908 4.819-10.78 10.72-10.869h.155c5.956 0 10.842 4.9 10.882 10.923-.027 3.221-1.461 6.104-3.695 8.1zm1.273 13.433c-.664 2.01-1.902 3.547-3.695 4.568a7.982 7.982 0 0 1-3.492 1.03c-2.098.134-3.993-.46-5.638-1.754-1.617-1.272-2.585-2.943-2.957-5.102-.291-1.672.217-3.2.697-4.345.724-1.739 1.692-3.553 3.059-5.69 1.049-1.646 2.132-3.27 3.208-4.894l1.083-1.63 1.617 2.422c1.394 2.084 2.998 4.513 4.385 7.051.853 1.557 1.435 2.87 1.834 4.122.427 1.333.393 2.713-.101 4.222zm-19.233-11.53c-2.958-1.125-5.78-2.7-8.642-4.813-1.577-1.164-3.106-2.463-4.683-3.965a1.09 1.09 0 0 0-.135-.109l-.501-.406.318-.392c2.477-3.086 9.67-8.108 12.824-8.954l1.32-.358-.772 1.13c-1.841 2.687-2.659 5.637-2.45 8.764.217 3.133 1.394 5.887 3.601 8.405l1.197 1.441-2.077-.744zm33.762-14.416c-3.316-2.619-6.578-4.629-9.968-6.158-4.101-1.847-8.338-2.869-12.587-3.032-.339-.013-.684-.02-1.029-.02-1.299 0-2.66.095-4.054.284a32.419 32.419 0 0 0-8.784 2.511c-4.974 2.22-9.427 5.448-13.244 9.61a34.961 34.961 0 0 0-1.285 1.53c-.122.141-.237.283-.352.425l.859.867c.663.67 1.333 1.346 2.024 1.996 3.14 2.944 6.32 5.265 9.745 7.08a34.181 34.181 0 0 0 6.923 2.76 31.194 31.194 0 0 0-.772 1.752c-.372.948-.765 2.078-.852 3.29a10.1 10.1 0 0 0 .703 4.486c1.388 3.485 3.932 5.773 7.573 6.801.48.136.968.21 1.435.278l.629.101.074.007 1.476-.007.203-.04c1.218-.095 2.348-.379 3.363-.846 3.648-1.672 5.874-4.48 6.625-8.358a8.692 8.692 0 0 0-.135-3.966c-.352-1.272-.873-2.564-1.631-4.067 7.099-2.375 13.366-6.456 18.631-12.168l.088-.094-.393-.393a69.843 69.843 0 0 0-5.265-4.629z"/>
        <path d="M32.78 53.909a2.083 2.083 0 0 0-2.077 2.078 2.078 2.078 0 0 0 4.156 0 2.083 2.083 0 0 0-2.078-2.078M55.37 16.675c0 .487-.399.88-.893.88H41.348a.895.895 0 0 1-.893-.88V3.783c0-.487.4-.88.893-.88h13.13c.486 0 .892.4.892.88v12.892zM57.434 0H38.397a.894.894 0 0 0-.893.88v18.691c0 .488.4.88.893.88h19.037a.894.894 0 0 0 .893-.88V.88a.89.89 0 0 0-.893-.88z"/>
        <path d="M52.806 8.987h-3.634l.02-3.566c0-.224-.656-.806-1.346-.812-.698 0-1.158.575-1.158.798l-.02 3.58h-3.621c-.23 0-.845.521-.845 1.205 0 .683.622 1.258.845 1.258h3.607l-.02 3.546c0 .217.528.826 1.218.833.69.007 1.286-.596 1.286-.819l.02-3.56h3.648c.223 0 .819-.649.819-1.326s-.596-1.13-.82-1.137"/>
    </g>
</svg>
