<svg width="66.928" height="53.732" viewBox="0 0 66.928 53.732" xmlns="http://www.w3.org/2000/svg">
    <g fill="currentColor" fill-rule="evenodd">
        <path d="M14.473 29.293a1.677 1.677 0 0 0-.764 2.238 1.677 1.677 0 0 0 2.238.764 1.676 1.676 0 0 0 .764-2.238 1.664 1.664 0 0 0-2.238-.764"/>
        <path d="m45.767 13.27 7.7-9.315 9.316 9.316H45.767zm-9.438 33.526 9.668-30.74c.007-.013.007-.027.007-.04h16.13l-25.805 30.78zm-2.934.162-9.937-30.935H43.13l-9.735 30.935zM4.143 13.27l9.566-9.56s0 .008.007.008l7.896 9.552H4.142zm27.9-10.52-7.964 9.195-7.598-9.194h15.562zm8.762 10.52H26.567l7.119-8.214 7.119 8.214zM50.898 2.75l-7.6 9.195-7.962-9.194h15.562zm15.624 10.37L53.805.407A1.381 1.381 0 0 0 52.832 0H14.094c-.365 0-.716.142-.973.406L.404 13.122a1.375 1.375 0 0 0-.081 1.859l10.195 12.06s.926.393 1.71-.256c.702-.581.549-1.232.509-1.362l-.008-.024-7.944-9.376H20.57l9.796 30.503L19.969 34.12s-.892-.466-1.636.277c-.744.744-.574 1.366-.574 1.366l14.656 17.476c.264.31.649.493 1.055.493.405 0 .79-.182 1.054-.493l32.092-38.264a1.382 1.382 0 0 0-.094-1.853z"/>
    </g>
</svg>
