<svg width="66.997" height="62.625" viewBox="0 0 66.997 62.625" xmlns="http://www.w3.org/2000/svg">
    <g fill="currentColor" fill-rule="evenodd">
        <path d="M43.629 59.262c-.805 0-1.455.65-1.455 1.455s.65 1.455 1.455 1.455 1.455-.65 1.455-1.455-.65-1.455-1.455-1.455"/>
        <path d="M64.249 57.266c0 1.469-1.15 2.612-2.633 2.612-1.482-.007-2.605-1.164-2.618-2.693a791.449 791.449 0 0 1 0-9.116c.013-2.362-.305-4.378-.989-6.158a2.561 2.561 0 0 1-.081-.318l-.209-.934 2.767-.014c.427 0 .846.007 1.259.021 1.421.054 2.497 1.157 2.504 2.571.02 4.677.02 9.353 0 14.029zm-13.244-41.91c-.006-1.212.474-2.369 1.354-3.262a4.607 4.607 0 0 1 3.255-1.388h.027a4.637 4.637 0 0 1 4.622 4.596 4.561 4.561 0 0 1-1.347 3.255 4.605 4.605 0 0 1-3.289 1.394 4.636 4.636 0 0 1-4.622-4.595zm1.252 15.571-.007 3.343-5.251-2.131V29.73c-.007-.988-.541-1.638-1.374-1.645-.839 0-1.36.643-1.36 1.678v4.095c0 2.429 0 4.852-.007 7.281-.007 1.557-1.143 2.775-2.592 2.775-.325 0-.649-.061-.961-.183-1.076-.419-1.692-1.299-1.698-2.429a1706.3 1706.3 0 0 1 0-11.972c0-1.049.507-1.888 1.421-2.348l.853-.433a488.813 488.813 0 0 1 7.247-3.614 2.634 2.634 0 0 1 1.131-.257c1.394 0 2.551 1.123 2.578 2.504.034 1.915.027 3.823.02 5.745zm-16.81.264a2.608 2.608 0 0 1-1.807.738c-.561 0-1.11-.183-1.57-.528-.21-.156-.399-.345-.656-.595l-7.451-7.438c-.44-.44-.887-.67-1.286-.67-.677 0-1.123.691-1.333 1.103l-.244.481a1480.248 1480.248 0 0 0-3.62 7.241c-.115.237-.197.487-.298.778-.027.088-.061.183-.095.278.041.074.081.149.122.23.176.331.338.643.562.866.825.853 1.664 1.692 2.51 2.531a139.48 139.48 0 0 1 2.836 2.869c.548.576.968 1.313 1.15 2.024 1.286 4.926 2.511 9.867 3.743 14.814l.081.331c.142.555.176 1.056.115 1.489-.169 1.137-1.11 2.01-2.287 2.138-.095.007-.19.014-.285.014-1.143 0-2.131-.724-2.456-1.8-.352-1.178-.65-2.376-.948-3.573l-1.028-4.115a502.281 502.281 0 0 0-1.787-7.004 3.053 3.053 0 0 0-.731-1.299c-1.556-1.598-3.133-3.168-4.71-4.738l-1.908-1.901c-1.205-1.205-1.36-2.173-.589-3.709l7.647-15.274c.562-1.123 1.462-1.766 2.47-1.766.745 0 1.489.345 2.152 1.008l11.41 11.397c.21.203.413.412.589.649a2.585 2.585 0 0 1-.298 3.431zm-1.929 4.514c-2.314 2.132-3.796 4.48-4.676 7.397l-.656 2.186-.819-3.215c-.169-.656-.325-1.258-.467-1.861-.264-1.123-.799-2.064-1.638-2.889a386.565 386.565 0 0 1-4.432-4.44c-.258-.264-.528-.846-.312-1.306a151.965 151.965 0 0 1 1.726-3.499l.873-1.746 2.22 2.234a405.998 405.998 0 0 1 3.41 3.437c1.388 1.422 2.518 2.443 4.386 2.599l1.441.115-1.056.988zM16.126 45.958l-.054.216c-.074.298-.237.535-.413.792a6213.06 6213.06 0 0 1-7.972 11.545c-.622.907-1.387 1.36-2.274 1.36-.27 0-.548-.047-.825-.128a2.65 2.65 0 0 1-1.638-1.442 2.623 2.623 0 0 1 .034-2.152c.115-.25.277-.487.474-.771l1.549-2.24c1.78-2.578 3.553-5.15 5.353-7.708.481-.684.677-1.327.65-2.084-.034-.792-.027-1.584-.02-2.376l.007-1.015.088-.48.886-.312.284.285c.345.351.704.697 1.056 1.042.859.846 1.746 1.712 2.551 2.653.752.879.467 1.996.264 2.815zm8.229-41.85a4.61 4.61 0 0 1 3.262-1.387h.014a4.626 4.626 0 0 1 4.622 4.609c.007 1.218-.481 2.375-1.36 3.261a4.605 4.605 0 0 1-3.276 1.374c-2.538 0-4.615-2.064-4.622-4.602 0-1.211.487-2.368 1.36-3.255zm42.344 37.81c-.23-.657-.454-1.279-.792-1.794-.968-1.448-2.463-2.186-4.446-2.206l-4.798-.007a1.663 1.663 0 0 1-1.665-1.664v-2.795c0-1.713.007-3.418-.007-5.13-.007-1.157-.04-2.314-.067-3.472l-.034-1.475.027-.65h.65c2.273 0 4.31-.961 5.731-2.693 1.428-1.753 1.997-4.013 1.55-6.206-.677-3.343-3.783-5.86-7.214-5.86-.568 0-1.137.067-1.685.203-1.563.385-2.829 1.15-3.878 2.341-1.008 1.151-1.603 2.531-1.766 4.088-.156 1.489.169 2.971.961 4.412l.366.67-.725.237c-1.969.65-7.857 3.532-10.861 5.319l-.427.25-10.672-10.631 1.347-.129c2.24-.21 4.162-1.346 5.407-3.201 1.245-1.854 1.624-4.189 1.008-6.259C33.782 2.166 30.879 0 27.644 0c-.71 0-1.421.109-2.104.319-2.274.697-3.871 2.165-4.751 4.365-.832 2.091-.677 4.229.467 6.341l.338.629-.663.264c-.23.095-.46.176-.683.257-.454.162-.88.325-1.266.528-.941.494-1.671 1.279-2.267 2.477L8.919 30.718c-.447.893-.663 1.847-.663 2.923l.007 3.485c0 1.855 0 3.709.013 5.563.007.65-.169 1.211-.562 1.773-.886 1.272-1.773 2.545-2.652 3.824-1.063 1.536-2.119 3.065-3.195 4.595C.981 54.146.223 55.303 0 56.596v1.259c.27 1.116.588 2.023 1.231 2.795a5.415 5.415 0 0 0 4.182 1.976 5.125 5.125 0 0 0 4.176-2.112c1.631-2.24 3.228-4.574 4.771-6.828.697-1.015 1.387-2.03 2.091-3.045l1.428-2.024s.575 2.058.623 2.254c.216.846.419 1.692.629 2.538.453 1.847.92 3.755 1.475 5.603.643 2.159 2.667 3.614 5.035 3.614.142 0 .284-.007.427-.014 2.341-.182 4.371-2.003 4.811-4.338.02-.115.054-.237.102-.379l.365-1.265.758.812c1.692 1.814 3.58 3.14 5.63 3.993.894.372 1.875-.305 1.875-1.273 0-.561-.352-1.049-.873-1.265a12.827 12.827 0 0 1-6.673-6.531c-2.537-5.616-.27-11.599 3.14-14.38l1.036-.839v2.233c-.007.622-.007 1.225.007 1.834.054 2.693 1.962 4.987 4.439 5.339.305.041.596.068.887.068 3.072 0 5.346-2.281 5.407-5.414.02-1.171.013-2.342.006-3.512l-.006-2.355.744.135c4.25.758 8.392 6.341 8.513 11.484.122 5.191-2.849 9.745-7.457 11.816-.501.223-.846.704-.846 1.259v.02c0 .975 1.001 1.658 1.895 1.266 1.908-.846 3.654-2.105 5.217-3.783l.67-.724.4.886c.115.271.216.541.318.812.209.555.406 1.076.676 1.536.941 1.597 2.64 2.552 4.528 2.552.359 0 .731-.034 1.089-.109 2.064-.406 3.777-2.172 4.169-4.31.02-.102.047-.197.102-.359V42.736a16.25 16.25 0 0 1-.298-.818z"/>
    </g>
</svg>
