<svg width="66.937" height="49.468" viewBox="0 0 66.937 49.468" xmlns="http://www.w3.org/2000/svg">
    <g fill="currentColor" fill-rule="evenodd">
        <path d="M54.468 11.94c0 .98-.8 1.77-1.78 1.77s-1.78-.79-1.78-1.77.8-1.78 1.78-1.78 1.78.8 1.78 1.78"/>
        <path d="M63.888 15.97c-.41.84-.92 1.89-1.68 2.3-.58.31-6.58.09-8.16.1h-2.3l-1.41 2.6-8.36-3.65 2.1-3.74c.82-1.73 4.85-8.97 5.2-9.49.43-.65.92-1.4 1.35-1.66.17-.11.29-.16.36-.2.37.58.88 2.38 1.14 4.12l.1.65.62.22c.69.25 1.25.51 1.85.79.51.25 6.87 2.68 8.3 3.42.18.09.36.17.53.26.92.44 1.1.56 1.17 1.06.14 1.06-.31 2.17-.81 3.22m3-3.5c-.23-1.73-1.44-2.31-2.4-2.77-.15-.07-.31-.14-.47-.23-1.55-.79-3.21-1.4-4.81-2-.69-.25-1.37-.5-2.04-.77-.57-.22-1.05-.45-1.52-.67-.44-.21-.91-.44-1.43-.65-.56-3.2-1.41-4.99-2.54-5.31-.98-.27-1.9.31-2.21.49-.83.53-1.46 1.48-2.02 2.32-.3.44-4.52 8.03-5.35 9.76l-3.3 5.67 12.21 5.44 2.01-3.17h1.06c1.56-.01 8.04.26 9.19-.36 1.38-.75 2.09-2.22 2.61-3.29.62-1.29 1.23-2.82 1.01-4.46M44.498 47.04c-2 0-3.53.02-3.53-1.82l.02-11.64-23.56-.07-.07 11.73c0 1.84-.79 1.93-2.78 1.93-2 0-3.75-.11-3.75-1.95l.03-19.33-7.59-7.11c-.28-.33-1.05-1.44-.5-2.32.54-.47 1.56-.33 1.79-.14l6.89 6.3h25.15l11.01 5.18.07 17.31c0 1.84-1.18 1.93-3.18 1.93zm-7.65-27.12-25.05-.07-6.06-5.68c-.7-.67-1.93-.86-2.84-.77-.84.09-1.95.74-2.32 1.27-1.27 1.82-.2 4.48.85 5.47l6.9 6.47-.03 18.38c0 3.05 2.62 4.39 5.83 4.47 3.9.1 5.83-1.42 5.83-4.47V35.8h18.49v9.19c0 3.05 2.62 4.47 5.83 4.47s5.82-1.42 5.82-4.46V26.13l-13.25-6.21z"/>
    </g>
</svg>
