<svg width="64.448" height="68.533" viewBox="0 0 64.448 68.533" xmlns="http://www.w3.org/2000/svg">
    <g fill="currentColor" fill-rule="evenodd">
        <path d="M25.633 22.939c-.568 0-1.025.464-1.025 1.025 0 .567.457 1.024 1.025 1.024h17.85c.568 0 1.025-.463 1.025-1.024 0-.568-.464-1.025-1.025-1.025h-17.85zM49.354 16.125c0-.568-.464-1.025-1.025-1.025H16.12c-.568 0-1.025.457-1.025 1.025 0 .568.457 1.025 1.025 1.025h32.21c.568 0 1.025-.464 1.025-1.025M15.094 8.287c0 .568.457 1.025 1.025 1.025h32.21c.568 0 1.025-.457 1.025-1.025 0-.568-.464-1.025-1.025-1.025H16.12c-.568 0-1.025.464-1.025 1.025M62.247 55.308h-2.32v-2.174c0-.609-.491-1.1-1.1-1.1a1.1 1.1 0 0 0-1.101 1.1v2.167H51.59v-2.167a1.1 1.1 0 1 0-2.202 0v2.174h-2.32v-3.24a3.245 3.245 0 0 1 3.24-3.24h8.698a3.25 3.25 0 0 1 3.24 3.24v3.24zM44.459 66.393h-4.777v-3.939a1.07 1.07 0 0 0-1.073-1.074c-.59 0-1.074.478-1.074 1.074v3.932H26.914v-3.932a1.07 1.07 0 0 0-1.073-1.074c-.59 0-1.074.478-1.074 1.074v3.94H19.99v-5.58a5.604 5.604 0 0 1 5.58-5.582H38.88a5.6 5.6 0 0 1 5.58 5.581v5.58zM17.387 55.308h-2.32v-2.174a1.1 1.1 0 1 0-2.202 0v2.167H6.73v-2.167c0-.609-.491-1.1-1.1-1.1a1.1 1.1 0 0 0-1.101 1.1v2.174h-2.32v-3.24a3.245 3.245 0 0 1 3.24-3.24h8.69a3.245 3.245 0 0 1 3.24 3.24h.008v3.24zm41.62-8.69h-8.69a5.468 5.468 0 0 0-5.45 5.45v3.87a7.734 7.734 0 0 0-5.988-2.86H25.57a7.742 7.742 0 0 0-5.983 2.86v-3.87a5.469 5.469 0 0 0-5.45-5.45H5.45C2.445 46.625 0 49.07 0 52.068v4.341a1.1 1.1 0 0 0 1.1 1.101h17.381c.04 0 .083-.02.124-.028a7.752 7.752 0 0 0-.762 3.324v6.654c0 .588.478 1.073 1.074 1.073h26.622c.589 0 1.074-.478 1.074-1.073v-6.654a7.757 7.757 0 0 0-.77-3.324c.043.007.084.028.126.028h17.378a1.1 1.1 0 0 0 1.102-1.1v-4.342c-.007-2.999-2.444-5.443-5.442-5.45zM9.79 35.99a3.505 3.505 0 0 1 3.498 3.497 3.5 3.5 0 0 1-3.498 3.496 3.505 3.505 0 0 1-3.496-3.496A3.505 3.505 0 0 1 9.79 35.99m0 9.202c3.136 0 5.697-2.562 5.697-5.698a5.697 5.697 0 0 0-11.396-.007c0 3.143 2.556 5.705 5.699 5.705"/>
        <path d="M38.193 42.769c0 3.296-2.68 5.969-5.975 5.975-3.29-.006-5.97-2.686-5.97-5.975a5.978 5.978 0 0 1 5.97-5.968l.007.325V36.8a5.978 5.978 0 0 1 5.968 5.968m-14.09 0c0 4.473 3.642 8.115 8.115 8.115h.007c4.472 0 8.114-3.642 8.114-8.115 0-4.48-3.642-8.122-8.114-8.122-4.48.007-8.122 3.649-8.122 8.122M58.154 39.494a3.505 3.505 0 0 1-3.497 3.497 3.475 3.475 0 0 1-2.47-1.025 3.478 3.478 0 0 1-1.025-2.472 3.5 3.5 0 0 1 3.495-3.497 3.505 3.505 0 0 1 3.498 3.497m-9.196 0a5.707 5.707 0 0 0 5.698 5.698c3.138-.006 5.7-2.561 5.7-5.698a5.703 5.703 0 0 0-5.7-5.698 5.707 5.707 0 0 0-5.697 5.698M8.71 31.947h47.007c.568 0 1.026-.457 1.026-1.025v-29.6A1.007 1.007 0 0 0 55.73.297H23.735c-.568 0-1.025.464-1.025 1.025 0 .56.464 1.025 1.025 1.025H54.7v27.55H9.742V2.348h4.84c.567 0 1.024-.464 1.024-1.025 0-.561-.457-1.025-1.024-1.025H8.71c-.568 0-1.025.464-1.025 1.025v29.6c0 .568.464 1.025 1.025 1.025"/>
        <path d="M48.447 25.237a1.304 1.304 0 0 0 1.046-1.516 1.304 1.304 0 1 0-1.046 1.516M19.166 2.582a1.3 1.3 0 0 0 1.046-1.516 1.302 1.302 0 1 0-2.562.471c.124.706.81 1.177 1.516 1.045"/>
    </g>
</svg>
