<svg width="51.093" height="66.99" viewBox="0 0 51.093 66.99" xmlns="http://www.w3.org/2000/svg">
    <g fill="currentColor" fill-rule="evenodd">
        <path d="M48.334 45.788a1.622 1.622 0 0 0 0 2.287c.629.63 1.658.637 2.287 0a1.62 1.62 0 0 0 0-2.287 1.622 1.622 0 0 0-2.287 0"/>
        <path d="m31.767 32.619-3.045-.92c-1.185-.359-2.369-.718-3.56-1.056a2.502 2.502 0 0 1-1.563-1.205 708.72 708.72 0 0 0-2.822-4.723l-2.254-3.763c-.325-.548-.636-.792-1.069-.839-.068-.007-.135-.014-.196-.014-.433 0-.738.17-.982.528-.31.467-.304.914.014 1.442l3.6 6.023c.203.338.427.663.65.994.562.819 1.137 1.665 1.414 2.653.278 1.002.224 2.044.17 3.052-.02.386-.04.772-.04 1.151v15.605a.772.772 0 0 1-.779.772H3.236a.777.777 0 0 1-.779-.772v-7.051c0-4.243 0-8.48.007-12.716.021-9.353 6.436-17.142 15.62-18.935.683-.136 1.136-.224 1.536-.224 1.15 0 1.563.738 2.253 1.963 2.044 3.627 4.088 7.261 6.111 10.902.325.582.765.988 1.428 1.32a708.092 708.092 0 0 1 7.81 3.986l1.062.548c.63.325 1.015.839 1.056 1.401.034.48-.19.92-.616 1.225-.379.264-.86.304-1.11.304-.23 0-.453-.034-.65-.088a542.567 542.567 0 0 1-5.197-1.563zM22.05 63.566a.772.772 0 0 1-.778.772h-3.959a.777.777 0 0 1-.778-.772v-7.924c0-.427.345-.772.778-.772h3.96c.425 0 .777.345.777.772v7.924zm-7.999.007a.772.772 0 0 1-.778.771H9.313a.777.777 0 0 1-.778-.771v-7.938c0-.426.345-.772.778-.772h3.96c.425 0 .777.346.777.772v7.938zm8.547-59.627a4.799 4.799 0 0 1 3.397-1.449h.007c2.58 0 4.771 2.18 4.792 4.765.02 2.578-2.153 4.777-4.799 4.818-2.544 0-4.737-2.166-4.777-4.724-.027-1.279.467-2.483 1.38-3.41zm26.88 47.419h-.365a.916.916 0 0 0-.92.913v3.181c0 .129-.02.23-.055.386a.776.776 0 0 1-.764.629H35.401a.778.778 0 0 1-.778-.778V37.173c0-.236.108-.466.298-.609a.757.757 0 0 1 .473-.162c.061 0 .13.007.19.02l.318.082c.223.054.433.101.636.162.453.128.893.196 1.3.196 1.136 0 2.145-.487 3.092-1.495a1.993 1.993 0 0 1 1.367-.603c.508-.02 1.008-.034 1.516-.034.507 0 1.008.007 1.516.021 2.145.04 3.126.92 2.842 6.395-.034.67.562 1.218 1.232 1.218.683 0 1.231-.555 1.231-1.232v-3.735c0-2.436-1.779-4.568-4.134-4.967-.71-.122-1.455-.122-2.24-.129-.467 0-.934-.007-1.4-.034-.468-.027-1.07-.325-1.267-.825-.426-1.076-1.164-1.841-2.32-2.43a652.81 652.81 0 0 1-8.332-4.263 2.664 2.664 0 0 1-1.055-1.009c-1.144-2.01-2.267-4.026-3.398-6.043l-.757-1.36c-.082-.142-.156-.298-.23-.454l-.089-.176a.77.77 0 0 1 .643-1.116c2.227-.136 4.176-1.083 5.502-2.653a7.284 7.284 0 0 0 1.658-5.468C32.823 2.843 29.635 0 25.961 0c-.258 0-.515.014-.779.041-1.976.21-3.945 1.394-5.143 3.079-.859 1.205-1.746 3.248-1.103 6.111.095.42-.135.853-.555.961-.386.101-.778.196-1.17.291-.806.196-1.61.392-2.403.636C6.268 13.765.048 22.17.014 31.11c-.02 5.163-.013 10.334-.013 15.497l.007 6.653c0 .859.697 1.549 1.55 1.549h3.694c.427 0 .78.345.78.779l-.008 9.772c0 .825.67 1.495 1.496 1.495h15.443c.873 0 1.583-.71 1.583-1.583V34.081a.764.764 0 0 1 .995-.738l6.124 1.854a.774.774 0 0 1 .55.779l-.042.683c-.027.42-.047.805-.047 1.191v8.453c0 6.307 0 12.607-.02 18.908-.007.94.243 1.441.893 1.78h.724c.67-.346.92-.867.886-1.821a79.04 79.04 0 0 1-.027-3.776c.007-.535.007-1.076.007-1.618 0-.426.345-.785.778-.785h12.046c.427 0 .778.346.778.772 0 0 .007 1.563.014 2.03.013 1.103.027 2.247-.02 3.377-.04.948.21 1.469.886 1.814h.711c.731-.393.886-.812.886-1.313V52.894c-.013-1.252-.33-1.462-1.19-1.529z"/>
    </g>
</svg>
