<svg width="69" height="70" viewBox="0 0 69 70" fill="none" xmlns="http://www.w3.org/2000/svg">
<path d="M64.88 4.95H19.7701C18.5101 2.36 15.88 0.709999 12.98 0.709999C8.81005 0.709999 5.43005 4.1 5.43005 8.26C5.43005 12.42 8.82005 15.81 12.98 15.81C13.7 15.81 14.41 15.71 15.1 15.51V18.17H9.75005C4.67005 18.17 0.550049 22.3 0.550049 27.37V39.97C0.550049 41.98 2.19005 43.62 4.20005 43.62C4.61005 43.62 5.02005 43.55 5.40005 43.42V50.74H7.99005V39.86C7.99005 39.72 7.97005 39.58 7.92005 39.45V29.83C7.92005 29.11 7.34005 28.53 6.62005 28.53C5.90005 28.53 5.32005 29.11 5.32005 29.83V39.89C5.32005 40.52 4.81005 41.03 4.18005 41.03C3.60005 41.03 3.13005 40.56 3.13005 39.98V27.38C3.13005 23.74 6.09005 20.77 9.74005 20.77H16.78C16.9 20.77 17.0301 20.77 17.1501 20.78C20.6501 20.97 23.39 23.87 23.39 27.38V30.09C23.39 30.8 23.82 31.44 24.48 31.72C25.14 31.99 25.8901 31.84 26.4001 31.34L31.43 26.32C31.85 25.9 32.52 25.91 32.94 26.32C33.14 26.52 33.26 26.79 33.26 27.08C33.26 27.37 33.1501 27.64 32.9501 27.84L27.14 33.66C26.16 34.64 24.7201 34.96 23.4701 34.48C22.1601 33.98 21.28 32.7 21.28 31.3V29.91C21.28 29.54 21.12 29.19 20.89 28.98C20.64 28.7 20.29 28.54 19.92 28.54C19.21 28.54 18.62 29.12 18.62 29.84V65.38C18.62 66.36 17.83 67.15 16.85 67.15H14.57V43.56H11.98V67.15H9.81005C8.81005 67.15 8.00005 66.34 8.00005 65.34V56.62H5.41005V65.34C5.41005 67.77 7.39005 69.74 9.81005 69.74H16.8601C19.2701 69.74 21.2201 67.78 21.2201 65.37V39.83H64.88C66.67 39.83 68.13 38.37 68.13 36.58V8.19C68.13 6.4 66.67 4.94 64.88 4.94V4.95ZM16.81 11.41C16.41 11.9 15.92 12.3 15.36 12.61C14.63 13.01 13.81 13.22 12.98 13.22C10.25 13.22 8.02005 11 8.02005 8.26C8.02005 5.52 10.24 3.3 12.98 3.3C14.74 3.3 16.3801 4.25 17.2701 5.78C17.5201 6.21 17.7001 6.68 17.8101 7.16C17.8901 7.53 17.93 7.9 17.93 8.26C17.93 9.41 17.53 10.53 16.8 11.41H16.81ZM65.53 36.59C65.53 36.95 65.24 37.24 64.88 37.24H25.35C26.71 37.08 28 36.46 28.98 35.48L34.7901 29.66C35.4801 28.97 35.8601 28.04 35.8601 27.06C35.8601 26.08 35.4701 25.16 34.7701 24.47C33.3401 23.06 31.03 23.06 29.6 24.47L25.9901 28.07V27.37C25.9901 22.6 22.38 18.66 17.68 18.21V14.15C19.46 12.72 20.5201 10.53 20.5201 8.25C20.5201 8.01 20.5101 7.77 20.4901 7.54H64.87C65.23 7.54 65.52 7.83 65.52 8.19V36.58L65.53 36.59Z" fill="currentColor"/>
<path d="M55.77 13.72L57.95 14.78L54.81 21.23H48.01L45.09 27.56L41.6101 24.58L36.3801 30.59L38.25 32.46L41.7701 28.75L46.17 32.51L49.9701 24.29H56.7201L60.7 16.12L62.8701 17.18L62.31 9.3L55.77 13.72Z" fill="currentColor"/>
<path d="M6.66005 54.83C7.40563 54.83 8.01005 54.2256 8.01005 53.48C8.01005 52.7344 7.40563 52.13 6.66005 52.13C5.91446 52.13 5.31005 52.7344 5.31005 53.48C5.31005 54.2256 5.91446 54.83 6.66005 54.83Z" fill="currentColor"/>
<path d="M35.69 34.91C36.4356 34.91 37.0401 34.3056 37.0401 33.56C37.0401 32.8144 36.4356 32.21 35.69 32.21C34.9445 32.21 34.34 32.8144 34.34 33.56C34.34 34.3056 34.9445 34.91 35.69 34.91Z" fill="currentColor"/>
</svg>
