<?xml version="1.0" encoding="UTF-8"?>
<svg id="Layer_1" data-name="Layer 1" xmlns="http://www.w3.org/2000/svg" viewBox="0 0 94.48 94.45" fill="currentColor" fill-rule="evenodd">
  <path class="cls-1" d="M40.84,31.68c3.44,0,6.24-2.8,6.24-6.24s-2.8-6.24-6.24-6.24-6.24,2.8-6.24,6.24,2.8,6.24,6.24,6.24ZM40.84,29.4c-1.9,0-3.52-1.39-3.87-3.2,1.8.35,3.97.39,6.86-1.35.26-.15.52-.33.8-.52.11.36.17.74.17,1.12,0,2.18-1.77,3.95-3.95,3.95ZM40.84,21.5c.91,0,1.79.32,2.49.89-2.64,1.81-4.39,1.83-6.1,1.48.62-1.42,2.04-2.37,3.61-2.37Z"/>
  <path class="cls-1" d="M54.56,42.96c.66,0,1.19-.53,1.19-1.19s-.53-1.19-1.19-1.19-1.19.53-1.19,1.19.53,1.19,1.19,1.19Z"/>
  <path class="cls-1" d="M54.54,33.94c.66,0,1.19-.53,1.19-1.19s-.53-1.19-1.19-1.19-1.19.53-1.19,1.19.53,1.19,1.19,1.19Z"/>
  <path class="cls-1" d="M70.96,80.88l-.02-.19-.05-.05-13.53-35.17-.22-.41-.39-1.03c-.22-.57-.83-.9-1.39-.74-.31.09-.57.3-.71.58s-.16.62-.05.92l.37.96-12.4,4.1-2.23-5.54.69-1.49.06-.34-.03-.09c-.18-.56-.59-.91-1.11-.94-.48-.04-.91.23-1.11.66l-1.37,2.98-3.43-1.75,2.81-5.95c.38-.81,1.08-1.44,1.93-1.73l9.72-3.37c.06-.02.11-.05.17-.08.41-.11.73-.43.83-.86l.89-3.97,3.96.87-.3,1.42c-.12.57.24,1.12.8,1.24l.11.02c.3.06.6,0,.85-.16.25-.16.43-.42.49-.71l1.2-5.7c.62-1.75.38-3.71-.66-5.25l-6.53-9.64-.81-1.16-1.19-1.47c-.08-.13-.18-.23-.3-.32-1.37-.96-3.16-1-4.57-.09-1.31.85-2.03,2.4-1.82,4.01l.25.67.95,1.7.74,1.21,5.62,8.26-1.79,7.95-9.37,3.25c-1.42.49-2.6,1.55-3.25,2.91l-4.79,10.12c-.87,1.86-.7,4.07.45,5.77l1.36,1.98h0s3.42,5.01,3.42,5.01l-1.82,2.53-.11.11-4.1,20.3-.02.08v.08c.15,1.05,1.06,3.76,3.67,3.76,1.19,0,2.59-.58,4.09-1.68l.22-.11.05-.23c1.14-5.28,3.17-14.92,3.51-16.53l.02-.11,9.16-11.05,13.01,26.88c.06.1,1.52,2.63,4.95,2.39.91-.07,1.65-.43,2.19-1.07,1.12-1.34.95-3.46.92-3.77ZM68.66,81.31c.02.64-.09,1.46-.4,1.84-.06.07-.18.21-.58.25-1.71.14-2.62-1.01-2.72-1.17l-7.1-14.67,4.77-1.92,6.04,15.68ZM43.36,57.08l-1.74-2.68,1.67-2.33,12.51-4.14,5.88,15.28-4.97,2-5.95-12.3-.11-.25-.56-.1-6.38,7.69c.05-.14.09-.29.13-.44.23-.92.05-1.92-.48-2.74ZM40.27,52.29l-2.08-3.21.83-1.87,1.76,4.37-.51.71ZM35.72,49.01l-.05.17.03.25,1.95,3.02h0s3.8,5.87,3.8,5.87c.16.25.23.54.19.8-.1.66-.46,1.19-.98,1.46-.51.26-1.13.24-1.69-.06-.15-.08-.29-.21-.41-.38l-3.9-5.71h0s-2.33-3.41-2.33-3.41c-.7-1.04-.8-2.38-.28-3.51l.99-2.1,3.47,1.78-.81,1.82ZM36.63,61.32l.36.51.45.43c.45.35.98.59,1.54.69.35.06.63.09.91.09.69,0,1.34-.17,1.92-.49l-2.12,2.56-3.72-2.87.67-.93ZM38.37,67.38c-.44,2.08-2.2,10.44-3.3,15.56-1.19.77-1.91.89-2.23.89-.82,0-1.18-1.04-1.29-1.5l3.53-17.49,3.29,2.54ZM45.44,12.76h0s-1.57-2.8-1.57-2.8c-.02-.63.29-1.24.81-1.58.62-.4,1.41-.39,2.05.08.04.04.08.07.11.1l1.55,2.13c.03.06.06.11.09.16l6.47,9.57c.65.96.79,2.18.38,3.26l-.51,2.36-3.94-.87.69-3.07.02-.15-6.16-9.18ZM55.82,29.98h0s0,0,0,0h0ZM47.73,6.95h0,0s0,0,0,0Z"/>
  <path class="cls-1" d="M52.26,38.23v.15s-.01.07,0,.11l.36,1.15c.17.4.57.65.99.65.12,0,.25-.02.37-.07l.11-.04c.28-.1.51-.32.63-.59s.12-.59.02-.8l-.12-.4-.02-.17.34-2.37c.15-.72-.06-1.15-.58-1.25l-.3-.1c-.3-.07-.61,0-.86.16-.26.17-.43.42-.5.75l-.43,2.78"/>
</svg>