<svg width="65.965" height="66.933" viewBox="0 0 65.965 66.933" xmlns="http://www.w3.org/2000/svg">
    <g fill="currentColor" fill-rule="evenodd">
        <path d="M6.32 57.621h11.93v-4.28H6.32v4.28zm-.7 1.56h13.39c.5 0 .91-.52.91-1.17v-5.11c0-.65-.41-1.17-.91-1.17H5.62c-.5 0-.91.52-.91 1.17v5.11c0 .65.41 1.17.91 1.17zm19.06-1.56H36.6v-4.28H24.68v4.28zm-.7 1.56h13.39c.5 0 .92-.52.92-1.17v-5.11c0-.65-.42-1.17-.92-1.17H23.98c-.5 0-.91.52-.91 1.17v5.11c0 .65.41 1.17.91 1.17zm27.69-5.09a1.295 1.295 0 1 0-.01 2.591 1.295 1.295 0 0 0 .01-2.59zm1.52-15.54c-.71 0-1.29.58-1.29 1.3a1.295 1.295 0 1 0 2.59 0c0-.72-.58-1.3-1.3-1.3zm-7.35 25.78.25-2.6h9.19c.72 0 1.23-.49 1.23-1.21 0-.71-.51-1.17-1.23-1.17h-8.94l2.27-23.59h6.19c.71 0 1.23-.51 1.23-1.22 0-.72-.52-1.17-1.23-1.17h-5.93l.4-4.36h11.05l.79 9.57h-3.79c-.71 0-1.29.45-1.29 1.17 0 .71.56 1.2 1.28 1.2h4l1.11 13.24h-6.51c-.71 0-1.39.4-1.39 1.12 0 .71.65 1.23 1.36 1.23h6.73l.65 7.79H45.84zm-34.15-20.78v-12.98h34.82l-1.26 12.98H11.69zm31.54 20.79H2.6v-18.19H45l-1.77 18.19zM21.2 23.081h4.32l.35 4.88h-4.99l.32-4.88zm.41-5.01h3.51l.24 3.14h-3.97l.22-3.14zm.38-4.65h2.78l.2 2.75-3.18-.03.2-2.72zm12.38 9.78h4.06l.42 4.76h-4.99l.51-4.76zm.19-5.05h3.51l.28 3.06h-3.97l.18-3.06zm.41-4.73h2.78l.24 2.69-3.25.03.23-2.72zm15.32 5.19h9.03l.76 7.8H49.53l.76-7.8zm.5-5.19h8.03l.25 2.6h-8.53l.25-2.6zm12.01 14.17-1.51-15.6a1.31 1.31 0 0 0-1.3-1.17H49.6a1.3 1.3 0 0 0-1.29 1.17l-1.55 15.97h-5.3l-1.21-15.94a1.29 1.29 0 0 0-1.29-1.2h-5.2c-.68 0-1.24.53-1.29 1.2l-1.21 15.94h-2.79l-1.2-15.94c-.06-.68-.63-1.2-1.3-1.2h-5.19c-.68 0-1.24.53-1.29 1.2l-1.21 15.94h-7.89c-.71 0-1.3.59-1.3 1.3v14.29H1.3c-.72 0-1.3.59-1.3 1.3v20.78c0 .72.58 1.3 1.3 1.3h63.37c.36 0 .71-.15.96-.42.24-.27.36-.63.33-.98l-3.16-37.94zM6.32 57.621h11.93v-4.28H6.32v4.28zm12.69-5.89H5.62c-.5 0-.91.52-.91 1.17v5.11c0 .65.41 1.17.91 1.17h13.39c.5 0 .91-.52.91-1.17v-5.11c0-.65-.41-1.17-.91-1.17zm5.67 5.89H36.6v-4.28H24.68v4.28zm12.69-5.89H23.98c-.5 0-.91.52-.91 1.17v5.11c0 .65.41 1.17.91 1.17h13.39c.5 0 .92-.52.92-1.17v-5.11c0-.65-.42-1.17-.92-1.17zm-12.69 5.89H36.6v-4.28H24.68v4.28zm12.69-5.89H23.98c-.5 0-.91.52-.91 1.17v5.11c0 .65.41 1.17.91 1.17h13.39c.5 0 .92-.52.92-1.17v-5.11c0-.65-.42-1.17-.92-1.17zm-31.05 5.89h11.93v-4.28H6.32v4.28zm12.69-5.89H5.62c-.5 0-.91.52-.91 1.17v5.11c0 .65.41 1.17.91 1.17h13.39c.5 0 .91-.52.91-1.17v-5.11c0-.65-.41-1.17-.91-1.17zm32.66 2.36a1.295 1.295 0 1 0-.01 2.591 1.295 1.295 0 0 0 .01-2.59zm1.52-15.54c-.71 0-1.29.58-1.29 1.3a1.295 1.295 0 1 0 2.59 0c0-.72-.58-1.3-1.3-1.3zm0 0c-.71 0-1.29.58-1.29 1.3a1.295 1.295 0 1 0 2.59 0c0-.72-.58-1.3-1.3-1.3zm-1.52 15.54a1.295 1.295 0 1 0-.01 2.591 1.295 1.295 0 0 0 .01-2.59z"/>
        <path d="M16.63 39.501h8.38v-4.31h-8.38v4.31zm8.9-5.95-9.33.03c-.38 0-1.12.53-1.12 1.17v5.11c0 .65.46 1.18 1.15 1.21l9.04-.03c.8-.08 1.31-.53 1.31-1.17v-5.12c0-.88-.68-1.2-1.05-1.2zM53.092 3.094c-.243-.379.088-.79.196-.906l-.013.014C54.383.255 52.173-.53 51.422.383c-.662.676-1.622 2.407-.5 4.137.412.622.095 1.265.054 1.34l.014-.02c-.893 1.432 1.06 2.73 2.244 1.304.439-.764.899-2.468-.142-4.05M59.061 3.094c1.048 1.582.581 3.286.142 4.043-1.19 1.426-3.137.128-2.244-1.305l-.014.02c.041-.067.358-.71-.054-1.338-1.122-1.73-.162-3.462.5-4.138.751-.906 2.961-.128 1.853 1.82l.013-.015c-.108.122-.439.534-.196.913"/>
    </g>
</svg>
