<svg width="66.997" height="47.466" viewBox="0 0 66.997 47.466" xmlns="http://www.w3.org/2000/svg">
    <g fill="currentColor" fill-rule="evenodd">
        <path d="M59.208 40.171c-3.323 1.658-7.843 2.951-13.142 3.756-.007-5.252-3.255-9.759-7.85-11.626a7.372 7.372 0 0 0 2.68-5.692 7.312 7.312 0 0 0-.725-3.201 14.72 14.72 0 0 1 9.421-3.39c8.147 0 14.779 6.632 14.779 14.78 0 1.807-1.833 3.708-5.163 5.373zm-15.761 4.108a86.328 86.328 0 0 1-9.948.561c-3.411 0-6.754-.189-9.948-.561v-.325c0-5.488 4.466-9.948 9.948-9.948 5.488 0 9.948 4.466 9.948 9.948v.325zm-22.515-.352c-5.299-.805-9.826-2.098-13.149-3.756-3.316-1.658-5.143-3.56-5.164-5.36v-.013c0-8.148 6.632-14.78 14.78-14.78 3.465 0 6.774 1.198 9.42 3.39a7.425 7.425 0 0 0-.724 3.201 7.38 7.38 0 0 0 2.68 5.692c-4.588 1.867-7.837 6.374-7.843 11.626zM10.023 10.009a7.388 7.388 0 0 1 7.383-7.383 7.388 7.388 0 0 1 7.383 7.383 7.388 7.388 0 0 1-7.383 7.383c-4.067 0-7.383-3.309-7.383-7.383zm19.557 13.88a4.77 4.77 0 0 1 7.837 0c.562.798.853 1.739.853 2.72a4.774 4.774 0 0 1-4.771 4.771 4.773 4.773 0 0 1-3.919-7.491zm12.628-13.88a7.388 7.388 0 0 1 7.384-7.383 7.388 7.388 0 0 1 7.383 7.383 7.388 7.388 0 0 1-7.383 7.383 7.388 7.388 0 0 1-7.384-7.383zm12.96 8.31a10.015 10.015 0 0 0 4.426-8.303C59.594 4.5 55.1.007 49.585.007c-5.516 0-10.009 4.486-10.009 10.009 0 3.444 1.753 6.496 4.419 8.296a17.24 17.24 0 0 0-5.373 2.971 7.412 7.412 0 0 0-5.13-2.071 7.401 7.401 0 0 0-5.13 2.071 17.24 17.24 0 0 0-5.373-2.971c2.666-1.807 4.419-4.852 4.419-8.303C27.408 4.493 22.921 0 17.399 0 11.884 0 7.39 4.487 7.39 10.009c0 3.451 1.76 6.503 4.426 8.303C4.961 20.64.014 27.137 0 34.764v.034c0 2.016 1.144 4.994 6.605 7.721 3.891 1.943 9.238 3.404 15.464 4.223 3.647.481 7.498.724 11.43.724 3.932 0 7.782-.243 11.43-.724 6.226-.819 11.572-2.28 15.463-4.223 5.462-2.727 6.605-5.705 6.605-7.721 0-7.647-4.953-14.151-11.829-16.479z"/>
        <path d="M55.655 24.038c-1.692 0-1.692 2.626 0 2.626 1.692.007 1.692-2.626 0-2.626M57.753 26.887a1.314 1.314 0 0 0-.237 1.84 9.833 9.833 0 0 1 2.064 6.07c0 .725.589 1.314 1.313 1.314s1.313-.59 1.313-1.313c0-2.802-.907-5.454-2.612-7.674a1.314 1.314 0 0 0-1.841-.237"/>
    </g>
</svg>
