<svg width="66.914" height="56.694" viewBox="0 0 66.914 56.694" xmlns="http://www.w3.org/2000/svg">
    <g fill="currentColor" fill-rule="evenodd">
        <path d="M14.402 27.746a.48.48 0 0 0-.35-.45l-6.27-1.78.15-2.33 19.58-6.05c.2-.06.33-.24.34-.45l.36-14.48c0-.1-.02-.19-.07-.28a5.75 5.75 0 0 1-.35-.63c.24-.13.76-.3 1.15-.34.3-.03.88.26 1.09.44-.08.14-.24.36-.4.53-.08.1-.12.21-.12.33l.06 13.81c0 .16.09.32.23.41.14.08.32.09.47.01.65-.34 1.45-.72 1.86-.86l.17 20.36-17.85.77-.05-9.01zm37.17-6.2 1.83.4.01 12.6-1.85-.14.01-12.86zm15.33 18.5a.489.489 0 0 0-.58-.35c-1.9.44-3.11 3.03-3.49 3.98l-2.37-.14c-.58-1.02-3.06-4.71-8.6-4.71h-.19c-5.2.08-7.26 3.09-7.8 4.07l-1.48-.04c-.49-.9-2.35-3.68-6.73-3.84-3.23-.09-4.8 2.54-5.23 3.44l-1.1.06c-.29-.96-1.31-3.2-4.47-3.2h-.05c-2.43.02-3.59 1.77-3.96 2.97l-.73-.03c-.4-1.2-1.51-2.96-3.59-2.93-.93.02-1.61.46-2.07 1.04v-2.67l51.64-2.23c.26-.01.47-.23.45-.5a.46.46 0 0 0-.47-.45h-.02l-11.91.51c.03-.06.05-.14.05-.23l-.01-13.05c0-.29-.23-.53-.52-.55l-2.23-.5h-.09c-.32 0-.58.25-.58.55l-.01 13.39c0 .25.18.46.42.53l-17.92.78-.17-20.27c.01 0 .01.01.02.01l32.08 7.35c.25.06.5-.1.56-.36.07-.25-.1-.5-.35-.57l-32.04-7.34c-.04-.02-.45-.15-1-.15-.39 0-1.19.35-1.84.67l-.05-12.86c.24-.29.54-.73.54-1.09 0-.22-.11-.43-.34-.64-.41-.37-1.23-.75-1.82-.69-.39.05-1.58.3-1.94.8-.12.15-.16.33-.12.5.06.31.32.77.47 1.02l-.35 14-19.57 6.04c-.2.06-.33.23-.34.43l-.15 2.49-6.25-1.71a.469.469 0 0 0-.58.33c-.08.26.07.52.33.59l8.71 2.38c.02.01.06.01.08.01l4.31 1.23.05 9.27v5.05c-.04 0-.09.02-.12.02l-9.34 1.99c-.26.06-.42.31-.37.57.05.22.25.38.47.38.03 0 .07-.01.1-.02l9.99-1.96c.23-.05.31-.52.3-.82.14-.74.61-2.26 2.04-2.3h.06c2.02 0 2.66 2.45 2.69 2.56l.09.35 2.23.09.07-.4c.01-.11.51-2.58 3.12-2.6h.05c3.17 0 3.61 2.7 3.63 2.81l.06.44 2.54-.15.11-.29c0-.04 1.17-3.12 4.24-3.12h.18c4.51.17 5.97 3.41 6.03 3.54l.12.28 2.7.07.13-.29c.06-.15 1.64-3.71 7.08-3.79h.17c5.68 0 7.79 4.23 7.88 4.41l.12.25 3.63.23.11-.35c.32-.91 1.46-3.35 2.95-3.7.26-.06.4-.34.34-.59z"/>
        <path d="M25.402 19.006c.31 0 .57.26.57.57l.01 14.51c0 .32-.25.57-.55.58l-2.12.16c-.36 0-.61-.26-.61-.57l.1-14.13c0-.29.22-.52.51-.56zm-.23.87-1.58.43-.09 13.71 1.69-.14-.02-14zM21.402 20.176c.3 0 .56.25.56.56l.01 13.63c0 .31-.23.55-.53.56l-1.94.16c-.34-.02-.59-.27-.59-.57l.08-13.32c0-.29.21-.53.49-.56zm-.24.86-1.38.34-.08 12.88 1.48-.12-.02-13.1zM29.742 17.986c.32 0 .58.26.58.58l.02 15.1c0 .31-.25.57-.56.57l-2.32.2c-.35 0-.61-.26-.61-.58l.01-14.73c0-.29.23-.54.52-.57zm-.21.86-1.87.46-.01 14.32 1.9-.16-.02-14.62zM15.972 34.646l.07-12.35 1.27-.32.01 12.56-1.35.11zm2.14-12.98c0-.31-.25-.56-.55-.56l-1.83.45c-.27.03-.48.26-.48.55l-.08 12.8c0 .31.25.55.59.56l1.83-.15c.29-.02.53-.26.53-.56l-.01-13.09zM46.532 34.036l.02-13.5 2.01.43.01 13.22-2.04-.15zm2.82-13.26c0-.29-.24-.54-.54-.56l-2.38-.52-.08-.01c-.33 0-.59.25-.59.57l-.02 14c0 .3.25.55.57.56l2.46.18c.33 0 .59-.25.59-.56l-.01-13.66zM41.332 33.566l.01-14.04 2.23.46.02 13.75-2.26-.17zm3.04-13.77c0-.3-.24-.54-.55-.57l-2.59-.54h-.08c-.33 0-.6.25-.6.57l-.01 14.52c0 .31.26.56.59.57l2.66.19c.33 0 .6-.25.6-.57l-.02-14.17zM35.952 33.246l.01-14.81 2.23.48.02 14.49-2.26-.16zm3.03-14.51c0-.3-.23-.55-.55-.58l-2.58-.56-.09-.01c-.33 0-.6.27-.6.58l-.02 15.28c0 .32.27.58.59.58l2.67.2c.33 0 .6-.26.6-.58l-.02-14.91zM26.81 52.472c.852 0 1.622-.297 2.069-.798a.473.473 0 0 0-.041-.669.478.478 0 0 0-.67.041c-.263.297-.783.48-1.358.48-.581 0-1.102-.183-1.366-.48l-.351-.399-.352.4c-.263.296-.784.48-1.36.48-.58 0-1.1-.184-1.364-.48l-.352-.4-.351.4c-.264.296-.784.48-1.36.48-.574 0-1.101-.184-1.358-.48a.478.478 0 0 0-.67-.042.478.478 0 0 0-.04.67c.44.5 1.217.797 2.069.797.656 0 1.264-.176 1.71-.487.446.311 1.062.487 1.717.487.656 0 1.265-.176 1.71-.487.447.311 1.055.487 1.718.487M49.045 52.79c.987 0 1.879-.345 2.386-.913a.426.426 0 0 0-.635-.568c-.345.386-1.014.622-1.751.622-.737 0-1.406-.236-1.751-.628l-.318-.359-.317.36c-.345.384-1.008.621-1.745.621-.737 0-1.406-.237-1.751-.629l-.317-.358-.325.378c-.345.386-1.014.622-1.751.622-.737 0-1.406-.236-1.751-.629a.42.42 0 0 0-.601-.033.426.426 0 0 0-.034.601c.507.568 1.399.913 2.386.913.805 0 1.548-.23 2.069-.622.52.392 1.264.622 2.069.622.804 0 1.548-.23 2.062-.622.527.392 1.264.622 2.075.622M30.697 56.698c-1.095 0-2.075-.38-2.63-1.001a.426.426 0 0 1 .636-.567c.392.439 1.156.716 1.994.716.838 0 1.602-.277 1.994-.716l.318-.365.318.358c.392.439 1.149.716 1.987.716.839 0 1.603-.277 1.995-.716l.324-.358.318.358c.392.439 1.156.716 1.994.716.839 0 1.603-.277 1.995-.716a.42.42 0 0 1 .6-.034.421.421 0 0 1 .035.602c-.554.628-1.541 1-2.63 1-.906 0-1.737-.257-2.312-.703-.574.446-1.406.703-2.312.703-.906 0-1.737-.257-2.312-.703-.575.446-1.406.71-2.312.71"/>
    </g>
</svg>
