<svg width="47.581" height="66.935" viewBox="0 0 47.581 66.935" xmlns="http://www.w3.org/2000/svg">
    <path d="M28.304 53.4h-8.02v-1.45h1.55c.5 0 .92-.41.92-.92v-9.14c0-.32-.17-.61-.43-.78a.91.91 0 0 0-.89-.05l-1.59.75-.43-1.05c1.07-.52 2.12-1.12 3.56-2.75h3.04v13.03c0 .51.41.92.92.92h1.37v1.44zm.91-3.28h-1.37V37.09c0-.51-.41-.92-.92-.92h-4.38c-.27 0-.53.12-.71.33-1.49 1.78-2.42 2.22-3.6 2.79l-.41.2c-.44.21-.64.73-.45 1.18l1.14 2.74c.1.23.28.42.52.51.23.08.49.08.72-.03l1.15-.54v6.77h-1.54c-.51 0-.92.41-.92.92v3.28c0 .51.41.92.92.92h9.86c.51 0 .92-.41.91-.92v-3.28c0-.51-.41-.92-.92-.92zm-.91 3.28h-8.02v-1.45h1.55c.5 0 .92-.41.92-.92v-9.14c0-.32-.17-.61-.43-.78a.91.91 0 0 0-.89-.05l-1.59.75-.43-1.05c1.07-.52 2.12-1.12 3.56-2.75h3.04v13.03c0 .51.41.92.92.92h1.37v1.44zm.91-3.28h-1.37V37.09c0-.51-.41-.92-.92-.92h-4.38c-.27 0-.53.12-.71.33-1.49 1.78-2.42 2.22-3.6 2.79l-.41.2c-.44.21-.64.73-.45 1.18l1.14 2.74c.1.23.28.42.52.51.23.08.49.08.72-.03l1.15-.54v6.77h-1.54c-.51 0-.92.41-.92.92v3.28c0 .51.41.92.92.92h9.86c.51 0 .92-.41.91-.92v-3.28c0-.51-.41-.92-.92-.92zm-.91 3.28h-8.02v-1.45h1.55c.5 0 .92-.41.92-.92v-9.14c0-.32-.17-.61-.43-.78a.91.91 0 0 0-.89-.05l-1.59.75-.43-1.05c1.07-.52 2.12-1.12 3.56-2.75h3.04v13.03c0 .51.41.92.92.92h1.37v1.44zm.91-3.28h-1.37V37.09c0-.51-.41-.92-.92-.92h-4.38c-.27 0-.53.12-.71.33-1.49 1.78-2.42 2.22-3.6 2.79l-.41.2c-.44.21-.64.73-.45 1.18l1.14 2.74c.1.23.28.42.52.51.23.08.49.08.72-.03l1.15-.54v6.77h-1.54c-.51 0-.92.41-.92.92v3.28c0 .51.41.92.92.92h9.86c.51 0 .92-.41.91-.92v-3.28c0-.51-.41-.92-.92-.92zm-2.46 9.15c-3.62.83-7.34.2-10.49-1.77a13.772 13.772 0 0 1-6.17-8.66c-.83-3.62-.2-7.35 1.76-10.49 1.97-3.14 5.05-5.33 8.67-6.16a13.9 13.9 0 0 1 3.12-.36c6.33 0 12.06 4.36 13.54 10.78 1.72 7.47-2.96 14.94-10.43 16.66zm-6.69-29.09c-4.15.96-7.68 3.47-9.94 7.08a15.828 15.828 0 0 0-2.02 12.04c.95 4.15 3.46 7.68 7.07 9.94 2.57 1.61 5.48 2.43 8.43 2.43 1.2 0 2.41-.13 3.61-.41 8.56-1.96 13.93-10.54 11.96-19.11-1.96-8.56-10.54-13.93-19.11-11.97zm12.95-3.9c-.09.15-.14.3-.16.46-.73-.08-1.49 0-2.2.24a5.14 5.14 0 0 0-3.59-2.44c-.18-.03-.35-.05-.52-.05l12.38-21.46 5.63 3.26-11.54 19.99zm2.38 5.7a1.02 1.02 0 0 0 1.13 1.04c1.11-.13 2.21.36 2.86 1.27.68.94.78 2.17.26 3.22-.14.27-.14.6-.01.88.12.29.37.49.68.57 1.14.28 2.01 1.18 2.28 2.32a3.12 3.12 0 0 1-.91 2.97.96.96 0 0 0-.32.78c.01.3.15.58.38.76.87.7 1.3 1.82 1.12 2.92a3.094 3.094 0 0 1-2.08 2.46c-.3.09-.53.32-.64.61-.11.29-.08.62.08.88.61 1.01.6 2.26-.03 3.25-.58.94-1.62 1.51-2.73 1.46-.29-.04-.59.11-.79.32-.2.22-.3.52-.26.81a3.113 3.113 0 0 1-4.49 3.12c-.28-.14-.6-.14-.89-.01-.28.13-.48.38-.56.68a3.112 3.112 0 0 1-2.32 2.28c-1.07.24-2.21-.1-2.97-.91a.988.988 0 0 0-.79-.33c-.29.01-.57.15-.75.38a3.16 3.16 0 0 1-2.92 1.13 3.106 3.106 0 0 1-2.46-2.09c-.1-.29-.32-.53-.61-.64-.12-.04-.24-.06-.36-.06-.18 0-.37.05-.53.15-1.01.61-2.26.6-3.25-.03a3.1 3.1 0 0 1-1.45-2.73c0-.3-.11-.58-.33-.79a.98.98 0 0 0-.8-.26c-1.12.12-2.21-.37-2.87-1.27-.67-.94-.78-2.17-.26-3.22.15-.28.15-.6.02-.89-.13-.28-.38-.48-.68-.56-1.15-.29-2.03-1.18-2.28-2.32-.25-1.07.1-2.21.9-2.97.22-.2.33-.49.33-.78-.02-.3-.15-.58-.38-.76-.87-.7-1.31-1.83-1.13-2.92.18-1.14.99-2.08 2.09-2.46.3-.09.53-.32.63-.61.11-.29.09-.62-.08-.88-.61-1.01-.59-2.26.03-3.25a3.15 3.15 0 0 1 2.74-1.46c.26.02.58-.1.78-.32.21-.22.3-.51.27-.8a3.1 3.1 0 0 1 1.27-2.87c.94-.68 2.17-.78 3.21-.26.28.14.61.14.89.02.28-.13.49-.38.57-.69a3.082 3.082 0 0 1 2.32-2.28c1.07-.24 2.21.11 2.97.92.2.21.49.34.78.32.3-.01.57-.15.76-.38a3.11 3.11 0 0 1 2.92-1.13c1.15.19 2.09.99 2.46 2.09a1.02 1.02 0 0 0 1.5.56c1.01-.61 2.26-.6 3.25.02.93.59 1.49 1.64 1.45 2.74zM3.024 6.29l5.64-3.26 12.61 21.85c-.79-.2-1.62-.23-2.44-.04a5.151 5.151 0 0 0-3.45 2.72c-.17-.04-.33-.07-.49-.09.05-.29.01-.6-.14-.87L3.024 6.29zm28.68 4.13-7.74 13.4c-.07.12-.11.24-.14.36l-7.94-13.76h15.82zm4.53-7.86-3.06 5.3h-18.77l-3.06-5.3h24.89zm11.18 3.9c.17-.3.21-.65.13-.98-.09-.32-.31-.61-.6-.78L39.094.17c-.03-.01-.05-.02-.08-.03-.03-.02-.07-.03-.11-.05-.04-.02-.09-.03-.13-.04a1.64 1.64 0 0 1-.11-.03c-.05-.01-.1-.01-.15-.01-.03 0-.05-.01-.07-.01H9.124c-.02 0-.04.01-.06.01-.05 0-.11 0-.15.01-.04.01-.08.01-.12.03-.04.01-.08.02-.12.04-.04.01-.08.03-.12.05l-.06.03-7.85 4.54c-.61.35-.83 1.14-.47 1.75l12.26 21.24c-.46.16-.91.38-1.32.68a5.204 5.204 0 0 0-2.12 3.69c-1.42.25-2.7 1.1-3.48 2.34-.83 1.32-1 2.92-.52 4.37a5.14 5.14 0 0 0-1.32 7.7 5.114 5.114 0 0 0-.81 4.11 5.128 5.128 0 0 0 2.71 3.46 5.12 5.12 0 0 0 .83 4.26 5.14 5.14 0 0 0 3.69 2.11 5.152 5.152 0 0 0 6.71 4.01 5.14 5.14 0 0 0 3.59 2.44c.27.04.55.06.82.06 1.2 0 2.36-.41 3.29-1.17 1.18.83 2.68 1.13 4.11.81a5.114 5.114 0 0 0 3.46-2.72c1.46.37 3.01.08 4.26-.82a5.17 5.17 0 0 0 2.12-3.69 5.14 5.14 0 0 0 3.48-2.34c.83-1.32 1.01-2.92.52-4.36a5.16 5.16 0 0 0 2.44-3.6c.24-1.47-.18-2.97-1.11-4.1.83-1.19 1.14-2.69.81-4.12a5.114 5.114 0 0 0-2.72-3.46c.37-1.46.08-3.01-.82-4.26a5.21 5.21 0 0 0-3.7-2.12 5.108 5.108 0 0 0-2.17-3.36c.01-.02.03-.04.04-.06l12.19-21.1zM28.304 53.4h-8.02v-1.45h1.55c.5 0 .92-.41.92-.92v-9.14c0-.32-.17-.61-.43-.78a.91.91 0 0 0-.89-.05l-1.59.75-.43-1.05c1.07-.52 2.12-1.12 3.56-2.75h3.04v13.03c0 .51.41.92.92.92h1.37v1.44zm.91-3.28h-1.37V37.09c0-.51-.41-.92-.92-.92h-4.38c-.27 0-.53.12-.71.33-1.49 1.78-2.42 2.22-3.6 2.79l-.41.2c-.44.21-.64.73-.45 1.18l1.14 2.74c.1.23.28.42.52.51.23.08.49.08.72-.03l1.15-.54v6.77h-1.54c-.51 0-.92.41-.92.92v3.28c0 .51.41.92.92.92h9.86c.51 0 .92-.41.91-.92v-3.28c0-.51-.41-.92-.92-.92zm-.91 3.28h-8.02v-1.45h1.55c.5 0 .92-.41.92-.92v-9.14c0-.32-.17-.61-.43-.78a.91.91 0 0 0-.89-.05l-1.59.75-.43-1.05c1.07-.52 2.12-1.12 3.56-2.75h3.04v13.03c0 .51.41.92.92.92h1.37v1.44zm.91-3.28h-1.37V37.09c0-.51-.41-.92-.92-.92h-4.38c-.27 0-.53.12-.71.33-1.49 1.78-2.42 2.22-3.6 2.79l-.41.2c-.44.21-.64.73-.45 1.18l1.14 2.74c.1.23.28.42.52.51.23.08.49.08.72-.03l1.15-.54v6.77h-1.54c-.51 0-.92.41-.92.92v3.28c0 .51.41.92.92.92h9.86c.51 0 .92-.41.91-.92v-3.28c0-.51-.41-.92-.92-.92z" fill="currentColor" fill-rule="evenodd"/>
</svg>
