<svg width="55" height="66" viewBox="0 0 55 66" xmlns="http://www.w3.org/2000/svg">
    <path d="M48.063 44.086a1.548 1.548 0 0 1 0 3.093 1.548 1.548 0 0 1 0-3.093m3.113 19.367c-1.853-.58-3.027-.926-3.753-.86-.567.054-1.367.36-2.614.847-.28.113-.633.253-.98.38.474-.673 1.114-1.467 1.58-1.92.7-.687 1.447-1.527 1.434-2.78-.007-.52-.347-1.007-1.02-1.98-1.114-1.607-2.974-4.294-2.98-7.094-.007-5.18 3.986-9.54 5.133-9.98.96.386 5.12 4.533 5.127 9.967.007 2.713-1.927 5.127-3.2 6.727-.78.973-1.207 1.513-1.227 2.1l-.007.133c-.046 1.167.114 1.82 1.787 3.134.513.406 1.107 1.026 1.574 1.58-.3-.08-.594-.174-.854-.254M22.715 41.6a3.144 3.144 0 0 1 .54 4.42 3.144 3.144 0 0 1-4.42.54 3.149 3.149 0 0 1 3.88-4.96m28.848 19.12c-1.134-.886-1.127-1.02-1.1-1.646v-.053c.106-.214.513-.714.84-1.127 1.347-1.687 3.6-4.507 3.593-7.847-.006-4.433-2.466-8.38-4.573-10.414-.66-.633-1.247-1.046-1.754-1.24L48.51.771s-.053-.72-.526-.767c-.474-.047-.847.333-.847.333L16.408 39.952l-.213-.166a.89.89 0 0 0-1.247.153L.188 58.799a.89.89 0 0 0 .153 1.247L2.1 61.42a.89.89 0 0 0 1.247-.154l12.333-15.76a5.275 5.275 0 0 0 1.827 2.74 5.292 5.292 0 0 0 7.427-.907 5.292 5.292 0 0 0-.907-7.427A5.295 5.295 0 0 0 19.295 39l2.18-2.787 1.2.94.727-.927-1.2-.94 4.933-6.3 1.2.94.727-.927-1.207-.94 4.934-6.3 1.206.94.727-.926-1.2-.94 4.934-6.3 1.2.94.726-.927-1.206-.94 4.347-5.627.8.693.813-.813-.873-.814 3.026-4.44-.2 35.915c-2.22 1.153-6.067 6.007-6.06 11.534.007 3.36 2.067 6.333 3.3 8.113.267.387.6.867.7 1.067-.02.353-.193.693-.893 1.387-.027.026-2.92 3.007-2.727 4.46.04.32.227.6.507.76.186.113.393.16.64.16.62 0 1.487-.327 2.907-.887.786-.313 1.773-.7 2.126-.733.414-.04 2.06.473 3.047.787 2.307.72 2.994.913 3.554.5.266-.2.42-.507.426-.854.027-1.26-2.4-3.58-3.053-4.093" fill="currentColor" fill-rule="evenodd"/>
</svg>
