<svg width="66.93" height="51.521" viewBox="0 0 66.93 51.521" xmlns="http://www.w3.org/2000/svg">
    <g fill="currentColor" fill-rule="evenodd">
        <path d="M18.515 28.398c.216.216.345.521.345.832a1.2 1.2 0 0 1-.345.831 1.19 1.19 0 0 1-.832.345 1.2 1.2 0 0 1-.83-.345 1.188 1.188 0 0 1-.346-.831c0-.311.13-.609.345-.832a1.173 1.173 0 0 1 1.663 0"/>
        <path d="m58.3 29.42-12.74 6.1c-.35.17-1.1.44-1.48.46-1.34.06-2-1.08-2-1.08-.3-.61-.44-.94-.2-1.59.24-.64 1.02-1.27 1.64-1.57l12.46-5.95c.35-.16 1.03-.43 1.41-.47.65-.07 1.72-.21 2.43 1.49.39.94-.89 2.32-1.52 2.61zM35.33 14.44l12.72-6.12 7.31 15.22-12.88 6.16-7.15-15.26zm-2.31-1.65c-1.44.35-2.18-1.14-2.18-1.14-.3-.63-.28-1.36-.05-2.03.24-.66.94-.83 1.56-1.13l12.8-5.97c.35-.17.95-.42 1.33-.42 1.01 0 1.74.98 1.74.98.65 1.43.22 2.62-1.08 3.25l-12.65 6.05c-.34.18-1.1.32-1.47.41zm28.46 12.93-.04-.09a4.085 4.085 0 0 0-3.68-2.32c-.14 0-.28 0-.41.02L49.61 7.04a4.072 4.072 0 0 0 .81-4.62l-.05-.1A4.102 4.102 0 0 0 46.69 0c-.6 0-1.18.13-1.73.4L30.87 7.09a4.09 4.09 0 0 0-2.08 2.3c-.36 1.03-.31 2.13.16 3.11l.04.09a4.085 4.085 0 0 0 4.09 2.3l2.57 5.42-14.92 6.38s-.57.67-.21 1.45c.37.79 1.22.63 1.22.63l14.77-6.42.75 1.57L6.22 39.89c-1.44.68-2.83.93-3.52-.51-.63-1.29-.03-2.36 1.41-3.05l10.26-4.43s.64-.62.31-1.41c-.33-.79-1.29-.86-1.29-.86L2.11 34.6c0 .01-.02.01-.02.02-2.25 1.07-2.57 3.85-1.5 6.1.77 1.62 2.07 2.35 3.76 2.35.6 0 1.6-.36 2.23-.64l.01-.01 31.6-16.39 2.47 5.25c-.42.42-.6.84-.8 1.42-.37 1.03-.31 2.12.15 3.1l.05.1c.67 1.4 2.11 2.31 3.68 2.31.6 0 1.19-.12 1.73-.39l14.09-6.69c.97-.47 1.72-1.29 2.08-2.31.37-1.02.31-2.12-.16-3.1zM34.75 49.22c.13-.61.95-1.96 2.42-1.96h23.27c1.58 0 2.66.47 2.98 1.96H34.75zm31.11.16-.12-.13c-.33-2.23-2.25-3.94-4.55-3.94H36.8c-2.3 0-4.22 1.71-4.55 3.94l-.08.15c-1.75.07-1.55 2.13-.08 2.13h33.79c1.35-.07 1.45-2.02-.02-2.15z"/>
    </g>
</svg>
