<?xml version="1.0" encoding="UTF-8"?>
<svg id="Layer_1" data-name="Layer 1" xmlns="http://www.w3.org/2000/svg" viewBox="0 0 94.48 94.45" fill="currentColor" fill-rule="evenodd">
  <path class="cls-1" d="M45.78,26.55c3.78,0,6.85-3.08,6.85-6.87s-3.07-6.87-6.85-6.87-6.85,3.08-6.85,6.87,3.07,6.87,6.85,6.87ZM41.54,19.68c0-2.35,1.9-4.26,4.24-4.26s4.24,1.91,4.24,4.26-1.9,4.26-4.24,4.26-4.24-1.91-4.24-4.26Z"/>
  <path class="cls-1" d="M19.7,45.68c1.38,1.03,3,1.58,4.68,1.58.38,0,.77-.03,1.15-.09,4.39-.66,7.45-4.94,6.84-9.54-.31-2.31-1.48-4.34-3.29-5.7-1.69-1.27-3.76-1.81-5.83-1.5-4.39.66-7.45,4.94-6.84,9.54.31,2.31,1.48,4.34,3.29,5.7ZM27.51,34.02c1.25.94,2.05,2.34,2.27,3.96.43,3.2-1.65,6.17-4.64,6.62-1.37.2-2.74-.15-3.87-1-1.25-.94-2.05-2.34-2.27-3.96-.43-3.2,1.65-6.17,4.64-6.62.25-.04.51-.06.76-.06,1.11,0,2.19.36,3.11,1.06Z"/>
  <path class="cls-1" d="M59.79,44.11c-1.13,4.61,1.7,9.28,6.31,10.42.67.17,1.36.25,2.05.25,3.98,0,7.42-2.7,8.36-6.56,1.13-4.61-1.7-9.28-6.31-10.42-2.23-.55-4.54-.19-6.51,1-1.97,1.19-3.36,3.08-3.9,5.31ZM62.33,44.74c.67-2.74,3.13-4.57,5.83-4.57.47,0,.95.06,1.43.17,3.21.79,5.19,4.04,4.4,7.26-.79,3.21-4.04,5.19-7.26,4.4-3.21-.79-5.19-4.04-4.4-7.26Z"/>
  <path class="cls-1" d="M49.37,61.98c-.3-.58-.19-1.4.33-2.46.82-1.64,1.22-3.29,1.39-5.67.03-.38-.11-.76-.37-1.04-.26-.28-.63-.44-1.01-.44-.73,0-1.35.57-1.4,1.3-.14,2.04-.44,3.29-1.1,4.61-.95,1.91-1.05,3.59-.3,5.01,1.26,2.35,4.4,2.78,4.62,2.8h.05s1.58-.12,1.58-.12l-3.39,15.32c-.08.35-.01.72.18,1.03s.5.52.92.61c.1.02.2.03.29.03.25,0,.5-.07.72-.21.3-.19.51-.49.59-.84l4.2-19-5.01.39c-.74-.13-1.92-.59-2.32-1.33Z"/>
  <path class="cls-1" d="M88.76,47.56h0c-1.68-1.18-4.11-.25-4.6-.04l-.12.06c-.41.23-9.67,5.61-11.4,12.02-6.09-4.27-12.4-4.29-15.39-3.97.28-4.25.47-13.21-2.29-17.64-.11-.18-.23-.36-.34-.52,0-.01.02-.03.03-.04l13.36-16.85c.75-.96,1.2-2.1,1.26-3.23.07-1.35-.43-2.54-1.4-3.36-.98-.82-2.22-1.2-3.48-1.07-1.27.13-2.41.75-3.2,1.76l-10.25,13.15c-.05.02-.14.04-.27.07-.24.04-.59-.03-.94-.1-3.37-.68-5.87-.47-8.59.05-.27.05-.35.06-.44.03-.27-.12-.52-.32-.75-.58l-10.78-12.71c-.77-.97-1.88-1.59-3.11-1.74-1.23-.15-2.46.2-3.45.97-1,.79-1.55,1.96-1.54,3.29,0,1.15.43,2.31,1.21,3.3l14.09,17.35c.24.28.37.65.37,1.01l-.13,9.65c-1.29-.36-2.67-.45-4.1-.25l-8.66,1.17c-5.28.72-7.4,4.34-8.9,8.11l-4.36,8.47c-.46,1.08-.71,2.75-.02,4.19.48,1.02,1.34,1.73,2.48,2.05.38.11.76.16,1.14.16,1.56,0,2.83-.89,3.95-1.67l2.44-1.71,1.69,12.65c.09.7.71,1.23,1.47,1.12.64-.09,1.13-.64,1.13-1.31l-1.77-13.34-.09-.88,1.2-.94c.49-.34.9-.77,1.23-1.27.46.79,1.11,1.43,1.91,1.86l11.26,6,1.13,8.73c.08.58.51,1.04,1.05,1.14.42.08.84-.05,1.15-.34.3-.29.45-.7.39-1.11l-.91-7.02c1.53.46,3.28.07,4.5-1.05,1.43-1.32,1.97-3.4,1.37-5.3l-3.95-12.48c-.73-2.47-2.14-4.46-4.07-5.76l-.08-.05.15-10.81c0-.99-.34-1.95-.97-2.7l-14.07-17.32c-.4-.51-.63-1.12-.63-1.68,0-.77.41-1.3,1.23-1.56.21-.07.41-.1.61-.1.64,0,1.22.29,1.64.82l10.8,12.74c.49.58,1.06,1.01,1.69,1.29.77.34,1.35.27,1.99.15,2.93-.56,4.99-.58,7.58-.05.5.1,1.19.24,1.92.11.83-.15,1.41-.45,1.78-.92l10.34-13.26c.35-.44.85-.72,1.41-.78.55-.05,1.11.11,1.54.47.79.66.5,2.06-.22,2.97l-13.17,16.61c-.64-.4-1.3-.55-1.96-.45-2.04.33-2.8,2.93-2.99,3.72l-.06.26.17,1.33c.21,1.66.44,3.38.51,5.74.02.71.6,1.27,1.32,1.27.4,0,.77-.16,1.05-.45.28-.29.42-.67.41-1.06-.1-2.88-.39-4.88-.56-6.07-.03-.23-.06-.43-.08-.59.2-.71.51-1.22.67-1.38.09.05.29.18.58.52.24.28.49.63.75,1.05.29.46.55,1.02.78,1.67,1.98,5.6.97,15.91.96,16.01-.05.45.13.89.47,1.19.34.29.8.41,1.24.3.09-.02,9.17-2.06,16.82,4.69.43.38,1.04.46,1.56.19s.8-.81.74-1.39c-.64-5.63,9.76-11.83,10.14-12.06.72-.28,1.62-.39,1.87-.21.03.02.15.22.12.75-.05.94-1.51,2.29-3.06,3.73-2.8,2.59-6.28,5.82-7.03,10.97-.22,1.49-.65,2.44-1.18,2.61-1.01.32-3.11-1.35-4.01-2.31l-1.84-1.99-3.89,19.17c-.13.66.29,1.31.96,1.44l.19.04c.09.02.18.03.27.03.63,0,1.2-.45,1.33-1.09l2.85-14.03c1.41,1.03,3.24,1.93,4.96,1.4,1.66-.51,2.71-2.15,3.1-4.86.61-4.18,3.69-7.04,6.18-9.34,2.05-1.9,3.82-3.55,3.93-5.61.1-1.8-.65-2.72-1.29-3.17ZM27.4,61.81c.04-.19.1-.36.18-.52.27-.58.73-1,1.3-1.18.2-.07.41-.1.62-.1.33,0,.64.08.93.23l4.25,2.28,6.43,3.36c.18.1.39.15.6.15.61,0,1.14-.42,1.28-1.03.13-.57-.16-1.17-.7-1.45l-4.37-2.26-1.22-3.65c-.08-.26-.24-.48-.45-.64-.34-.26-.78-.33-1.19-.2-.22.07-.42.2-.57.38-.31.34-.41.83-.26,1.31l.32,1.01-2.89-1.55c-.42-.22-.88-.38-1.35-.47-.75-.14-1.54-.08-2.27.16l-.21.08c-.62.24-1.17.6-1.64,1.07-.23.23-.44.48-.62.75-.03-.04-.05-.09-.08-.13-.09-.14-.18-.27-.28-.4-.3-.39-.68-.75-1.12-1.06-.33-.23-.72-.42-1.16-.57-.2-.07-.4-.12-.59-.16-.29-.06-1.8-.33-3.43.63-.74.43-1.11.81-1.33,1.03l-.11.11c-.26.24-.41.56-.42.91-.01.35.11.68.34.94.49.53,1.31.57,1.84.08.14-.13.34-.31.58-.52.16-.13.31-.23.42-.29.07-.04.14-.08.21-.11.73-.35,1.31-.23,1.39-.21.19.04.38.1.56.19.35.18.66.46.87.81.17.27.28.57.34.88.17.96-.21,1.92-1.02,2.49l-1.47,1.16-4.52,3.19c-1.38.97-2.07,1.37-2.87,1.14-.41-.12-.68-.33-.84-.67-.29-.6-.17-1.46.04-1.98l4.33-8.42.04-.09c1.29-3.26,2.7-6,6.86-6.57l8.65-1.17c1.44-.19,2.79-.01,4.01.54.26.12.51.25.74.4.26.16.51.34.74.53,1.15.95,2.01,2.31,2.5,3.95l3.95,12.5c.3.93.04,1.95-.65,2.58-.64.59-1.58.72-2.34.32l-13.24-7.05c-.92-.49-1.4-1.62-1.16-2.7Z"/>
  <path class="cls-1" d="M49.84,51.36c.8,0,1.45-.65,1.45-1.45s-.65-1.45-1.45-1.45-1.45.65-1.45,1.45.65,1.45,1.45,1.45Z"/>
</svg>