<svg width="66.921" height="48.265" viewBox="0 0 66.921 48.265" xmlns="http://www.w3.org/2000/svg">
    <g fill="currentColor" fill-rule="evenodd">
        <path d="M28.778 15.056a1.243 1.243 0 0 1-1.24 1.24 1.243 1.243 0 0 1-1.23-1.24c0-.33.13-.64.36-.87.23-.24.55-.37.87-.37.33 0 .65.14.88.37.23.23.36.54.36.87M58.348 23.716a1.243 1.243 0 0 1-1.24 1.24c-.33 0-.64-.13-.87-.36-.23-.23-.37-.55-.37-.88 0-.32.14-.64.37-.87.23-.23.54-.36.87-.36a1.243 1.243 0 0 1 1.24 1.23M47.198 9.356c0 .32-.13.64-.37.87-.23.23-.55.37-.87.37-.32 0-.64-.14-.87-.37-.23-.23-.37-.55-.37-.87 0-.33.14-.64.37-.87.23-.23.55-.37.87-.37.32 0 .64.13.87.37.23.23.37.54.37.87"/>
        <path d="M62.408 26.206c-6.49 1.96-10 3.01-15.04-2.86 1.71-.44 3.69-.54 5.94-.07.59.12 1.17-.26 1.29-.85a1.1 1.1 0 0 0-.84-1.29c-1.81-.38-3.46-.44-4.97-.27 1.33-.84 3.05-1.57 5.03-1.51 3.3.11 6.61 2.28 9.83 6.47-.42.13-.84.25-1.24.38zm-16.74 15.29c.18.28.45.47.77.54 1.65.36 5.88 1.72 7.11 3.74l-43.47-.23c.72-1.56 2.13-3.82 4.52-4.53 4.01-1.18 9.63.86 9.68.88.49.19 1.04.04 1.38-.36.04-.05 3.72-4.36 9.56-4.49 6.49-.16 8.95 2.16 10.45 4.45zm-40.15-10.61c-1.61-.97-2.67-2.95-3.16-5.89 3.42.52 5.19.87 6.07 1.51.8.58.96 1.57 1.33 4.35.02.17.05.33.07.5-1 .25-2.77.46-4.31-.47zm7.06 1.1c.27-2.43.4-3.44.98-3.95.59-.5 1.87-.81 4.15-1.24-.41 2.78-1.31 4.63-2.62 5.37-.91.53-1.91.42-2.56.26l.05-.44zm18.08-13.15c-.3-.58-.38-1-.39-1.06a1.093 1.093 0 0 0-2.16.33c.01.05.07.41.27.94-3.4-1.46-4.63-4.07-3.53-10.56 5.54 3.57 6.07 7.89 5.81 10.35zm10.92-12c2.52-3.61 8.19-4.25 10.8-4.34-.4 2.11-1.48 6.33-4.15 9.94-2.28 3.06-5.23 4.17-7.12 4.58.7-1.18 1.59-2.32 2.71-3.37.44-.42.46-1.11.04-1.55a1.08 1.08 0 0 0-1.54-.04 17.818 17.818 0 0 0-2.92 3.56c-.15-2.29.08-5.8 2.18-8.78zm25.12 18.98c-4.03-5.81-8.34-8.81-12.84-8.94-5.86-.17-9.61 4.61-9.77 4.82-.14.19-.22.41-.24.63-2.31 1.19-4.04 2.84-5.21 4.25 0-2.16.29-4.55 1.16-6.88 1.71-.13 6.79-.92 10.41-5.78 4.14-5.59 4.82-12.27 4.84-12.55.03-.34-.08-.67-.29-.93-.23-.25-.54-.4-.88-.42-.41-.02-10.22-.48-14.34 5.39-4.06 5.77-2.31 12.93-2.23 13.24.05.23.17.42.33.58-.43 1.2-.73 2.41-.92 3.61-1.78-.42-3.07-1.04-4.01-1.71.62-2.22 2.01-10.23-8.17-15.69-.34-.18-.75-.19-1.11-.03-.35.16-.6.49-.68.87-2.08 9.94.03 14.19 8.02 16.09 1.24 1.07 3.06 2.07 5.7 2.65-.24 3.57.35 6.84 1.09 9.07.07.2.13.38.2.55-.82-.06-1.68-.09-2.6-.07-5.56.13-9.4 3.34-10.81 4.74-1.86-.58-6.59-1.81-10.46-.67-.01 0-.01.01-.02.01-.04-.08-.07-.16-.13-.23s-1.2-1.4-1.61-3.86c.41.1.89.17 1.43.17.8 0 1.69-.16 2.57-.65 2.23-1.25 3.54-4.12 3.9-8.53.03-.34-.1-.67-.35-.9a1.1 1.1 0 0 0-.92-.26c-4.59.82-6.47 1.24-7.4 3.03-.9-3.31-2.83-3.7-10.11-4.8-.33-.04-.67.06-.92.29-.24.23-.36.56-.32.9.44 4.47 1.93 7.49 4.41 8.97 1.25.75 2.57.98 3.72.98.72 0 1.37-.09 1.9-.21.17 3.18 1.47 5.22 2 5.93-3.63 2.19-4.88 6.76-4.94 6.98-.09.37-.02.76.22 1.07.23.3.59.49.97.49l46.82.25h.01c.67 0 1.22-.53 1.24-1.2.17-4.71-6.82-6.82-8.91-7.34-1.73-2.45-4-3.98-7.04-4.69-.01-.34-.18-.67-.48-.88-.25-.55-.74-2.1-1.04-4.18.56-.97 2.52-3.98 6.02-5.73 3.69 4.55 6.84 6 10.2 6 2.46 0 5.03-.78 8.02-1.68.91-.28 1.87-.57 2.89-.85.38-.11.69-.39.83-.77s.08-.8-.15-1.13z"/>
    </g>
</svg>
