<svg width="66.929" height="56.896" viewBox="0 0 66.929 56.896" xmlns="http://www.w3.org/2000/svg">
    <g fill="currentColor" fill-rule="evenodd">
        <path d="M58.98 29.41 35.93 52.46a3.459 3.459 0 0 1-4.86 0l-23.2-23.2c-2.85-2.86-4.43-6.65-4.43-10.69 0-4.05 1.58-7.85 4.43-10.7a15.03 15.03 0 0 1 10.7-4.43c4.03 0 7.83 1.57 10.69 4.43l1.81 1.81-2.77 2.78a1.72 1.72 0 0 0 0 2.43c.33.34.77.5 1.21.5.44 0 .88-.17 1.22-.51l7.02-7.02c2.85-2.85 6.65-4.42 10.69-4.42 4.11 0 7.95 1.61 10.82 4.55 5.76 5.9 5.64 15.5-.28 21.42m2.73-23.82C58.19 1.99 53.47 0 48.44 0c-4.95 0-9.62 1.93-13.13 5.44L33.5 7.25l-1.81-1.81A18.435 18.435 0 0 0 18.57 0C13.61 0 8.95 1.93 5.44 5.44 1.94 8.95 0 13.6 0 18.57c0 4.96 1.94 9.62 5.44 13.12l23.2 23.2a6.852 6.852 0 0 0 4.86 2.01c1.76 0 3.52-.67 4.86-2.01l23.06-23.05c7.24-7.24 7.36-19.01.29-26.25"/>
        <path d="M15.02 10.42c.52.82-.11 1.69-.93 2.21-1.8 1.14-3.11 2.72-3.41 4.84-.31 2.12.17 3.4 1.09 4.93.5.83 1.17 2.34.04 3.36-.72.65-1.84.13-2.36-.69-1.66-2.62-2.75-5.94-1.79-9.01.95-3.07 2-4.44 4.61-6.1.82-.52 2.23-.36 2.75.46M20.77 11.24c-1.01.5-2.22.08-2.71-.92-.49-1-.07-2.21.93-2.71 1-.49 2.21-.08 2.7.93.49 1 .08 2.21-.92 2.7"/>
    </g>
</svg>
