<svg width="62.996" height="66.936" viewBox="0 0 62.996 66.936" xmlns="http://www.w3.org/2000/svg">
    <g fill="currentColor" fill-rule="evenodd">
        <path d="M50.055 14.766a1.27 1.27 0 0 1-1.271 1.27 1.27 1.27 0 0 1-1.271-1.27 1.27 1.27 0 0 1 1.27-1.271 1.27 1.27 0 0 1 1.272 1.27"/>
        <path d="M13.38 51.8c-2.32 0-4.47.352-6.376.23-5.185-.325-6.47-5.714-6.977-9.188-.304-3.981 1.974-5.584 3.948-5.47 1.981.115 16.942.278 26.873-2.562 4.171-1.19 5.821-3.394 8.261-6.436l6.788-11.052s.784-.453 1.514 0c.933.58.622 1.433.622 1.433L41.01 30.072c-2.616 3.271-4.678 5.51-9.309 6.835-10.14 2.9-19.66 3.049-27.623 2.805-1.258.168-1.704 1.946-1.589 3.55.568 3.86 1.163 6.26 4.597 6.475 7.754.487 26.535.92 31.551-7.592L60.69 4.206a1.238 1.238 0 1 1 2.136 1.252l-22.79 38.547C35.702 51.347 23.29 51.8 13.38 51.8"/>
        <path d="M49.926 10.851 56.152.63A1.314 1.314 0 0 1 58.1.292c.514.414.643 1.15.298 1.718l-6.254 10.127c.054.06-.905.54-1.588.075-.703-.468-.69-1.367-.629-1.36M50.842 63.616c-.87.5-4.64 1.3-11.06 1.3-6.51 0-10.31-.8-11.18-1.3v-5.43c2.79.94 7.68 1.12 11.02 1.12 2.81 0 8.29-.15 11.18-1.23l.04-.01v5.55zm-11.21-8.33c5.29 0 8.77.54 10.33 1-1.56.48-5.04 1.01-10.33 1.01-5.34 0-8.86-.53-10.43-1.01 1.57-.46 5.08-1 10.43-1zm13.05 1.24c.02-.08.03-.16.03-.24 0-2.72-9.15-3.02-13.09-3.02-4.92 0-13.19.39-13.19 3.02 0 .23.08.42.19.62-.01.05-.03.11-.03.16v6.85c0 2.63 8.26 3.02 13.19 3.02 3.93 0 13.09-.3 13.09-3.02v-6.85c0-.2-.08-.39-.19-.54z"/>
    </g>
</svg>
