<svg width="66.927" height="58.407" viewBox="0 0 66.927 58.407" xmlns="http://www.w3.org/2000/svg">
    <g fill="currentColor" fill-rule="evenodd">
        <path d="M9.272 26.166c1 0 1.819.818 1.819 1.82 0 1-.818 1.817-1.82 1.817a1.823 1.823 0 0 1-1.818-1.818c0-1 .818-1.819 1.819-1.819M58.495 27.904v28.799c0 .94-.764 1.704-1.704 1.704H39.769c-.9 0-1.63-.69-1.697-1.575-.007-.041-.007-.081-.007-.13V40.209a5.114 5.114 0 0 0-5.104-5.111 5.116 5.116 0 0 0-5.111 5.11v16.496c0 .048 0 .095-.007.136a1.697 1.697 0 0 1-1.697 1.568H9.124c-.94 0-1.704-.764-1.704-1.704V33.495c0-.94.764-1.704 1.704-1.704.939 0 1.703.764 1.703 1.704v21.512h13.616v-14.8c0-4.691 3.819-8.51 8.51-8.51 4.693 0 8.512 3.819 8.512 8.51V55h13.623V27.904c0-.94.764-1.704 1.703-1.704.94 0 1.704.764 1.704 1.704"/>
        <path d="m52.798 13.74-6.24-4.57.03-4.85 6.24.03-.03 9.39m13.42 9.82-10.11-7.4c.01-3.93.04-13.46.04-13.46 0-.91-.74-1.66-1.65-1.66L44.938 1c-.87 0-1.59.67-1.65 1.52-.01.05-.01.09-.01.13l-.03 4.09-8.76-6.41c-.61-.44-1.44-.44-2.05 0L.708 23.56a1.74 1.74 0 0 0-.37 2.43c.56.78 1.65.95 2.42.38l30.7-22.48 30.7 22.48c.31.23.67.34 1.03.34.53 0 1.06-.25 1.41-.71.56-.78.39-1.87-.38-2.44"/>
    </g>
</svg>
