<svg width="66.847" height="66.932" viewBox="0 0 66.847 66.932" xmlns="http://www.w3.org/2000/svg">
    <g fill="currentColor" fill-rule="evenodd">
        <path d="M45.002 39.79c-2.69 3.92-4.16 6.77-4.27 11.16h-3.37l1.14-13.94 2.9-6.43c.22-.48.18-1.05-.1-1.5-.27-.45-.75-.72-1.27-.72h-12.98c-.52 0-1 .27-1.27.72-.28.45-.32 1.01-.1 1.5l2.9 6.43 1.14 13.94h-3.37c-.11-4.39-1.58-7.24-4.27-11.16-2.77-4.03-4.42-9.16-4.42-13.72 0-9.58 7.13-17.39 15.88-17.39 8.76 0 15.88 7.81 15.88 17.39 0 4.56-1.65 9.68-4.42 13.72zm-14.4-4.46-2.6-5.01h10.68l-2.6 5.01c-.11.19-.17.41-.18.63l-1.52 15.36h-2.08l-1.52-15.36c-.02-.22-.08-.44-.18-.63zm10.09 27.93h-14.39v-3.37h4.98c1.03-.01 1.42-.27 1.42-1.4 0-1.21-.52-1.43-1.35-1.43h-4.98l-.07-2.83h14.39v9.03zM33.422 4.4c-11.59.21-20.3 9.53-20.3 21.24 0 5.44 1.95 11.3 5.35 16.08 2.61 3.67 3.99 6.15 3.99 9.41V62.9c0 2.58 1.46 4.03 3.24 4.03h15.44a3.24 3.24 0 0 0 3.24-3.24V51.92c0-4.05 1.39-6.54 4-10.2 3.39-4.78 5.34-10.64 5.34-16.08 0-11.71-9.1-21.24-20.3-21.24zM9.072 23.34c0 .892-.722 1.623-1.621 1.623H1.622a1.623 1.623 0 0 1 0-3.245H7.45c.9.006 1.622.73 1.622 1.622"/>
        <path d="M38.052 60.29c-.79.63-1.94.5-2.57-.29-.63-.8-.5-1.95.29-2.58.8-.63 1.95-.49 2.58.3.63.8.49 1.94-.3 2.57M55.03 42.662a1.617 1.617 0 0 0-2.292 0 1.617 1.617 0 0 0 0 2.292l4.225 4.218c.318.318.731.474 1.143.474.412 0 .832-.156 1.143-.474a1.616 1.616 0 0 0 0-2.291l-4.219-4.22zM14.677 6.885c.318.318.73.473 1.143.473.412 0 .83-.162 1.142-.473a1.628 1.628 0 0 0 0-2.292L12.852.476a1.628 1.628 0 0 0-2.292 0 1.615 1.615 0 0 0 0 2.292l4.117 4.117zM51.021 7.365a1.6 1.6 0 0 0 1.143-.473l4.123-4.124a1.628 1.628 0 0 0 0-2.292 1.616 1.616 0 0 0-2.29 0L49.871 4.6a1.615 1.615 0 0 0 0 2.292c.324.311.737.473 1.15.473M11.83 42.641l-4.238 4.24a1.617 1.617 0 0 0 1.143 2.764c.412 0 .83-.162 1.149-.473l4.239-4.239a1.617 1.617 0 0 0 0-2.292 1.628 1.628 0 0 0-2.292 0M65.225 21.724h-5.827a1.623 1.623 0 1 0 0 3.245h5.827a1.623 1.623 0 0 0 0-3.245"/>
    </g>
</svg>
