<svg width="66.928" height="66.928" viewBox="0 0 66.928 66.928" xmlns="http://www.w3.org/2000/svg">
    <g fill="currentColor" fill-rule="evenodd">
        <path d="M36.793 49.091c0 2.272-1.501 3.353-3.333 3.353-1.832 0-3.333-1.08-3.333-3.353V31.298c0-2.272 1.5-3.09 3.333-3.09 1.832 0 3.333.825 3.333 3.09v17.793zM37.76 19.66a4.3 4.3 0 1 1-8.6 0 4.3 4.3 0 0 1 8.6 0"/>
        <path d="M33.46 61.15c-15.26 0-27.68-12.42-27.68-27.68S18.2 5.79 33.46 5.79s27.68 12.42 27.68 27.68-12.42 27.68-27.68 27.68m30.83-40.71c-.83-1.98-1.88-3.89-3.08-5.69-1.2-1.77-2.57-3.43-4.09-4.94a33.411 33.411 0 0 0-4.95-4.09c-1.8-1.21-3.71-2.24-5.69-3.08C42.36.89 37.98 0 33.46 0s-8.9.89-13.03 2.63c-1.98.84-3.89 1.88-5.68 3.09A32.801 32.801 0 0 0 9.8 9.81a32.905 32.905 0 0 0-4.09 4.95 33.635 33.635 0 0 0-3.08 5.69C.88 24.57 0 28.95 0 33.47c0 4.51.88 8.89 2.63 13.03.83 1.98 1.87 3.89 3.08 5.68 1.19 1.77 2.57 3.44 4.08 4.96a34.06 34.06 0 0 0 4.96 4.08c1.79 1.21 3.7 2.24 5.68 3.08 4.13 1.75 8.51 2.63 13.03 2.63s8.9-.88 13.03-2.63c1.98-.84 3.89-1.88 5.68-3.08 1.77-1.2 3.44-2.57 4.96-4.08a34.06 34.06 0 0 0 4.08-4.96c1.21-1.79 2.25-3.7 3.08-5.68a33.23 33.23 0 0 0 2.63-13.03c0-4.52-.88-8.9-2.63-13.03"/>
    </g>
</svg>
