<svg width="54.624" height="66.928" viewBox="0 0 54.624 66.928" xmlns="http://www.w3.org/2000/svg">
    <g fill="currentColor" fill-rule="evenodd">
        <path d="M51.94 15.15c0 .43-.37.79-.81.79H39.2c-.45 0-.82-.36-.82-.79V3.43c0-.44.37-.8.82-.8h11.93c.44 0 .81.36.81.8v11.72zM53.81 0h-17.3c-.45 0-.81.35-.81.79v16.99c0 .44.36.8.81.8h17.3c.45 0 .81-.36.81-.8V.79c0-.44-.36-.79-.81-.79z"/>
        <path d="M50.35 9.2c0 .61-.54 1.21-.74 1.21h-3.32l-.02 3.23c0 .2-.54.75-1.17.74-.63-.01-1.11-.56-1.11-.76l.02-3.21h-3.28c-.2 0-.76-.53-.76-1.15 0-.61.56-1.09.76-1.09h3.29l.02-3.26c0-.2.42-.72 1.05-.72.63 0 1.22.53 1.22.73l-.02 3.25h3.31c.22 0 .75.41.75 1.03M36.903 40.105a1.352 1.352 0 1 1 0 2.704h-.027a1.352 1.352 0 1 1 0-2.704h.027z"/>
        <path d="m9.27 50.79-5.47-.04c-.51 0-.92-.42-.92-.93V37.04c0-3.31 1.89-6.19 4.65-7.61l8.59 21.48-6.52-.09c-.18-.05-.33-.03-.33-.03m10.83-2.55c.67 0 1.32.51 1.34 1.21.04.93-1.1 1.22-1.5 1.22l-.82.02-.96-2.47c.81 0 1.86.02 1.94.02m16.74-3.82c-.8 0-1.44.64-1.44 1.44v10.67c0 .52-.42.94-.92.94h-3.51V37.05c0-.8-.64-1.44-1.44-1.44-.8 0-1.44.64-1.44 1.44v26.07c0 .51-.42.92-.93.92H11.13c-.52 0-.83-.79-.83-.79s.08-6.46.11-9.51l7.5.05s.97.05 1.35-.37h.99c.25 0 1.79 0 2.37-.31 1.42-.8 1.92-1.67 1.95-3.72.04-1.95-.48-2.43-1.31-3.19-.56-.52-1.56-.65-2.87-.65l-3.27-.06s-.11-.12-.12-.12l-6.49-16.85c.3-.03.62-.05.93-.05h15.4c4.72 0 8.57 3.85 8.57 8.57 0 .8.64 1.44 1.44 1.44.8 0 1.44-.64 1.44-1.44 0-6.31-5.14-11.45-11.45-11.45H11.45C5.14 25.59 0 30.73 0 37.04v12.78c0 2.1 1.71 3.81 3.8 3.81h3.51v9.49c0 2.1 1.71 3.8 3.81 3.8h16.03c2.11 0 3.81-1.71 3.81-3.8v-2.77h3.51c2.1 0 3.81-1.71 3.81-3.81V45.86c0-.79-.64-1.44-1.44-1.44M18.39 20.53c-3.6 0-6.53-2.92-6.53-6.53 0-3.6 2.93-6.53 6.53-6.53s6.53 2.93 6.53 6.53c0 3.61-2.93 6.53-6.53 6.53m-.02-15.97c-5.2 0-9.43 4.23-9.43 9.43.01 5.2 4.23 9.43 9.43 9.43 5.2 0 9.43-4.23 9.43-9.43 0-5.2-4.23-9.43-9.43-9.43"/>
    </g>
</svg>
