<svg width="67" height="37" viewBox="0 0 67 37" xmlns="http://www.w3.org/2000/svg">
    <g fill="currentColor" fill-rule="evenodd">
        <path d="M30.366 26.884c-.52.58-1.43.93-2.43.93-.77 0-1.49-.2-2.03-.57-.52.36-1.24.57-2.01.57-.77 0-1.49-.2-2.02-.57-.52.36-1.24.57-2.01.57-1.01 0-1.91-.35-2.43-.93a.556.556 0 0 1 .04-.79c.23-.2.58-.18.79.05.31.34.92.56 1.6.56s1.29-.22 1.59-.56l.42-.47.42.47c.31.34.92.56 1.61.56.67 0 1.29-.22 1.59-.56l.42-.47.42.47c.31.34.92.56 1.6.56s1.29-.22 1.6-.56c.2-.23.55-.25.78-.05.23.2.25.56.05.79M46.416 30.894c.21.18.23.5.04.7-.65.75-1.8 1.19-3.08 1.19-1.07 0-2.05-.31-2.72-.83-.68.52-1.66.83-2.72.83-1.06 0-2.03-.31-2.71-.83-.68.52-1.65.83-2.69.82-1.29-.01-2.44-.45-3.09-1.18a.496.496 0 0 1 .04-.71c.2-.18.52-.16.7.04.46.53 1.36.85 2.34.85.99 0 1.89-.32 2.35-.85l.37-.41.37.42c.46.52 1.35.85 2.34.85.98 0 1.88-.33 2.34-.85l.37-.42.37.42c.46.52 1.36.85 2.34.85.98 0 1.88-.33 2.34-.85.18-.21.5-.22.7-.04M52.196 27.114c-.58.68-1.63 1.08-2.79 1.08-.95 0-1.82-.27-2.42-.73-.61.47-1.48.73-2.43.73-.95 0-1.81-.27-2.43-.73-.61.47-1.48.73-2.43.73-1.16 0-2.21-.4-2.8-1.06a.514.514 0 0 1 .04-.71c.2-.19.52-.17.7.04.4.46 1.19.74 2.06.74.86 0 1.65-.28 2.05-.74l.37-.42.38.42c.4.45 1.19.73 2.05.73.87 0 1.66-.28 2.06-.73l.37-.43.37.42c.4.45 1.19.74 2.06.74.86 0 1.65-.29 2.05-.74.18-.21.5-.22.7-.04.21.18.23.5.04.7"/>
        <path d="M60.766 29.054c3.25 1.1 3.4 1.83 3.4 1.84-.05.92-4.85 2.6-19.35 3.94-1.76.16-16.44 1.4-32.61-1.6-4.15-.77-8.05-2.18-9.34-4.2-.48-.74-.77-1.73-.58-2.46 1.17-4.71 9.45-5.21 14.12-5.21.6.01 5.1.47 6.7.71 4.36.66 10.5.15 10.5.15 3.56-.41 6.19-1.4 8.72-2.25 1.59-.54 7.93-3.51 18.91-.31 2.35.68 2.8 1.08 3.05 1.58.21.4.1.62.06.69-.19.41-.83.75-1.73.96-1.12.25-4.78 1.21-4.93 3.22-.12 1.71 2.27 2.62 3.08 2.94m3.13-4.61c1.81-.4 2.54-1.22 2.83-1.82.3-.65.27-1.4-.08-2.09-.58-1.15-1.99-2.06-4.33-2.78-5.13-1.58-11.37-1.96-15.88-.97-1.75.38-3.3.91-4.94 1.46-2.46.83-5 1.69-8.39 2.1-3.94.46-7.01.1-10.26-.29-1.63-.2-3.31-.4-5.18-.51-.63-.03-15.62-.82-17.54 6.85-.29 1.15-.08 2.3.63 3.41 1.88 2.92 6.65 4.71 10.17 5.36 7.86 1.46 16.26 1.98 23.42 1.98 4.16-.01 7.9-.18 10.86-.46 21.04-1.92 21.37-4.69 21.48-5.59.2-1.72-2.28-2.79-4.44-3.53-1.7-.65-2.05-1.19-2.03-1.33.02-.4 1.35-1.27 3.68-1.79M44.02 10.593l-.25-.635-.601.324c-.453.243-.798.426-1.11.548a3.032 3.032 0 0 0 1.354-2.143l.013-.393-.223-.209c-.291-.27-.65-.203-1.028-.129-.398.075-.946.183-1.46 0a1.674 1.674 0 0 1-.216-.087c1.034-.42 1.257-1.19 1.379-1.603l.31-1.014-1.033.25c-1.238.298-2.137-.662-2.664-1.514l-.636-1.014-.446 1.11c-.372.925-1.372 1.993-3.076 2.23l-.385.054-.115.372c-.041.128-.142.581.196 1.047.257.36.683.602 1.298.737a3.234 3.234 0 0 1-.953.413c-1.217.317-1.447.912-1.42 1.36.047.911 1.264 1.54 1.927 1.641l.176-1.203c-.305-.047-.697-.29-.845-.453.074-.047.216-.108.466-.176 1.907-.5 2.42-1.785 2.44-1.839l.305-.797-.86-.02c-.526-.014-.891-.075-1.128-.149 1.082-.345 2-1.008 2.61-1.873.615.696 1.332 1.136 2.082 1.285a2.363 2.363 0 0 1-.663.182l-.135.02-.115.075c-.304.21-.453.513-.412.845.068.507.568.926 1.5 1.257.609.217 1.204.19 1.664.122-.257.433-.784.872-1.832 1.048-.751.121-1.461.243-1.488.88-.02.607.622.763 1.143.891 1.068.257 1.737.25 2.427.027-.38.4-.98.791-1.934.946-.006 0-.736.19-1.94.244 0-.25.007-.507.027-.778a.605.605 0 0 0-.574-.642c-.332 0-.622.237-.643.575a16.361 16.361 0 0 0 .27 4.124c.055.29.312.493.596.493.04 0 .074-.007.115-.013a.603.603 0 0 0 .48-.71 13.996 13.996 0 0 1-.244-1.839c1.346-.06 2.164-.27 2.157-.27 1.778-.29 2.663-1.25 3.089-2.002.264-.419.562-1.189.406-1.595M15.87 11.526c-.48-.02-1.359-.264-2.055-.56a2.99 2.99 0 0 0 .946-.4c1.001-.642 1.555-1.832 1.562-2.407l.007-.79-.785.074c-.845.081-1.527.04-2.048-.048.406-.344.69-.838.832-1.467l.148-.655-.649-.19c-2.386-.683-2.677-1.514-2.785-1.832l-.629-1.798-.71 1.764c-.263.656-1.54 2.076-2.494 2.461l-.744.304.386.704c.216.392.5.69.858.885-.5.108-1.109.122-1.534.047l-.859-.148.02.872c.041 1.561 1.136 2.427 2.055 2.88-.567.17-1.48.277-2.758.176l-1.122-.088.392 1.048c.717 1.926 2.724 3.19 4.861 3.19.385 0 .77-.04 1.156-.128l-.31-1.393c-1.42.311-2.895-.175-3.767-1.169 1.521-.034 3.245-.386 3.61-1.717l.196-.737-.743-.156c-.014-.006-1.352-.29-1.913-1.169.791-.027 1.703-.203 2.305-.676.4-.31.635-.724.67-1.197l.06-.798-.798.027a2.623 2.623 0 0 1-.5-.027 8.648 8.648 0 0 0 1.63-1.595c.513.554 1.27 1.007 2.298 1.372-.189.217-.507.345-1.04.304l-1.38-.094.696 1.19c.466.797 1.825 1.291 3.542 1.325a2.015 2.015 0 0 1-.58.507c-.447.25-.948.243-1.522-.014l-.75-.338-.224.791c-.088.311-.115.784.25 1.298.575.798 1.961 1.325 3.016 1.596-.602.764-1.704 1.71-3.178 1.17-.007-.075-.007-.15-.013-.23a.618.618 0 0 0-.643-.569.601.601 0 0 0-.567.643c.06.973.027 1.724-.109 2.433a.609.609 0 0 0 .487.71c.041.007.075.014.115.014a.607.607 0 0 0 .595-.494c.061-.33.101-.662.128-1.014 2.684.65 4.51-1.798 5.01-2.873l.453-.973-1.075-.04z"/>
        <path d="M32.406 15.008c-.865-.128-1.71-.27-2.515-.534a8.646 8.646 0 0 0 1.792-1.501l.797-.879-1.176-.135c-1.305-.149-2.373-.548-3.022-.913.832-.142 1.86-.493 2.501-1.318l.514-.662-.784-.284a20.576 20.576 0 0 0-.75-.251c-1.258-.398-2.062-.696-2.252-1.548 1.488.068 2.252-.919 2.644-1.413l.44-.547-.92-.527C28.195 3.65 26.917 2.92 26.545 1l-.19-1-.79.642c-.109.088-.237.203-.393.345-.865.784-2.48 2.238-4.8 2.616l-.6.102.093.601c.183 1.122 1.501 1.596 2.563 1.798-.71.474-1.75.947-2.995.954h-.548l-.054.547c-.054.568.108 1.42.757 1.961.426.351.994.527 1.663.507-.77.541-1.825.831-2.116.75l-.669-.182-.088.689c-.047.345.135.764.5 1.143.223.23.703.642 1.508.899-.784.284-1.974.642-3.766 1.075l-.128.034-.467.71c.13.743 2.921 2.17 7.011 1.744l-.122-1.21c-2.129.216-3.698-.095-4.67-.44 3.9-1.034 4.413-1.676 4.596-1.9l.237-.378-.42-.683-.37.027c-1.076.088-1.779-.162-2.199-.439.778-.203 1.63-.643 2.191-1.109.75-.635.858-1.217.818-1.602l-.054-.311-.48-.311-.264.074c-.913.264-1.582.25-1.94-.04a.874.874 0 0 1-.264-.392c2.062-.23 3.604-1.454 4.171-2.13l.23-.372-.358-.689-.379.006c-.655.027-1.615-.175-2.197-.459 1.846-.548 3.218-1.63 4.057-2.367.615 1.616 1.852 2.421 3.103 3.144-.359.318-.873.554-1.697.338l-.697-.182-.06.716c-.197 2.204 1.4 2.907 2.751 3.347-.73.324-1.622.371-2.008.351l-.73-.04.095.723c.142 1.041 1.764 1.92 3.562 2.339a7.785 7.785 0 0 1-1.696 1.028l-1.136.507 1.095.581c.487.257.98.453 1.481.609-1.528.277-3.245.385-4.273.033-.014-.419-.007-.872.02-1.379a.605.605 0 0 0-.574-.642c-.318 0-.622.237-.643.575a16.349 16.349 0 0 0 .271 4.123.607.607 0 0 0 .595.494c.04 0 .074-.007.115-.014a.606.606 0 0 0 .48-.709 14.513 14.513 0 0 1-.183-1.177c.5.108 1.061.156 1.656.156 1.947 0 4.185-.501 5.388-.974l2.11-.831-2.238-.318z"/>
        <path d="M36.679 14.656c-.027 0-2.434-.128-3.414-.994l1.048-1.19c.338.305 1.69.568 2.434.595l-.068 1.59z"/>
    </g>
</svg>
