<svg width="50.953" height="66.928" viewBox="0 0 50.953 66.928" xmlns="http://www.w3.org/2000/svg">
    <g fill="currentColor" fill-rule="evenodd">
        <path d="M41.16 10.9a2.198 2.198 0 0 1-2.41 1.99 2.212 2.212 0 0 1-2-2.41c.12-1.22 1.2-2.11 2.42-1.99 1.21.11 2.11 1.19 1.99 2.41"/>
        <path d="M37.85 37.6c-.47.18-.76.65-.71 1.15.05.5.45.9.95.96l3.68.48c-.99 1.37-3.19 3.07-6.25 5.01-2.88 1.82-6.69 2.94-10.36 3.53-4.24.68-10.82-.14-16.23-1.26.7-1.34 1.45-2.69 2.23-4.02l3.43.27c.02 0 .06.01.08.01.57 0 1.05-.43 1.09-1.01.05-.6-.4-1.13-1-1.17l-2.33-.18c1.26-2.03 2.62-4.04 4.07-6.02l8.22.63h.09c.56 0 1.04-.43 1.09-1.01.04-.6-.41-1.12-1-1.17l-6.86-.52c.53-.69 1.07-1.38 1.62-2.06 1.13-1.41 2.26-2.76 3.35-4.03l12.22.95h.09c.56 0 1.04-.43 1.09-1.01.05-.6-.41-1.13-1-1.17l-10.59-.82c2.02-2.26 3.88-4.21 5.43-5.73l6.67.17h.03c.59 0 1.08-.47 1.09-1.06a1.1 1.1 0 0 0-1.06-1.12l-4.46-.11c.37-.33.7-.6.98-.83.47-.37 1.77-2.02 1.04-2.73-1.15-1.13-1.75-.74-2.22-.37-.1.08-1.1.87-2.68 2.3v-2.25c0-.6-.49-1.08-1.09-1.08-.6 0-1.09.48-1.09 1.08v4.28c-1.49 1.42-3.24 3.2-5.14 5.28v-5.33c0-.6-.49-1.09-1.09-1.09-.6 0-1.09.49-1.09 1.09v7.8c-.75.87-1.51 1.78-2.29 2.74-.9 1.12-1.78 2.26-2.63 3.41l-.67-8.25c-.04-.6-.57-1.05-1.17-1-.6.05-1.05.57-1 1.18l.86 10.64c.01.04.02.08.04.12a93.647 93.647 0 0 0-3.41 5.24l-.62-4.61c-.07-.59-.62-1.02-1.22-.94-.6.08-1.02.63-.94 1.23l.93 7.14c0 .08.04.14.06.21-.48.87-.96 1.74-1.41 2.62-.05.1-.1.19-.16.3-.32-.5-2.01-3.24-2.93-7.55-.86-4.07-1.14-10.32 2.06-17.61l.89 1.54c.21.36.61.58 1.02.54.42-.02.78-.29.93-.68.02-.06 1.83-4.56 3.42-7.75l.35 1.29c.12.44.5.75.95.79.45.05.89-.2 1.08-.61.02-.04 1.73-3.53 5.48-7.07V10a1.095 1.095 0 0 0 1.91.73c.04-.05 4.18-4.6 9.7-6.83l.23 1.57c.05.39.3.71.66.85.36.15.76.1 1.07-.13.02-.01 1.25-.93 3.71-1.88 2.12-.82 5.58-1.81 10.27-2.08.17 2.44.38 8.82-1.61 13.73-.13.31-.1.67.07.97.18.3.48.49.83.52l2.17.22c.01.44-.03 1.07-.22 1.86-.37 1.53-1.38 4.01-4.14 7.09-.25.3-.34.7-.22 1.07.12.37.43.65.81.73l2.1.46c-1.19 2.2-4.23 6.89-9.25 8.72m11.08-10.58-1.7-.36c4.76-6.09 3.62-10.12 3.57-10.3-.13-.42-.5-.73-.94-.77l-1.65-.17C50.3 8.97 49.44 1.3 49.4.96c-.07-.57-.55-.98-1.13-.96-5.59.18-9.68 1.36-12.12 2.32-1.09.43-1.96.85-2.62 1.2l-.18-1.26c-.04-.32-.23-.6-.5-.77-.27-.17-.6-.21-.91-.12-4.31 1.4-7.91 4.18-9.98 6.04V5.96c0-.41-.25-.8-.62-.98-.38-.18-.82-.12-1.16.13a31.497 31.497 0 0 0-6.49 7.07l-.38-1.37c-.12-.42-.45-.73-.88-.8-.42-.06-.84.12-1.08.48-1.23 1.84-3 5.87-4.04 8.34l-.82-1.42c-.2-.34-.58-.55-.98-.54-.39.01-.76.24-.94.59C.17 26.12-.35 33.62.66 38.39c1.1 5.18 3.48 10.46 4.46 9.56.08-.07.15-.13.23-.19C2.55 53.32 1.3 56.6.14 63.05c-.11.6-.52 2.84.89 3.6 1.42.75 1.81-.23 1.91-.72C4.09 59.54 4.92 55.76 7.68 50c4.24 1.33 9.81 1.94 12.9 1.94 1.98 0 3.9-.15 5.72-.45 3.96-.64 7.56-1.97 10.7-3.96 5.37-3.4 7.5-7.53 7.59-7.7.16-.32.16-.69-.01-1-.16-.31-.47-.53-.82-.58l-1.88-.24c5.29-3.46 7.72-9.21 7.84-9.49.12-.3.11-.64-.04-.93-.16-.3-.43-.5-.75-.57"/>
    </g>
</svg>
