<svg width="51.095" height="66.922" viewBox="0 0 51.095 66.922" xmlns="http://www.w3.org/2000/svg">
    <g fill="currentColor" fill-rule="evenodd">
        <path d="M40.62 20.817a2.553 2.553 0 0 0-2.555 2.555 2.553 2.553 0 0 0 2.555 2.556 2.553 2.553 0 0 0 2.555-2.556 2.558 2.558 0 0 0-2.555-2.555"/>
        <path d="M4.77 61.69h41.41V33.58H4.77v28.11zm41.22-33.14H13.6c-.04-.25-.09-.55-.09-.92V16.36c.22-9.33 4.52-11.42 10.88-11.33l3.15-.07c6.95 0 10.08 2.19 10.51 8.29l.15 3.06c0 1.01.81 2.01 2.56 1.88 1.75-.11 2.35-1.18 2.35-2.18l-.08-2.02C43.03 4.71 38.16.01 28.02 0h-3.54c-4.24 0-8.51.91-11.54 3.93-3.14 3.12-4.32 7.56-4.32 12.08l-.03 12.55H5.1c-2.82 0-5.1 2.28-5.1 5.1v28.16c0 2.82 2.28 5.1 5.1 5.1h40.89c2.82 0 5.1-2.28 5.1-5.1V33.66c0-2.82-2.28-5.1-5.1-5.11z"/>
        <path d="M31.26 44.6c0 2.02-1.02 3.78-2.73 4.79v4.09c-.11 2.12-1.09 2.58-2.76 2.76 0 0-3.05.29-3.13-2.76v-3.93c-1.52-.97-2.78-2.83-2.78-4.95 0-3.14 2.68-5.67 5.81-5.67 3.14 0 5.59 2.54 5.59 5.67"/>
    </g>
</svg>
