<svg width="27.042" height="66.928" viewBox="0 0 27.042 66.928" xmlns="http://www.w3.org/2000/svg">
    <g fill="currentColor" fill-rule="evenodd">
        <path d="M26.954 28.32a1.237 1.237 0 1 1-2.475-.001 1.237 1.237 0 0 1 2.475 0M13.3 12.47c-2.88 0-5.23-2.35-5.23-5.24A5.24 5.24 0 0 1 13.3 2c2.89 0 5.24 2.35 5.24 5.23 0 2.89-2.35 5.24-5.24 5.24M13.3 0C9.32 0 6.06 3.25 6.06 7.24s3.26 7.24 7.24 7.24c3.99 0 7.25-3.24 7.25-7.24C20.55 3.25 17.3 0 13.3 0"/>
        <path d="M27.042 32.24v8.978c0 1.46-1.622 2.65-3.083 2.65h-2.447v20.41c0 1.46-1.19 2.65-2.65 2.65h-3.908a2.62 2.62 0 0 1-1.65-.582 2.658 2.658 0 0 1-1.65.582H7.749a2.654 2.654 0 0 1-2.65-2.65v-20.41H2.65c-1.46 0-2.65-1.19-2.65-2.65v-17.05c0-4.394 3.577-7.97 7.97-7.97h10.878c4.395 0 7.97 3.576 7.97 7.97 0 .554-.662 1.001-1.216 1.001-.554 0-1.318-.487-1.318-1.042 0-3.292-2.218-5.4-5.51-5.4H8.113c-3.293 0-5.868 2.108-5.868 5.4V40.63c0 .358.29.65.649.65l2.204.04V24.174a.998.998 0 0 1 1-1 .998.998 0 0 1 1 1v40.103c0 .358.29.65.65.65h3.907a.649.649 0 0 0 .649-.65V47.546a.998.998 0 0 1 1-1c.555 0 1 .445 1 1v16.732a.65.65 0 0 0 .65.65h3.908a.65.65 0 0 0 .649-.65V24.175a.998.998 0 0 1 1-1 .998.998 0 0 1 1 1v17.063h2.448a.649.649 0 0 0 .649-.649V32.24c0-.554.636-.98 1.19-.98.548-.007 1.244.426 1.244.98"/>
    </g>
</svg>
