<svg width="21" height="21" viewBox="0 0 21 21" fill="none" xmlns="http://www.w3.org/2000/svg">
<g clip-path="url(#clip0_1992_6888)">
<path d="M16.4976 2.02786C17.1506 2.53986 17.6006 3.36686 17.7846 4.23286L17.8496 4.25886L19.8946 5.20486C20.0088 5.25745 20.1056 5.34158 20.1737 5.44734C20.2417 5.55311 20.2781 5.67611 20.2786 5.80186V18.1689C20.2778 18.2716 20.2533 18.3728 20.2069 18.4644C20.1605 18.5561 20.0935 18.6357 20.0112 18.6972C19.9288 18.7586 19.8334 18.8001 19.7323 18.8184C19.6312 18.8368 19.5272 18.8314 19.4286 18.8029L13.7596 17.2029L7.01956 19.0609C6.89799 19.0945 6.76939 19.0931 6.64856 19.0569L0.752564 17.3019C0.616285 17.2618 0.496554 17.1789 0.41116 17.0654C0.325765 16.9519 0.279264 16.8139 0.278564 16.6719L0.278564 4.08286C0.278564 3.64286 0.706564 3.32686 1.13356 3.45086L6.83556 5.11186L9.73356 4.22486C9.77356 4.21286 9.81423 4.20453 9.85556 4.19986C9.96756 3.54386 10.2806 2.91386 10.8056 2.29986C11.4286 1.56986 12.5216 1.14186 13.5866 1.09086C14.6916 1.03786 15.5356 1.27386 16.4966 2.02686M1.61156 4.96586V16.1809L6.48156 17.6299V6.38286L1.61156 4.96586ZM9.82056 5.57986L7.81456 6.19286V17.4719L12.8796 16.0779V12.7829C12.8796 12.4189 13.1786 12.1239 13.5466 12.1239C13.9146 12.1239 14.2126 12.4189 14.2126 12.7839V15.9609L18.9456 17.2959V6.22086L17.8256 5.70086C17.8069 5.81086 17.7826 5.91853 17.7526 6.02386C17.5359 6.79094 17.171 7.50812 16.6786 8.13486L14.2016 11.2279C14.1363 11.3092 14.0531 11.3742 13.9583 11.4176C13.8636 11.4611 13.76 11.4819 13.6558 11.4783C13.5516 11.4747 13.4497 11.4469 13.3582 11.397C13.2666 11.3471 13.188 11.2765 13.1286 11.1909L10.8136 7.83786C10.4309 7.3052 10.1639 6.82653 10.0126 6.40186C9.91742 6.13608 9.853 5.86029 9.82056 5.57986ZM13.6506 2.40886C12.9246 2.44386 12.1786 2.73586 11.8236 3.15086C11.3966 3.65086 11.1866 4.11886 11.1446 4.59286C11.0946 5.16386 11.1286 5.56686 11.2706 5.96586C11.3756 6.26086 11.5846 6.63486 11.9076 7.08586L13.7186 9.70786L15.6286 7.32286C16.0142 6.83058 16.2998 6.2677 16.4696 5.66586C16.7096 4.82586 16.3476 3.59186 15.6696 3.06186C14.9746 2.51686 14.4496 2.36986 13.6516 2.40886M13.7896 3.10586C14.8936 3.10586 15.7896 3.99086 15.7896 5.08286C15.7861 5.61013 15.5736 6.11447 15.1986 6.48515C14.8236 6.85582 14.3168 7.06252 13.7896 7.05986C12.6856 7.05986 11.7896 6.17486 11.7896 5.08286C11.7896 3.99086 12.6856 3.10586 13.7896 3.10586ZM13.7896 4.42386C13.7025 4.42334 13.6162 4.43996 13.5355 4.4728C13.4549 4.50563 13.3815 4.55403 13.3196 4.61522C13.2576 4.67641 13.2084 4.74921 13.1746 4.82945C13.1408 4.90969 13.1231 4.9958 13.1226 5.08286C13.1226 5.44686 13.4216 5.74186 13.7896 5.74186C13.8766 5.74226 13.9629 5.7255 14.0435 5.69255C14.1241 5.65959 14.1974 5.61109 14.2593 5.5498C14.3211 5.48851 14.3703 5.41564 14.404 5.33535C14.4376 5.25507 14.4552 5.16893 14.4556 5.08186C14.4542 4.90637 14.3834 4.73856 14.2586 4.61522C14.1337 4.49188 13.9651 4.42306 13.7896 4.42386Z" fill="#29549A"/>
</g>
<defs>
<clipPath id="clip0_1992_6888">
<rect width="20" height="20" fill="white" transform="translate(0.278564 0.0848389)"/>
</clipPath>
</defs>
</svg>
