<svg width="66.928" height="59.952" viewBox="0 0 66.928 59.952" xmlns="http://www.w3.org/2000/svg">
    <g fill="currentColor" fill-rule="evenodd">
        <path d="M32.81 33.56c-1.71 0-3.09-1.38-3.09-3.09 0-1.7 1.38-3.09 3.09-3.09 1.7 0 3.08 1.39 3.08 3.09 0 1.71-1.38 3.09-3.08 3.09m.01-7.72c-2.56 0-4.64 2.08-4.64 4.64 0 2.56 2.08 4.64 4.64 4.64a4.65 4.65 0 0 0 4.64-4.64 4.65 4.65 0 0 0-4.64-4.64"/>
        <path d="M64.08 17.18c0 2.51-1.79 4.69-4.28 5.19-.3.07-.66.1-1.04.1-1.08 0-2.08-.32-2.94-.89-.11-.12-.26-.23-.43-.31-.58-.49-1.07-1.1-1.41-1.82-.22-.46-.69-.76-1.2-.76-.52 0-.98.3-1.21.76a5.25 5.25 0 0 1-4.78 3.02c-2.06 0-4.89-1.16-5.78-3.02-.22-.46-.69-.76-1.2-.76s-.98.3-1.2.76c-.89 1.86-3.72 3.02-5.78 3.02-2.07 0-3.91-1.16-4.79-3.02-.22-.46-.69-.76-1.2-.76-.52 0-.98.3-1.21.76-.89 1.86-3.61 3.02-5.67 3.02s-3.9-1.16-4.79-3.02c-.22-.46-.69-.76-1.2-.76s-.98.3-1.2.76c-.35.72-.83 1.33-1.42 1.82-.16.07-.31.19-.43.31-.85.57-1.86.89-2.94.89-.38 0-.74-.03-1.07-.11a5.298 5.298 0 0 1-4.25-5.18v-2.64h61.42v2.64zM53.44 42.66H40.21v-2.14c0-2.52-2.19-4.56-4.88-4.56H30.8c-2.69 0-4.88 2.04-4.88 4.56v2.14H13.31v-19.6c.23-.21.45-.43.66-.67a7.962 7.962 0 0 0 5.98 2.72c2.32 0 5.38-1.03 6.88-2.72a7.978 7.978 0 0 0 5.98 2.72c2.31 0 5.49-1.03 6.99-2.72 1.49 1.7 4.67 2.72 6.98 2.72 2.31 0 4.49-1.03 5.98-2.72.2.24.43.46.66.67h.02v19.6zm-14.85 0h-1.3l-.37-2.76c-.03-.33-.36-.57-.72-.54-.36.04-.62.34-.58.68l.41 2.62H30.1l.41-2.62c.04-.33-.22-.64-.58-.68-.36-.03-.69.21-.72.54l-.37 2.76h-1.29V40.7c0-1.74 1.5-3.14 3.36-3.14h4.32c1.85 0 3.36 1.4 3.36 3.14v1.96zM12.57 2.65h5.56l-4.96 9.25H4.29l8.28-9.25zm14.66 0-1.66 9.25h-9.4l4.97-9.25h6.09zm2.7 0h6.75l1.66 9.25H28.28l1.65-9.25zm16.04 0 4.97 9.25h-9.9l-1.66-9.25h6.59zm8.18 0 8.29 9.25h-8.48l-4.97-9.25h5.16zm12.57 10.42V13c-.01-.02-.01-.04-.02-.06 0-.02 0-.04-.01-.06-.01-.02-.02-.04-.02-.07a.106.106 0 0 1-.02-.05c-.01-.03-.02-.05-.03-.07-.01-.02-.01-.03-.02-.04-.01-.03-.03-.06-.04-.08-.01-.01-.02-.03-.03-.04-.01-.03-.03-.05-.04-.07-.01-.02-.02-.02-.03-.04l-.06-.06c0-.01 0-.01-.01-.02L55.75.45C55.5.17 55.13 0 54.76 0H11.97c-.38 0-.74.17-.99.45L.35 12.34l-.02.02c-.01.02-.02.04-.04.05-.01.01-.02.03-.04.05-.01.02-.02.04-.03.05-.01.02-.03.04-.04.06l-.03.06-.03.06c-.01.02-.02.03-.02.05-.02.03-.02.05-.03.07 0 .02-.01.04-.01.06-.01.02-.02.05-.02.07-.01.02-.01.04-.02.06 0 .02-.01.05-.01.07-.01.02-.01.04-.01.06v4.05c0 3.76 2.68 7.03 6.36 7.77.49.11 1.04.16 1.61.16.93 0 1.82-.16 2.67-.46v19.17c0 .64.59 1.16 1.33 1.16h42.77c.74 0 1.33-.52 1.33-1.16V24.64c.85.3 1.75.47 2.67.47.58 0 1.12-.06 1.59-.16 3.71-.74 6.39-4.01 6.39-7.77v-3.96c0-.01 0-.02.01-.02v-.07c0-.02-.01-.04-.01-.06z"/>
        <path d="M66.925 58.002c0 1.082-.595 1.954-1.332 1.954H1.524c-.736 0-1.331-.879-1.331-1.954 0-1.082.595-1.954 1.331-1.954h1.995V29.074c0-.71.892-1.29 1.987-1.29 1.096 0 1.988.58 1.988 1.29v26.974H59.34V29.074c0-.71.892-1.29 1.987-1.29 1.096 0 1.988.58 1.988 1.29v26.974h2.278c.737-.007 1.332.872 1.332 1.954"/>
    </g>
</svg>
