<svg width="39.65" height="66.928" viewBox="0 0 39.65 66.928" xmlns="http://www.w3.org/2000/svg">
    <path d="M3.4 54.22h32.52V7.3H3.4v46.92zm16.47 8.62a2.77 2.77 0 0 1-2.77-2.77c0-1.53 1.24-2.76 2.77-2.76 1.52 0 2.77 1.23 2.76 2.76 0 1.53-1.24 2.77-2.76 2.77zM15.9 3.7c0-.68.28-1.23.63-1.23h7.13c.35 0 .63.54.63 1.23v.07c0 .68-.29 1.24-.63 1.24h-7.13c-.35 0-.63-.56-.63-1.24V3.7zM35.15 0H4.51C2.03 0 .01 2.02 0 4.5v57.93c0 2.48 2.03 4.5 4.51 4.5h30.64c2.48 0 4.5-2.02 4.5-4.5V4.5c0-2.48-2.02-4.5-4.5-4.5z" fill="currentColor" fill-rule="evenodd"/>
</svg>
