<svg width="66.856" height="38.504" viewBox="0 0 66.856 38.504" xmlns="http://www.w3.org/2000/svg">
    <g fill="currentColor" fill-rule="evenodd">
        <path d="M63.11 12.713c-3.2 1.25-8.35 1.25-11.56 0-.55-.22-1.93-.76-1.95-1.55-.02-.52.75-1.07 1.96-1.54 3.2-1.25 8.35-1.25 11.56 0 1.2.47 1.95 1.02 1.95 1.54.02.77-1.45 1.35-1.96 1.55zm1.96 3.17c0 .53-.75 1.07-1.96 1.54-3.2 1.25-8.35 1.25-11.56 0-1.21-.47-1.95-1.01-1.95-1.53.02-.72 0-1.44 0-2.15.38.23.82.45 1.31.64 3.62 1.41 9.22 1.41 12.84 0 .49-.19.93-.41 1.32-.64v2.14zm-.01 4.79c0 .52-.74 1.06-1.96 1.54-1.49.58-3.41.89-5.36.93-.52-.64-1.38-1.2-2.48-1.62-1.61-.63-3.61-.98-5.66-1.05v-2.02c.39.24.83.45 1.31.63 3.62 1.42 9.22 1.42 12.84 0 .49-.18.93-.39 1.32-.63 0 .91 0 1.87-.01 2.22zm.01 4.84c0 .52-.75 1.07-1.96 1.54-1.34.52-3.01.82-4.74.91v-3.05c1.94-.09 3.84-.43 5.38-1.03.49-.19.93-.4 1.32-.64v2.27zm0 4.82c0 .53-.75 1.07-1.96 1.55-1.34.52-3.01.82-4.74.91v-3.04c1.95-.09 3.84-.44 5.38-1.04.49-.19.93-.4 1.32-.63v2.25zm-11.92 5.93c-3.04.81-6.28.75-9.28-.2-1.67-.53-2.75-1.18-2.75-1.81.01-.36.01-1.32.01-2.23.38.23.82.44 1.3.63.77.3 1.62.54 2.54.71.54.1 1.06-.32 1.06-.88 0-.43-.3-.79-.72-.87-.81-.16-1.57-.36-2.24-.63-1.21-.47-1.96-1.01-1.96-1.53.02-.72 0-1.43 0-2.15.39.24.83.45 1.31.64 3.63 1.41 9.23 1.41 12.85 0 .49-.19.93-.4 1.31-.64 0 .71.01 1.43 0 2.14 0 .53-.74 1.07-1.95 1.54-.67.26-1.43.47-2.24.62-.42.07-.72.44-.72.87 0 .56.52.98 1.06.88.91-.17 1.77-.41 2.54-.7.49-.19.93-.4 1.31-.64 0 .91 0 1.87.01 2.23 0 .71-1.38 1.47-3.44 2.02zm-17.73-15c-1.21-.47-1.95-1.01-1.95-1.53.02-.72 0-1.44 0-2.15.38.23.82.45 1.31.64 3.62 1.41 9.22 1.41 12.84 0 .06-.02.13-.05.19-.08v2.35c-1.95.09-3.84.43-5.39 1.04-.51.19-.97.42-1.37.67-2.03-.02-4.07-.33-5.63-.94zm3.9 3.47v2.18c-1.42-.13-2.78-.42-3.91-.86-1.21-.47-1.95-1.01-1.95-1.53.01-.36.01-1.32.01-2.23.38.24.82.45 1.3.63 1.36.53 3 .86 4.71 1-.1.26-.15.53-.16.81zm.01 7.01c-1.43-.13-2.79-.41-3.91-.85-1.21-.47-1.95-1.02-1.95-1.54v-2.27c.39.24.83.45 1.31.64 1.32.51 2.9.84 4.55.98v3.04zm-9.57-19.26 2.29 1.3c-.02.02-.03.05-.04.07-.21.36-.33.75-.33 1.16v13.12l-3.36 1.36.02-13.15-13.27-7.61 4.91-1.83 3.24 1.85c.28.16.61.17.9.04l.02-.01c.74-.34.79-1.36.09-1.76l-1.8-1.03 9.79-3.64 12.85 7.01-3.38 1.39c-2.47-.06-4.98.29-6.92 1.05-.43.17-.84.36-1.19.58l-2.83-1.62c-.28-.16-.62-.17-.91-.04-.73.33-.78 1.36-.08 1.76zm-3.39 8.63-10.5 4.26-.02-.01-13.41-7.74 1.65-.62 10.53 6.07c.42.29.94.43 1.46.38.1-.02.2-.03.3-.06.11-.03.21-.05.31-.09l9.68-3.92v1.73zm0 4.54-10.5 4.25-.02-.01-13.41-7.74 1.92-.72 10.26 5.92c.42.28.94.42 1.46.37.1-.02.2-.03.3-.06.11-.02.21-.05.31-.09l9.68-3.92v2zm0 4.53-10.5 4.25-.02-.01-13.41-7.74 1.92-.72 10.26 5.92c.42.29.94.43 1.46.37.1-.01.2-.02.3-.05.11-.03.21-.05.31-.09l9.68-3.93v2zm-13.82-20.6 13.15 7.54-9.83 3.98-.02-.01-13.41-7.74 10.11-3.77zm34.42 3.88c.32.12.6.25.84.38v2.34c-.33.18-.65.3-.84.38-3.2 1.25-8.35 1.25-11.56 0-.54-.22-1.93-.76-1.95-1.55-.01-.52.75-1.08 1.95-1.55 3.21-1.25 8.36-1.25 11.56 0zm7.66 9.73c1.2.47 1.95 1.02 1.95 1.54.02.76-1.45 1.35-1.96 1.55-3.2 1.25-8.36 1.25-11.56 0-.55-.22-1.93-.76-1.95-1.55-.02-.52.75-1.07 1.96-1.54 3.2-1.25 8.35-1.25 11.56 0zm9.13-15.23c-3.62-1.41-9.22-1.41-12.84 0-1.92.75-3.1 1.88-3.1 3.21v.71c-.06-.02-.12-.04-.19-.07-.44-.18-.91-.32-1.41-.45.25-.11.5-.23.52-.23.12-.09.23-.19.34-.31l.12-.18c.04-.05.08-.11.12-.19v-.01h.01c.29-.54.33-1.14.17-1.68-.15-.53-.52-1.01-1.05-1.31l-.02-.01L33.29.273v-.01c-.38-.21-.84-.3-1.3-.25-.09.01-.19.02-.27.04-.09.03-.18.06-.26.09h-.01l-30 11.18a2.187 2.187 0 0 0-1.03.79c-.04.06-.08.12-.12.19H.29c-.43.76-.37 1.67.1 2.35.09.14.19.26.32.37.11.11.25.2.39.29l.04.02.41.24-.08.03c-.34.12-.65.33-.89.6-.05.07-.1.12-.14.18-.04.06-.08.12-.12.19l-.01.01c-.43.75-.37 1.67.1 2.34.09.14.19.26.32.37.11.11.25.21.4.29v.01l.69.4-.36.14c-.33.12-.65.33-.89.6-.05.07-.09.12-.13.18-.04.06-.09.12-.13.19v.01a2.194 2.194 0 0 0 .41 2.71c.11.11.25.21.4.29l.01.01.68.4-.35.14c-.34.12-.65.33-.9.6-.04.06-.09.12-.13.18-.04.06-.08.12-.12.19l-.01.01c-.43.75-.37 1.67.1 2.34.08.14.19.26.31.37.12.1.25.21.4.29l.01.01 13.56 7.84c.42.29.94.42 1.46.37.1-.02.2-.03.3-.06.11-.02.21-.05.31-.09h.01l15.25-6.18v.01c.48.81 1.44 1.5 2.76 2.01 1.31.52 2.9.84 4.54.98v.7c0 1.34 1.19 2.47 3.11 3.21 3.62 1.41 9.22 1.41 12.84 0 1.75-.68 2.89-1.68 3.08-2.86 1.96-.09 3.87-.43 5.41-1.03 1.92-.75 3.11-1.88 3.11-3.21v-19.17c0-1.33-1.19-2.46-3.1-3.21z"/>
        <path d="M49.68 33.254c-.26.46-.83.63-1.29.38a.958.958 0 0 1-.38-1.29c.26-.46.83-.63 1.29-.38.46.25.64.83.38 1.29M27.76 10.123a.95.95 0 1 1-1.67-.908.95.95 0 0 1 1.67.909"/>
    </g>
</svg>
