<svg width="62.27" height="66.935" viewBox="0 0 62.27 66.935" xmlns="http://www.w3.org/2000/svg">
    <g fill="currentColor" fill-rule="evenodd">
        <path d="M17.027 13.86c.55.86-.47 1.92-1.33 2.48-1.91 1.22-3.49 3.61-4.4 6.89-.26.94.1 2.26-1.85 2.12-1.75-.12-1.83-1.2-1.46-2.9 1.14-5.21 4.34-8.15 5.99-9.08 1.64-.93 2.49-.38 3.05.49M22.137 10.71c.31.87-.14 1.84-1.02 2.16-.88.32-1.85-.14-2.17-1.02-.31-.88.14-1.85 1.02-2.17.88-.31 1.85.15 2.17 1.03"/>
        <path d="M55.897 28.14c-5.35 2.61-11.86 3.67-22.48 3.67-.8 0-1.64-.01-2.54-.02-12.09.18-19.21-.84-24.97-3.66-2.61-1.27-2.55-5.77-1.63-7.72 2.36-4.99 9.68-16.65 26.63-16.97 16.94.32 24.27 11.98 26.63 16.99.91 1.94.98 6.43-1.64 7.71m-16.04 8.73c-.77 1.25-2 1.44-5.24 1.48-1.08.01-6.4.01-7.48 0-3.24-.04-4.04-.53-4.81-1.77-.54-.9-.21-1.57.01-1.87 1.89.09 3.91.13 6.08.13.88 0 1.79-.01 2.73-.02.93.01 1.83.02 2.71.02 2.18 0 4.2-.04 6.09-.13.17.35.48 1.22-.09 2.16m-1.93 22.83c-1.14 3.79-3.25 4.44-7.02 4.44-3.78 0-5.55-1.48-6.43-4.51-.77-2.6-.75-7.32-.15-10.94.24-1.47 1.43-5.72 1.82-7.82.39.03.8.05 1.23.05 1.08.01 3.76 0 3.76 0h3.75c.45-.01.88-.03 1.3-.06.38 2.11 1.43 6.16 1.67 7.61.6 3.62.85 8.64.07 11.23m23.55-39.92C58.797 13.96 50.457.36 31.107 0 11.817.36 3.487 13.96.787 19.8c-1.42 3.08-1.12 8.95 2.57 10.79 4.32 2.16 9.29 3.4 16.07 3.93-.25.85-.45 2.27.36 3.61.64 1.04 1.77 1.79 3.36 2.25-.2 1.5-.5 2.67-.82 3.88-.31 1.2-.67 2.59-.95 4.29-.62 3.69-.83 8.88.06 11.86 1.36 4.53 3.63 6.4 9.73 6.52 6.39-.05 8.42-2.18 9.72-6.52.89-2.98.64-8.32.03-12.02-.29-1.69-.61-2.93-.92-4.13-.32-1.22-.62-2.39-.82-3.9 1.56-.46 2.66-1.2 3.29-2.23.81-1.34.6-2.76.36-3.61 6.8-.53 11.77-1.77 16.1-3.93 3.68-1.85 3.98-7.72 2.55-10.81"/>
    </g>
</svg>
