<svg width="66.926" height="58.231" viewBox="0 0 66.926 58.231" xmlns="http://www.w3.org/2000/svg">
    <g fill="currentColor" fill-rule="evenodd">
        <path d="M39.607 32.326a1.887 1.887 0 1 0 .002 3.773 1.887 1.887 0 0 0-.002-3.773"/>
        <path d="M66.913 25.511a1.849 1.849 0 0 0-.845-1.805 2.123 2.123 0 0 0-.656-.29 1.001 1.001 0 0 0-.507 0c-7.923.324-15.846-.366-23.5-2.495a1.821 1.821 0 0 0-2.332 1.555l-.818 6.206s0 1.122 1.738 1.325c1.737.203 1.873-.954 1.873-.954l.615-4.13c6.774 1.541 13.669 2.312 20.612 2.19L60.808 48.74a9.098 9.098 0 0 0-3.53-1.122c-1.858-.196-3.622.162-4.968.906-1.473.818-2.467 2.09-2.63 3.63-.162 1.541.54 2.995 1.812 4.097 1.156 1.007 2.806 1.724 4.679 1.926 1.859.197 3.623-.162 4.969-.905 1.473-.818 2.467-2.089 2.629-3.63.014-.102.007-.197.014-.29a1.74 1.74 0 0 0 .284-.786l2.846-27.055zM40.953 40.276s-.061-1.29-1.69-1.494c-1.636-.203-2.143 1.224-2.143 1.224l-1.001 7.957a9.258 9.258 0 0 0-3.022-.852c-1.86-.196-3.623.162-4.97.906-1.472.818-2.466 2.09-2.628 3.63-.163 1.541.54 2.995 1.81 4.097 1.157 1.007 2.807 1.724 4.68 1.927 1.859.196 3.623-.163 4.969-.906 1.473-.818 2.467-2.089 2.629-3.63a4.211 4.211 0 0 0-.013-.927l1.379-11.932zM35.227 6.494l-5.192 20.673c-.054.224-.17.42-.304.582-.014.074-.021.15-.041.223-.297 1.176-1.21 2.062-2.44 2.528-1.123.426-2.53.514-3.955.156-1.433-.358-2.637-1.102-3.421-2.008-.865-.994-1.251-2.204-.953-3.38.297-1.177 1.21-2.062 2.44-2.529 1.123-.426 2.529-.513 3.955-.155.764.19 1.46.5 2.062.88L31.313 7.73C25.91 7.062 21.26 6.217 16.176 4.277l-5.32 20.856a1.38 1.38 0 0 1-.311.581c-.44.777-1.183 1.366-2.116 1.724-1.123.426-2.53.514-3.955.155-1.433-.344-2.637-1.088-3.421-1.994-.865-.994-1.251-2.204-.953-3.38.297-1.177 1.21-2.062 2.44-2.529 1.122-.426 2.529-.513 3.955-.155.69.176 1.318.44 1.88.764l5.158-19.213c.189-.77 1.392-1.238 2.156-1.04.088.02.169.053.25.086 5.706 2.495 11.777 3.901 17.963 4.523a.799.799 0 0 1 .392.054c.176.068.338.176.48.298.433.385.595.926.453 1.487"/>
    </g>
</svg>
