<svg width="74.658" height="78" viewBox="0 0 74.658 78" xmlns="http://www.w3.org/2000/svg">
    <g fill="currentColor" fill-rule="evenodd">
        <path d="M61.121 58.383h-6.76c-1.01 0-1.86-.87-1.87-1.96-.01-1.05.75-1.93 1.74-1.99l.29-.02v-.32c0-1.09.83-1.97 1.84-1.97.58 0 1.11.28 1.47.77l.16.24.24-.15c.28-.18.61-.28.94-.28.84 0 1.57.61 1.79 1.48l.05.23.23.02c.98.05 1.75.93 1.74 1.98-.01 1.09-.86 1.96-1.86 1.97m.49-4.79c-.37-1.11-1.36-1.87-2.48-1.87-.38 0-.75.09-1.09.25-.49-.56-1.18-.87-1.91-.87-1.36 0-2.48 1.09-2.63 2.5-1.23.23-2.15 1.36-2.19 2.72-.04 1.59 1.19 2.89 2.67 2.89h7.21c1.51 0 2.73-1.31 2.67-2.92-.04-1.37-1-2.5-2.25-2.7M70.821 44.053h-9.71a2.71 2.71 0 0 1-2.7-2.68c-.01-1.44 1.1-2.63 2.51-2.71l.33-.01.09-.32c.3-1.19 1.35-2.01 2.56-2.01.48 0 .94.12 1.35.37l.35.2.24-.32c.51-.67 1.28-1.06 2.11-1.06 1.45 0 2.64 1.21 2.64 2.7v.44l.43.02c1.41.08 2.51 1.28 2.5 2.72a2.7 2.7 0 0 1-2.7 2.66m.8-6.45c-.2-1.89-1.75-3.36-3.64-3.36-1.01 0-1.96.42-2.65 1.17-.47-.22-.99-.34-1.51-.34-1.55 0-2.93 1.02-3.44 2.51-1.75.26-3.08 1.79-3.14 3.62-.07 2.16 1.62 3.92 3.71 3.92h10c2.06 0 3.75-1.74 3.71-3.87-.04-1.82-1.33-3.34-3.04-3.65M18.581 46.723h-7.43c-1.11 0-2.05-.88-2.06-1.98 0-1.07.84-1.95 1.92-2l.25-.02.06-.23c.23-.88 1.04-1.49 1.96-1.49.37 0 .72.09 1.04.27l.26.15.19-.23c.38-.5.97-.78 1.6-.78 1.12 0 2.03.89 2.03 1.99v.32l.32.02c1.08.06 1.92.94 1.92 2.01-.01 1.09-.95 1.97-2.06 1.97m.71-4.79c-.17-1.44-1.41-2.56-2.91-2.56-.81 0-1.57.33-2.12.89-.38-.16-.79-.25-1.2-.25-1.25 0-2.34.77-2.76 1.9-1.4.2-2.45 1.35-2.51 2.74-.05 1.64 1.3 2.98 2.97 2.98h7.99c1.65 0 3-1.32 2.96-2.94-.03-1.38-1.06-2.54-2.42-2.76M14.251 32.783H4.041c-1.54 0-2.82-1.22-2.83-2.74-.02-1.48 1.14-2.7 2.62-2.79l.45-.03v-.44a2.78 2.78 0 0 1 2.79-2.77c.87 0 1.68.39 2.21 1.09l.25.33.37-.21c.43-.26.92-.39 1.41-.39 1.27 0 2.38.84 2.7 2.06l.09.33.34.02c1.48.08 2.64 1.3 2.63 2.78 0 1.53-1.29 2.75-2.82 2.76m.63-6.54a3.834 3.834 0 0 0-3.6-2.51c-.54 0-1.08.12-1.56.34a3.816 3.816 0 0 0-2.77-1.17c-1.95 0-3.58 1.47-3.79 3.36-1.77.31-3.12 1.83-3.16 3.65-.05 2.14 1.71 3.88 3.86 3.88h10.42c2.17 0 3.94-1.77 3.86-3.93a3.815 3.815 0 0 0-3.26-3.62M48.171 29.859v-1.71a.77.77 0 0 0-.764-.764h-.323a.77.77 0 0 0-.764.764v1.71a.77.77 0 0 0 .764.764h.323a.77.77 0 0 0 .764-.764M45.304 31.797v-1.71a.77.77 0 0 0-.764-.764h-.323a.77.77 0 0 0-.764.764v1.71a.77.77 0 0 0 .764.764h.323a.775.775 0 0 0 .764-.764M39.426 31.797v-1.71a.77.77 0 0 0-.764-.764h-.323a.77.77 0 0 0-.764.764v1.71a.77.77 0 0 0 .764.764h.323a.775.775 0 0 0 .764-.764M33.58 31.797v-1.71a.77.77 0 0 0-.764-.764h-.323a.77.77 0 0 0-.764.764v1.71a.77.77 0 0 0 .764.764h.323a.775.775 0 0 0 .764-.764M42.365 29.615v-1.71a.77.77 0 0 0-.764-.764h-.323a.77.77 0 0 0-.764.764v1.71a.77.77 0 0 0 .764.764h.323a.775.775 0 0 0 .764-.764M36.456 29.615v-1.71a.77.77 0 0 0-.764-.764h-.323a.77.77 0 0 0-.764.764v1.71a.77.77 0 0 0 .764.764h.323a.77.77 0 0 0 .764-.764M30.839 29.615v-1.71a.77.77 0 0 0-.764-.764h-.323a.77.77 0 0 0-.764.764v1.71a.77.77 0 0 0 .764.764h.323a.775.775 0 0 0 .764-.764"/>
        <path d="M52.347 25.061v3.01a.682.682 0 0 1-.079.33l-2.899 6.012a.763.763 0 0 1-.512.409l-7.162 1.679-.015.59c.976.284 2.662.985 2.662 2.506 0 1.379-1.441 1.93-2.363 2.151l1.78 35.445a.77.77 0 0 1-.724.803c-.394.04-.78-.299-.804-.724l-1.812-36.115a.763.763 0 0 1 .685-.796c.773-.079 1.718-.441 1.718-.756 0-.528-1.316-1.025-2.048-1.151a.765.765 0 0 1-.631-.772l.04-1.796a.765.765 0 0 1 .591-.725l7.382-1.725 2.663-5.531v-2.206l-6.815-1.276a.763.763 0 0 1-.536-.394l-2.434-4.664-5.106-.04-2.757 4.515a.74.74 0 0 1-.544.354l-6.61.977v2.482l1.781 5.688 7.776 1.773a.762.762 0 0 1 .591.748v1.694a.779.779 0 0 1-.489.717c-.827.315-1.757.961-1.765 1.347-.007.245.93.78 1.938 1.001.363.079.615.41.599.788L34.66 77.272a.763.763 0 0 1-.764.724h-.04a.766.766 0 0 1-.725-.803l1.773-35.256c-.961-.308-2.537-1.009-2.505-2.356.031-1.284 1.434-2.143 2.253-2.529v-.583l-7.611-1.733a.763.763 0 0 1-.559-.52l-1.946-6.224a.72.72 0 0 1-.032-.229v-3.261c0-.379.276-.702.654-.757l6.91-1.024 2.797-4.577a.761.761 0 0 1 .654-.363h.007l2.128.024V.764a.764.764 0 1 1 1.528 0v17.049l2.332.016c.284 0 .544.157.67.409l2.474 4.735 7.067 1.332a.768.768 0 0 1 .622.756"/>
    </g>
</svg>
