<svg width="67.001" height="55.817" viewBox="0 0 67.001 55.817" xmlns="http://www.w3.org/2000/svg">
    <g fill="currentColor" fill-rule="evenodd">
        <path d="m48.865 51.195-1.59-1.59a1.074 1.074 0 0 0-1.51 0l-3.64 3.64-2.118-2.118 1.894-1.895a1.074 1.074 0 0 0 0-1.51l-1.72-1.718a1.064 1.064 0 0 0-1.501 0l-1.915 1.916-2.125-2.125 1.732-1.733 1.029-1.028c1.157-1.158 1.42-1.855.075-3.201L23.305 25.662c-.163-.163-.332-.325-.494-.481-.332-.325-.67-.65-.975-1.001-.467-.542-1.28-1.036-2.497-.34-4.622 2.647-9.691 2.275-13.555-.994C1.33 19.07.944 11.599 4.958 6.842c2.362-2.788 5.522-4.44 8.906-4.65 3.093-.196 6.064.873 8.37 2.998 3.622 3.344 4.36 9.353 1.707 13.975l-.501.86c-.244.419-.176.947.169 1.292L51.173 48.88l-2.308 2.314zM25.694 20.397l.094-.163c3.188-5.562 2.294-12.546-2.111-16.607-2.734-2.524-6.267-3.79-9.948-3.56C9.756.31 6.06 2.233 3.327 5.467c-4.832 5.719-4.338 14.422 1.076 19.004 4.568 3.864 10.524 4.33 15.944 1.245.312.345.643.67.982.995.155.149.31.297.467.453l14.17 14.185.055.054-.13.128-1.021 1.022c-.636.629-1.272 1.272-1.908 1.908a5.834 5.834 0 0 0-.433.488l-.156.182a1.06 1.06 0 0 0 .047 1.455l3.6 3.587c.197.196.467.31.752.31.277 0 .548-.114.75-.31l1.916-1.915.21.21-1.91 1.908a1.066 1.066 0 0 0 0 1.503l3.629 3.627c.196.196.467.31.75.31.285 0 .556-.114.752-.317l3.64-3.641 1.59 1.59c.4.4 1.11.4 1.51 0l3.817-3.816c.196-.197.31-.467.31-.751 0-.278-.114-.55-.31-.752L25.694 20.397z"/>
        <path d="M10.798 9.548a1.989 1.989 0 1 0-.002 3.978 1.989 1.989 0 0 0 .002-3.978M40.385 22.88l.034 5.028-3.059.02-.034-5.028 3.06-.02zm-4.162 5.32c0 .23.38.67.832.67l3.635-.028c.453 0 .825-.284.852-.704l-.067-5.42c-.055-.48-.379-.785-.84-.785l-3.634.027c-.622 0-.852.412-.846.643l.068 5.596z"/>
        <path d="M66.162 22.447c-.75 0-.778.548-.778.548v7.153H53.42V9.663h11.965v8.487s0 .548.764.548c.813 0 .84-.548.84-.548V9.724c0-.873-.71-1.583-1.584-1.583H53.378V1.583C53.378.71 52.668 0 51.795 0H33.158c-.874 0-1.584.71-1.584 1.583v19.91l1.76 1.617V7.863l-.055.048-.047-6.253h18.285l.102 30.859h-8.04l1.922 1.759h6.301c.873 0 1.583-.71 1.583-1.583v-.961h12.033c.873 0 1.583-.711 1.583-1.584v-7.153s-.088-.548-.839-.548"/>
        <path d="m57.967 25.912-.034-4.615 2.809-.021.033 4.616-2.808.02zm3.005-5.502-3.337.027c-.568 0-.778.372-.778.582l.06 5.143c0 .21.346.616.766.616l3.336-.027c.42 0 .758-.264.778-.643l-.061-4.98c-.054-.44-.345-.725-.764-.718zM57.967 17.906l-.034-4.615 2.809-.02.033 4.615-2.808.02zm3.769-4.778c-.054-.44-.345-.724-.764-.717l-3.337.027c-.568-.007-.778.372-.778.582l.06 5.143c0 .21.346.616.766.616l3.336-.027c.42 0 .758-.264.778-.643l-.061-4.98zM47.714 22.88l.041 5.028-3.059.02-.034-5.028 3.052-.02zm-4.162 5.32c0 .23.38.67.832.67l3.635-.028c.453 0 .825-.284.852-.704l-.067-5.42c-.055-.48-.379-.785-.84-.785l-3.634.027c-.616 0-.846.412-.846.643l.068 5.596zM47.714 14.116l.034 5.028-3.059.02-.034-5.028 3.06-.02zm-4.162 5.32c0 .23.38.67.832.67l3.635-.028c.453 0 .825-.284.852-.704l-.067-5.42c-.055-.48-.379-.785-.84-.785l-3.634.027c-.616.006-.846.42-.846.643l.068 5.596zM40.385 14.116l.034 5.028-3.059.02-.034-5.028 3.06-.02zm-4.162 5.32c0 .23.38.67.832.67l3.635-.028c.453 0 .825-.284.852-.704l-.067-5.42c-.055-.48-.379-.785-.84-.785l-3.634.027c-.622.006-.852.42-.846.643l.068 5.596zM47.714 5.4l.034 5.028-3.059.02-.034-5.028 3.06-.02zm-3.33 5.989 3.635-.027c.453 0 .825-.284.852-.704l-.067-5.42c-.055-.481-.379-.785-.84-.785l-3.634.027c-.616.006-.846.419-.846.643l.068 5.596c0 .23.38.67.832.67zM40.385 5.4l.034 5.028-3.059.02-.034-5.028 3.06-.02zm-3.33 5.989 3.635-.027c.453 0 .825-.284.852-.704l-.067-5.42c-.055-.481-.379-.785-.84-.785l-3.634.027c-.622.006-.852.419-.846.643l.068 5.596c0 .23.38.67.832.67z"/>
    </g>
</svg>
