<svg width="47.499" height="66.928" viewBox="0 0 47.499 66.928" xmlns="http://www.w3.org/2000/svg">
    <g fill="currentColor" fill-rule="evenodd">
        <path d="m17.523 23.876-.67-.669a.781.781 0 0 0-.56-.23.782.782 0 0 0-.562.23l-4.05 4.05-1.757-1.759a.783.783 0 0 0-.561-.229.796.796 0 0 0-.561.23l-.67.67a.783.783 0 0 0 0 1.114l2.982 2.982a.784.784 0 0 0 .56.23c.21 0 .414-.082.562-.23l5.28-5.28a.781.781 0 0 0 .23-.56.744.744 0 0 0-.223-.549M17.523 34.612l-.67-.669a.781.781 0 0 0-.56-.23.782.782 0 0 0-.562.23l-4.05 4.049-1.757-1.758a.783.783 0 0 0-.561-.229.796.796 0 0 0-.561.229l-.67.67a.783.783 0 0 0 0 1.115l2.982 2.982a.784.784 0 0 0 .56.229c.21 0 .414-.081.562-.229l5.28-5.28a.781.781 0 0 0 .23-.561.739.739 0 0 0-.223-.548M16.853 44.678a.781.781 0 0 0-.56-.23.781.781 0 0 0-.562.23l-4.05 4.05-1.757-1.758a.782.782 0 0 0-.562-.23.793.793 0 0 0-.56.23l-.67.67a.784.784 0 0 0 0 1.115l2.981 2.981c.15.15.345.23.562.23a.793.793 0 0 0 .561-.23l5.28-5.28a.784.784 0 0 0 .23-.56.783.783 0 0 0-.23-.562l-.663-.656zM23.725 8.21c-1.31 0-2.38-1.07-2.38-2.39s1.07-2.39 2.38-2.39a2.39 2.39 0 1 1 0 4.78m11-2.39h-5.17c0-3.22-2.6-5.82-5.82-5.82a5.82 5.82 0 0 0-5.82 5.82h-5.17c-.69 0-1.25.56-1.25 1.24v1.69a4.49 4.49 0 0 0 4.49 4.49h15.5a4.49 4.49 0 0 0 4.49-4.49V7.06c0-.68-.56-1.24-1.25-1.24"/>
        <path d="M43.956 6.793h-4.347S38.074 7.15 38 8.72c-.074 1.568 1.609 1.98 1.609 1.98h3.955v52.32H3.934V10.7h3.928s1.629-.405 1.609-1.946c-.02-1.542-1.609-1.961-1.609-1.961h-4.32C1.588 6.793 0 8.368 0 10.308v53.104c0 1.94 1.588 3.515 3.542 3.515h40.414c1.954 0 3.542-1.575 3.542-3.515V10.308c0-1.94-1.588-3.515-3.542-3.515"/>
        <path d="M19.612 48.775c0 .818.399 1.203 1.683 1.197l16.618-.088c.865-.02 1.412-.453 1.392-1.319-.02-.865-.716-1.189-1.582-1.169l-16.576.047c-1.19.054-1.535.467-1.535 1.332M19.612 37.938c0 .818.399 1.203 1.683 1.197l16.618-.088c.865-.02 1.412-.453 1.392-1.319-.02-.865-.716-1.189-1.582-1.169l-16.576.047c-1.19.054-1.535.467-1.535 1.332M21.14 25.56l16.577-.047c.864-.021 1.56.304 1.581 1.169.02.866-.528 1.298-1.392 1.319l-16.617.087c-1.279.007-1.684-.371-1.684-1.196.006-.86.351-1.271 1.535-1.332"/>
    </g>
</svg>
