<svg width="66.934" height="44.409" viewBox="0 0 66.934 44.409" xmlns="http://www.w3.org/2000/svg">
    <g fill="currentColor" fill-rule="evenodd">
        <path d="M36.841 22.985c2.481-.642 4.077-2.25 4.597-4.658.406-1.859-.406-3.644-.987-4.624.872-.933 2.258-2.799 2.062-5.09-.203-2.414-1.088-4.13-2.623-5.112-1.785-1.135-3.962-.912-5.199-.649a4.921 4.921 0 0 0-1.656-1.94C31.757.04 30.101-.21 28.113.175c-3.502.67-3.928 3.24-3.94 3.347a.995.995 0 0 0 .824 1.13 1.023 1.023 0 0 0 1.17-.806c.026-.135.317-1.305 2.332-1.69 3.867-.744 4.522 1.82 4.576 2.103l.224 1.162 1.115-.398c.027-.007 2.657-.933 4.408.19.973.621 1.541 1.824 1.69 3.568.182 2.17-1.98 3.982-2 4.003l-.772.628.622.778c.014.02 1.494 1.94 1.11 3.704-.873 4.03-5.768 3.347-6.059 3.306a.998.998 0 0 0-.872.23 1.015 1.015 0 0 0-.094 1.427c.277.317 1 .425 1.798.425 1.001-.006 2.123-.175 2.596-.297"/>
        <path d="M33.715 41.803v-2.49h23.71v2.49c0 .02.01.04.01.06l-23.72-.06zm-16.53-.04h-3l.21-13.62-1.55 1.03c-.56.36-4.28 1.67-6.96.51-1.39-.6-2.24-1.76-2.58-3.55-.33-1.76.87-3.92 1.21-4.26l1.15-1.09-1.48-.62c-.45-.19-2.59-1.84-2.04-5.23.56-3.59 2.91-5.31 6.59-4.85l1.06.13.07-1.07c.16-2.92 1.31-6.39 5.78-6.39 4.4 0 5.71 3.56 6.1 5.68l.16.9.92-.08c2.08-.18 4.29.62 5.61 2.05.69.76 1.46 2.04 1.15 3.84-.39 2.28-1.86 4.03-2.21 4.31l-1.17.47.81 1.05c.23.31 2.22 3.03.63 5.68-1.04 1.71-2.35 2.75-3.9 3.09-2.63.57-4.98-1.01-5.01-1.03l-1.58-1.08.03 14.13zm48.48.12-6.29-.01c0-.03.01-.05.01-.07v-11.29c0-.65-.51-.88-1.05-.88s-.91.23-.91.88v6.73h-23.72v-6.73c0-.65-.45-.88-.99-.88-.55 0-.97.23-.97.88v11.31l-12.55-.04-.03-10.56c1.34.53 3.14.92 5 .51 2.11-.46 3.86-1.82 5.19-4.03 1.76-2.91.56-5.8-.24-7.17.94-1.03 2.07-2.94 2.44-5.05.35-2.04-.24-4.01-1.66-5.55-1.57-1.7-3.95-2.71-6.39-2.73-1.04-4.07-3.94-6.47-7.89-6.47-4.27 0-7.09 2.69-7.7 7.26-4.23-.15-7.11 2.28-7.8 6.62-.55 3.42.98 5.69 2.27 6.77-.69 1.21-1.46 3.21-1.09 5.12.47 2.42 1.76 4.16 3.76 5.02 2.48 1.07 5.43.58 7.27-.01l-.16 10.24-6.24-.01c-.7 0-1.26.56-1.26 1.25-.01.7.56 1.27 1.25 1.27l59.75.15c.7 0 1.27-.57 1.27-1.26 0-.7-.56-1.26-1.27-1.27z"/>
        <path d="M54.885 28.272H36.274s-.798-.122-.791 1.305c.006 1.426.791 1.48.791 1.48h18.604s.764-.094.771-1.433c.013-1.325-.764-1.352-.764-1.352M55.676 33.647c0 1.406-.798 1.406-.798 1.406H36.274s-.798.047-.805-1.38c-.007-1.432.805-1.405.805-1.405h18.604c0-.007.798.04.798 1.379"/>
    </g>
</svg>
