<svg width="41.492" height="66.922" viewBox="0 0 41.492 66.922" xmlns="http://www.w3.org/2000/svg">
    <g fill="currentColor" fill-rule="evenodd">
        <path d="M8.866 24.598a1.27 1.27 0 0 1 1.271 1.271 1.27 1.27 0 0 1-1.27 1.271 1.27 1.27 0 0 1-1.272-1.271c0-.703.575-1.271 1.271-1.271"/>
        <path d="M10.317 62.84a3.091 3.091 0 0 1-2.69 1.62h-.03c-.49 0-1-.12-1.47-.37a3.095 3.095 0 0 1-1.24-4.19l9.97-18.43c.3.3.63.6.97.91.37.34.79.73 1.27 1.19.71.69 1.53 1.51 2.37 2.36l-9.15 16.91zm16.86-38.5 10.75 9.07c1.3 1.11 1.46 3.06.35 4.36-.6.71-1.48 1.09-2.35 1.09-.71 0-1.42-.25-2-.74l-7.23-6.15.48-7.63zm7.18 21.43c-.25-.58-.61-1.11-1.05-1.57l-6.92-7.24.12-1.9 5.82 4.95a5.566 5.566 0 0 0 7.84-.64c1.99-2.33 1.7-5.85-.64-7.84 0 0-8.44-6.96-11.56-9.47-.56-.45-1.04-.97-1.4-1.57-1.27-2.11-4.04-3.63-6.28-4.67-.87-.42-1.84-.63-2.79-.63-1.92 0-3.59.88-4.6 2.41 0 0-.66 1.36-2.47 4.13 0 0-.15.86.6 1.36.76.5 1.47 0 1.47 0l2.47-4.14c.59-.9 1.55-1.29 2.54-1.29.59 0 1.19.14 1.74.39 1.95.92 5.66 2.82 5.55 4.95l-.91 14.59c-.01.1-.03.18-.05.28l7.7 8.05c.24.26.44.55.59.87l5.94 13.28c.69 1.55 0 3.39-1.56 4.08a3.079 3.079 0 0 1-4.07-1.55l-5.75-12.81s-4.89-5.11-7.88-8c-2.35-2.28-3.57-2.91-3.57-4.75l.5-7.99-7.65 11.73a3.1 3.1 0 0 1-2.59 1.4c-.58 0-1.16-.17-1.68-.51a3.084 3.084 0 0 1-.9-4.27l4.66-7.12s.42-1.04-.51-1.56c-.7-.4-1.45 0-1.45 0-2.05 3.14-3.34 5.15-4.63 7.13-1.43 2.19-1.33 5.14.46 7.03 1.45 1.55 3.59 2.13 5.64 1.55 1.33-.38 2.44-1.32 3.2-2.48l2.56-3.94c.08.47.21.89.39 1.29-.04.06-10.53 19.42-10.53 19.42-1.45 2.7-.45 6.08 2.25 7.54.81.44 1.72.67 2.69.67 2.01 0 3.86-1.11 4.82-2.88l8.81-16.29c1.47 1.5 2.77 2.85 3.33 3.43l5.44 12.16c.88 1.96 2.72 3.4 4.87 3.52.92.06 1.83-.12 2.67-.52 2.79-1.3 3.87-4.73 2.61-7.54l-5.84-13.04zM24.447 12.12a4.78 4.78 0 0 1-4.78-4.78c0-2.64 2.15-4.79 4.78-4.79 2.64 0 4.79 2.15 4.79 4.79s-2.15 4.78-4.79 4.78M24.347 0c-4.03 0-7.33 3.29-7.33 7.33s3.29 7.33 7.33 7.33c4.04-.01 7.33-3.29 7.33-7.33 0-4.03-3.29-7.33-7.33-7.33"/>
    </g>
</svg>
