<svg width="44.984" height="66.928" viewBox="0 0 44.984 66.928" xmlns="http://www.w3.org/2000/svg">
    <g fill="currentColor" fill-rule="evenodd">
        <path d="M37.28 33.51a.21.21 0 0 1-.04.06L22.59 55.33 7.93 33.58a18.188 18.188 0 0 1-3.61-10.91c0-10.06 8.19-18.26 18.26-18.26 10.07 0 18.26 8.2 18.26 18.26.01 3.94-1.22 7.69-3.56 10.84M22.49 0C10.09 0 0 10.09 0 22.49c0 4.84 1.51 9.44 4.36 13.32l17.04 25.3c.25.36.65.58 1.09.58.43 0 .85-.22 1.09-.58l17.04-25.3c2.86-3.88 4.36-8.48 4.36-13.32C44.98 10.09 34.89 0 22.49 0M38.202 64.305H6.74c-.723 0-1.312.588-1.312 1.312 0 .723.59 1.311 1.312 1.311h31.463c.723 0 1.312-.588 1.312-1.311 0-.724-.589-1.312-1.312-1.312"/>
        <path d="M29.28 18.04c0-.72.59-1.31 1.31-1.31h.03c.72 0 1.31.58 1.31 1.31 0 .73-.59 1.32-1.31 1.32h-.03c-.72 0-1.31-.59-1.31-1.32"/>
        <path d="M32.98 22.36c0 5.78-4.71 10.48-10.49 10.48s-10.5-4.7-10.5-10.48 4.71-10.48 10.49-10.48c2.1 0 4.13.62 5.87 1.79.6.41.75 1.22.35 1.82-.41.6-1.22.76-1.82.35a7.82 7.82 0 0 0-4.4-1.35c-4.33 0-7.86 3.53-7.86 7.87s3.53 7.87 7.86 7.87c4.34 0 7.87-3.53 7.87-7.87 0-.73.59-1.31 1.32-1.31.73 0 1.31.58 1.31 1.31"/>
    </g>
</svg>
