<svg width="66.938" height="21.447" viewBox="0 0 66.938 21.447" xmlns="http://www.w3.org/2000/svg">
    <path d="M62.123 8.163c-1.78 1.33-3.78 2.2-5.9 2.71l-11.58 2.75c-.88-1.67-2.51-3.05-4.15-2.66l-12.41 2.96c-1.63.39-2.7 2.02-2.73 3.9l-1.16.28-8.03-.22c.1-.63.18-1.43.02-2.11-.57-2.38-2.45-4.06-4.45-3.59l-4.78 1.14-4-8.84.79-.19c.6-.14 1.54-.11 1.96.47 1.98 2.83 4.61 4.86 7.44 6.29l2.94.96c.32.16.68.21 1.01.13l37.49-8.88c.39-.09.72-.23 1.12-.3-.09.33.08 1.29.16 1.66.25 1.05 1.17 1.73 2.05 1.52l6.36-1.55c.06.16-.43 2.29-2.15 3.57m-20.24 8.07-12.14 2.86c-.23.05-.8-.15-1.13-1.43-.33-1.28.11-1.77.35-1.83l12.13-2.85c.24-.06.78.58 1 1.48.21.89.02 1.72-.21 1.77m-28.23 1.42-5.15 1.21c-.24.05-1.13-.61-1.35-1.52-.22-.92.31-1.76.55-1.82l5.14-1.21c.24-.05.75.51.97 1.42.23.92.07 1.86-.16 1.92m53.19-14.1c-.56-2.34-3.8-3.12-6-3.39-2.48-.31-4.95-.18-7.36.4l-37 8.82-1.98-.91c-2.21-1-4.19-2.61-5.71-4.66-1.18-1.58-3.09-2.33-4.87-1.91l-2.73.65c-.47.12-.86.46-1.06.94-.19.47-.18 1.03.05 1.51l4.85 10.3c-.44.85-.6 1.89-.34 2.94.51 2.14 2.52 3.5 4.47 3.04l3.47-.82 11.99.47c.14 0 .27-.01.4-.05l1.86-.44c.88.81 2.07 1.19 3.24.91l12.13-2.89c1.17-.28 2.06-1.16 2.47-2.27l11.84-2.83c2.41-.57 4.67-1.57 6.74-2.97 1.84-1.24 4.11-4.49 3.54-6.84" fill="currentColor" fill-rule="evenodd"/>
</svg>
