<svg width="66.928" height="48.31" viewBox="0 0 66.928 48.31" xmlns="http://www.w3.org/2000/svg">
    <g fill="currentColor" fill-rule="evenodd">
        <path d="M46.936 5.138a1.633 1.633 0 1 0 1.055 2.055 1.63 1.63 0 0 0-1.055-2.055"/>
        <path d="M40.379 1.548c-13.115-3.914-25.331 3.03-29.361 15.583-4.03 12.554 2.88 26.007 15.434 30.036 12.555 4.03 26.285-2.94 30.32-15.5 2.455-7.654.677-16.524-3.9-21.682-.628-.71-1.778-.933-2.596 0-1.108 1.257.379 3.11.379 3.11 3.346 4.99 4.293 11.648 2.48 17.563-3.285 10.75-14.9 16.591-25.601 13.156-10.702-3.434-16.59-14.9-13.156-25.602C17.772 7.64 27.568 1.954 38.493 4.333c0 0 2.562 1.035 3.19.15.9-1.258.5-2.158-.817-2.725l-.487-.21z"/>
        <path d="M33.953 37.793c-7.32 0-13.27-5.96-13.27-13.27 0-7.32 5.94-13.27 13.27-13.27 7.32 0 13.27 5.95 13.27 13.27 0 7.31-5.95 13.27-13.27 13.27m13.92-19.15c-.38-.9-.85-1.77-1.4-2.58-.54-.8-1.17-1.56-1.85-2.24-.69-.69-1.44-1.32-2.24-1.86a15.06 15.06 0 0 0-8.48-2.59c-2.05 0-4.04.4-5.9 1.19-.9.38-1.77.86-2.58 1.4-.8.54-1.56 1.17-2.24 1.86-.69.68-1.31 1.44-1.86 2.24-.54.81-1.02 1.68-1.39 2.58-.8 1.87-1.19 3.85-1.19 5.9 0 2.05.39 4.03 1.19 5.9.37.9.85 1.76 1.39 2.57.55.81 1.17 1.57 1.86 2.25a15.185 15.185 0 0 0 4.82 3.25c1.87.79 3.85 1.19 5.9 1.19a15.06 15.06 0 0 0 8.48-2.59c.8-.54 1.56-1.17 2.24-1.85.69-.69 1.31-1.44 1.85-2.25.55-.81 1.02-1.67 1.4-2.57a15.06 15.06 0 0 0 1.19-5.9c0-2.05-.4-4.03-1.19-5.9M7.347 12.838C8.03 9.796 6.813 0 6.813 0H6.13v9.803h-.906V0h-.946v9.803h-.994V0h-.946v9.803h-.913V0H.742S-.475 9.803.208 12.838c.683 3.035 2.738 4.104 2.738 4.104s-3.57 31.152.838 31.152c4.408 0 .84-31.152.84-31.152s2.04-1.062 2.723-4.104M64.838 48.168c-3.698 0-1.34-22.107-1.34-22.107s-.134-1.284-.283-1.683a8.173 8.173 0 0 0-.561-1.143c-2.792-4.428-.351-19.07 1.197-21.782 1.548-2.704 2.603-.595 2.603-.595s.094 17.213.108 22.952v2.184s1.548 22.174-1.724 22.174"/>
    </g>
</svg>
