<svg width="66.928" height="50.379" viewBox="0 0 66.928 50.379" xmlns="http://www.w3.org/2000/svg">
    <path d="M55.79 37.99c-3.26.87-6.68.87-9.94 0V13.38h9.94v24.61zm-16.43-16.6c0 1.46-1.19 2.65-2.65 2.65s-2.65-1.19-2.65-2.65 1.19-2.65 2.65-2.65 2.65 1.19 2.65 2.65zm-9.35.02a2.56 2.56 0 0 1-2.56 2.57 2.57 2.57 0 1 1 0-5.14c1.41 0 2.56 1.15 2.56 2.57zm-27-3.31h14.58v-5.26H3.01v5.26zm0 7.82h14.58v-5.3H3.01v5.3zm0 7.86h14.58V28.4H3.01v5.38zm0 7.81h14.58v-5.34H3.01v5.34zM65.15 0c-.98 0-1.47.79-1.47 1.77v8.05H3.2V1.77C3.2.79 2.41 0 1.42 0 .44 0 0 .79 0 1.77V48.6c0 .98.54 1.78 1.52 1.78s1.78-.8 1.78-1.78v-3.99h14.15v3.99c0 .98.53 1.63 1.51 1.63s1.64-.65 1.64-1.63V13.38h5.51v3.88a4.286 4.286 0 0 0-2.96 4.07c0 2.35 1.92 4.27 4.28 4.27 2.36 0 4.28-1.92 4.28-4.27 0-1.92-1.27-3.55-3.01-4.09v-3.87h6.77v3.93a4.282 4.282 0 0 0-3.04 4.09c0 2.36 1.92 4.28 4.28 4.28 2.36 0 4.28-1.92 4.28-4.28 0-1.89-1.24-3.49-2.94-4.06v-3.96h4.74v23.75c-.28.01-.55.07-.8.18-.54.23-.96.66-1.17 1.2-.44 1.13.11 2.4 1.24 2.84 2.81 1.12 5.76 1.68 8.76 1.68s5.95-.56 8.76-1.68c1.13-.44 1.67-1.71 1.24-2.84a2.226 2.226 0 0 0-1.98-1.38V13.38h4.84V48.6c0 .98.73 1.63 1.7 1.63.98 0 1.55-.65 1.55-1.63V1.77c0-.98-.8-1.77-1.78-1.77z" fill="currentColor" fill-rule="evenodd"/>
</svg>
