<svg width="68.547" height="67.024" viewBox="0 0 68.547 67.024" xmlns="http://www.w3.org/2000/svg">
    <g fill="currentColor" fill-rule="evenodd">
        <path d="M13.266 5.034a1.39 1.39 0 1 0-1.802-2.118 1.39 1.39 0 0 0 1.802 2.118"/>
        <path d="M66.539 46.176h-.007a.07.07 0 0 1-.069.069H2.077a.068.068 0 0 1-.069-.069v-4.888a.07.07 0 0 1 .069-.07H66.47a.07.07 0 0 1 .069.07v4.888zM49.935 65.002h-2.776l-4.75-16.749h2.776l4.75 16.749zM26.899 52.948l1.33-4.695h12.089l1.329 4.695H26.899zm-1.17 4.133.602-2.119h15.891l.602 2.119H25.729zm-4.341 7.921h-2.777l4.75-16.749h2.777l-4.75 16.749zm30.071-28a.07.07 0 0 1 .069-.07h7.152a.07.07 0 0 1 .07.07v2.202h-7.291v-2.202zM40.179 5.878a.07.07 0 0 1-.069.07H28.042a.07.07 0 0 1-.07-.07V2.077a.07.07 0 0 1 .07-.069H40.11a.07.07 0 0 1 .069.069v3.801zM66.47 39.204h-.049V5.588a2.615 2.615 0 0 0-2.617-2.618H42.187v-.893A2.078 2.078 0 0 0 40.11 0H28.042a2.08 2.08 0 0 0-2.078 2.077v.893h-8.648c-.553 0-1.004.45-1.004 1.004s.451 1.004 1.004 1.004h8.648v.893a2.08 2.08 0 0 0 2.078 2.078H40.11c1.15 0 2.077-.935 2.077-2.078v-.886h21.617c.332 0 .602.27.602.603v33.616h-3.648v-2.202c0-1.15-.935-2.077-2.078-2.077h-7.152c-1.15 0-2.077.934-2.077 2.077v2.202H4.14V5.588c0-.333.27-.603.602-.603h2.341a1.005 1.005 0 0 0 0-2.008H4.742a2.615 2.615 0 0 0-2.617 2.618V39.21h-.048C.927 39.21 0 40.145 0 41.288v4.888c0 1.149.934 2.077 2.077 2.077h19.186l-4.757 16.791a1.542 1.542 0 0 0 1.482 1.966l3.753.007c.692 0 1.295-.457 1.488-1.122l1.925-6.799h18.231l1.932 6.806a1.541 1.541 0 0 0 1.482 1.122l3.759-.007a1.541 1.541 0 0 0 1.482-1.966l-4.757-16.798H66.47a2.079 2.079 0 0 0 2.077-2.077v-4.888c0-1.15-.935-2.084-2.077-2.084z"/>
        <path d="M52.497 15.918c1.343 0 2.645.395 3.753 1.142a1.003 1.003 0 0 0 1.398-.27 1.003 1.003 0 0 0-.27-1.398 8.69 8.69 0 0 0-4.88-1.489c-4.813 0-8.725 3.912-8.725 8.724s3.92 8.725 8.731 8.725c1.89 0 3.587-.617 4.902-1.787.256-.235.5-.485.727-.755a1.008 1.008 0 0 0-1.544-1.294 5.484 5.484 0 0 1-.526.54c-.949.851-2.154 1.281-3.566 1.281a6.715 6.715 0 0 1-6.709-6.71 6.715 6.715 0 0 1 6.71-6.709M37.784 26.173a3.153 3.153 0 0 1-3.15 3.15c-.776 0-2.957.007-4.26.014v-6.314h4.26a3.153 3.153 0 0 1 3.15 3.15zm-7.41-10.254h3.477v-.007a2.55 2.55 0 0 1 2.548 2.548 2.55 2.55 0 0 1-2.548 2.548l-3.476.007v-5.096zm3.477-2.015h-4.487c-.554 0-1.004.45-1.004 1.004V30.348a1.005 1.005 0 0 0 1.011 1.004h.007c.042 0 4.14-.021 5.263-.021 2.845 0 5.165-2.312 5.165-5.158a5.163 5.163 0 0 0-2.687-4.528 4.551 4.551 0 0 0 1.302-3.185c-.014-2.514-2.056-4.556-4.57-4.556zM17.302 17.338l3.186 8.44h-6.399l3.213-8.44zm-6.473 14.18a1.008 1.008 0 0 0 1.301-.581l1.198-3.144h7.922l1.183 3.137a1.007 1.007 0 0 0 1.294.588c.52-.194.784-.775.59-1.294l-5.747-15.22c-.008-.013-.008-.027-.015-.034a1.34 1.34 0 0 0-1.253-.838c-.553 0-1.044.333-1.253.845 0 .007-.006.014-.006.02l-5.796 15.22c-.2.519.063 1.1.582 1.3z"/>
    </g>
</svg>
