<svg width="66.929" height="43.767" viewBox="0 0 66.929 43.767" xmlns="http://www.w3.org/2000/svg">
    <g fill="currentColor" fill-rule="evenodd">
        <path d="M50.86 14.85c-.05.07-.07.16-.08.24l-.09 1.84c-.01.04 0 .07.01.1 0 .02-.01.05-.01.08l-.07 22.94-3.38.03.02-25.43c0-.1-.04-.19-.09-.27-.3-.42-.53-.75-.72-1 1-.01 2.61-.02 3.73-.02.04 0 .07-.01.1-.02.02.01.04.02.07.02l1.45.1-.94 1.39zm-4.55 12.8-25.07-.03c-.02 0-.04.01-.06.01V14.21c.5-.62 1.07-1.31 1.23-1.46.17-.09.27-.28.24-.48-.07-.41-.07-.44-4.62-.44l-.35-1.37 13.9-.02a.463.463 0 0 0 .46-.53l-.51-3.67.95-.01c.2 0 .38-.14.44-.34l1.19-4.23.96 4.03c.05.18.19.32.37.35l1.22.22-.6 3.62c-.02.14.02.28.1.38.09.1.22.16.36.16l13.63.1-.19 1.9c-4.87 0-4.88.01-4.95.44-.04.19.05.38.21.48.15.15.66.83 1.1 1.45l-.01 12.86zm0 12.44-1.76.01c-.19-1.14-.48-2.48-.88-3.79l1.67.02c.11 0 .2-.03.27-.1.08-.08.12-.18.12-.28l.03-4.46c0-.03 0-.06-.01-.09-.13-.52-.66-1.5-1.78-1.46-1.42.05-1.79.99-1.8 1.03-.02.05-.03.11-.02.17l.23 2.03c-.94-1.65-2.19-2.83-3.87-2.83-.84 0-1.56.38-2.18 1-.09-.47-.65-1.32-2.05-1.2-1.16.1-1.52 1.18-1.53 1.23-.01.03-.02.07-.02.1l-.18 7.27v.02c0 .21.17.37.38.38.21 0 .38-.17.39-.38l.16-7.2c.06-.14.29-.59.84-.64 1.03-.08 1.22.52 1.24.59.04.17.18.28.35.29-1.56 2-2.37 5.61-2.74 8.21l-11.75-.06c-.1 0-.17.04-.24.08V28.55c.02 0 .04.01.06.01l25.07.03v11.5zm-3.39-8.92c.1-.14.38-.44 1.07-.46h.04c.65 0 .9.66.95.83l-.03 4.01-1.53-.02-.5-4.36zm-.52 11.65c-.08-.94-.34-4.34-.68-6.35-.01-.03-.41-2.28-.94-3.98 2.02 2.36 2.95 7.56 3.21 10.3-.32.01-.81.03-1.59.03zm-3.05.02-.18-11.47c.08.02.17.05.26.09.25.53 1.01 3.04 1.37 5.17.32 1.92.58 5.21.66 6.21h-2.11zm-3.08-.04c.06-.92.32-4.35.64-6.3.34-2.02 1.04-4.38 1.33-5.08l.18 11.42c-.87 0-1.52-.02-2.15-.04zm-.93-.04c-.14-.01-.27-.02-.41-.02-.33-.02-.68-.03-1.08-.04.02-.4.08-1.12.19-2.01.03-.06.06-.13.06-.2a.2.2 0 0 0-.02-.09c.35-2.6 1.16-6.41 2.72-8.2.09-.11.19-.2.28-.29-.6 1.73-1.08 4.39-1.09 4.43-.33 2.04-.59 5.52-.65 6.42zM20.35 13.77c-.06.09-.09.19-.09.29v25.65l-2.92.05c-.06 0-.11.02-.16.04V16.39c0-.02-.01-.03-.01-.05 0-.01.01-.02.01-.04v-2.32a.51.51 0 0 0-.11-.31l-.96-1.09.5.04c.08.08.2.13.33.13 1.27 0 3.09.01 4.21.02-.21.25-.47.58-.8 1zm46.13 13.97L51.6 27.7l.02-10.58c0-.03 0-.05-.01-.07.01-.02.01-.04.01-.05l3.99-.08c.23-.01.42-.18.45-.4l.74-4.89 1.41-.02.96 4.87c.04.22.23.37.45.37l5.69.02a.465.465 0 0 0 0-.93L60 15.92l-.96-4.88a.48.48 0 0 0-.46-.37h-.01l-2.19.03a.48.48 0 0 0-.46.4l-.73 4.89-3.52.07.04-.8 1.31-1.96c.1-.14.11-.32.04-.46-.08-.15-.22-.26-.39-.26l-1.78-.11.24-2.35a.501.501 0 0 0-.11-.36.479.479 0 0 0-.35-.16l-13.6-.09.59-3.54a.469.469 0 0 0-.38-.53l-1.37-.25L34.76.36A.472.472 0 0 0 34.3 0h-.33c-.21 0-.4.14-.45.34l-1.4 4.97-1.13.02a.463.463 0 0 0-.46.53l.51 3.66H17.08a.46.46 0 0 0-.37.18.44.44 0 0 0-.08.4l.4 1.61-1.99-.15c-.2-.02-.37.09-.46.25-.08.17-.05.38.07.52l1.6 1.82v1.77l-3.06.04-.73-4.88a.445.445 0 0 0-.45-.39l-2.2-.03H9.8c-.22 0-.41.15-.45.37l-.97 4.87-7.54.09c-.26 0-.46.21-.46.47.01.26.21.46.47.46l7.91-.09c.23 0 .42-.15.46-.37l.96-4.87 1.41.02.74 4.89c.03.23.23.4.46.4l3.46-.04v11.41a.566.566 0 0 0-.18-.03L.46 28.21a.465.465 0 0 0 0 .93l15.61.02c.06 0 .12-.01.18-.03v11.08l-11.32-.18h-.01c-.25 0-.46.21-.46.46-.01.26.2.47.46.47l11.8.19h.01c.12 0 .23-.04.32-.13a.47.47 0 0 0 .14-.33v-.03c.05.02.11.03.16.03h.01l3.38-.06c.09 0 .18-.04.25-.09.06.2.23.34.44.34l11.64.06c-.09.79-.14 1.42-.14 1.79-.01.32-.02.85.47.87.57.03 1.05.05 1.49.07 1.34.06 2.23.1 4.12.1 4.82 0 5.5-.07 5.53-.07l.45-.06-.04-.44c-.01-.13-.07-.92-.23-2.05l6.01-.05c.08.11.2.18.35.18l11.37.13h.01c.25 0 .46-.2.46-.46s-.2-.47-.46-.47l-10.91-.12.03-11.74 14.88.03c.25 0 .46-.21.46-.46.01-.26-.2-.47-.44-.45zM27.95 38.27l.15-6.44c.01-.03.1-.85 1.21-.85.74 0 .9.76.91.79l.14 6.5h-2.41zm3.04-6.57c-.09-.52-.56-1.5-1.68-1.5-1.44 0-1.93 1.02-1.98 1.58l-.16 6.87c0 .1.04.2.11.27.07.08.18.12.28.12h3.2c.1.01.21-.04.28-.12.07-.07.11-.17.11-.27l-.16-6.95zm-8.12 4.09.11-4.29c.06-.12.28-.49 1.04-.51.64-.04.77.39.78.48l.08 4.32h-2.01zm2.69-4.36c-.04-.44-.42-1.27-1.58-1.22-1.45.05-1.75 1.07-1.76 1.11-.01.04-.02.07-.02.1l-.12 4.75c0 .1.03.2.1.29.08.07.18.11.28.11h2.81c.1-.01.21-.05.27-.12.08-.08.12-.18.11-.28l-.09-4.74z"/>
        <path d="m61.68 35.36-.1-3.92c.19-.07.58-.18 1.24-.16.61.02.94.09 1.1.13l.02 3.95h-2.26zm3.01-4.19c0-.1-.04-.2-.12-.27-.13-.13-.51-.35-1.72-.39-1.33-.05-1.83.34-1.92.42-.09.08-.14.19-.13.3l.11 4.53c0 .21.17.38.38.38h3.04c.1 0 .2-.04.27-.12.08-.07.12-.17.12-.27l-.03-4.58zM63.79 25.43l-2 .01-.09-3.95c.19-.07.58-.16 1.24-.12.59.03.91.1 1.08.15l-.23 3.91zm.91-4.41c-.12-.13-.51-.36-1.71-.43-1.33-.09-1.84.29-1.93.37a.37.37 0 0 0-.13.31l.11 4.57c0 .22.16.39.38.39l2.75-.02c.2 0 .37-.17.38-.37l.26-4.53c0-.11-.04-.21-.11-.29zM55.4 25.32l-.17-3.96c.19-.07.57-.18 1.24-.15.6.03.94.1 1.09.14l.01 3.99-2.17-.02zm2.92-4.22c0-.1-.04-.19-.11-.27-.12-.13-.51-.34-1.72-.4-1.32-.05-1.84.34-1.92.41a.37.37 0 0 0-.13.31l.2 4.58c.01.2.18.37.39.37l2.92.02a.45.45 0 0 0 .28-.12.37.37 0 0 0 .11-.27l-.02-4.63zM57.51 35.49l-2.17-.06-.08-4.04c.18-.08.58-.17 1.23-.13.61.04.94.12 1.09.17l-.07 4.06zm.76-4.56c-.12-.13-.51-.36-1.72-.44-1.32-.08-1.84.3-1.93.38-.09.07-.14.18-.14.3l.11 4.65c.01.2.17.37.38.38l2.93.08h.01a.54.54 0 0 0 .26-.11c.07-.08.11-.17.12-.28l.08-4.69c0-.1-.03-.19-.1-.27zM5.34 25.75l-2.36.01-.04-3.93c.17-.08.55-.2 1.23-.2h.01c.66 0 1.03.1 1.22.16l-.06 3.96zm.7-4.5c-.08-.07-.55-.39-1.86-.4h-.01c-1.31 0-1.81.41-1.89.49a.42.42 0 0 0-.12.28l.05 4.54c0 .21.17.38.39.38l3.13-.02c.21 0 .38-.17.38-.38l.07-4.58c0-.13-.05-.23-.14-.31zM12.02 25.71l-2.24.03v-4.06c.18-.07.55-.19 1.24-.18.65.01 1.03.11 1.22.18l-.22 4.03zm.86-4.56c-.08-.07-.55-.4-1.85-.42-1.36-.03-1.83.38-1.91.46-.08.08-.12.18-.12.28l.01 4.68c0 .1.04.2.11.27.08.06.17.1.28.1l2.99-.04c.2 0 .37-.16.38-.37l.25-4.64c0-.12-.04-.25-.14-.32zM11.99 35.67l-2.27.04-.17-3.94c.19-.08.57-.21 1.24-.22.68.02 1.04.09 1.22.15l-.02 3.97zm.65-4.51c-.08-.07-.54-.38-1.8-.38h-.07c-1.32.01-1.81.42-1.9.5-.08.07-.12.18-.11.3l.19 4.54c.01.21.19.37.39.37h.02l3.03-.06c.21-.01.38-.18.38-.39l.02-4.58a.4.4 0 0 0-.15-.3zM5.35 35.69l-2.19-.03L3 31.65c.18-.08.57-.22 1.23-.19.67.01 1.05.11 1.23.18l-.11 4.05zm.76-4.58c-.08-.07-.55-.41-1.86-.43-1.31-.04-1.82.39-1.91.47-.08.07-.12.18-.12.3l.19 4.6c.01.2.17.37.38.37l2.94.05h.01c.2 0 .37-.16.38-.38l.12-4.68c0-.11-.05-.23-.13-.3zM41.12 25.85l.08-7.13c.01-.08.11-.81 1.34-.86.38-.02.67.07.86.25.25.23.26.59.26.59l.09 7.15h-2.63zm3.32-7.15c0-.07-.01-.69-.49-1.15-.35-.33-.82-.48-1.44-.46-1.58.06-2.05 1.07-2.08 1.6l-.1 7.54c0 .1.05.2.12.27.07.08.17.12.28.12h3.41a.395.395 0 0 0 .39-.39l-.09-7.53zM35.5 25.93l.12-7.11c0-.04.01-.91 1.27-.96h.09c1.04 0 1.21.85 1.21.9l.15 7.12-2.84.05zm3.46-7.23c-.08-.59-.65-1.67-2.11-1.62-1.59.07-2.02 1.16-2.02 1.72l-.12 7.51a.395.395 0 0 0 .39.39l.01.01 3.63-.06c.1 0 .2-.05.27-.13.07-.07.11-.17.11-.27l-.16-7.55zM29.57 25.9l.06-7.1c0-.04.1-.94 1.4-1h.08c1 0 1.29.71 1.34.89l.09 7.19-2.97.02zm3.67-7.27c0-.03-.01-.06-.02-.09-.13-.55-.75-1.55-2.22-1.52-1.57.06-2.09 1.14-2.14 1.72l-.07 7.54c0 .1.05.2.12.28.07.08.16.12.27.12h.01l3.75-.03c.1 0 .2-.04.28-.12.07-.07.11-.17.1-.28l-.08-7.62zM23.56 25.88l.02-7.01c.01-.04.16-1.05 1.46-1.09h.07c1.08-.01 1.28 1.04 1.3 1.11l.09 6.96-2.94.03zm3.62-7.06c-.1-.64-.66-1.83-2.06-1.83h-.1c-1.57.06-2.13 1.19-2.21 1.82l-.03 7.44c0 .11.05.21.12.28.07.08.16.12.27.12l3.72-.03c.1 0 .2-.04.28-.12a.34.34 0 0 0 .1-.27l-.09-7.41zM35.19 8.85a1.035 1.035 0 1 1-2.07-.01 1.035 1.035 0 0 1 2.07.01"/>
    </g>
</svg>
