<svg width="86.688" height="53" viewBox="0 0 86.688 53" xmlns="http://www.w3.org/2000/svg">
    <g fill="currentColor" fill-rule="evenodd">
        <path d="M77.471 26.2c0-.18 0-.35-.01-.53 0-.06-.01-.11-.01-.17 0-.03 0-.06-.01-.07l6.7-8.88h.01l.15-.21 1.13.57-7.96 9.29zm-1.34-.6-1.65 2.19a.48.48 0 0 0 .02.59l.66.77c.09.11.22.17.36.17h.01c.04 0 .08-.01.12-.03h.02c-.06.15-.12.29-.17.43-.04.1-.07.19-.11.28-.13.3-.27.58-.43.86-.06.09-.12.17-.17.26-.13.21-.27.41-.42.61-.06.07-.12.15-.18.23-.22.25-.43.49-.67.71-.05.05-.11.09-.15.13-.21.19-.42.35-.65.52-.08.05-.16.11-.23.16-.28.18-.58.36-.89.51l-.1.05c-21.72 10.52-36.63 16.66-41.98 17.28-2.33.27-4.48.38-6.5.34l1.14-.85c.17-.12.24-.35.16-.55l-2.47-6.33c2.07.33 3.89.39 4.85.39.28 0 .49-.01.61-.01 2.62-.07 9.19-2.31 19.52-6.64 1.14-.47 2.86-1.13 4.87-1.89 8.33-3.16 15.28-5.9 15.92-7.57 1.41-3.54.14-7.72-2.99-9.91-5.79-4.06-13.39-5.22-17.59-4.24-2.98.69-23.95 6.72-28.48 8.39.01-.04.03-.07.04-.11a.582.582 0 0 0-.1-.44l-1.43-1.88a.562.562 0 0 0-.74-.14l-3.74 2.2c-.13.08-.22.21-.25.36l-.04-.04a.568.568 0 0 0-.8-.03l-.35.33-.7-.63c9.46-5.56 33.6-10.51 37.02-11.08.49-.08.97-.15 1.44-.21.15-.02.3-.04.45-.05l.52-.06c.01.07.04.14.09.19.09.11.22.17.37.17h.88c.22 0 .41-.14.46-.36l.03-.14h.05c.17 0 .34 0 .52-.01.29-.01.58-.02.87-.02h.51c.29 0 .59.01.88.03.16 0 .32.01.49.02l.88.06c.16.02.31.03.47.05.3.03.6.07.9.11l.43.06c.31.05.63.11.93.16.09.02.19.03.28.04l-.63 1.64c-.12.29.02.61.3.73l2.65 1.1c.07.03.15.05.22.05.21 0 .42-.13.5-.33l.99-2.1s.01.01.02.01c.17.06.33.12.5.18.17.06.33.13.51.19l-1.13 1.85c-.08.13-.11.28-.07.42.03.15.13.28.26.36l2.43 1.42c.09.06.19.08.29.08.15 0 .29-.06.4-.16l2.05-2.07c.19.1.38.21.56.31l-1.75 1.72c-.11.11-.18.26-.17.43.01.16.08.31.2.41l1.98 1.66c.11.08.24.13.36.13.11 0 .21-.03.3-.09l2.56-1.61c.24.24.46.49.69.73l-2.57 1.25a.6.6 0 0 0-.3.38c-.04.17 0 .35.1.48l1.25 1.57c.1.14.27.22.44.22.06 0 .12-.01.18-.02l2.9-.92c.01.01.01.02.02.03.11.23.21.48.3.7l-2.83.79a.58.58 0 0 0-.34.27c-.07.13-.09.29-.04.44l.55 1.88c.07.24.29.4.54.4h.05l2.96-.25c.01.09.02.18.02.27-.04 0-.03.01-.04.02zm-.03 1.61c-.01.06-.01.12-.01.18 0 .03-.01.06-.02.09v.01l-.56.62-.05-.05.64-.98.01-.01c0 .04 0 .09-.01.14zm-56.8 16.17-.42-.9-.73-1.56 1.05-1.17 1.22 3.15.33.83 2.56 6.54-.57.43-3.44-7.32zm-3.97 7.25c.06-.04.11-.07.14-.13l2.11-3.18c.12-.17.14-.39.08-.58a.638.638 0 0 0-.39-.41l-4.49-1.52a.621.621 0 0 0-.61.14l-2.58 2.54c-.1.09-.15.22-.18.36-.1-.08-.21-.15-.32-.23-.14-.11-.29-.21-.43-.32-.22-.17-.43-.36-.65-.54-.11-.09-.2-.17-.31-.26l3.97-2.05c.17-.09.27-.24.3-.42a.586.586 0 0 0-.17-.5l-1.57-1.5c.45.26.78.36.82.37.05.01.1.01.15.01.05 0 .11-.01.16-.03-.05.1-.07.22-.06.34.04.18.16.34.33.41l5.17 2.31c.08.04.15.06.23.06.1 0 .2-.03.28-.08a.55.55 0 0 0 .28-.43l.21-2.08c.09.04.18.07.28.11l4.03 8.62.02.02c-2.5-.1-4.76-.44-6.8-1.03zm-4.2-2.89 1.62-1.59 3.35 1.14-1.34 2.04-3.63-1.59zm-4.28-2.09-.7.36-2.13-2.35.9-.29h.01l3.82-1.22 1.71 1.65-3.6 1.85h-.01zm-3.59-4.75h.02l4.28-.81c.17-.03.31-.13.4-.28.07-.13.08-.29.03-.44.18.36.4.76.65 1.14.11.17.23.32.35.46a.496.496 0 0 0-.27.01l-4.49 1.43c-.21-.29-.42-.6-.62-.92-.12-.2-.23-.39-.35-.59zm-.48-1.06h-.02l-.44.08-.85-2.53c.2 0 .42 0 .65-.01h.02c1.35-.03 3.08-.04 3.85-.04l.7 1.76-3.91.74zm-1.56-6.77.39-1.71 1.12.16h.01l2.43.35-.19 1.45-2.68-.17h-.01l-1.07-.08zm5.27 3.16a.507.507 0 0 0-.13-.02c-.13 0-2.56 0-4.32.04h-.02c-.01-.16 0-.33 0-.49 0-.15-.01-.3 0-.45.02-.35.04-.7.09-1.06l3.33.22h.04c.22 0 .41-.13.51-.33.18 1.26.5 2.09.5 2.09zm-2.85-6.9c.02-.03.03-.07.05-.11h.01l2.22.92a.538.538 0 0 0 .43-.01c-.07.39-.09.7-.11.9a.556.556 0 0 0-.36-.21l-2.75-.39c.16-.37.33-.74.51-1.1zm.35-3.08 1.26.47h.01l1.51.56-.88 1.63-1.64-.68h-.01l-1.06-.44.81-1.54zm2.06-.51c.24-.28.49-.56.75-.82.5.35 1.03.73 1.53 1.11-.07.04-.14.08-.2.14-.01.02-.12.14-.27.34-.03-.01-.06-.04-.1-.06l-1.76-.66c.01-.02.03-.03.05-.05zm5.46.93-1.8-1.11 2.13-1.98 1.15 1.22-1.48 1.87zm-1.21 11.07c.18.46.49 1.11.92 1.61.32.37.61.69.83.93l-.97.91a3.72 3.72 0 0 1-1.5-1.32c-.37-.55-.66-1.14-.83-1.56l1.55-.57zm-2.9-6.94c.04-.48.16-1.26.48-2.08.22-.58.59-1.12.83-1.46l2.03 1.09-.92 2.84-2.42-.39zm2.28 1.97.42 2.95-2.35.72c-.17-.45-.41-1.2-.49-2.08-.05-.61.03-1.27.11-1.68l2.31.09zm6.98 10.31-.11 1.01-3.71-1.66.7-.69 3.12 1.34zm-2.92-20.37 2.72-1.6.76.98-2.6 1.62-.88-1zm4.55.65c2.98-1.29 25.79-7.85 28.9-8.57 4.05-.94 11.38.19 16.99 4.13 2.86 2 4 5.79 2.73 9.02-.59 1.48-9.92 5.03-15.5 7.14-2.01.76-3.74 1.42-4.9 1.9-12.76 5.35-17.51 6.53-19.25 6.58-.55.02-2.97.05-5.75-.44l-1.73-4.42a.469.469 0 0 0-.36-.29.475.475 0 0 0-.43.15l-1.76 1.98c-.13.14-.16.34-.07.52l.47.99c-2.3-.91-4.36-2.35-5.31-4.65-2.01-4.84-.94-11.06 5.97-14.04zm-10.3-1.96.44.4 1.01.91.83.75-1.52 1.46c-.42-.31-.78-.57-1.11-.81-.45-.31-.81-.57-1.11-.76-.18-.11-.33-.22-.47-.3l1.93-1.65zm-.93-12.61.71-.4c1.93 4.91 3.9 10.27 4.09 11.4-.03.01-.06.03-.08.05-1.74-4.04-4.1-9.59-4.72-11.05zM52.771.91h.35l-1.95 7.78c.6-2.94 1.35-6.62 1.6-7.78zm7.23 10.37.4-1.03 1.88.56-.45.96-.69 1.48-1.64-.68.5-1.29zm5.01 1.64.39-.62 2.15 1.13-.43.44-1.48 1.49-1.56-.92.93-1.52zm4.71 2.42.28-.28 1.75 1.27-.39.24-1.96 1.23-1.18-.99 1.5-1.47zm3.91 3.67.49-.24.7 1.12-.49.16-2.3.73-.57-.71 2.17-1.06zm2.08 4.13c.03.1.05.19.08.28.06.26.12.51.16.76l-2.44.2-.26-.87 2.36-.66c.03.11.07.19.1.29zm-59.19-10.79.41-.19.43 2.01-.84-1.82zm2.76-.7.41-.17.37 1.88-.78-1.71zm2.64-.74.41-.17.39 1.89-.8-1.72zm2.75-.87.41-.15.35 1.89-.76-1.74zm2.66-.39.29-.11.28 1.31-.57-1.2zm2.33-.6.28-.12.28 1.32-.56-1.2zm2.41-.5.28-.09.18 1.33-.46-1.24zm2.31-.62.29-.1.23 1.32-.52-1.22zm2.52-.66.29-.13.32 1.31-.61-1.18zm2.67-.62.3-.08.13 1.34-.43-1.26zm2.53-.36.29-.09.14 1.34-.43-1.25zm2.35-.41.3-.08.1 1.34-.4-1.26zm40.65 9.9c-.91-.33-1.16-.28-1.3-.09l-6.3 8.35-.45-2.13a.587.587 0 0 0-.26-.36.487.487 0 0 0-.28-.07c-.13-.31-.26-.62-.41-.91.04-.05.06-.1.09-.15.06-.17.05-.35-.05-.49l-1.36-2.17a.57.57 0 0 0-.67-.23c-.28-.32-.56-.64-.85-.93.02-.06.05-.13.05-.21a.546.546 0 0 0-.24-.48l-2.82-2.02a.572.572 0 0 0-.52-.07c-.23-.14-.47-.28-.71-.42.01-.06.01-.11 0-.18a.574.574 0 0 0-.3-.41l-3.3-1.74a.562.562 0 0 0-.74.2l-.06.1c-.39-.15-.78-.3-1.17-.43l.1-.21c.07-.15.07-.33 0-.48a.552.552 0 0 0-.35-.3l-3.01-.9a.592.592 0 0 0-.7.35l-.15.42c-2.4-.49-4.84-.68-7.36-.59l2.16-8.65c.04-.14 0-.29-.09-.4a.455.455 0 0 0-.36-.18h-1.33c-.22 0-.4.14-.45.36-.09.35-1.33 6.42-1.87 9-.94.09-1.88.2-2.85.37-.33.05-.84.15-1.49.27l-.34-4.62a.334.334 0 0 0-.14-.24.31.31 0 0 0-.28-.05l-1.02.27c-.09.02-.17.08-.21.16-.05.08-.05.18-.03.27l1.36 4.35c-.48.1-1.02.2-1.6.32 0-.02.02-.05.01-.07l-.47-4.63a.334.334 0 0 0-.43-.29l-.98.26a.339.339 0 0 0-.22.43l1.49 4.33c.01.03.03.04.04.06-.64.13-1.32.28-2.05.45.07-.07.13-.16.12-.27l-.44-4.63a.316.316 0 0 0-.15-.24.343.343 0 0 0-.28-.05l-1.02.29a.36.36 0 0 0-.21.17c-.04.08-.05.17-.01.26l1.46 4.34c.04.1.12.16.21.2-.6.13-1.21.27-1.86.42.14-.07.23-.22.19-.38l-1.1-4.52a.372.372 0 0 0-.17-.22c-.1-.04-.2-.04-.29-.01l-.97.43c-.08.04-.14.11-.18.2-.03.08-.03.18.02.26l2.06 4.09c.05.11.15.18.27.18-.8.19-1.63.38-2.49.59.04-.06.05-.13.04-.21l-.78-4.58c-.01-.1-.07-.18-.16-.24a.31.31 0 0 0-.28-.02l-1 .36c-.09.04-.16.1-.19.19-.04.09-.04.18 0 .26l1.77 4.22c.03.07.07.11.12.14-.64.16-1.29.32-1.96.49.01-.05.04-.08.03-.14l-.61-4.6a.312.312 0 0 0-.16-.24c-.09-.05-.19-.07-.28-.03l-1.01.33c-.09.02-.16.09-.2.17a.36.36 0 0 0-.01.27l1.62 4.27c.02.04.05.07.07.1-.56.14-1.12.29-1.69.44.12-.08.19-.2.16-.34l-.96-4.54a.326.326 0 0 0-.18-.23.344.344 0 0 0-.28-.02l-.98.4c-.09.04-.15.11-.18.2-.04.08-.03.18 0 .26l1.96 4.14c.05.11.15.16.25.19-.71.18-1.43.37-2.15.57.13-.07.22-.2.18-.35l-.93-4.55a.35.35 0 0 0-.16-.23.416.416 0 0 0-.29-.02l-.98.4c-.09.03-.15.1-.19.18-.03.09-.03.19.01.26l1.91 4.17c.05.1.16.18.27.19-.71.19-1.44.39-2.14.6v-.05l-.94-5.14a.314.314 0 0 0-.17-.23.31.31 0 0 0-.28-.02l-1.12.43c-.09.04-.16.1-.19.19-.04.08-.04.18 0 .26l2.06 4.71c.01.01.02.02.02.03-.68.2-1.36.4-2.05.6v-.01l-1.06-5.13a.35.35 0 0 0-.16-.23.309.309 0 0 0-.28-.01l-1.12.44a.37.37 0 0 0-.18.19c-.04.08-.04.18.01.26l2.16 4.67c-.69.21-1.38.43-2.07.66 0-.04.03-.07.02-.11l-1.01-5.13a.314.314 0 0 0-.17-.23.344.344 0 0 0-.28-.02l-1.11.44c-.09.03-.15.1-.19.18a.36.36 0 0 0 .01.27l2.13 4.68c.02.04.04.06.06.08-.69.23-1.37.46-2.05.69 0-.01.01-.01.01-.03l-1.17-5.48a.314.314 0 0 0-.17-.23.328.328 0 0 0-.29-.01l-1.11.52a.43.43 0 0 0-.19.21c-.03.1-.02.2.02.29l2.28 4.95.01.01c-1.92.68-3.72 1.4-5.31 2.14-.18-.84-.71-2.47-1.96-5.84-1.12-3.02-2.31-6.02-2.32-6.06a.457.457 0 0 0-.66-.23l-1.54.88c-.2.11-.28.34-.21.56.1.32 3.82 9.01 4.92 11.56-.54.29-1.07.57-1.54.86l-1.03-.93a.552.552 0 0 0-.74 0l-2.97 2.53a.55.55 0 0 0-.17.62c.07.2.26.34.46.37.12.04.39.2.73.43-.35.36-.68.74-1 1.14l-.78-.29c-.26-.1-.56.01-.7.27l-1.32 2.53c-.07.14-.09.31-.03.46.06.14.17.27.32.33l.29.12c-.25.5-.47 1.01-.68 1.52l-.52-.08a.563.563 0 0 0-.63.43l-.66 2.86c-.03.16 0 .33.1.47.09.13.25.21.41.22l.31.02c-.09.72-.12 1.43-.09 2.12h-.05a.571.571 0 0 0-.51.75l1.27 3.71c.07.22.27.36.48.38.18.36.38.72.6 1.07.13.21.27.42.41.63l-.09.03c-.18.06-.32.21-.38.4-.05.18 0 .38.13.52l3.01 3.33c.11.12.26.18.42.18.09 0 .17-.01.26-.06l.18-.08c3.52 3.34 8.67 5.86 17.21 5.86 1.84 0 3.83-.12 6-.37 5.57-.65 20.24-6.67 42.4-17.42l.1-.04c3.02-1.46 4.94-4.38 5.25-7.89l9.15-10.12c.09-.12.12-.26.1-.4-.04-.14-1.58-.98-1.58-.98z"/>
        <path d="m31.581 38.73-.01-.02-.2.08-7.62-13.26 22.76-6.45h.01l.2-.06 11.28 9.65-26.42 10.06zm27.65-10.31-12.22-10.47a.566.566 0 0 0-.52-.11l-23.75 6.73a.57.57 0 0 0-.38.33c-.07.16-.05.34.03.5l8.23 14.31c.11.17.29.28.49.28.07 0 .13-.01.2-.04l27.75-10.57c.19-.07.33-.24.36-.43a.56.56 0 0 0-.19-.53zM56.841 38.2c-3.35 1.73-21.38 9.22-23.26 9.66-1.14.27-1.96.46-2.42.56l-.08-1.91c1.29-.42 6.83-2.25 9.44-3.22 3-1.11 19.18-8.04 21.62-9.27 3.41-1.7 6.95-3.79 7.53-4.14l3.25-.07c-3.67 1.92-13.35 6.98-16.08 8.39m17.66-9.17-4.96.11c-.04-.01-.1.01-.16.05-.04.02-3.89 2.33-7.58 4.17-2.45 1.21-18.56 8.12-21.55 9.23-2.94 1.08-9.61 3.28-9.68 3.3a.39.39 0 0 0-.27.38l.12 2.64c.01.12.06.22.15.28.07.06.15.08.23.08.02 0 .05 0 .07-.01.01 0 1.02-.22 2.87-.66 1.89-.45 20.07-7.99 23.43-9.73 3.38-1.74 17.37-9.06 17.51-9.13.16-.08.24-.26.2-.43a.376.376 0 0 0-.38-.28"/>
    </g>
</svg>
