<svg width="66.934" height="38.109" viewBox="0 0 66.934 38.109" xmlns="http://www.w3.org/2000/svg">
    <g fill="currentColor" fill-rule="evenodd">
        <path d="M24.802 1.386c0 .764-.622 1.386-1.386 1.386a1.388 1.388 0 0 1-1.386-1.386C22.03.622 22.652 0 23.416 0c.764 0 1.386.622 1.386 1.386M61.5 18.968l-19.32-.23-8.87-8.31h30.05l-1.86 8.54zm-45.47.16c-6.4 0-11.69-3.75-12.38-8.55l26.22-.08 9.35 8.55-23.19.08zm41.18 14.95-1.62 1.62c-2.58-.33-6.8-5.31-7.26-8.88 3.57.47 8.54 4.67 8.88 7.26zm9.45-25.99c-.23-.27-.56-.44-.92-.44H30.85l-4.12-4.11s-1.01-.31-1.56.27c-.61.65-.13 1.42-.13 1.42l2.43 2.42H1.19c-.66 0-1.19.54-1.19 1.19 0 7.24 6.96 13.12 15.51 13.12h26.27l4.09 4.09c.23 4.94 5.43 12.06 10.18 12.06.32 0 .62-.13.84-.35l2.39-2.39c.22-.22.35-.52.35-.84 0-4.75-7.12-9.95-12.06-10.18l-2.41-2.4h18.2c.57 0 1.06-.4 1.17-.96l2.39-11.93c.06-.33-.03-.7-.26-.97z"/>
    </g>
</svg>
