<svg width="40.219" height="66.934" viewBox="0 0 40.219 66.934" xmlns="http://www.w3.org/2000/svg">
    <g fill="currentColor" fill-rule="evenodd">
        <path d="M31.8 58.211h-3.82c1.4-1.66 2.66-4.73-.35-9.43-.19-.28-.39-.63-.71-.53-.33.11-.08.92-.06 1.26.1 2.69-1.19 3.65-1.88 3.69-.47.02-1.59-.69-1.64-1.52-.05-.9.05-1.73.57-2.26.69-.71 1.48-2.18.82-3.59-.5-1.06-1.04-1.54-2.45-2.23-.25-.12-.84-.63-1.01-.4-.17.22.08.61.2.86 1.11 2.42.43 2.81-1.83 4.11-.42.23-.87.49-1.34.79-2.54 1.57-1.33 3.67-.69 4.8.23.39.46.79.5.99.03.4-.04.68-.2.76-.21.1-.69-.02-1.1-.39-.29-.27-2.16-1.87-1.45-3.7.79-2.02-2.97-5.09-3.2-4.88-.23.21-.31.55-.2.84.63 1.59.35 2.18-.15 3.25-.17.38-.37.79-.54 1.29-.83 2.43-.62 4.61.6 6.29H8.44v-14.17c1.97-.17 3.89-1 5.76-1.8 2.06-.87 4-1.71 5.92-1.71s3.86.84 5.92 1.71c1.88.8 3.8 1.63 5.76 1.8v14.17zm.76-15.63c-1.92 0-3.86-.84-5.93-1.72-2.11-.89-4.28-1.83-6.51-1.83-2.23 0-4.41.94-6.52 1.83-2.06.88-4 1.72-5.92 1.72-.42 0-.76.33-.76.75v15.65c0 .42.34.75.76.75h24.88c.41 0 .75-.33.75-.75v-15.65c0-.42-.34-.75-.75-.75z"/>
        <path d="M37.71 64.401c-.02.01-.04.01-.06.01H2.58c-.03 0-.05-.01-.07-.01v-36.91c.02-.01.04-.01.06-.01.16.15.37.23.59.23h.01l12.22-.23h22.25c.03 0 .05 0 .07.01v36.91zm-32.83-41.4c.3-.22.6-.4.82-.54l1.58.79a.902.902 0 0 0 1.31-.74c.05-.59.22-1.28.39-1.51.88-.02 2.66-.29 3.55-.43l.68.79c.25.3.68.4 1.04.24l3.34-1.43h4.26l2.98 1.72c.36.21.8.15 1.09-.14l.75-.75c.28-.15 1.29-.61 2.55-.49 1.29.11 2.32.61 2.67.8l1.06 1.36c.14.19.36.31.59.34l3.13.43.51 1.52H4.38c.19-1 .4-1.79.5-1.96zm34.38 2.5-1.05-3.17a.914.914 0 0 0-.74-.61l-3.32-.45-.95-1.22a.77.77 0 0 0-.23-.21c-.06-.04-1.55-.95-3.59-1.14-2.11-.19-3.67.77-3.74.81-.06.03-.12.08-.16.13l-.35.34-2.58-1.49a.92.92 0 0 0-.45-.12h-4.69c-.12 0-.24.02-.36.07l-2.9 1.24-.58-.66a.902.902 0 0 0-.84-.31c-.81.14-3.11.49-3.87.49-.98 0-1.56.84-1.86 1.9l-.92-.46a.89.89 0 0 0-.81 0c-.03.01-.75.38-1.48.92-.51.38-.93 1.54-1.26 3.42-1.4.02-2.53 1.07-2.53 2.37v37.2c0 1.31 1.15 2.38 2.57 2.38h35.07c1.42 0 2.58-1.07 2.58-2.38v-37.21c.01-.75-.38-1.4-.96-1.84z"/>
        <path d="M13.35 31.521c-.8 0-1.45.64-1.45 1.44a1.451 1.451 0 0 0 2.9 0c0-.8-.65-1.44-1.45-1.44M26.843 13.966a.977.977 0 0 1-.67-.257c-1.94-1.744-1.818-4.536-.574-6.226.622-.845.933-2.265-.23-3.462a1.003 1.003 0 0 1 1.44-1.399c1.907 1.961 1.575 4.448.406 6.051-.588.797-.893 2.467.297 3.535.413.372.446 1.008.075 1.42a.985.985 0 0 1-.744.338M20.062 13.27c-.21 0-.426-.068-.608-.203-1.136-.865-1.812-2.035-1.954-3.367-.142-1.345.311-2.758 1.203-3.792.913-1.062 1.312-2.704-.331-4.144A1.006 1.006 0 0 1 19.697.249c2.562 2.245 2.075 5.186.534 6.97a3.074 3.074 0 0 0-.723 2.272c.081.77.486 1.453 1.169 1.98a1.001 1.001 0 0 1-.615 1.799M13.525 13.966a.977.977 0 0 1-.67-.257c-1.94-1.744-1.818-4.529-.574-6.226.622-.845.933-2.265-.223-3.462a1.003 1.003 0 1 1 1.44-1.399c1.906 1.961 1.575 4.448.406 6.051-.582.797-.893 2.467.297 3.535.412.372.446 1.008.074 1.42-.202.223-.48.338-.75.338M33.14 31.681H18.07a1.261 1.261 0 0 0 0 2.52h15.07c.69 0 1.25-.56 1.26-1.26 0-.69-.56-1.26-1.26-1.26"/>
    </g>
</svg>
