<svg width="61.665" height="66.928" viewBox="0 0 61.665 66.928" xmlns="http://www.w3.org/2000/svg">
    <g fill="currentColor" fill-rule="evenodd">
        <path d="m43.987 59.04-.05-6.06 3.88-.03.05 6.06-3.88.03zm5.21-6.45c-.07-.6-.48-1-1.06-.99l-4.61.03c-.78.01-1.08.53-1.07.82l.09 7.09c0 .3.48.86 1.06.85l4.6-.03c.58-.01 1.05-.36 1.08-.89l-.09-6.88zM43.967 47.95h3.88v-6.02h-3.88v6.02zm5.24-6.4c-.06-.6-.48-1-1.06-.99l-4.6.03c-.8.01-1.1.53-1.09.82l.09 7.09c0 .29.48.85 1.06.84l4.6-.03c.58-.01 1.05-.36 1.08-.89l-.08-6.87zM13.957 59.07l-.05-6.09 3.88-.03.05 6.09-3.88.03zm5.21-6.48c-.07-.6-.48-1-1.06-.99l-4.61.03c-.78.01-1.08.53-1.07.82l.09 7.09c0 .3.48.86 1.06.85l4.6-.03c.58-.01 1.05-.36 1.08-.89l-.09-6.88zM13.957 47.96l-.04-5.95 3.88-.03.04 5.95-3.88.03zm5.22-6.41c-.06-.6-.48-1-1.06-.99l-4.6.03c-.8.01-1.1.53-1.09.82l.09 7.09c0 .29.48.85 1.06.84l4.6-.03c.58-.01 1.05-.36 1.08-.89l-.08-6.87z"/>
        <path d="m40.837 34.15-9.17-7.75c-.51-.41-1.22-.41-1.67 0l-9.17 7.75H4.107l10.44-12.01h6.53c.35 0 .68-.15.92-.39l8.81-6.76 8.86 6.76c.24.24.57.39.92.39h6.53l10.44 12.01h-16.72zm-14 30.19h7.95V52.66h-7.95v11.68zm5.28-58.31h6.59V2.58h-6.59v3.45zm23.4 41.75c1.11 0 1.33-.65 1.33-.65V36.72h3.49c.76.01 1.33-.55 1.33-1.26 0-.4-.15-.71-.41-.96l-12.57-14.49c-.25-.3-.61-.45-.96-.45h-6.71l-8.9-6.81V8.61h7.91c.71 0 1.26-.55 1.26-1.26V1.32c0-.76-.55-1.32-1.26-1.32h-9.22c-.71 0-1.26.55-1.26 1.32v11.43l-8.9 6.81h-6.71c-.41 0-.81.2-1.02.5L.307 34.61c-.45.55-.41 1.36.15 1.82.25.2.5.3.81.3h3.55v27.61h-2.74c-.71 0-1.26.56-1.26 1.27 0 .76.55 1.32 1.26 1.32h57.5c.71 0 1.27-.56 1.27-1.32 0-.71-.56-1.27-1.27-1.27h-2.73v-9.59s-.22-.78-1.28-.78c-1.11 0-1.31.78-1.31.78v9.59h-17.63V52.2c0-.71-.55-1.32-1.26-1.32h-9.07c-.71 0-1.26.61-1.26 1.32v12.14H7.397V36.73h13.79c.08 0 .17 0 .25-.01.33-.03.62-.18.83-.41l8.53-7.23 8.58 7.23c.15.16.34.29.56.36h.01c.16.04.31.06.47.05h13.84v10.41s.1.65 1.26.65z"/>
        <path d="M55.613 49.607c-.744 0-1.352.608-1.352 1.352 0 .744.608 1.352 1.352 1.352.744 0 1.352-.608 1.352-1.352 0-.75-.602-1.352-1.352-1.352M31.807 39.12v2.18c0 .19-.08.36-.21.48l-1.21 1.14a.667.667 0 0 1-.94-.03.664.664 0 0 1 .03-.94l1-.93v-1.9a.666.666 0 0 1 1.33 0"/>
        <path d="M31.047 44.87a3.56 3.56 0 0 1-3.56-3.55c0-1.96 1.6-3.56 3.56-3.56s3.55 1.6 3.55 3.56a3.55 3.55 0 0 1-3.55 3.55m-.02-8.65c-2.79 0-5.07 2.28-5.07 5.08 0 2.8 2.28 5.08 5.07 5.08 2.8 0 5.08-2.28 5.08-5.08 0-2.8-2.28-5.08-5.08-5.08"/>
    </g>
</svg>
