<svg width="57" height="71" viewBox="0 0 57 71" fill="none" xmlns="http://www.w3.org/2000/svg">
<path d="M24.31 19.77C25.11 19.77 25.76 19.12 25.76 18.32C25.76 17.52 25.11 16.87 24.31 16.87C23.51 16.87 22.86 17.52 22.86 18.32C22.86 19.12 23.51 19.77 24.31 19.77Z" fill="currentColor"/>
<path d="M37.22 14.49C41 14.49 44.07 11.41 44.07 7.62C44.07 3.83 41 0.75 37.22 0.75C33.44 0.75 30.37 3.83 30.37 7.62C30.37 11.41 33.44 14.49 37.22 14.49ZM32.98 7.62C32.98 5.27 34.88 3.36 37.22 3.36C39.56 3.36 41.46 5.27 41.46 7.62C41.46 9.97 39.56 11.88 37.22 11.88C34.88 11.88 32.98 9.97 32.98 7.62Z" fill="currentColor"/>
<path d="M53.91 70.45C53.22 70.45 52.66 69.89 52.66 69.2V43.17C52.66 42.48 53.22 41.92 53.91 41.92C54.6 41.92 55.16 42.48 55.16 43.17V69.2C55.16 69.89 54.6 70.45 53.91 70.45Z" fill="currentColor"/>
<path d="M1.72003 69C1.55003 69 1.37003 68.96 1.20003 68.89C0.570031 68.6 0.29003 67.86 0.58003 67.23L9.73003 47.06C10.02 46.43 10.76 46.16 11.39 46.44C12.02 46.73 12.3 47.47 12.01 48.1L2.86003 68.27C2.65003 68.73 2.20003 69 1.72003 69Z" fill="currentColor"/>
<path d="M55.78 35.6C55.48 34.73 54.84 34 54.07 33.5L45.07 27.64L36.41 17.56C36.03 17.11 35.54 16.76 35.07 16.56C34.91 16.48 34.74 16.41 34.55 16.35C34.42 16.31 34.05 16.23 33.95 16.21L29.91 13.93L29.64 13.91C29.58 13.91 29.53 13.91 29.45 13.91H29.26L28.92 13.95C28.52 14.05 27.13 15.1 26.54 15.44C26.07 15.71 25.94 16.34 26.28 16.76C26.8 17.41 28.53 16.81 29.28 16.45L33.99 18.8C34.21 18.89 34.39 19.02 34.52 19.18L43.41 29.53L52.84 35.67C53.52 36.12 53.72 37.04 53.27 37.72C52.84 38.38 51.88 38.59 51.22 38.15L41.61 31.9L41.3 31.63L34.15 23.3L33.86 40.27L41.07 51.08C41.27 51.38 41.35 51.73 41.31 52.09L39.49 66.66C39.39 67.47 38.66 68.05 37.81 67.94C36.96 67.83 36.46 67.03 36.56 66.21L38.3 52.26L31.63 42.26L27.9 42.2L24.59 52.14L24.47 52.41L17.23 65.08C16.85 65.74 16.04 66.09 15.34 65.79C14.91 65.61 14.59 65.25 14.47 64.81C14.37 64.43 14.42 64.03 14.61 63.69L21.76 51.18L25.44 40.21L25.75 22.59L18.02 29.18L14.05 41.52C13.81 42.28 12.95 42.73 12.19 42.48C11.81 42.36 11.5 42.1 11.32 41.75C11.14 41.4 11.11 41 11.23 40.62L15.33 27.88C15.41 27.62 15.57 27.39 15.77 27.21L22.14 21.78C22.59 21.39 22.66 20.71 22.29 20.24C21.8 19.63 20.91 19.54 20.31 20.05L14.15 25.3C13.59 25.78 13.17 26.41 12.94 27.11L8.84003 39.85C8.51003 40.86 8.60003 41.94 9.09003 42.89C9.58003 43.84 10.4 44.54 11.41 44.86C11.8 44.99 12.21 45.05 12.63 45.05C14.37 45.05 15.89 43.94 16.42 42.29L20.17 30.63L23.14 28.1L22.94 39.8L19.52 50.06L12.43 62.47C11.9 63.39 11.76 64.47 12.05 65.49C12.33 66.52 12.99 67.37 13.92 67.9C14.52 68.24 15.2 68.42 15.89 68.42C17.31 68.42 18.64 67.65 19.35 66.41L26.63 53.67C26.76 53.44 26.87 53.2 26.95 52.95L29.68 44.75H30.27L35.7 52.9L34.08 65.86C33.81 68.01 35.33 70.15 37.47 70.44C37.72 70.47 37.97 70.48 38.22 70.47C40.05 70.39 41.74 68.79 41.97 66.97L43.79 52.42C43.91 51.47 43.68 50.51 43.15 49.72L36.38 39.56L36.55 29.95L39.42 33.29C39.67 33.58 39.95 33.83 40.27 34.03L49.88 40.28C50.53 40.7 51.28 40.93 52.05 40.93C53.4 40.93 54.65 40.25 55.39 39.12C56.06 38.09 56.22 36.82 55.81 35.63L55.78 35.6Z" fill="currentColor"/>
</svg>
