<svg width="66.933" height="28.739" viewBox="0 0 66.933 28.739" xmlns="http://www.w3.org/2000/svg" xmlns:xlink="http://www.w3.org/1999/xlink">
    <defs>
        <path id="ise61wh17a" d="M0 0h66.94v28.74H0z"/>
    </defs>
    <g fill="none" fill-rule="evenodd">
        <path d="M61.76 17.754H3.763l2.393 8.329h46.43l9.174-8.33zM8.185 15.09H50.28l-4.503-8.025H8.185v8.025zm58.2 2.873L54.532 28.341c-.297.257-.669.399-1.061.399H4.628a1.615 1.615 0 0 1-1.548-1.163L.065 17.2a1.615 1.615 0 0 1 .257-1.42 1.614 1.614 0 0 1 1.29-.642h3.983l.034-9.06c0-.885.717-1.608 1.61-1.608h.736l11.974.135-.04-1.176a1.609 1.609 0 0 1 1.588-1.63h.02c.88 0 1.596.703 1.61 1.59l.04 1.223h3.76l-.041-2.982A1.609 1.609 0 0 1 28.475 0h.02c.88 0 1.596.703 1.61 1.589l.04 3.022h3.76l-.041-1.177a1.609 1.609 0 0 1 1.588-1.629h.02c.88 0 1.596.703 1.61 1.589l.04 1.224 8.952-.095s1.616.068 2.346 1.609l4.503 9.012H65.33c.67 0 1.27.413 1.508 1.041a1.612 1.612 0 0 1-.453 1.778zM42.66 12.257l-1.765-2.555-4.293-.02.054 2.541 6.004.034zm1.575-.135c.304 1.224-.703 1.474-1.42 1.474h-6.348c-.71 0-1.292-.561-1.292-1.244V9.6c0-.69.575-1.244 1.292-1.244h4.55c.71.007.933.088 1.345.812l1.873 2.954zm-19.168.122h5.53v-2.55h-5.53v2.55zm6.782-2.65v2.73a1.23 1.23 0 0 1-1.23 1.231h-5.62a1.232 1.232 0 0 1-1.237-1.23V9.594c0-.677.555-1.23 1.238-1.23h5.618l.014-.014c.683 0 1.217.56 1.217 1.244zm-18.147 2.65h5.53v-2.55h-5.53v2.55zm6.781-2.65v2.73a1.23 1.23 0 0 1-1.23 1.231h-5.619a1.232 1.232 0 0 1-1.237-1.23V9.594c0-.677.554-1.23 1.237-1.23h5.619l.013-.014c.683 0 1.217.56 1.217 1.244zm-4.286 13.9a1.555 1.555 0 1 0 0-3.11 1.555 1.555 0 0 0 0 3.11zm24.516 0a1.555 1.555 0 1 0 0-3.11 1.555 1.555 0 0 0 0 3.11zm-8.175 0a1.555 1.555 0 1 0 0-3.11 1.555 1.555 0 0 0 0 3.11zm-9.729-1.555a1.555 1.555 0 1 1 3.11 0 1.555 1.555 0 0 1-3.11 0z" fill="currentColor"/>
    </g>
</svg>
