<svg width="55.787" height="66.932" viewBox="0 0 55.787 66.932" xmlns="http://www.w3.org/2000/svg">
    <g fill="currentColor" fill-rule="evenodd">
        <path d="M50.804 20.265c-.189-1.061-2.13-.717-2.13-.717-1.135-.101-1.79.007-2.859-.27.831-.602 1.588-.967 2.224-1.764 0 0 1.136-1.015.953-1.555-.182-.541-1.778-.19-1.778-.19-1.71-.088-2.9-.412-3.779-.838 1.068-.257 2.32-.554 3.083-1.69 0 0 .872-.581.676-1.143-.196-.561-1.203-.554-1.203-.554-.325-.095-.507.074-.845-.007-1.67-.42-2.745-.743-3.063-1.832 1.94-.034 2.846-1.15 3.313-1.825 0 0 .297-.751.358-.98.061-.23-1.06-.63-1.06-.63-2.003-.98-3.125-1.622-3.767-4.103 0 0-.33-2.346-1.514-2.156C38.23.207 38 1.113 38 1.113c-.135.12-.284.838-.474 1.034-1.06 1.088-2.048 2.69-5.043 3.373-.243-.148-.473-.027-.764.528l.176.77c.331 1.447 2.09 1.96 3.488 2.137-.885.683-2.203 1.379-3.819 1.487 0 0-.406-.02-.717.047-.608.129-.514.663-.514.663-.027.744.751 1.9 1.643 2.549.582.426 1.34.608 2.204.527-.96.764-2.028.859-2.413.777 0 0-1.515.007-2.083.129-.567.128.38 1.23.38 1.23.52.744.716.724 1.216 1.19.311.284.967.784 2.035 1.048-1 .433-2.515 1-4.814 1.71l-.162.054c-.514.02-.845 1.116-.142 1.494.358.19 3.576 2.062 8.877 1.177l-.264-1.57c-2.758.46-4.827.177-6.125-.188 4.996-1.67 5.618-2.55 5.834-2.853l.304-.507-.6-.852-.48.068c-1.394.203-2.327-.068-2.9-.392 1-.331 2.074-.974 2.757-1.63.92-.885 1.021-1.663.94-2.156l-.102-.4-.649-.364-.338.122c-1.17.419-2.042.459-2.528.108a1.16 1.16 0 0 1-.372-.494c2.663-.466 4.577-2.19 5.26-3.123l.263-.507-.52-.872-.487.034c-.852.094-2.123-.102-2.9-.42 2.36-.865 4.063-2.393 5.09-3.42.94 2.055 2.61 3.008 4.3 3.853-.44.44-1.089.79-2.184.582l-.919-.176-.02.933c-.075 2.893 2.061 3.67 3.86 4.144-.926.48-2.083.622-2.59.622l-.953.007.183.939c.27 1.352 2.454 2.36 4.827 2.765a10.085 10.085 0 0 1-2.123 1.48l-1.44.75 1.48.677c.65.298 1.312.514 1.975.676 4.11.609-3.313.737-5.57.345A19.798 19.798 0 0 1 40 19.467a.792.792 0 0 0-.798-.784c-.412.02-.79.365-.784.798.02 2.474.385 4.164.696 5.36a.8.8 0 0 0 .818.596.592.592 0 0 0 .15-.027.791.791 0 0 0 .567-.967c-.102-.4-.21-.86-.31-1.393.573.156 1.216.25 1.946.203 2.576.548 5.435-.4 6.95-1.345-.027 0 1.751-.582 1.568-1.643M2.109 20.765A2.111 2.111 0 0 0 0 22.874c0 1.163.946 2.11 2.109 2.11a2.112 2.112 0 0 0 2.109-2.11 2.111 2.111 0 0 0-2.109-2.11M21.065 16.317a1.83 1.83 0 0 0-1.832 1.832 1.83 1.83 0 0 0 1.832 1.832 1.83 1.83 0 0 0 1.832-1.832 1.83 1.83 0 0 0-1.832-1.832M17.543 38.998a2.243 2.243 0 0 0-2.244 2.244 2.243 2.243 0 1 0 2.244-2.244M42.617 33.657a2.197 2.197 0 1 0 0 4.394 2.197 2.197 0 0 0 0-4.394M37.608 61.672a2.63 2.63 0 1 0-.001 5.261 2.63 2.63 0 0 0 .001-5.26M4.59 12.267l48.459 43.598s1.203.372 2.19-.75c.947-1.082.379-1.914.379-1.914L5.847 11.22s-.554-.196-.892 0c-.602.352-.365 1.048-.365 1.048M2.292 14.1c.635-.359.925-.129.925-.129l44.18 44.497s.379 1.13-.743 2.265c-.772.784-2.293.608-2.293.608L2.002 15.323s-.338-.866.29-1.224"/>
    </g>
</svg>
