<svg width="57.254" height="66.942" viewBox="0 0 57.254 66.942" xmlns="http://www.w3.org/2000/svg">
    <path d="M48.608 52.116c-2.711 0-5.05 1.467-6.348 3.637L14.785 45.207c.007-.122.034-.237.034-.358 0-.406-.054-.791-.122-1.177l28.975-16.218a7.4 7.4 0 0 0 6.173 3.32c4.09 0 7.41-3.32 7.41-7.41a7.4 7.4 0 0 0-13.59-4.063L16.537 9.33c.162-.615.284-1.25.284-1.92C16.82 3.32 13.5 0 9.41 0S2.002 3.32 2.002 7.41s3.32 7.409 7.41 7.409c2.359 0 4.434-1.122 5.793-2.84l27.373 10.06a7.174 7.174 0 0 0-.135 1.332c0 .46.054.899.135 1.332L13.65 40.887c-1.311-2.062-3.61-3.44-6.24-3.44C3.32 37.446 0 40.764 0 44.855c0 4.09 3.32 7.409 7.41 7.409 2.927 0 5.435-1.71 6.638-4.178L41.3 58.552c-.041.325-.102.65-.102.98 0 4.09 3.32 7.41 7.41 7.41s7.409-3.32 7.409-7.41a7.414 7.414 0 0 0-7.41-7.416z" fill="currentColor" fill-rule="nonzero"/>
</svg>
