<svg width="68.547" height="64.255" viewBox="0 0 68.547 64.255" xmlns="http://www.w3.org/2000/svg">
    <g fill="currentColor" fill-rule="evenodd">
        <path d="M63.196 13.384c-2.957 0-5.36 2.403-5.352 5.352v10.712c-1.434 0-2.778.56-3.788 1.57l-3.005 3.006c-1.648 1.648-5.817 3.262-8.184 3.497l-.09.007a7.927 7.927 0 0 0-7.16 7.914V62.91c0 .734.596 1.337 1.337 1.337h14.194c.733 0 1.336-.596 1.336-1.337v-7.208l4.383-2.188a1.334 1.334 0 0 0 .596-1.793 1.332 1.332 0 0 0-1.794-.595l-5.123 2.562a1.336 1.336 0 0 0-.742 1.197v6.696H38.29v-16.14a5.259 5.259 0 0 1 4.758-5.248l.09-.007c2.9-.291 7.706-2.174 9.797-4.265l3.006-3.005a2.685 2.685 0 0 1 2.782-.631 2.69 2.69 0 0 1 1.788 2.528c0 .713-.277 1.385-.783 1.89l-6.855 6.855a1.33 1.33 0 0 0 0 1.89 1.33 1.33 0 0 0 1.89 0l6.855-6.855a5.292 5.292 0 0 0 1.572-3.787 5.365 5.365 0 0 0-2.68-4.64V18.737a2.676 2.676 0 0 1 2.68-2.68 2.681 2.681 0 0 1 2.68 2.68v18.19c0 2.45-.618 4.88-1.787 7.034a1.337 1.337 0 1 0 2.354 1.274 17.486 17.486 0 0 0 2.111-8.308v-18.19a5.36 5.36 0 0 0-5.351-5.352"/>
        <path d="M61.45 47.928a1.336 1.336 0 0 0 0 2.672 1.336 1.336 0 1 0 0-2.673M30.265 61.589H18.744v-6.695c0-.506-.284-.97-.741-1.198l-7.187-3.594C5.796 47.589 2.68 42.54 2.68 36.925v-18.19a2.682 2.682 0 0 1 2.679-2.68 2.677 2.677 0 0 1 2.68 2.68v11.431a5.367 5.367 0 0 0-2.68 4.64 5.29 5.29 0 0 0 1.572 3.786l6.855 6.855a1.33 1.33 0 0 0 1.89 0 1.33 1.33 0 0 0 0-1.89l-6.855-6.855a2.656 2.656 0 0 1-.782-1.89c0-1.136.72-2.147 1.786-2.527a2.682 2.682 0 0 1 2.784.63l3.005 3.006c3.102 3.102 9.887 4.272 9.901 4.279a5.258 5.258 0 0 1 4.75 5.248v16.14zm-4.48-24.061-.111-.014c-2.354-.236-6.529-1.849-8.177-3.497l-3.005-3.005a5.32 5.32 0 0 0-3.787-1.572V18.736a5.36 5.36 0 0 0-5.352-5.351A5.361 5.361 0 0 0 0 18.735v18.19a17.408 17.408 0 0 0 9.618 15.566l6.446 3.22v7.206c0 .741.602 1.337 1.336 1.337h14.194c.741 0 1.337-.603 1.337-1.337V45.441a7.928 7.928 0 0 0-7.146-7.913zM34.274 33.034c-1.073-.921-2.091-1.793-3.081-2.645-8.96-7.665-13.897-11.882-13.897-18.342 0-4.383 2.867-9.375 8.551-9.375 2.964 0 5.339 1.704 7.257 5.207a1.343 1.343 0 0 0 2.354 0c1.918-3.503 4.286-5.207 7.256-5.207 5.602 0 8.551 4.916 8.551 9.375 0 6.46-4.936 10.684-13.896 18.342a724.204 724.204 0 0 0-3.095 2.645m19.657-20.987C53.931 7.388 50.885 0 42.7 0c-3.358 0-6.19 1.585-8.426 4.715C32.038 1.585 29.206 0 25.847 0c-8.177 0-11.23 7.388-11.23 12.047 0 8.032 6.266 13.059 14.831 20.378a504.569 504.569 0 0 1 3.947 3.392c.249.222.567.326.879.326.312 0 .623-.111.879-.326a504.569 504.569 0 0 1 3.947-3.392c8.967-7.665 14.831-12.519 14.831-20.378"/>
    </g>
</svg>
