<svg width="83" height="66" viewBox="0 0 83 66" fill="none" xmlns="http://www.w3.org/2000/svg">
<path d="M38.9401 14.18C39.8101 14.54 40.7101 14.71 41.6201 14.71C42.5401 14.71 43.4601 14.53 44.3401 14.16C46.0801 13.43 47.4301 12.08 48.1501 10.33C48.8701 8.59 48.8601 6.67 48.1401 4.93C47.4101 3.19 46.0601 1.84 44.3101 1.12C42.5701 0.400003 40.6501 0.410001 38.9101 1.13C35.3201 2.63 33.6201 6.77 35.1201 10.35C35.8501 12.09 37.2001 13.44 38.9501 14.16L38.9401 14.18ZM37.5901 6C38.0301 4.92 38.8701 4.09 39.9401 3.64C40.4801 3.41 41.0501 3.3 41.6201 3.3C42.1901 3.3 42.7401 3.41 43.2801 3.63C44.3501 4.07 45.1901 4.91 45.6401 5.98C46.0901 7.05 46.0901 8.24 45.6401 9.31C45.2001 10.38 44.3601 11.22 43.2901 11.67C42.2201 12.12 41.0301 12.12 39.9601 11.67C38.8901 11.23 38.0501 10.39 37.6001 9.32C37.1501 8.25 37.1501 7.06 37.6001 5.99L37.5901 6Z" fill="currentColor"/>
<path d="M47.8701 19.2C48.3701 19.37 48.8401 19.61 49.2801 19.9C50.9701 21.05 52.0201 23.09 52.0201 25.22V35.64C52.0201 36.39 52.6201 36.99 53.3701 36.99C54.1201 36.99 54.7201 36.39 54.7201 35.64V25.22C54.7201 23.13 54.0301 21.15 52.8201 19.57C55.7001 19.14 58.6301 19.29 61.4901 20.05C61.6001 20.08 61.7101 20.11 61.8501 20.16C64.1501 20.94 65.7001 23.19 65.7001 25.76V27.34C65.7001 28.09 66.3001 28.69 67.0501 28.69C67.8001 28.69 68.4001 28.09 68.4001 27.34V25.76C68.4001 22.03 66.1201 18.76 62.7101 17.6C62.4901 17.53 62.3201 17.48 62.1601 17.44C58.2701 16.4 54.1601 16.37 50.2601 17.33C49.7701 17.05 49.2601 16.82 48.7301 16.63C48.5101 16.56 48.3301 16.5 48.1601 16.46C43.9001 15.32 39.3301 15.33 35.0901 16.46C34.9101 16.51 34.7301 16.56 34.5001 16.64C33.9601 16.82 33.4501 17.06 32.9801 17.33C29.0601 16.37 24.9701 16.41 21.0901 17.44C20.9201 17.48 20.7401 17.54 20.5301 17.61C17.1301 18.76 14.8501 22.04 14.8501 25.76V27.34C14.8501 28.09 15.4501 28.69 16.2001 28.69C16.9501 28.69 17.5501 28.09 17.5501 27.34V25.76C17.5501 23.19 19.1001 20.94 21.3901 20.17C21.5401 20.12 21.6501 20.09 21.7701 20.06C24.6001 19.31 27.5301 19.15 30.4201 19.59C29.2001 21.17 28.5201 23.15 28.5201 25.24V35.66C28.5201 36.41 29.1201 37.01 29.8701 37.01C30.6201 37.01 31.2201 36.41 31.2201 35.66V25.24C31.2201 23.11 32.2701 21.06 33.9701 19.91C34.3901 19.62 34.8701 19.38 35.3701 19.21C35.5301 19.16 35.6601 19.12 35.7901 19.08C39.5901 18.07 43.6701 18.06 47.4801 19.08C47.6001 19.11 47.7301 19.15 47.8801 19.2H47.8701Z" fill="currentColor"/>
<path d="M53.4401 15.44C54.2601 15.78 55.1301 15.95 55.9901 15.95C56.8501 15.95 57.7401 15.78 58.5701 15.43C60.2201 14.74 61.5101 13.45 62.1901 11.79C62.8701 10.13 62.8701 8.31 62.1801 6.65C60.7601 3.24 56.8201 1.62 53.4001 3.04C49.9901 4.46 48.3701 8.4 49.7901 11.82C50.4801 13.47 51.7701 14.76 53.4301 15.44H53.4401ZM52.2901 7.71C52.7001 6.72 53.4701 5.95 54.4501 5.53C54.9501 5.32 55.4701 5.22 55.9901 5.22C56.5101 5.22 57.0201 5.32 57.5101 5.52C58.5001 5.93 59.2701 6.7 59.6901 7.68C60.1001 8.67 60.1101 9.76 59.6901 10.75C59.2801 11.74 58.5101 12.51 57.5301 12.93C56.5401 13.34 55.4501 13.35 54.4601 12.93C53.4701 12.52 52.7001 11.75 52.2801 10.77C51.8701 9.78 51.8601 8.69 52.2801 7.7L52.2901 7.71Z" fill="currentColor"/>
<path d="M24.6601 15.64C25.4901 15.99 26.3701 16.16 27.2401 16.16C28.1101 16.16 28.9701 15.99 29.7901 15.65C31.4501 14.97 32.7401 13.68 33.4301 12.03C34.1201 10.38 34.1201 8.55 33.4401 6.89C32.7601 5.23 31.4701 3.94 29.8201 3.25C26.4101 1.83 22.4701 3.44 21.0401 6.86C20.3501 8.51 20.3501 10.34 21.0301 12C21.7101 13.66 23.0001 14.95 24.6501 15.64H24.6601ZM23.5401 7.9C23.9501 6.91 24.7301 6.14 25.7201 5.74C26.2101 5.54 26.7301 5.44 27.2401 5.44C27.7501 5.44 28.2901 5.54 28.7801 5.75C30.8201 6.6 31.7901 8.95 30.9401 10.99C30.5301 11.98 29.7501 12.75 28.7601 13.15C27.7701 13.56 26.6801 13.55 25.6901 13.15C24.7001 12.74 23.9301 11.97 23.5301 10.97C23.1201 9.98 23.1301 8.89 23.5301 7.9H23.5401Z" fill="currentColor"/>
<path d="M34.7501 48.71L31.4101 42.91C30.2701 40.93 28.6401 39.26 26.6901 38.07L25.5601 37.38C24.1601 36.52 22.8301 35.53 21.6101 34.43L16.8101 30.1C15.4501 28.88 13.5401 28.69 12.0201 29.52C11.4901 25.63 10.7201 19.96 10.3101 16.91C10.0601 15.03 8.56008 13.59 6.68008 13.41C4.47008 13.19 2.52008 14.75 2.24008 16.95L0.610078 29.98C0.370078 31.9 0.590077 33.88 1.24008 35.7L5.21008 46.79C5.73008 48.23 6.61008 49.53 7.75008 50.54L22.7401 63.79C23.0001 64.02 23.3201 64.13 23.6301 64.13C24.0001 64.13 24.3801 63.98 24.6401 63.67C25.1301 63.11 25.0801 62.26 24.5201 61.76L9.53008 48.51C8.72008 47.8 8.10008 46.88 7.74008 45.87L3.77008 34.78C3.26008 33.36 3.09008 31.81 3.28008 30.31L4.91008 17.28C5.00008 16.54 5.66008 16.01 6.40008 16.09C7.03008 16.15 7.54008 16.64 7.62008 17.27C8.19008 21.51 9.46008 30.83 9.80008 33.38C9.84008 34.29 10.1701 35.18 10.8101 35.92L19.6101 46.12C20.1001 46.68 20.9501 46.75 21.5101 46.26C22.0701 45.77 22.1401 44.92 21.6501 44.36L12.8501 34.16C12.7101 33.99 12.6101 33.8 12.5501 33.61C12.5401 33.53 12.5201 33.39 12.4901 33.18C12.4901 32.82 12.6301 32.47 12.9001 32.19C13.4601 31.6 14.3701 31.57 14.9701 32.11L19.7701 36.44C21.1101 37.65 22.5701 38.74 24.1201 39.69L25.2501 40.38C26.8101 41.34 28.1201 42.68 29.0401 44.27L32.3801 50.07C33.7001 52.36 34.4901 54.97 34.6701 57.61L34.8701 60.68C34.9201 61.39 35.5101 61.94 36.2201 61.94C36.2501 61.94 36.2801 61.94 36.3101 61.94C37.0501 61.89 37.6201 61.25 37.5701 60.5L37.3701 57.43C37.1701 54.38 36.2501 51.37 34.7301 48.73L34.7501 48.71Z" fill="currentColor"/>
<path d="M82.6301 29.97L81.0001 16.94C80.7201 14.73 78.7701 13.17 76.5601 13.4C74.6801 13.59 73.1801 15.03 72.9301 16.9C72.5201 19.95 71.7501 25.62 71.2201 29.51C69.7001 28.69 67.7901 28.87 66.4301 30.09L61.6301 34.42C60.4101 35.52 59.0801 36.51 57.6801 37.37L56.5501 38.06C54.6001 39.25 52.9701 40.92 51.8301 42.9L48.4901 48.7C46.9701 51.35 46.0501 54.36 45.8501 57.4L45.6501 60.47C45.6001 61.21 46.1601 61.86 46.9101 61.91C46.9401 61.91 46.9701 61.91 47.0001 61.91C47.7001 61.91 48.3001 61.36 48.3501 60.65L48.5501 57.58C48.7301 54.94 49.5201 52.34 50.8401 50.04L54.1801 44.24C55.0901 42.65 56.4001 41.31 57.9701 40.35L59.1001 39.66C60.6401 38.72 62.1101 37.62 63.4501 36.41L68.2501 32.08C68.8501 31.54 69.7601 31.57 70.3201 32.16C70.5901 32.44 70.7201 32.79 70.7301 33.15C70.7001 33.35 70.6801 33.5 70.6701 33.57C70.6101 33.77 70.5101 33.96 70.3701 34.12L61.5701 44.32C61.0801 44.88 61.1501 45.74 61.7101 46.22C62.2701 46.71 63.1301 46.64 63.6101 46.08L72.4101 35.88C73.0501 35.14 73.3801 34.24 73.4201 33.34C73.7701 30.79 75.0301 21.48 75.6001 17.23C75.6901 16.6 76.1901 16.12 76.8201 16.05C77.5701 15.98 78.2201 16.5 78.3101 17.24L79.9401 30.27C80.1301 31.77 79.9601 33.32 79.4501 34.74L75.4801 45.83C75.1201 46.84 74.5001 47.76 73.6901 48.47L58.7001 61.72C58.1401 62.21 58.0901 63.07 58.5801 63.63C58.8501 63.93 59.2201 64.09 59.5901 64.09C59.9101 64.09 60.2301 63.98 60.4801 63.75L75.4701 50.5C76.6201 49.49 77.5001 48.19 78.0101 46.74L81.9801 35.65C82.6301 33.83 82.8501 31.85 82.6101 29.93L82.6301 29.97Z" fill="currentColor"/>
<path d="M36.5301 65.73C37.2701 65.73 37.8801 65.12 37.8801 64.38C37.8801 63.64 37.2701 63.03 36.5301 63.03C35.7901 63.03 35.1801 63.64 35.1801 64.38C35.1801 65.12 35.7901 65.73 36.5301 65.73Z" fill="currentColor"/>
</svg>
