<svg width="50.169" height="67" viewBox="0 0 50.169 67" xmlns="http://www.w3.org/2000/svg">
    <g fill="currentColor" fill-rule="evenodd">
        <path d="M45.44 12.564a1.148 1.148 0 0 0-.237.386c-3.79-.433-15.754-1.273-35.596 2.186 0-.278-.095-.55-.29-.765-.529-.575-1.99-2.538-1.835-3.932.047-.474.291-.84.751-1.157l.866-.596-.507-.913c0-.007-.305-.616.074-1.32.372-.704 1.963-2.396 8.581-2.951 1.124-.094 2.274-.196 3.445-.297 9.955-.88 23.577-2.091 24.464 2.023l.15.663.648.197c.014.006 1.53.48 1.848 1.67.304 1.145-.535 2.85-2.362 4.806zm-.46 7.776c-16.905-1.286-29.093.988-33.89 2.13a1.055 1.055 0 0 0-.563-.026c-.068.014-.122.055-.183.082l-.487-4.82c19.632-3.437 31.624-2.57 35.123-2.178v4.812zm-1.212 6.59c-.954 1.558-3.316 2.47-6.835 2.634-9.75.473-17.757-2.761-20.105-5.577 5.982-.988 15.382-1.935 27.05-1.13.06.149.96 2.328-.11 4.074zM28.948 46.07a1.481 1.481 0 1 1 0 2.964 1.475 1.475 0 0 1-1.482-1.482c0-.82.663-1.482 1.482-1.482zm.4 18.766c-1.388.04-4.332-.04-6.728-1.116 1.246-2.951 4.25-10.152 5.056-12.71.4.149.825.237 1.272.237.237 0 .46-.027.683-.067.244 1.143 1.083 6.036-.284 13.656zM50.021 7.13c-.474-1.733-1.949-2.64-2.795-3.025C45.17-1.296 32.63-.186 20.482.89c-1.164.102-2.308.203-3.43.298-5.699.48-9.205 1.88-10.423 4.162a3.877 3.877 0 0 0-.379 2.592 3.782 3.782 0 0 0-1.062 2.226c-.25 2.22 1.36 4.474 2.098 5.374l-.23.04L8.097 25.99l1.51-.46a6.26 6.26 0 0 1 .324-.094c.074 1.326-.04 3.207-1.002 4.73-.805 1.279-2.118 2.11-3.898 2.49-2.572.542-4.399 2.247-4.9 4.562-.487 2.26.393 4.595 2.247 5.94 2.39 1.74 5.874 1.524 9.57-.594 4.134-2.376 8.79-2.964 12.16-1.543 1.584.67 2.727 1.746 3.377 3.133a3.7 3.7 0 0 0-1.942 4.832c.095.217.21.413.332.609a1.016 1.016 0 0 0-.136.372c-.149.96-3.302 8.669-5.495 13.833l-.365.866.812.48C23.385 66.744 26.85 67 28.82 67c.88 0 1.462-.054 1.537-.061l.798-.075.156-.791c1.908-9.76.413-15.484.345-15.721-.02-.074-.06-.13-.095-.19a3.693 3.693 0 0 0 1.09-2.612c0-1.746-1.225-3.207-2.856-3.593-.792-2.227-2.477-3.98-4.825-4.974-3.986-1.685-9.407-1.05-14.124 1.658-2.903 1.665-5.508 1.929-7.16.724-1.143-.832-1.685-2.281-1.387-3.688.311-1.455 1.475-2.497 3.187-2.863 2.39-.501 4.183-1.678 5.32-3.485 1.373-2.186 1.448-4.791 1.306-6.443a79.652 79.652 0 0 1 2.328-.487c2.138 3.783 10.726 7.41 20.654 7.41.643 0 1.292-.013 1.942-.047 4.358-.21 7.261-1.455 8.628-3.71 1.11-1.826.894-3.815.59-5.02l1.32.115v-9.522c2.13-2.436 2.963-4.622 2.45-6.496z"/>
        <path d="M32.657 16.245a1.171 1.171 0 1 0 1.171 1.171c0-.643-.521-1.164-1.171-1.171"/>
    </g>
</svg>
