<svg width="66.929" height="45.735" viewBox="0 0 66.929 45.735" xmlns="http://www.w3.org/2000/svg">
    <g fill="currentColor" fill-rule="evenodd">
        <path d="M22.801 41.53c.852 0 1.623-.297 2.062-.791a.47.47 0 0 0-.703-.622c-.257.298-.778.473-1.352.473-.575 0-1.095-.182-1.359-.473l-.352-.4-.35.4c-.258.298-.779.473-1.353.473-.575 0-1.095-.182-1.359-.473l-.352-.4-.35.4c-.258.298-.779.473-1.353.473-.575 0-1.095-.182-1.359-.473a.47.47 0 0 0-.703.622c.44.5 1.21.79 2.062.79.655 0 1.264-.175 1.71-.486.446.31 1.055.487 1.711.487.655 0 1.264-.176 1.703-.487.433.31 1.041.487 1.697.487M44.962 41.848c.987 0 1.873-.338 2.373-.913a.419.419 0 0 0-.034-.595.419.419 0 0 0-.595.034c-.338.386-1.007.622-1.744.622-.737 0-1.406-.236-1.744-.622l-.318-.358-.318.358c-.338.386-1.007.622-1.737.622-.737 0-1.4-.236-1.744-.622l-.318-.358-.318.358c-.338.386-1.007.622-1.744.622-.737 0-1.406-.236-1.744-.622a.428.428 0 0 0-.602-.034.428.428 0 0 0-.034.602c.507.568 1.393.906 2.38.906.805 0 1.541-.223 2.062-.615.521.392 1.257.615 2.062.615.804 0 1.541-.223 2.055-.615.514.392 1.258.615 2.062.615M28.98 45.032c.575.446 1.4.703 2.3.703.904 0 1.73-.257 2.304-.703.574.446 1.4.703 2.305.703 1.09 0 2.07-.372 2.623-1a.418.418 0 0 0-.034-.595.418.418 0 0 0-.594.033c-.393.44-1.15.717-1.988.717-.832 0-1.596-.27-1.988-.717l-.317-.358-.318.358c-.392.44-1.149.717-1.988.717-.83 0-1.595-.277-1.98-.717l-.318-.358-.318.358c-.392.44-1.149.717-1.988.717-.83 0-1.595-.277-1.987-.717a.413.413 0 0 0-.595-.033.42.42 0 0 0-.034.595c.555.628 1.535 1 2.616 1 .9.007 1.724-.25 2.3-.703M58.901 29.85a.2.2 0 0 1-.2.2h-7.42a.2.2 0 0 1-.2-.2V12.89c.02-.09.03-.19.03-.28V8.09c0-.1-.01-.19-.03-.28V1.39c0-.11.09-.2.2-.2h7.42c.11 0 .2.09.2.2v28.46zm-9.01-17.17c-.03.07-.1.13-.17.13h-3.71l3.87-4.83c0 .02 0 .03.01.05v4.65zm-7.98-4.79h6.72l-3.35 4.18-3.37-4.18zm-4.84 4.92 3.84-4.51 3.65 4.51h-7.49zm-4.84-4.92h7.69l-3.85 4.51-3.84-4.51zm-4.51 4.92 3.51-4.49 3.83 4.49h-7.34zm-4.37-4.92h6.91l-3.63 4.64-3.28-4.64zm-4.26 4.92 3.29-4.53 3.19 4.53h-6.48zm-4.96-4.92h7.26l-3.39 4.66-3.87-4.66zm-.42 4.92c-.1 0-.19-.09-.19-.19V8.77l3.35 4.04h-3.16zm52.69-.48h-6.32V1.39c0-.77-.62-1.39-1.38-1.39h-7.43c-.77 0-1.39.62-1.39 1.39v5.33a.88.88 0 0 0-.17-.02h-36c-.25 0-.48.07-.69.19-.1 0-.22.03-.31.11 0 0-.01.02-.02.02a.506.506 0 0 0-.38-.13l-3.84.26a.49.49 0 0 0-.46.38l-1.43 5.34a.42.42 0 0 0-.16-.04l-5.89-.21c-.28.02-.53.21-.53.5-.02.28.21.52.49.53l5.83.21-1.66 6.24-3.97 7.52a.51.51 0 0 0 .21.69c.25.13.56.04.7-.21l3.99-7.57c.02-.04.04-.07.05-.11l3.27-12.27 2.92-.2-.06 19.22-10.08 7c-.23.17-.29.48-.13.72.1.15.26.22.42.22.11 0 .21-.03.3-.09l10.31-7.15c.14-.1.22-.25.22-.42l.04-13.77c.24.2.54.32.87.32h36c.05 0 .12-.01.17-.02v15.87c0 .77.62 1.39 1.39 1.39h7.42c.77 0 1.39-.62 1.39-1.39v-16.5h6.32c.29 0 .52-.23.52-.51a.51.51 0 0 0-.53-.51z"/>
        <path d="M43.428 32.924c.068-.02 1.724-.514 1.954-2.616.142-1.278-.162-3.867-.426-6.152-.122-1.041-.237-2.022-.298-2.792-.182-2.272.805-4.476.812-4.496a.523.523 0 0 0-.257-.683.507.507 0 0 0-.683.257c-.047.1-1.11 2.46-.9 5.01.062.777.177 1.77.305 2.825.257 2.23.554 4.753.426 5.916-.156 1.399-1.176 1.73-1.21 1.737a.515.515 0 0 0-.352.636.52.52 0 0 0 .494.372c.04.006.088 0 .135-.014M41.122 26.711c.088-.777-.122-2.508-.142-2.704a.512.512 0 0 0-.575-.446.51.51 0 0 0-.446.574c.061.494.203 1.907.142 2.468a.516.516 0 0 0 .453.568h.054a.52.52 0 0 0 .514-.46M40.703 21.647c.034-.48-.014-1.048-.068-1.65-.06-.709-.135-1.507-.067-2.23.067-.69.446-2.36.453-2.373a.513.513 0 1 0-1.001-.23c-.013.074-.399 1.751-.473 2.508-.074.818 0 1.67.068 2.42.047.561.094 1.09.067 1.481a.519.519 0 0 0 .473.554h.041a.525.525 0 0 0 .507-.48M35.842 32.004c.068-.02 1.724-.514 1.954-2.616.142-1.278-.162-3.867-.426-6.152-.122-1.04-.237-2.022-.298-2.792-.182-2.272.805-4.476.812-4.496a.523.523 0 0 0-.257-.683.509.509 0 0 0-.683.257c-.047.101-1.109 2.461-.899 5.01.061.777.176 1.771.297 2.825.257 2.231.555 4.76.426 5.923-.155 1.4-1.176 1.73-1.21 1.737a.514.514 0 0 0 .284.987M33.929 30.801c.088-.777-.122-2.508-.142-2.704a.516.516 0 0 0-1.021.128c.061.494.203 1.907.142 2.468a.516.516 0 0 0 .453.568h.054a.514.514 0 0 0 .514-.46M33.51 25.738c.034-.48-.014-1.048-.068-1.65-.06-.71-.135-1.508-.06-2.238.067-.69.446-2.36.453-2.373a.514.514 0 0 0-1.001-.23c-.014.075-.4 1.752-.473 2.509-.081.817 0 1.67.06 2.427.048.56.095 1.088.068 1.48a.519.519 0 0 0 .473.555h.04a.52.52 0 0 0 .508-.48M28.582 32.6c.068-.02 1.724-.515 1.954-2.617.142-1.278-.162-3.867-.426-6.152-.122-1.04-.237-2.022-.298-2.792-.182-2.272.805-4.476.812-4.496a.523.523 0 0 0-.257-.683.509.509 0 0 0-.683.257c-.047.101-1.11 2.461-.9 5.01.062.777.177 1.771.305 2.825.257 2.231.554 4.76.426 5.916-.156 1.4-1.176 1.73-1.21 1.737a.515.515 0 0 0-.352.636.52.52 0 0 0 .629.358M26.871 26.711c.088-.777-.122-2.508-.142-2.704a.512.512 0 0 0-.575-.446.51.51 0 0 0-.446.574c.061.494.203 1.907.142 2.468a.516.516 0 0 0 .453.568h.054a.53.53 0 0 0 .514-.46M26.73 21.647c.033-.48-.015-1.048-.069-1.65-.06-.709-.135-1.507-.067-2.23.067-.69.446-2.36.453-2.373a.513.513 0 1 0-1-.23c-.014.074-.4 1.751-.474 2.508-.074.818 0 1.67.068 2.42.047.561.094 1.09.067 1.481a.519.519 0 0 0 .473.554h.041a.525.525 0 0 0 .507-.48M20.138 27.3c.088-.778-.122-2.509-.142-2.705a.516.516 0 0 0-1.021.128c.06.494.203 1.907.142 2.468a.516.516 0 0 0 .453.568h.054a.514.514 0 0 0 .514-.46M19.712 22.242c.034-.48-.014-1.048-.068-1.65-.06-.709-.135-1.507-.067-2.23.067-.69.446-2.36.453-2.373a.513.513 0 1 0-1.001-.23c-.013.074-.4 1.751-.473 2.508-.074.818 0 1.67.068 2.42.047.561.094 1.09.067 1.481a.519.519 0 0 0 .473.554h.04a.52.52 0 0 0 .508-.48M22.18 32.6c.067-.02 1.723-.515 1.953-2.617.128-1.163-.183-3.103-.48-4.983-.183-1.135-.365-2.312-.446-3.23-.19-2.313.432-4.409.44-4.429a.52.52 0 0 0-.346-.643.519.519 0 0 0-.642.345c-.027.095-.683 2.3-.48 4.814.081.96.27 2.156.453 3.312.291 1.812.588 3.678.473 4.706-.155 1.4-1.176 1.73-1.21 1.737a.514.514 0 0 0 .142 1.007l.142-.02M14.79 32.065c.068-.02 1.724-.514 1.954-2.616.142-1.278-.162-3.867-.426-6.146a83.606 83.606 0 0 1-.298-2.792c-.182-2.27.805-4.475.812-4.495a.523.523 0 0 0-.257-.683.517.517 0 0 0-.683.257c-.047.101-1.109 2.461-.906 5.01.061.777.176 1.771.304 2.825.257 2.231.555 4.753.426 5.916-.155 1.4-1.176 1.73-1.21 1.737a.514.514 0 0 0 .284.987M57.961 3.12v1.71c0 .44-.35.8-.79.8-.44 0-.79-.36-.79-.8V3.12c0-.44.35-.79.79-.79.44 0 .79.35.79.79M55.711 3.12v1.71c0 .44-.35.8-.79.8-.44 0-.79-.36-.79-.8V3.12c0-.44.35-.79.79-.79.44 0 .79.35.79.79M53.471 3.12v1.71c0 .44-.36.8-.8.8a.8.8 0 0 1-.79-.8V3.12c0-.44.36-.79.79-.79.44 0 .8.35.8.79"/>
    </g>
</svg>
