<svg width="66.935" height="65.401" viewBox="0 0 66.935 65.401" xmlns="http://www.w3.org/2000/svg">
    <path d="M3.428 0h41.826c.94 0 1.799.385 2.42 1.007a3.408 3.408 0 0 1 1.008 2.42v15.719l-3.908 5.016V4.286a.379.379 0 0 0-.115-.27.383.383 0 0 0-.27-.115H4.293a.379.379 0 0 0-.27.115.383.383 0 0 0-.115.27v56.828c0 .102.04.196.114.27a.383.383 0 0 0 .27.116h32.235l8.24-7.356v-11.27c.65-.378 1.9-1.047 1.907-1.054l.65-.649 1.351-2.001v16.212l-.453.452-9.133 9.12-1.068.447H3.428a3.42 3.42 0 0 1-2.42-1.008A3.408 3.408 0 0 1 0 61.973V3.421C0 2.48.385 1.623 1.007 1 1.63.385 2.487 0 3.427 0zm58.12 9.275c.37.17.83.48 1.263.818.332.257.622.494.818.663-.885 1.21-2.772 3.779-5.313 7.254-5.355 7.308-12.656 17.273-14.447 19.72l-2.414.96.379-2.488L47.62 28.3l9.16-12.507 4.766-6.517zm-7.221 4.72L45.167 26.5c-2.914 3.975-5.3 7.24-6.01 8.207l-.224.304-.054.365-.906 4.99c-.27 1.244-.094 1.636.325 2.055.595.595 2.38-.162 2.38-.162l4.712-1.88.412-.162.257-.345c1.196-1.636 9.039-12.338 14.704-20.065 2.623-3.576 4.935-6.733 5.875-8.031l.297-.406v-.487c0-.047-.007-.128-.02-.236-.108-.812-1.068-2.022-2.238-2.941-1.122-.872-2.528-1.616-3.637-1.616-.115 0-.23.007-.338.02l-.649.082-.385.527-5.341 7.274zm9.627-2.597-.048-.378v.013l.048.365zM7.76 36.364c0 1.055.514 1.549 2.163 1.535l21.397-.108c1.116-.027 1.819-.582 1.792-1.697-.027-1.115-.927-1.535-2.042-1.508l-21.35.061c-1.514.081-1.96.609-1.96 1.717zm-.108 8.978c0 1.055.514 1.548 2.163 1.535l21.397-.108c1.115-.027 1.819-.582 1.791-1.697-.027-1.116-.926-1.535-2.041-1.508l-21.35.061c-1.514.081-1.96.609-1.96 1.717zm0-18.172c0 1.055.514 1.548 2.163 1.535l28.326-.108c1.116-.027 1.819-.582 1.792-1.697-.027-1.116-.926-1.535-2.042-1.508l-28.272.061c-1.521.081-1.967.609-1.967 1.717zm0-9.086c0 1.055.514 1.548 2.163 1.535l28.326-.108c1.116-.027 1.819-.582 1.792-1.697-.027-1.116-.926-1.535-2.042-1.508l-28.272.061c-1.521.074-1.967.608-1.967 1.717z" fill="currentColor" fill-rule="nonzero"/>
</svg>
