<svg width="66.928" height="38.109" viewBox="0 0 66.928 38.109" xmlns="http://www.w3.org/2000/svg">
    <g fill="currentColor" fill-rule="evenodd">
        <path d="M24.292 14.7a1.413 1.413 0 1 1-1.413-1.414 1.421 1.421 0 0 1 1.413 1.413"/>
        <path d="M35.56 35.47V20.53c1.64 3.84 5.3 11.26 10.3 14.94h-10.3zm-.67 0h-9.71c2.21-1.84 6.89-6.46 9.71-14.25v14.25zm30.72-2.96-.87 1.15L37.05 1.09S36.24 0 35.37 0c-.86 0-1.88 1.23-1.88 1.23l-9.02 9.48s-.39.92.47 1.68c.97.85 1.85.21 1.85.21 2.65-2.86 5.3-5.92 8.37-9.48 2.73 3.23 14.75 17.54 19.07 22.2v10.09l-5.65.06a.623.623 0 0 0-.18-.14c-7.4-3.6-12.49-17.61-12.55-17.75-.11-.3-.37-.48-.65-.47-.29.02-.54.23-.62.54-3.11 11.82-11.22 17.44-11.3 17.5-.12.08-.21.2-.27.32l-7.19-.05.07-11.58c.82-.86 1.13-1.16 5.03-5.26 0 0 .53-.79-.37-1.64-.98-.93-1.8-.37-1.8-.37L2.37 34.35l-1.31-.99L0 34.78l4.02 3.32.97-1.35-.75-.64 8.81-9.53v11.31h43.88l-.06-9.77 6.36 7.42-.64 1.06 1.33 1.04 3.01-4.11-1.32-1.02z"/>
    </g>
</svg>
