<svg width="66.932" height="43.301" viewBox="0 0 66.932 43.301" xmlns="http://www.w3.org/2000/svg" xmlns:xlink="http://www.w3.org/1999/xlink">
    <defs>
        <path id="t9klyogr0a" d="M0 0h56.471v43.3H0z"/>
    </defs>
    <g fill="none" fill-rule="evenodd">
        <path d="M27.972 35.35c-3.26 0-6.01-2.74-6.83-6.49 2.01 1.15 4.38 1.76 6.83 1.76 2.46 0 4.82-.61 6.83-1.76-.81 3.75-3.57 6.49-6.83 6.49m-7.38-8.95a.873.873 0 0 0-.93-.1.86.86 0 0 0-.48.8c.24 5.6 4.09 9.98 8.79 9.98 4.7 0 8.56-4.38 8.79-9.98a.868.868 0 0 0-.47-.8.87.87 0 0 0-.93.1c-2 1.61-4.62 2.5-7.39 2.5-2.76 0-5.39-.89-7.38-2.5" fill="currentColor"/>
        <g transform="translate(10.46)">
            <path d="M51.381 23.93c-3.11 6.19-7.54 11.23-12.45 14.21-4.69 2.84-9.27 3.44-12.91 1.72 1.98-1.74 3.74-4.1 5.16-6.91 1.9 1.12 3.54 2.42 4.68 3.72.16.19.41.3.65.3.05 0 .09-.01.14-.02.3-.04.54-.25.66-.52 1.02-2.54-.75-5.86-4.25-8.07 1.23-3.82 1.89-8.09 1.89-12.42 0-3.17-.33-6.28-1.01-9.23 2.06 1.68 4.31 3.35 6.31 4.36 3.13 1.58 7.89 2.62 11.36 3.39 1.19.25 2.51.54 3.13.74-.24 1.39-1.88 5.79-3.36 8.73m-18.91 6.11c1.75 1.2 2.97 2.74 3.31 4.11-1.1-.98-2.42-1.92-3.86-2.76.19-.45.38-.89.55-1.35m-7.69-22.95c1.3-2.2 2.8-4.43 3.5-5.18.46.35 1.28 1.06 2.08 1.76.51.44 1.09.94 1.69 1.46-2.29.87-4.73 1.52-7.27 1.96m31.58 7.14c-.31-.55-.89-.71-4.37-1.48-3.19-.7-8.01-1.76-10.94-3.24-3.1-1.56-6.98-4.93-9.55-7.16C29.151.31 28.781.01 28.271 0h-.01c-1.51 0-4.92 6.07-5.79 7.64-1.64.19-3.28.29-4.88.29-3.82 0-9.6-1.46-12.7-2.26-2.11-.53-2.44-.6-2.76-.55-.71.12-1.1.61-1.57 4.52-.25 2.2-.53 4.68-.53 6.44 0 2.31-.07 2.12 0 3.85 0 0 .4.76 1.19.62.79-.14.82-.9.82-.9-.03-1.98-.06-1.55-.03-3.61.06-3.12.41-7.36.79-8.85.43.1 1.03.01 1.67.17 3.4.86 9.08 2.31 13.12 2.31 1.88 0 3.85-.25 5.77-.57.26-.05.47-.09.64-.14 2.87-.42 5.63-1.1 8.22-2.05a39.99 39.99 0 0 1 1.01 9.03c0 4.38-.7 8.72-2.01 12.52v.01c-.35.99-.75 1.97-1.19 2.91-1.59 3.42-3.68 6.15-6.06 7.91-2.05 1.52-4.22 2.29-6.46 2.29-6.6 0-12.19-5.87-14.51-15.29 0 0-.18-.8-1.08-.61-.78.16-.83 1.04-.83 1.04 2.52 10.26 9.01 16.58 16.42 16.58 2.44 0 4.79-.77 7-2.29.18.11.34.2.51.29 1.67.83 3.49 1.25 5.42 1.25 2.97 0 6.16-.98 9.39-2.94 5.18-3.14 9.84-8.44 13.09-14.9.04-.09 4.28-8.93 3.44-10.48" fill="currentColor"/>
        </g>
        <path d="M35.262 16.71c.99 0 1.95.48 2.69 1.33-.88-.1-1.78-.14-2.69-.14-.91 0-1.81.04-2.69.14.74-.85 1.7-1.33 2.69-1.33m-4.24 3.31c2.71-.53 5.77-.53 8.47 0a.86.86 0 0 0 .96-1.19c-1.02-2.37-3.01-3.85-5.2-3.85-2.18 0-4.17 1.48-5.2 3.85a.87.87 0 0 0 .97 1.19M20.692 17.9c-.92 0-1.82.04-2.7.14.75-.85 1.7-1.33 2.7-1.33.99 0 1.94.48 2.69 1.33-.88-.1-1.78-.14-2.69-.14m-.01-2.92c-2.19 0-4.18 1.48-5.2 3.85a.864.864 0 0 0 .79 1.21c.07 0 .12-.01.18-.02 2.7-.53 5.76-.53 8.47 0 .31.06.63-.05.84-.3.2-.25.25-.59.12-.89-1.02-2.37-3.02-3.85-5.2-3.85M53.432 21.89c-.81-.41-1.63-.77-2.46-1.08 1.04-.42 2.1-.43 3 .02.89.45 1.52 1.31 1.8 2.4-.74-.49-1.53-.93-2.34-1.34m1.31-2.61c-1.94-.98-4.38-.56-6.36 1.1-.25.2-.36.53-.29.84.06.31.3.56.6.65 1.33.37 2.66.89 3.97 1.56 1.29.65 2.5 1.41 3.6 2.26.15.12.34.18.53.18.12 0 .24-.02.35-.08.29-.13.49-.41.51-.73.16-2.58-.96-4.8-2.91-5.78M12.879 23.123c0-.588-.473-1.06-1.061-1.06-.59 0-1.063.472-1.063 1.06 0 .588.473 1.061 1.063 1.061.588 0 1.06-.473 1.06-1.06M8.856 21.906c-1.65-.419-2.677-1.068-3.035-1.927-.278-.662-.122-1.338.06-2.122.217-.927.453-1.975-.148-3.009-.724-1.237-2.312-1.839-4.861-1.846a.875.875 0 0 0 0 1.751c1.791 0 2.988.352 3.353.981.243.405.142.926-.047 1.73-.203.9-.46 2.015.034 3.191.581 1.4 2.001 2.387 4.218 2.948a.866.866 0 0 0 1.061-.636.881.881 0 0 0-.635-1.06" fill="currentColor"/>
    </g>
</svg>
