<svg width="66.928" height="53.056" viewBox="0 0 66.928 53.056" xmlns="http://www.w3.org/2000/svg">
    <g fill="currentColor" fill-rule="evenodd">
        <path d="M61.62 27.13h-2.31c-.9 0-1.63.71-1.63 1.58 0 .88.73 1.59 1.63 1.59h.96c1.12 0 2.05.9 2.05 2s-.92 2-2.05 2h-2.32c-.9 0-1.63.71-1.63 1.59 0 .88.73 1.59 1.63 1.59h.96c1.13 0 2.06.9 2.06 2s-.92 2-2.06 2H56.6c-.9 0-1.63.71-1.63 1.59 0 .88.73 1.59 1.63 1.59h.96c1.13 0 2.06.9 2.06 2-.02 1.09-.94 1.99-2.07 1.99H42.17c-4.84 0-9.7-1.09-14.06-3.14l-2.36-1.11c-.22-.11-.46-.16-.71-.16h-2.41V23.82h4.33c.38 0 .75-.13 1.04-.37l6.93-5.64c3.15-2.57 5.52-5.93 6.85-9.72 0 0 1.29-3.67 1.31-3.7.36-.74 1.13-1.22 1.98-1.22 1.22 0 2.2.96 2.2 2.14V9.1c-.01 2.64-.57 5.21-1.68 7.63l-1.89 4.15c-.17.36-.19.75-.07 1.1 0 .04.36 1.15 1.56 1.15h16.43c1.13 0 2.06.9 2.06 2s-.92 2-2.06 2zM3.59 49.89h15.44v-30.9H3.59v30.9zm63.33-24.76c0-2.86-2.37-5.17-5.3-5.17H47.67l.89-1.94c1.29-2.82 1.94-5.82 1.95-8.91l.01-3.8c0-2.92-2.45-5.31-5.46-5.31-2.23 0-4.22 1.3-5.06 3.33-.03.08-1.3 3.73-1.3 3.73a18.785 18.785 0 0 1-5.87 8.31l-6.47 5.28h-3.74v-1.67c0-1.75-1.46-3.17-3.25-3.17H3.25C1.46 15.81 0 17.23 0 18.98v30.9c0 1.76 1.46 3.18 3.25 3.18h16.12c1.79 0 3.25-1.42 3.25-3.18V47.4h2.05l2.02.96c4.8 2.27 10.15 3.46 15.48 3.46h15.38c2.93 0 5.3-2.32 5.3-5.17 0-1.09-.34-2.09-.93-2.92 1.38-.94 2.29-2.49 2.29-4.26 0-1.08-.35-2.09-.94-2.92 1.39-.93 2.3-2.48 2.3-4.25 0-1.08-.35-2.09-.94-2.92 1.38-.93 2.29-2.49 2.29-4.25z"/>
        <path d="M15.93 44.94c0 1.09-.91 1.98-2.04 1.98s-2.04-.89-2.04-1.98c0-1.1.91-1.99 2.04-1.99 1.12 0 2.04.89 2.04 1.99"/>
    </g>
</svg>
