<svg width="66.923" height="66.519" viewBox="0 0 66.923 66.519" xmlns="http://www.w3.org/2000/svg">
    <g fill="currentColor" fill-rule="evenodd">
        <path d="m42.97 28.886-2.74-4 2.77-3.73-.03 7.73zm-.02 3.93-4.41 5.67-3.79-3.83 8.21-4.14-.01 2.3zm-.03 10.1-3.62-3.66 3.65-4.69-.03 8.35zm-.03 8.99a.38.38 0 0 0-.13.09l-.34.37-3.85-3.21 4.34-4.26-.02 7.01zm-.04 8.25-3.53-2.95 3.18-3.38.37.32-.02 6.01zm-4.35-3.63-4.01-3.36 3.32-3.26-.83-.69-3.18 3.13v-5.84l4.01 3.4 3.89 3.23-3.2 3.39zm-4.71 4.98v-7.53l3.97 3.32-3.97 4.21zm-.52-38.62-.12.05-.06-.02-3.91-1.42 3.58-5.63 3.89 5.68-3.38 1.34zm-4.1 39.81-2.8-3.73 2.8-3.05v6.78zm-6.55-8.73c-.03-.03-.06-.07-.09-.09v-.17h.01l3.68-3.13 2.42 4.32-2.93 3.19-3.09-4.12zm-.1-23.31h.01c.03.04.07.07.11.1l5.76 3.98-2.78 4.17-2.95-5.72c-.03-.08-.09-.13-.15-.18v-2.35zm.01-8.92 2.65 4.05-2.65 4.18v-8.23zm4.98.48-1.69 2.45-3.29-4.44 4.98 1.99zm1.64 25.87.01 5.54-2.1-3.76 2.09-1.78zm-.01-12.52.01 10.21-2.96-5.77 2.95-4.44zm-2.68-9.78 2.13-3.37.54.19v7.27l-2.67-4.09zm2.67 6.05v2.11l-5.46-3.78 2.16-3.39 3.3 5.06zm-5.47 11.96 1.84-2.77 3.14 6.09-2.12 1.8-2.86-5.12zm-1.13-.21v-8.34l2.41 4.69-2.36 3.53c-.02.03-.04.08-.05.12zm.03.44 3.13 5.59-3.16 2.69v-8.35c.01.02.02.04.03.07zm9.06-28.39-3.47 5.48-4.74-1.72 8.21-3.76zm10.43 3.74-4.38 1.75-3.72-5.42 8.1 3.67zm-3.77 2.66 3.87-1.55-2.56 3.46-1.31-1.91zm-4.49 9.75v-7.95l3.48-1.39 1.65 2.42-5.13 6.92zm.11 1.65 5.66-7.63 2.66 3.89-8.43 4.26v-.41c.04-.04.08-.07.11-.11zm4.74 6.68 3.74 3.79-4.63 4.56-3.38-2.87 4.27-5.48zm-4.85 4.49v-9.41l4.09 4.15-4.09 5.26zm10.16-25.23a.53.53 0 0 0-.31-.45l-10.72-4.85a.508.508 0 0 0-.45 0l-10.7 4.89c-.2.09-.33.29-.32.51 0 .04.01.07.02.11-.01.04-.02.08-.02.13v40.32c0 .3.24.53.54.53.3 0 .53-.24.53-.53v-4.41l6.38 8.5c.07.1.17.16.27.19v1.49a.536.536 0 0 0 1.07 0l-.05-42.8 2.51.91v42.07c0 .3.24.53.54.53.3 0 .53-.23.53-.53v-2.91l4.8-5.08 4.27 3.56-.01 1.06c0 .3.24.54.54.54.29 0 .53-.23.53-.53l.11-29.46v-.44l.05-13a.463.463 0 0 0-.11-.35zM15.54 43.586h-4.2c-.63 0-1.16-.52-1.17-1.16-.01-.62.47-1.14 1.08-1.18h.14l.04-.15c.13-.51.59-.87 1.11-.87.2 0 .4.06.58.16l.15.09.11-.14c.22-.29.55-.46.91-.46.63 0 1.15.53 1.15 1.17v.19l.18.01c.61.04 1.09.56 1.08 1.19 0 .64-.53 1.15-1.16 1.15m.43-2.84c-.09-.86-.81-1.53-1.67-1.53-.48 0-.91.19-1.23.53a1.684 1.684 0 0 0-2.28.98c-.8.12-1.42.81-1.44 1.65-.04.98.75 1.78 1.71 1.78h4.6c.95 0 1.73-.79 1.71-1.76-.02-.82-.61-1.52-1.4-1.65M8.47 34.766H2.63c-.88 0-1.61-.75-1.62-1.69-.01-.91.66-1.67 1.5-1.72l.26-.01v-.28c0-.94.72-1.7 1.59-1.7.5 0 .96.24 1.27.67l.15.2.21-.13c.24-.15.52-.23.81-.23.72 0 1.36.52 1.54 1.27l.05.2.19.01c.85.05 1.52.81 1.51 1.72-.01.94-.74 1.69-1.62 1.69m.42-4.13c-.32-.96-1.17-1.62-2.15-1.62-.32 0-.65.08-.94.22a2.18 2.18 0 0 0-1.65-.76c-1.17 0-2.13.95-2.26 2.17-1.06.19-1.87 1.17-1.89 2.34-.02 1.37 1.03 2.5 2.32 2.5h6.22c1.3 0 2.35-1.14 2.31-2.53-.04-1.17-.87-2.15-1.96-2.32M14.04 23.226H5.65c-1.27 0-2.32-1.03-2.33-2.31 0-1.25.95-2.27 2.17-2.34l.28-.01.07-.28c.27-1.02 1.18-1.74 2.22-1.74.41 0 .81.12 1.16.33l.3.17.21-.28c.44-.58 1.1-.91 1.82-.91.63 0 1.2.26 1.62.68.41.42.67 1.01.67 1.65v.38l.37.02c1.21.07 2.17 1.1 2.15 2.34a2.324 2.324 0 0 1-2.32 2.3m.69-5.57c-.18-1.63-1.52-2.9-3.15-2.9a3.1 3.1 0 0 0-2.29 1.01c-.41-.19-.85-.29-1.3-.29-1.34 0-2.53.87-2.98 2.17-1.5.22-2.65 1.53-2.7 3.12-.06 1.86 1.4 3.39 3.2 3.39h8.63c1.78 0 3.24-1.51 3.2-3.35-.03-1.58-1.14-2.89-2.61-3.15M64.21 39.656H57.8c-.97 0-1.77-.76-1.79-1.7 0-.92.73-1.68 1.66-1.73l.22-.01.05-.21c.2-.76.9-1.29 1.7-1.29.32 0 .62.08.89.24l.23.13.16-.2c.34-.44.85-.68 1.39-.68.97 0 1.76.77 1.76 1.72v.28l.27.01c.94.05 1.66.81 1.65 1.73 0 .95-.81 1.71-1.78 1.71m.62-4.14c-.14-1.24-1.22-2.2-2.52-2.2-.7 0-1.35.27-1.83.77-.32-.15-.68-.23-1.04-.23-1.07 0-2.02.67-2.38 1.65a2.5 2.5 0 0 0-2.16 2.36c-.05 1.42 1.12 2.57 2.56 2.57h6.9c1.43 0 2.6-1.13 2.57-2.53-.03-1.19-.92-2.19-2.1-2.39M60.47 27.606h-8.82c-1.32 0-2.43-1.05-2.44-2.37-.01-1.27.99-2.33 2.27-2.41l.38-.02v-.39a2.4 2.4 0 0 1 2.41-2.39c.76 0 1.45.35 1.91.94l.23.29.31-.19c.37-.21.79-.33 1.22-.33 1.1 0 2.06.74 2.33 1.79l.07.28.3.01c1.28.07 2.28 1.13 2.27 2.41-.01 1.33-1.11 2.38-2.44 2.38m.55-5.63a3.304 3.304 0 0 0-3.11-2.16c-.46 0-.93.1-1.36.29a3.274 3.274 0 0 0-2.38-1.02c-1.69 0-3.09 1.27-3.27 2.9a3.309 3.309 0 0 0-2.74 3.15c-.04 1.84 1.49 3.35 3.34 3.35h9c1.88 0 3.4-1.53 3.33-3.39a3.274 3.274 0 0 0-2.81-3.12M33.15 1.086c1.32 0 4.28.16 6.99 1.41 1.66.76 3.33 2.29 4.49 3.51l-11.48-4.92zm13.86 6c-.13-.17-3.19-4.1-6.42-5.58-3.86-1.77-8.03-1.5-8.21-1.48-.07 0-.13.02-.19.05L18.7 6.446c-.23.11-.35.35-.3.59.05.24.25.42.49.43l1.49.09c.09.01.18-.01.26-.05l11.79-5.57 13.94 5.98c.07.02.15.04.21.04.17 0 .32-.08.43-.22.15-.19.15-.46 0-.65zM23.95 13.266l.04-3.07 1.36-.65.08 3.06-1.48.66zm2.2-4.38c0-.13-.07-.26-.19-.34a.435.435 0 0 0-.4-.02l-2.16 1.03a.42.42 0 0 0-.24.37l-.05 3.96c-.01.15.07.28.18.36.08.04.15.06.23.06.06 0 .12-.01.17-.04l2.32-1.03c.15-.06.25-.21.24-.38l-.1-3.97z"/>
        <path d="m30.66 10.486-1.72.83-.05-3.18 1.77-.78v3.13zm.62-4.1a.413.413 0 0 0-.39-.03l-2.59 1.13c-.15.07-.24.22-.24.39l.06 4.1c0 .14.07.27.2.35.06.04.14.06.21.06.06 0 .12-.02.18-.04l2.53-1.23c.15-.07.23-.21.23-.37v-4.02a.39.39 0 0 0-.19-.34zM37.08 11.556v-3.13l1.63.7.06 3.25-1.69-.82zm2.45-2.72a.45.45 0 0 0-.25-.37l-2.45-1.05a.411.411 0 0 0-.39.04c-.12.07-.19.21-.19.34v4.02c0 .15.09.3.23.37l2.54 1.22c.06.03.12.04.18.04a.403.403 0 0 0 .41-.41l-.08-4.2z"/>
        <path d="m43.14 16.366-10.38-4.63a.536.536 0 0 0-.43 0c-2.09.95-8.1 3.69-10.33 4.75l-.05-7.58 10.48-4.73 10.71 4.48v7.71zm.75-8.55-11.26-4.72a.536.536 0 0 0-.43 0l-11 4.98c-.2.09-.32.28-.32.49l.05 8.79a.535.535 0 0 0 .54.52c.1 0 .19-.02.28-.08.4-.24 6.59-3.07 10.8-4.98l10.9 4.87c.17.08.36.06.52-.04.15-.09.24-.26.24-.44l.01-8.9c0-.22-.12-.41-.33-.49z"/>
    </g>
</svg>
