<svg width="51.03" height="66.928" viewBox="0 0 51.03 66.928" xmlns="http://www.w3.org/2000/svg">
    <g fill="currentColor" fill-rule="evenodd">
        <path d="m5.837 62.84 2.45-2.29h34.47l2.45 2.29H5.837zm7.15-6.7h25.08l2.44 2.3h-29.98l2.46-2.3zm22.83-2.1h-20.6l2.23-2.08c.94.2 1.91.32 2.92.32h11.76c.57 0 1.14-.04 1.69-.11l.03.03 1.97 1.84zm-25.42-14.42v-8.09c3.37.52 14.8 2.88 14.8 10.82 0 .58.47 1.06 1.05 1.06h.04c.58 0 1.06-.48 1.06-1.06 0-7.9 11.3-10.27 14.74-10.81v8.08c0 5.24-4.47 9.5-9.97 9.5h-11.76c-5.49 0-9.96-4.26-9.96-9.5zm0-30.73c0-3.17 2.71-5.73 6.04-5.73h19.61c3.33 0 6.04 2.57 6.04 5.73V29.4c-2.86.4-12.62 2.2-15.82 8.53-3.22-6.36-13.08-8.15-15.87-8.54V8.89zm40.3 56.22-6.79-6.36-7.6-7.14c5.19-1.68 8.94-6.42 8.94-11.99V8.89c0-4.9-4.13-8.89-9.2-8.89h-19.61c-5.08 0-9.2 3.99-9.2 8.89v30.73c0 5.19 3.26 9.66 7.9 11.61l-8.02 7.52-6.78 6.36c-.43.4-.45 1.06-.05 1.49.21.21.49.33.77.33.26 0 .51-.1.72-.29l1.81-1.69h43.86l1.81 1.69c.21.19.46.29.72.29.28 0 .56-.11.77-.33.4-.43.37-1.09-.05-1.49z"/>
        <path d="M36.627 40.07c-1.35 0-2.44 1.1-2.44 2.44a2.44 2.44 0 1 0 4.88 0c0-1.34-1.09-2.44-2.44-2.44zM17.177 40.07a2.445 2.445 0 0 0 0 4.89 2.44 2.44 0 0 0 2.44-2.45c0-1.34-1.08-2.44-2.44-2.44zM37.297 24.03l-10.02-1.86V13.8l10.02 1.85v8.38zm-12.12-1.86-10.03 1.86v-8.38l10.03-1.85v8.37zm13.35-8.43-12.12-2.24h-.05c-.04 0-.07-.01-.1-.01H26.117c-.03 0-.05 0-.08.01h-.01l-12.13 2.24c-.49.09-.86.52-.86 1.03v10.52a1.045 1.045 0 0 0 1.05 1.05c.07 0 .13 0 .19-.02l11.94-2.2 11.94 2.2c.06.02.13.02.19.02.25 0 .49-.08.68-.24.23-.2.38-.5.38-.81V14.77c0-.51-.37-.94-.88-1.03zM30.967 6.99v1.32c0 .58-.47 1.05-1.06 1.05h-12.45c-.58 0-1.05-.47-1.05-1.05V6.99c0-.58.47-1.06 1.05-1.06h12.45c.59 0 1.06.48 1.06 1.06M36.697 7.85c0 1.07-.86 1.92-1.92 1.92s-1.92-.85-1.92-1.92a1.92 1.92 0 0 1 3.84 0"/>
    </g>
</svg>
