<svg width="50.914" height="66.928" viewBox="0 0 50.914 66.928" xmlns="http://www.w3.org/2000/svg">
    <g fill="currentColor" fill-rule="evenodd">
        <path d="M34.71 14.27c0 .56-.46 1.02-1.03 1.03h-16.4c-.57 0-1.03-.46-1.03-1.03 0-.56.46-1.02 1.03-1.02h16.4c.57 0 1.03.46 1.03 1.02M12.47 31.7H39.3V19.4H12.47v12.3zm27.85-14.36H11.45c-.57 0-1.03.46-1.03 1.03v14.35c0 .57.46 1.03 1.03 1.03h28.88c.56 0 1.02-.46 1.02-1.03V18.37c0-.57-.46-1.03-1.03-1.03zM40.86 39.9c0 1.7-1.38 3.07-3.08 3.07-1.69 0-3.07-1.38-3.07-3.07 0-1.7 1.38-3.08 3.07-3.08 1.7 0 3.08 1.38 3.08 3.08M16.26 39.9a3.08 3.08 0 0 1-3.08 3.07 3.07 3.07 0 0 1-3.07-3.07c0-1.7 1.38-3.08 3.07-3.08 1.7 0 3.08 1.38 3.08 3.08"/>
        <path d="m9.28 60.05 2.83-2.74c.01 0 .03.01.05.01h26.68l2.81 2.73H9.28zm27.45-4.77h-22.5l2.65-2.57h17.21l2.64 2.57zM6.52 42.97V19.4c0-3.64 0-9.74 18.97-9.74 18.96 0 18.96 6.09 18.96 9.74v23.57c0 3.68-2.99 6.67-6.67 6.67h-24.6c-3.67 0-6.66-2.99-6.66-6.67zM18.31 2.08h14.31l-3.27 4.6c-1.21-.06-2.49-.09-3.86-.09-1.4 0-2.69.03-3.92.09l-3.26-4.6zm32.14 62.2L38.47 52.67c5.05-.36 9.05-4.57 9.05-9.7V19.39c0-5.85-2.07-11.31-15.72-12.55l3.39-4.77h7.46c.83 0 1.5.67 1.5 1.48 0 .57.47 1.04 1.06 1.04.59 0 1.06-.46 1.06-1.04 0-1.96-1.62-3.55-3.62-3.55H8.25C7.29 0 6.38.37 5.7 1.04a3.52 3.52 0 0 0-1.06 2.51c0 .57.48 1.04 1.07 1.04.58 0 1.06-.46 1.06-1.04 0-.4.15-.76.44-1.05a1.5 1.5 0 0 1 1.05-.42h7.46l3.39 4.77C5.5 8.09 3.43 13.56 3.43 19.4v23.57c0 5.13 4.01 9.34 9.05 9.7L.47 64.29a1.533 1.533 0 0 0 1.07 2.64c.39 0 .77-.14 1.07-.43l3.53-3.42c.11.03.24.05.36.05h38.34l3.47 3.37c.3.29.68.43 1.07.43.4 0 .8-.15 1.1-.47.6-.6.57-1.58-.03-2.18z"/>
    </g>
</svg>
