<svg width="66.99" height="59.817" viewBox="0 0 66.99 59.817" xmlns="http://www.w3.org/2000/svg">
    <g fill="currentColor" fill-rule="evenodd">
        <path d="M41.728 18.251a.831.831 0 1 0 0 1.665.832.832 0 1 0 0-1.665"/>
        <path d="M65.989 58.314c-.812-1.198-1.624-2.538-2.416-3.83-.792-1.3-1.611-2.64-2.423-3.844l-.44-.65-.697.359-1.028.534c-.86.447-1.68.867-2.484 1.307a.583.583 0 0 1-.135.06s-.041 0-.15-.047a6051.057 6051.057 0 0 0-13.892-5.847l-3.296-1.387.474-.197c4.35-1.82 8.844-3.695 13.25-5.522a.64.64 0 0 1 .25.014c.86.277 1.036.237 1.929.548l2.003.69 1.38-5.475-15.848.075 4.35 1.976-.21.088c-2.536 1.062-5.122 2.145-7.714 3.228V29.566h1.645c.988 0 2.077-.798 2.077-1.786v-6.057c0-.372-.466-.663-.84-.663-.371 0-.797.291-.797.663v5.624a.432.432 0 0 1-.433.433h-1.645V16.289a.678.678 0 0 0-.677-.677.678.678 0 0 0-.676.677v27.022a.433.433 0 0 1-.433.433H34.48a.431.431 0 0 1-.433-.433V32.036a.678.678 0 0 0-1.353 0v11.275a.433.433 0 0 1-.434.433h-2.632a.431.431 0 0 1-.433-.433V16.289a.679.679 0 0 0-.677-.677.679.679 0 0 0-.677.677v11.552l-1.482-.028a.432.432 0 0 1-.433-.433V16.262c0-2.22 1.739-3.641 3.952-3.641h7.187c2.22 0 3.716 1.421 3.716 3.641 0 .372.514.703.886.703s.819-.304.819-.676a5.378 5.378 0 0 0-5.373-5.374H29.77a5.378 5.378 0 0 0-5.373 5.374v11.484c0 .988.798 1.786 1.786 1.786h1.645v10.706c-2.403-1.008-4.798-2.009-7.147-2.998l-.48-.203 4.656-1.969-15.173-.068.725 5.807 2.395-.711c.853-.291 1.354-.582 2.173-.879.128-.048.176-.055.33.013 3.703 1.557 6.41 3.106 10.118 4.649l2.545 1.063-2.802 1.177c-4.845 2.037-9.691 4.067-14.53 6.111-.013-.007-.033-.02-.067-.034-.853-.453-1.712-.9-2.592-1.36l-1.692-.88-.44.65c-.825 1.232-1.651 2.578-2.443 3.884-.778 1.286-1.59 2.613-2.39 3.797L0 59.816l1.807-.142c2.707-.21 5.556-.555 8.31-.88 2.755-.331 5.604-.67 8.304-.879l3.025-.237-2.68-1.415c-.798-.419-1.685-.818-2.544-1.204l-.59-.264.725-.305a8067.99 8067.99 0 0 1 17.08-7.166.717.717 0 0 1 .177.013 7509.339 7509.339 0 0 1 17.08 7.167l.67.284c-.21.095-.42.19-.635.284-.846.379-1.726.772-2.511 1.185l-2.68 1.414 3.018.237c2.734.216 5.59.555 8.35.886 2.749.325 5.584.67 8.278.88l1.807.142-1.002-1.502zM33.356 1.353a3.533 3.533 0 0 1 3.526 3.526 3.533 3.533 0 0 1-3.526 3.526 3.533 3.533 0 0 1-3.526-3.526 3.533 3.533 0 0 1 3.526-3.526m0 8.405a4.885 4.885 0 0 0 4.88-4.879A4.885 4.885 0 0 0 33.355 0a4.884 4.884 0 0 0-4.879 4.879c.007 2.693 2.192 4.879 4.88 4.879"/>
    </g>
</svg>
