<svg width="66.93" height="50.156" viewBox="0 0 66.93 50.156" xmlns="http://www.w3.org/2000/svg">
    <path d="M5.38 14.298c-1.358.98-3.407.933-4.684-.115l-.007-.006c-1.386-1.136-.487-3.556.987-4.618C10.404 3.272 20.976 0 33.476 0 45.978 0 56.463 3.09 65.19 9.377c1.474 1.061 2.46 3.657 1.075 4.793l-.007.007c-1.277 1.048-3.326 1.088-4.685.115-7.51-5.402-17.347-8.674-28.096-8.674-10.756 0-20.586 3.279-28.096 8.68zm27.806 4.848c6.957 0 13.339 2.095 18.3 5.563 1.292.9 3.192.812 4.381-.182 1.353-1.136.555-3.516-.919-4.543-6.098-4.26-13.217-6.314-21.762-6.314s-15.718 2.15-21.816 6.402c-1.474 1.027-2.217 3.32-.865 4.448 1.19.994 3.09 1.082 4.38.183 4.963-3.468 11.338-5.557 18.301-5.557zm0 12.926c3.637 0 6.99 1 9.715 2.69 1.318.818 3.144.744 4.306-.236 1.42-1.197.663-3.475-.953-4.483-3.813-2.373-7.964-3.468-13.068-3.468-5.097 0-9.214 1.008-13.027 3.38-1.616 1.008-2.414 3.38-.987 4.577 1.163.974 2.981 1.055 4.306.237 2.718-1.697 6.071-2.697 9.708-2.697zm.088 8.132a4.976 4.976 0 1 0 4.976 4.976 4.971 4.971 0 0 0-4.976-4.976z" fill="currentColor" fill-rule="nonzero"/>
</svg>
