<svg width="25.771" height="66.928" viewBox="0 0 25.771 66.928" xmlns="http://www.w3.org/2000/svg">
    <g fill="currentColor" fill-rule="evenodd">
        <path d="M23.62 39.8c0 .26-.21.47-.46.47h-.27l-1.97-17.64c-.06-.58-.6-1-1.18-.94-.6.07-1.02.59-.96 1.17l2.82 23.62H4.19L7 22.86c.06-.58-.37-1.11-.95-1.17-.59-.06-1.12.36-1.19.94L2.9 40.27h-.27c-.27 0-.48-.21-.48-.47V23.98c0-2.98 2.46-5.41 5.48-5.41h10.51c3.02 0 5.48 2.43 5.48 5.41V39.8zm-5.48-23.36H7.63C3.42 16.44 0 19.82 0 23.97v15.82c0 1.43 1.17 2.59 2.62 2.59h.03l-.74 5.04a1.066 1.066 0 0 0 1.07 1.17h1.81v15.75c0 1.43 1.18 2.59 2.62 2.59h3.92c.58 0 1.12-.19 1.55-.51.44.32.97.51 1.56.51h3.92c1.45 0 2.63-1.16 2.63-2.59v-4.92c0-.59-.48-1.06-1.08-1.06-.59 0-1.07.47-1.07 1.06v4.92c0 .26-.22.47-.48.47h-3.92c-.26 0-.48-.21-.48-.47v-13.9c0-.59-.48-1.06-1.07-1.06-.6 0-1.08.47-1.08 1.06v13.91c0 .26-.21.47-.48.47H7.42c-.27 0-.48-.22-.48-.47V48.6h11.88v3.04c0 .59.48 1.06 1.08 1.06.59 0 1.07-.47 1.07-1.06V48.6h1.82c.3 0 .59-.13.79-.35.21-.22.31-.53.27-.83l-.74-5.03h.03c1.45 0 2.63-1.16 2.63-2.59V23.98c0-4.15-3.42-7.52-7.63-7.54zM12.88 12.42a5.22 5.22 0 0 1-5.21-5.21c0-2.88 2.34-5.22 5.21-5.22s5.21 2.34 5.21 5.22a5.22 5.22 0 0 1-5.21 5.21m0-12.42C8.91 0 5.67 3.23 5.67 7.21c0 3.97 3.24 7.2 7.21 7.2 3.98 0 7.21-3.23 7.21-7.2 0-3.98-3.23-7.21-7.21-7.21"/>
        <path d="M21.196 55.517a1.23 1.23 0 1 1-2.46 0 1.23 1.23 0 0 1 2.46 0"/>
    </g>
</svg>
