<svg width="68.535" height="54.475" viewBox="0 0 68.535 54.475" xmlns="http://www.w3.org/2000/svg">
    <g fill="currentColor" fill-rule="evenodd">
        <path d="M20.419 38.574c-.706.007-1.295.623-1.295 1.336 0 .734.561 1.302 1.295 1.31.72.006 1.329-.576 1.35-1.282.021-.692-.658-1.378-1.35-1.364"/>
        <path d="M59.048 20.537c-1.558 1.58-4.272.914-4.895-1.219-.25-.844-.243-1.724-.049-2.582.319-1.427 1.627-2.396 3.033-2.292A2.979 2.979 0 0 1 59.9 17.22c.013.243.007.492.007.741.076.984-.153 1.863-.859 2.576zM46.827 31.394c-.478-3.62-3.628-6.419-7.422-6.398l-10.269.055c-3.815.021-6.951 2.881-7.367 6.53a16.995 16.995 0 0 1-4.681-11.674c-.048-9.472 7.465-17.123 17.006-17.199 9.451-.069 17.185 7.422 17.234 17.033a16.99 16.99 0 0 1-4.501 11.653zm-6.411 4.37-.354-2.833a1.04 1.04 0 0 1 .921-1.149 1.05 1.05 0 0 1 1.164.907l.256 2.167a15.64 15.64 0 0 1-1.987.907zm-12.138.103a16.487 16.487 0 0 1-1.994-.866l.235-2.222a1.047 1.047 0 0 1 1.149-.92c.575.061.998.566.935 1.134l-.325 2.874zM14.284 19.415a2.915 2.915 0 0 1-3.074 2.237 2.986 2.986 0 0 1-2.707-2.694c-.028-.263-.007-.533-.007-.678-.069-.997.076-1.814.665-2.507.741-.865 1.675-1.253 2.797-1.03 1.17.227 1.966.933 2.292 2.083a5.05 5.05 0 0 1 .034 2.59zm54.243 10.926a8.726 8.726 0 0 0-.402-2.832c-.699-2.236-2.084-3.918-4.126-5.026-.714-.388-1.496-.637-2.278-.956.145-.29.29-.588.429-.886.492-1.094.45-2.257.408-3.42-.145-4.224-4.708-6.8-8.391-4.688-.416.242-.797.547-1.198.824C49.701 4.273 41.371-.02 34.129 0c-6.987.021-15.503 4.217-18.764 13.578-.18-.138-.361-.263-.534-.4-3.012-2.348-7.581-.929-8.731 2.706-.311.983-.277 1.98-.27 2.977.007.914.256 1.752.686 2.555.076.146.131.305.201.464-.52.173-1.005.291-1.441.492C2.673 23.563.949 25.515.263 28.326c-.069.298-.173.59-.263.88l.021 4.286c.492.755 1.212.928 2.07.9 1.897-.049 3.795-.028 5.685-.049.311 0 .623-.034.921-.11.588-.153.969-.707.941-1.302a1.278 1.278 0 0 0-1.045-1.219 5.203 5.203 0 0 0-.866-.062c-1.426 0-2.852.014-4.286.021-.242 0-.477 0-.768.007 0-.478-.021-.88-.007-1.28.055-1.296.367-2.508 1.149-3.567 1.261-1.71 2.998-2.458 5.076-2.486 1.828-.027 3.655-.02 5.49-.027.173 0 .347.027.478.034.381 1.094.686 2.174 1.115 3.192.443 1.04 1.011 2.022 1.544 3.067-.145.16-.312.34-.485.513-4.189 4.237-8.378 8.468-12.567 12.705-.658.665-1.329 1.323-1.973 2.001-1.191 1.247-1.752 2.701-1.482 4.452.367 2.306 2.368 4.106 4.701 4.19 1.621.062 2.936-.589 4.051-1.725 2.603-2.638 5.207-5.262 7.81-7.9.173-.173.34-.36.464-.568a1.275 1.275 0 0 0-.194-1.648c-.464-.443-1.101-.498-1.654-.117a4.612 4.612 0 0 0-.651.574 4156.718 4156.718 0 0 0-7.534 7.61c-.173.173-.339.353-.526.512-.748.623-1.585.783-2.493.381-.879-.395-1.322-1.115-1.37-2.056-.035-.755.311-1.364.844-1.897 4.792-4.833 9.569-9.673 14.361-14.506.117-.118.256-.215.374-.305 5.511 5.768 12.13 8.122 19.871 6.162 7.734-1.966 12.422-7.2 14.527-14.838.09-.014.18-.034.263-.034 1.966-.014 3.926-.049 5.892-.02 1.316.013 2.548.345 3.628 1.148 1.662 1.233 2.41 2.922 2.479 4.951.014.367.007.741.007 1.156-.36 0-.623 0-.886.007-3.684.021-7.36.035-11.044.063-.311 0-.623.013-.928.07a1.264 1.264 0 0 0-1.045 1.21c-.028.596.36 1.157.942 1.302.297.076.616.104.92.104 4.286-.014 8.565-.042 12.851-.062.201 0 .402 0 .603-.028.831-.138 1.246-.616 1.26-1.46.007-.749-.021-1.483-.007-2.217z"/>
        <path d="M34.274 8.946a7.048 7.048 0 0 0-7.042 7.042c0 3.884 3.165 7.041 7.042 7.041a7.048 7.048 0 0 0 7.042-7.04 7.048 7.048 0 0 0-7.042-7.043"/>
    </g>
</svg>
