<svg width="75" height="52.465" viewBox="0 0 75 52.465" xmlns="http://www.w3.org/2000/svg">
    <g fill="currentColor" fill-rule="evenodd">
        <path d="m63.48 37.16 4.114 3.962-4.114 5.016V37.16zm-6.864-8.546a4.957 4.957 0 0 1-4.955-4.955 4.956 4.956 0 0 1 9.91 0 4.962 4.962 0 0 1-4.955 4.955zm-19.175 0a4.957 4.957 0 0 1-4.955-4.955 4.956 4.956 0 0 1 9.91 0 4.962 4.962 0 0 1-4.955 4.955zm-19.031 0a4.957 4.957 0 0 1-4.955-4.955 4.955 4.955 0 0 1 9.909 0 4.96 4.96 0 0 1-4.954 4.955zM7.409 41.13l4.114-3.962v8.97L7.409 41.13zm67.367-1.046L64.6 27.447a.938.938 0 0 0-.75-.363h-1.288a6.853 6.853 0 0 0 .925-3.432c0-3.796-3.091-6.887-6.887-6.887-3.796 0-6.887 3.091-6.887 6.887 0 .19.015.371.03.553H44.29c.015-.182.03-.364.03-.553 0-3.796-3.091-6.887-6.887-6.887-3.795 0-6.886 3.091-6.886 6.887 0 .19.015.371.03.553h-5.32a6.25 6.25 0 0 0 .032-.553c0-3.796-3.091-6.887-6.887-6.887-3.796 0-6.887 3.091-6.887 6.887 0 1.25.34 2.417.925 3.432h-1.303a.973.973 0 0 0-.751.363L.212 40.084a.966.966 0 0 0-.008 1.197l7.78 10.008a3.039 3.039 0 0 0 2.372 1.16 3.002 3.002 0 0 0 2.947-3.584.929.929 0 0 0 .152-.515V34.88a.968.968 0 0 0-.591-.887.973.973 0 0 0-1.046.197l-6.386 6.16a.969.969 0 0 0-.076 1.31l5.834 7.122a1.067 1.067 0 0 1-.091 1.454 1.081 1.081 0 0 1-1.584-.12l-7.318-9.418 9.417-11.682h2.492a6.861 6.861 0 0 0 8.91-.25l4.758 3.242-3.455.871a.98.98 0 0 0-.727.94v17.183c0 .53.432.962.962.962s.962-.432.962-.962V34.577l4.22-1.069v5.432c0 .531.432.963.962.963s.962-.432.962-.963v-6.098a.965.965 0 0 0-.424-.796l-6.993-4.758c.22-.363.409-.742.568-1.144h6.213c1 2.57 3.492 4.402 6.417 4.402 2.924 0 5.417-1.833 6.417-4.402h6.34c.16.394.35.773.569 1.13l-7 4.772a.954.954 0 0 0-.424.796v18.152a.963.963 0 0 0 1.924 0V33.508l4.22 1.07v16.424c0 .53.432.962.962.962s.962-.432.962-.962V33.827a.958.958 0 0 0-.727-.94l-3.455-.87 4.773-3.25a6.872 6.872 0 0 0 4.606 1.78 6.865 6.865 0 0 0 4.31-1.524h2.479l9.409 11.675-7.311 9.432a1.055 1.055 0 0 1-.765.41 1.052 1.052 0 0 1-.818-.288 1.078 1.078 0 0 1-.091-1.463l5.834-7.114a.969.969 0 0 0-.076-1.31l-6.387-6.16a.958.958 0 0 0-1.045-.197.968.968 0 0 0-.591.887V48.98c0 .151.03.288.09.416a3.006 3.006 0 0 0 .94 2.251c.553.53 1.296.818 2.06.818.076 0 .152 0 .228-.008a2.982 2.982 0 0 0 2.144-1.15l7.78-10.025a.949.949 0 0 0-.022-1.197z"/>
        <path d="M30.698 41.054c-.697 0-1.265.569-1.265 1.265 0 .697.568 1.265 1.265 1.265s1.265-.568 1.265-1.265c0-.704-.568-1.265-1.265-1.265M25.97 11.886c.19.19.44.28.682.28a.962.962 0 0 0 .682-1.644L23.121 6.31a.96.96 0 0 0-1.363 0 .96.96 0 0 0 0 1.364l4.212 4.212zM47.926 12.167c.25 0 .492-.091.682-.28l4.212-4.213a.96.96 0 0 0 0-1.363.96.96 0 0 0-1.364 0l-4.212 4.212a.96.96 0 0 0 .682 1.644M37.448 10c.53 0 .962-.432.962-.962V.962a.963.963 0 0 0-1.924 0V9.03a.96.96 0 0 0 .962.97M30.781 44.964a.964.964 0 0 0-.962.962v5.069c0 .53.432.962.962.962s.962-.432.962-.962v-5.07a.964.964 0 0 0-.962-.961"/>
    </g>
</svg>
